<svg width="366" height="35" viewBox="0 0 366 35" fill="none" xmlns="http://www.w3.org/2000/svg">
<path d="M55.612 26H59.933L64.66 12.312L69.358 26H73.65L79.682 6.077H75.042L71.359 19.446L66.951 6.077H62.311L57.903 19.446L54.22 6.077H49.58L55.612 26ZM87.4066 26.348C91.8436 26.348 95.5556 22.752 95.5556 18.489C95.5556 14.226 91.8436 10.659 87.4066 10.659C82.9406 10.659 79.1996 14.226 79.1996 18.489C79.1996 22.752 82.9406 26.348 87.4066 26.348ZM87.4066 22.781C85.1446 22.781 83.2596 20.809 83.2596 18.489C83.2596 16.169 85.1446 14.226 87.4066 14.226C89.6396 14.226 91.5246 16.169 91.5246 18.489C91.5246 20.809 89.6396 22.781 87.4066 22.781ZM102.075 13.791V11.007H97.8405V26H102.075V18.837C102.075 16.024 104.076 14.226 107.208 14.226V10.659C104.917 10.659 103.061 11.848 102.075 13.791ZM123.657 11.007H118.785L113.217 17.474V5.729H108.983V26H113.217V22.317L115.015 20.374L118.727 26H123.599L117.828 17.648L123.657 11.007ZM130.683 26.348C134.366 26.348 136.773 24.463 136.773 21.505C136.773 18.228 133.902 17.358 131.321 16.691C129.291 16.14 128.682 15.908 128.682 15.096C128.682 14.574 129.407 14.197 130.451 14.197C131.727 14.197 133.293 14.69 134.656 15.531L136.367 12.515C134.714 11.413 132.597 10.659 130.451 10.659C126.913 10.659 124.564 12.689 124.593 15.531C124.622 18.489 127 19.33 130.074 20.084C131.611 20.49 132.713 20.78 132.713 21.708C132.713 22.375 131.901 22.839 130.77 22.839C128.769 22.839 127.087 22.114 125.753 21.157L123.926 24.086C125.724 25.536 128.276 26.348 130.683 26.348ZM146.922 22.288C146.632 22.578 146.052 22.781 145.472 22.781C144.689 22.781 144.051 22.085 144.051 21.099V14.429H147.299V11.007H144.051V6.889H139.991V11.007H137.932V14.429H139.991V21.766C139.991 24.463 141.847 26.348 144.486 26.348C145.704 26.348 147.067 25.826 147.937 25.043L146.922 22.288ZM156.708 10.659C154.62 10.659 152.561 11.239 150.444 12.312L151.865 15.125C153.054 14.516 154.359 14.052 155.751 14.052C158.216 14.052 159.202 15.444 159.202 17.039V17.329C157.926 16.836 156.592 16.575 155.374 16.575C151.894 16.575 149.139 18.605 149.139 21.563C149.139 24.434 151.604 26.348 154.794 26.348C156.418 26.348 158.129 25.71 159.202 24.492V26H163.291V17.039C163.291 13.124 160.623 10.659 156.708 10.659ZM155.751 23.419C154.301 23.419 153.228 22.665 153.228 21.447C153.228 20.229 154.446 19.33 155.983 19.33C157.143 19.33 158.245 19.533 159.202 19.881V21.273C158.912 22.665 157.375 23.419 155.751 23.419ZM174.167 22.288C173.877 22.578 173.297 22.781 172.717 22.781C171.934 22.781 171.296 22.085 171.296 21.099V14.429H174.544V11.007H171.296V6.889H167.236V11.007H165.177V14.429H167.236V21.766C167.236 24.463 169.092 26.348 171.731 26.348C172.949 26.348 174.312 25.826 175.182 25.043L174.167 22.288ZM179.371 8.948C180.618 8.948 181.633 7.904 181.633 6.628C181.633 5.439 180.618 4.366 179.371 4.366C178.066 4.366 177.051 5.439 177.051 6.628C177.051 7.904 178.066 8.948 179.371 8.948ZM177.225 26H181.459V11.007H177.225V26ZM191.941 26.348C196.378 26.348 200.09 22.752 200.09 18.489C200.09 14.226 196.378 10.659 191.941 10.659C187.475 10.659 183.734 14.226 183.734 18.489C183.734 22.752 187.475 26.348 191.941 26.348ZM191.941 22.781C189.679 22.781 187.794 20.809 187.794 18.489C187.794 16.169 189.679 14.226 191.941 14.226C194.174 14.226 196.059 16.169 196.059 18.489C196.059 20.809 194.174 22.781 191.941 22.781ZM211.046 10.659C209.103 10.659 207.421 11.529 206.522 12.892V11.007H202.288V26H206.522V17.039L206.551 17.126C206.551 15.502 207.914 14.226 209.683 14.226C211.365 14.226 212.525 15.502 212.525 17.358V26H216.614V16.459C216.614 13.066 214.294 10.659 211.046 10.659Z" fill="black"/>
<mask id="mask0_131_13028" style="mask-type:alpha" maskUnits="userSpaceOnUse" x="0" y="0" width="35" height="35">
<path d="M0 16.1858C0 7.24662 7.24662 0 16.1858 0H17.9662C26.9054 0 34.152 7.24662 34.152 16.1858V17.9662C34.152 26.9054 26.9054 34.152 17.9662 34.152H16.1858C7.24662 34.152 0 26.9054 0 17.9662V16.1858Z" fill="#3F21DB"/>
</mask>
<g mask="url(#mask0_131_13028)">
<path fill-rule="evenodd" clip-rule="evenodd" d="M6.98947 15.3895C11.5394 15.3895 15.2279 11.701 15.2279 7.15109C15.2279 4.45806 13.9357 2.06683 11.9376 0.563565C13.2917 0.196136 14.7163 6.04621e-05 16.1867 6.04621e-05H17.9672C18.0596 6.04621e-05 18.1519 0.000835965 18.244 0.00237956C19.5589 2.0683 20.3207 4.52073 20.3207 7.15109C20.3207 14.5137 14.3521 20.4824 6.98947 20.4824C4.43056 20.4824 2.04004 19.7614 0.00995954 18.5115C0.00396853 18.3305 0.000949257 18.1487 0.000949257 17.9663V16.1858C0.000949257 14.8161 0.171086 13.4862 0.491378 12.2159C1.99908 14.1475 4.34923 15.3895 6.98947 15.3895ZM0.00995954 18.5115C0.297483 27.1983 7.43003 34.1521 16.1867 34.1521H17.9672C26.9063 34.1521 34.153 26.9054 34.153 17.9663V16.1858C34.153 7.33913 27.0554 0.150124 18.244 0.00237956C15.8782 -3.71443 11.7218 -6.18018 6.98947 -6.18018C-0.373187 -6.18018 -6.3418 -0.211565 -6.3418 7.15109C-6.3418 11.9548 -3.80103 16.1652 0.00995954 18.5115ZM0.491378 12.2159C-0.599166 10.8188 -1.24895 9.06081 -1.24895 7.15109C-1.24895 2.60113 2.43951 -1.08733 6.98947 -1.08733C8.84639 -1.08733 10.5598 -0.472977 11.9376 0.563565C6.321 2.0876 1.91758 6.55974 0.491378 12.2159ZM20.0441 23.4444C20.5041 23.9045 21.071 24.1345 21.7446 24.1345C22.4183 24.1345 22.9851 23.9045 23.4452 23.4444C23.9052 22.9844 24.1353 22.4093 24.1353 21.7192C24.1353 21.0127 23.9052 20.4458 23.4452 20.0187C22.9851 19.575 22.4183 19.3532 21.7446 19.3532C21.071 19.3532 20.5041 19.575 20.0441 20.0187C19.584 20.4458 19.354 21.0127 19.354 21.7192C19.354 22.4093 19.584 22.9844 20.0441 23.4444Z" fill="white"/>
<path fill-rule="evenodd" clip-rule="evenodd" d="M6.98947 15.3895C11.5394 15.3895 15.2279 11.701 15.2279 7.15109C15.2279 4.45806 13.9357 2.06683 11.9376 0.563565C13.2917 0.196136 14.7163 6.04621e-05 16.1867 6.04621e-05H17.9672C18.0596 6.04621e-05 18.1519 0.000835965 18.244 0.00237956C19.5589 2.0683 20.3207 4.52073 20.3207 7.15109C20.3207 14.5137 14.3521 20.4824 6.98947 20.4824C4.43056 20.4824 2.04004 19.7614 0.00995954 18.5115C0.00396853 18.3305 0.000949257 18.1487 0.000949257 17.9663V16.1858C0.000949257 14.8161 0.171086 13.4862 0.491378 12.2159C1.99908 14.1475 4.34923 15.3895 6.98947 15.3895ZM0.00995954 18.5115C0.297483 27.1983 7.43003 34.1521 16.1867 34.1521H17.9672C26.9063 34.1521 34.153 26.9054 34.153 17.9663V16.1858C34.153 7.33913 27.0554 0.150124 18.244 0.00237956C15.8782 -3.71443 11.7218 -6.18018 6.98947 -6.18018C-0.373187 -6.18018 -6.3418 -0.211565 -6.3418 7.15109C-6.3418 11.9548 -3.80103 16.1652 0.00995954 18.5115ZM0.491378 12.2159C-0.599166 10.8188 -1.24895 9.06081 -1.24895 7.15109C-1.24895 2.60113 2.43951 -1.08733 6.98947 -1.08733C8.84639 -1.08733 10.5598 -0.472977 11.9376 0.563565C6.321 2.0876 1.91758 6.55974 0.491378 12.2159ZM20.0441 23.4444C20.5041 23.9045 21.071 24.1345 21.7446 24.1345C22.4183 24.1345 22.9851 23.9045 23.4452 23.4444C23.9052 22.9844 24.1353 22.4093 24.1353 21.7192C24.1353 21.0127 23.9052 20.4458 23.4452 20.0187C22.9851 19.575 22.4183 19.3532 21.7446 19.3532C21.071 19.3532 20.5041 19.575 20.0441 20.0187C19.584 20.4458 19.354 21.0127 19.354 21.7192C19.354 22.4093 19.584 22.9844 20.0441 23.4444Z" fill="url(#paint0_linear_131_13028)"/>
</g>
<path d="M259.291 23H260.335V15.257H267.672C271.703 15.257 274.574 12.734 274.574 9.167C274.574 5.6 271.703 3.077 267.672 3.077H259.291V23ZM260.335 14.213V4.121H267.469C271.007 4.121 273.53 6.209 273.53 9.167C273.53 12.125 271.007 14.213 267.469 14.213H260.335ZM283.003 7.659C281.437 7.659 279.494 8.152 277.841 9.109L278.276 10.008C279.668 9.167 281.35 8.703 282.858 8.703C286.425 8.703 287.73 11.342 287.73 13.865V14.619C286.048 14.01 284.076 13.575 282.423 13.575C278.798 13.575 276.391 15.634 276.391 18.534C276.391 21.376 278.682 23.348 281.785 23.348C283.96 23.348 286.57 22.362 287.73 20.564V23H288.774V13.865C288.774 10.24 286.599 7.659 283.003 7.659ZM281.901 22.304C279.407 22.304 277.435 20.738 277.435 18.505C277.435 16.243 279.494 14.619 282.539 14.619C284.279 14.619 286.193 15.141 287.73 15.663V18.302C287.15 20.999 284.192 22.304 281.901 22.304ZM293.87 11.429V8.007H292.826V23H293.87V14.619C293.87 11.168 296.277 8.703 299.67 8.703V7.659C296.915 7.659 294.508 9.312 293.87 11.429ZM308.883 21.55C308.274 22.014 307.491 22.304 306.737 22.304C305.519 22.304 304.649 21.144 304.649 19.52V9.051H308.593V8.007H304.649V3.889H303.605V8.007H300.966V9.051H303.605V19.52C303.605 21.753 304.881 23.348 306.679 23.348C307.665 23.348 308.68 23 309.463 22.391L308.883 21.55ZM317.97 7.659C315.621 7.659 313.794 8.819 313.04 10.617V8.007H311.996V23H313.04V13.43C313.04 10.675 315.012 8.703 317.825 8.703C320.58 8.703 322.523 10.617 322.523 13.314V23H323.567V13.169C323.567 9.95 321.247 7.659 317.97 7.659ZM333.942 22.304C330.694 22.304 327.881 19.462 327.649 15.982H341.076C341.076 10.994 338.234 7.659 333.942 7.659C329.824 7.659 326.576 11.081 326.576 15.46C326.576 19.752 329.94 23.348 333.942 23.348C336.349 23.348 338.959 22.391 340.206 21.028L339.481 20.245C338.234 21.608 336.088 22.304 333.942 22.304ZM333.942 8.703C337.48 8.703 339.858 11.197 340.032 14.938H327.649C327.881 11.429 330.578 8.703 333.942 8.703ZM345.302 11.429V8.007H344.258V23H345.302V14.619C345.302 11.168 347.709 8.703 351.102 8.703V7.659C348.347 7.659 345.94 9.312 345.302 11.429ZM358.836 23.348C361.649 23.348 364.027 21.55 364.027 19.404C364.027 17.287 362.635 16.011 359.155 14.909C355.965 13.894 354.689 12.879 354.689 11.371C354.689 9.921 356.487 8.703 358.604 8.703C360.141 8.703 361.881 9.254 363.331 10.153L363.969 9.341C362.345 8.297 360.373 7.659 358.604 7.659C355.907 7.659 353.645 9.399 353.645 11.487C353.645 13.488 355.066 14.735 358.633 15.837C361.736 16.794 362.983 17.838 362.983 19.52C362.983 21.028 361.098 22.304 358.836 22.304C357.067 22.304 355.008 21.55 353.268 20.303L352.63 21.115C354.37 22.507 356.69 23.348 358.836 23.348Z" fill="black"/>
<circle cx="238.5" cy="16.5" r="1.5" fill="black"/>
<defs>
<linearGradient id="paint0_linear_131_13028" x1="3.96647" y1="2.75164" x2="35.5288" y2="34.1521" gradientUnits="userSpaceOnUse">
<stop stop-color="#3F21DB"/>
<stop offset="0.284626" stop-color="#3F21DB" stop-opacity="0.934536"/>
<stop offset="1" stop-color="#3F21DB" stop-opacity="0.77"/>
</linearGradient>
</defs>
</svg>
