<svg width="138" height="31" viewBox="0 0 138 31" fill="none" xmlns="http://www.w3.org/2000/svg">
<path d="M41.876 22.062H44.409L47.18 14.038L49.934 22.062H52.45L55.986 10.383H53.266L51.107 18.22L48.523 10.383H45.803L43.219 18.22L41.06 10.383H38.34L41.876 22.062ZM60.5142 22.266C63.1152 22.266 65.2912 20.158 65.2912 17.659C65.2912 15.16 63.1152 13.069 60.5142 13.069C57.8962 13.069 55.7032 15.16 55.7032 17.659C55.7032 20.158 57.8962 22.266 60.5142 22.266ZM60.5142 20.175C59.1882 20.175 58.0832 19.019 58.0832 17.659C58.0832 16.299 59.1882 15.16 60.5142 15.16C61.8232 15.16 62.9282 16.299 62.9282 17.659C62.9282 19.019 61.8232 20.175 60.5142 20.175ZM69.1127 14.905V13.273H66.6307V22.062H69.1127V17.863C69.1127 16.214 70.2857 15.16 72.1217 15.16V13.069C70.7787 13.069 69.6907 13.766 69.1127 14.905ZM81.7645 13.273H78.9085L75.6445 17.064V10.179H73.1625V22.062H75.6445V19.903L76.6985 18.764L78.8745 22.062H81.7305L78.3475 17.166L81.7645 13.273ZM85.8834 22.266C88.0424 22.266 89.4534 21.161 89.4534 19.427C89.4534 17.506 87.7704 16.996 86.2574 16.605C85.0674 16.282 84.7104 16.146 84.7104 15.67C84.7104 15.364 85.1354 15.143 85.7474 15.143C86.4954 15.143 87.4134 15.432 88.2124 15.925L89.2154 14.157C88.2464 13.511 87.0054 13.069 85.7474 13.069C83.6734 13.069 82.2964 14.259 82.3134 15.925C82.3304 17.659 83.7244 18.152 85.5264 18.594C86.4274 18.832 87.0734 19.002 87.0734 19.546C87.0734 19.937 86.5974 20.209 85.9344 20.209C84.7614 20.209 83.7754 19.784 82.9934 19.223L81.9224 20.94C82.9764 21.79 84.4724 22.266 85.8834 22.266ZM95.4026 19.886C95.2326 20.056 94.8926 20.175 94.5526 20.175C94.0936 20.175 93.7196 19.767 93.7196 19.189V15.279H95.6236V13.273H93.7196V10.859H91.3396V13.273H90.1326V15.279H91.3396V19.58C91.3396 21.161 92.4276 22.266 93.9746 22.266C94.6886 22.266 95.4876 21.96 95.9976 21.501L95.4026 19.886ZM101.139 13.069C99.9151 13.069 98.7081 13.409 97.4671 14.038L98.3001 15.687C98.9971 15.33 99.7621 15.058 100.578 15.058C102.023 15.058 102.601 15.874 102.601 16.809V16.979C101.853 16.69 101.071 16.537 100.357 16.537C98.3171 16.537 96.7021 17.727 96.7021 19.461C96.7021 21.144 98.1471 22.266 100.017 22.266C100.969 22.266 101.972 21.892 102.601 21.178V22.062H104.998V16.809C104.998 14.514 103.434 13.069 101.139 13.069ZM100.578 20.549C99.7281 20.549 99.0991 20.107 99.0991 19.393C99.0991 18.679 99.8131 18.152 100.714 18.152C101.394 18.152 102.04 18.271 102.601 18.475V19.291C102.431 20.107 101.53 20.549 100.578 20.549ZM111.374 19.886C111.204 20.056 110.864 20.175 110.524 20.175C110.065 20.175 109.691 19.767 109.691 19.189V15.279H111.595V13.273H109.691V10.859H107.311V13.273H106.104V15.279H107.311V19.58C107.311 21.161 108.399 22.266 109.946 22.266C110.66 22.266 111.459 21.96 111.969 21.501L111.374 19.886ZM114.424 12.066C115.155 12.066 115.75 11.454 115.75 10.706C115.75 10.009 115.155 9.38001 114.424 9.38001C113.659 9.38001 113.064 10.009 113.064 10.706C113.064 11.454 113.659 12.066 114.424 12.066ZM113.166 22.062H115.648V13.273H113.166V22.062ZM121.793 22.266C124.394 22.266 126.57 20.158 126.57 17.659C126.57 15.16 124.394 13.069 121.793 13.069C119.175 13.069 116.982 15.16 116.982 17.659C116.982 20.158 119.175 22.266 121.793 22.266ZM121.793 20.175C120.467 20.175 119.362 19.019 119.362 17.659C119.362 16.299 120.467 15.16 121.793 15.16C123.102 15.16 124.207 16.299 124.207 17.659C124.207 19.019 123.102 20.175 121.793 20.175ZM132.993 13.069C131.854 13.069 130.868 13.579 130.341 14.378V13.273H127.859V22.062H130.341V16.809L130.358 16.86C130.358 15.908 131.157 15.16 132.194 15.16C133.18 15.16 133.86 15.908 133.86 16.996V22.062H136.257V16.469C136.257 14.48 134.897 13.069 132.993 13.069Z" fill="black"/>
<mask id="mask0_110_12172" style="mask-type:alpha" maskUnits="userSpaceOnUse" x="0" y="0" width="30" height="31">
<path d="M0 15.0076C0 7.15517 6.36562 0.789551 14.218 0.789551H15.782C23.6344 0.789551 30 7.15517 30 15.0076V16.5715C30 24.4239 23.6344 30.7896 15.782 30.7896H14.218C6.36562 30.7896 0 24.4239 0 16.5715V15.0076Z" fill="#3F21DB"/>
</mask>
<g mask="url(#mask0_110_12172)">
<path fill-rule="evenodd" clip-rule="evenodd" d="M6.13824 14.3075C10.135 14.3075 13.3751 11.0674 13.3751 7.07062C13.3751 4.70499 12.24 2.60448 10.4848 1.28398C11.6743 0.961216 12.9257 0.788979 14.2173 0.788979H15.7813C15.8625 0.788979 15.9436 0.78966 16.0245 0.791016C17.1796 2.60577 17.8487 4.76005 17.8487 7.07062C17.8487 13.5382 12.6058 18.7811 6.13824 18.7811C3.89043 18.7811 1.79054 18.1478 0.00727166 17.0499C0.00200901 16.8909 -0.000643196 16.7312 -0.000643196 16.571V15.007C-0.000643196 13.8038 0.148809 12.6355 0.430161 11.5197C1.75456 13.2165 3.819 14.3075 6.13824 14.3075ZM0.00727166 17.0499C0.25984 24.6805 6.52525 30.7889 14.2173 30.7889H15.7813C23.6337 30.7889 29.9993 24.4233 29.9993 16.571V15.007C29.9993 7.2358 23.7647 0.920798 16.0245 0.791016C13.9463 -2.47392 10.2952 -4.63989 6.13824 -4.63989C-0.329293 -4.63989 -5.57227 0.603082 -5.57227 7.07062C-5.57227 11.2903 -3.3404 14.9888 0.00727166 17.0499ZM0.430161 11.5197C-0.527799 10.2924 -1.09859 8.74816 -1.09859 7.07062C-1.09859 3.07383 2.14145 -0.166214 6.13824 -0.166214C7.76941 -0.166214 9.27453 0.373451 10.4848 1.28398C5.55104 2.62273 1.68297 6.55116 0.430161 11.5197ZM17.6057 21.3831C18.0098 21.7872 18.5078 21.9893 19.0995 21.9893C19.6913 21.9893 20.1892 21.7872 20.5933 21.3831C20.9975 20.979 21.1995 20.4738 21.1995 19.8676C21.1995 19.247 20.9975 18.7491 20.5933 18.3738C20.1892 17.9841 19.6913 17.7893 19.0995 17.7893C18.5078 17.7893 18.0098 17.9841 17.6057 18.3738C17.2016 18.7491 16.9995 19.247 16.9995 19.8676C16.9995 20.4738 17.2016 20.979 17.6057 21.3831Z" fill="white"/>
<path fill-rule="evenodd" clip-rule="evenodd" d="M6.13824 14.3075C10.135 14.3075 13.3751 11.0674 13.3751 7.07062C13.3751 4.70499 12.24 2.60448 10.4848 1.28398C11.6743 0.961216 12.9257 0.788979 14.2173 0.788979H15.7813C15.8625 0.788979 15.9436 0.78966 16.0245 0.791016C17.1796 2.60577 17.8487 4.76005 17.8487 7.07062C17.8487 13.5382 12.6058 18.7811 6.13824 18.7811C3.89043 18.7811 1.79054 18.1478 0.00727166 17.0499C0.00200901 16.8909 -0.000643196 16.7312 -0.000643196 16.571V15.007C-0.000643196 13.8038 0.148809 12.6355 0.430161 11.5197C1.75456 13.2165 3.819 14.3075 6.13824 14.3075ZM0.00727166 17.0499C0.25984 24.6805 6.52525 30.7889 14.2173 30.7889H15.7813C23.6337 30.7889 29.9993 24.4233 29.9993 16.571V15.007C29.9993 7.2358 23.7647 0.920798 16.0245 0.791016C13.9463 -2.47392 10.2952 -4.63989 6.13824 -4.63989C-0.329293 -4.63989 -5.57227 0.603082 -5.57227 7.07062C-5.57227 11.2903 -3.3404 14.9888 0.00727166 17.0499ZM0.430161 11.5197C-0.527799 10.2924 -1.09859 8.74816 -1.09859 7.07062C-1.09859 3.07383 2.14145 -0.166214 6.13824 -0.166214C7.76941 -0.166214 9.27453 0.373451 10.4848 1.28398C5.55104 2.62273 1.68297 6.55116 0.430161 11.5197ZM17.6057 21.3831C18.0098 21.7872 18.5078 21.9893 19.0995 21.9893C19.6913 21.9893 20.1892 21.7872 20.5933 21.3831C20.9975 20.979 21.1995 20.4738 21.1995 19.8676C21.1995 19.247 20.9975 18.7491 20.5933 18.3738C20.1892 17.9841 19.6913 17.7893 19.0995 17.7893C18.5078 17.7893 18.0098 17.9841 17.6057 18.3738C17.2016 18.7491 16.9995 19.247 16.9995 19.8676C16.9995 20.4738 17.2016 20.979 17.6057 21.3831Z" fill="url(#paint0_linear_110_12172)"/>
</g>
<defs>
<linearGradient id="paint0_linear_110_12172" x1="3.48276" y1="3.20604" x2="31.2079" y2="30.7889" gradientUnits="userSpaceOnUse">
<stop stop-color="#3F21DB"/>
<stop offset="0.284626" stop-color="#3F21DB" stop-opacity="0.934536"/>
<stop offset="1" stop-color="#3F21DB" stop-opacity="0.77"/>
</linearGradient>
</defs>
</svg>
