<svg width="353" height="35" viewBox="0 0 353 35" fill="none" xmlns="http://www.w3.org/2000/svg">
<mask id="mask0_125_12729" style="mask-type:alpha" maskUnits="userSpaceOnUse" x="0" y="0" width="35" height="35">
<path d="M0 16.1858C0 7.24662 7.24662 0 16.1858 0H17.9662C26.9054 0 34.152 7.24662 34.152 16.1858V17.9662C34.152 26.9054 26.9054 34.152 17.9662 34.152H16.1858C7.24662 34.152 0 26.9054 0 17.9662V16.1858Z" fill="#3F21DB"/>
</mask>
<g mask="url(#mask0_125_12729)">
<path fill-rule="evenodd" clip-rule="evenodd" d="M6.98849 15.3895C11.5384 15.3895 15.2269 11.701 15.2269 7.15109C15.2269 4.45806 13.9348 2.06683 11.9366 0.563565C13.2907 0.196136 14.7153 6.05583e-05 16.1858 6.05583e-05H17.9662C18.0586 6.05583e-05 18.1509 0.000835896 18.243 0.00237942C19.558 2.0683 20.3198 4.52073 20.3198 7.15109C20.3198 14.5137 14.3511 20.4824 6.98849 20.4824C4.42958 20.4824 2.03906 19.7614 0.00898314 18.5115C0.00299215 18.3305 -2.71797e-05 18.1487 -2.71797e-05 17.9663V16.1858C-2.71797e-05 14.8161 0.170109 13.4862 0.490401 12.2159C1.99811 14.1475 4.34826 15.3895 6.98849 15.3895ZM0.00898314 18.5115C0.296507 27.1983 7.42906 34.1521 16.1858 34.1521H17.9662C26.9054 34.1521 34.152 26.9054 34.152 17.9663V16.1858C34.152 7.33913 27.0545 0.150124 18.243 0.00237942C15.8772 -3.71443 11.7208 -6.18018 6.98849 -6.18018C-0.374163 -6.18018 -6.34277 -0.211565 -6.34277 7.15109C-6.34277 11.9548 -3.80201 16.1652 0.00898314 18.5115ZM0.490401 12.2159C-0.600142 10.8188 -1.24993 9.06081 -1.24993 7.15109C-1.24993 2.60113 2.43854 -1.08733 6.98849 -1.08733C8.84542 -1.08733 10.5588 -0.472977 11.9366 0.563565C6.32002 2.0876 1.9166 6.55974 0.490401 12.2159ZM20.0431 23.4444C20.5031 23.9045 21.07 24.1345 21.7436 24.1345C22.4173 24.1345 22.9841 23.9045 23.4442 23.4444C23.9042 22.9844 24.1343 22.4093 24.1343 21.7192C24.1343 21.0127 23.9042 20.4458 23.4442 20.0187C22.9841 19.575 22.4173 19.3532 21.7436 19.3532C21.07 19.3532 20.5031 19.575 20.0431 20.0187C19.583 20.4458 19.353 21.0127 19.353 21.7192C19.353 22.4093 19.583 22.9844 20.0431 23.4444Z" fill="white"/>
<path fill-rule="evenodd" clip-rule="evenodd" d="M6.98849 15.3895C11.5384 15.3895 15.2269 11.701 15.2269 7.15109C15.2269 4.45806 13.9348 2.06683 11.9366 0.563565C13.2907 0.196136 14.7153 6.05583e-05 16.1858 6.05583e-05H17.9662C18.0586 6.05583e-05 18.1509 0.000835896 18.243 0.00237942C19.558 2.0683 20.3198 4.52073 20.3198 7.15109C20.3198 14.5137 14.3511 20.4824 6.98849 20.4824C4.42958 20.4824 2.03906 19.7614 0.00898314 18.5115C0.00299215 18.3305 -2.71797e-05 18.1487 -2.71797e-05 17.9663V16.1858C-2.71797e-05 14.8161 0.170109 13.4862 0.490401 12.2159C1.99811 14.1475 4.34826 15.3895 6.98849 15.3895ZM0.00898314 18.5115C0.296507 27.1983 7.42906 34.1521 16.1858 34.1521H17.9662C26.9054 34.1521 34.152 26.9054 34.152 17.9663V16.1858C34.152 7.33913 27.0545 0.150124 18.243 0.00237942C15.8772 -3.71443 11.7208 -6.18018 6.98849 -6.18018C-0.374163 -6.18018 -6.34277 -0.211565 -6.34277 7.15109C-6.34277 11.9548 -3.80201 16.1652 0.00898314 18.5115ZM0.490401 12.2159C-0.600142 10.8188 -1.24993 9.06081 -1.24993 7.15109C-1.24993 2.60113 2.43854 -1.08733 6.98849 -1.08733C8.84542 -1.08733 10.5588 -0.472977 11.9366 0.563565C6.32002 2.0876 1.9166 6.55974 0.490401 12.2159ZM20.0431 23.4444C20.5031 23.9045 21.07 24.1345 21.7436 24.1345C22.4173 24.1345 22.9841 23.9045 23.4442 23.4444C23.9042 22.9844 24.1343 22.4093 24.1343 21.7192C24.1343 21.0127 23.9042 20.4458 23.4442 20.0187C22.9841 19.575 22.4173 19.3532 21.7436 19.3532C21.07 19.3532 20.5031 19.575 20.0431 20.0187C19.583 20.4458 19.353 21.0127 19.353 21.7192C19.353 22.4093 19.583 22.9844 20.0431 23.4444Z" fill="url(#paint0_linear_125_12729)"/>
</g>
<path d="M55.612 27H59.933L64.66 13.312L69.358 27H73.65L79.682 7.077H75.042L71.359 20.446L66.951 7.077H62.311L57.903 20.446L54.22 7.077H49.58L55.612 27ZM87.4066 27.348C91.8436 27.348 95.5556 23.752 95.5556 19.489C95.5556 15.226 91.8436 11.659 87.4066 11.659C82.9406 11.659 79.1996 15.226 79.1996 19.489C79.1996 23.752 82.9406 27.348 87.4066 27.348ZM87.4066 23.781C85.1446 23.781 83.2596 21.809 83.2596 19.489C83.2596 17.169 85.1446 15.226 87.4066 15.226C89.6396 15.226 91.5246 17.169 91.5246 19.489C91.5246 21.809 89.6396 23.781 87.4066 23.781ZM102.075 14.791V12.007H97.8405V27H102.075V19.837C102.075 17.024 104.076 15.226 107.208 15.226V11.659C104.917 11.659 103.061 12.848 102.075 14.791ZM123.657 12.007H118.785L113.217 18.474V6.729H108.983V27H113.217V23.317L115.015 21.374L118.727 27H123.599L117.828 18.648L123.657 12.007ZM130.683 27.348C134.366 27.348 136.773 25.463 136.773 22.505C136.773 19.228 133.902 18.358 131.321 17.691C129.291 17.14 128.682 16.908 128.682 16.096C128.682 15.574 129.407 15.197 130.451 15.197C131.727 15.197 133.293 15.69 134.656 16.531L136.367 13.515C134.714 12.413 132.597 11.659 130.451 11.659C126.913 11.659 124.564 13.689 124.593 16.531C124.622 19.489 127 20.33 130.074 21.084C131.611 21.49 132.713 21.78 132.713 22.708C132.713 23.375 131.901 23.839 130.77 23.839C128.769 23.839 127.087 23.114 125.753 22.157L123.926 25.086C125.724 26.536 128.276 27.348 130.683 27.348ZM146.922 23.288C146.632 23.578 146.052 23.781 145.472 23.781C144.689 23.781 144.051 23.085 144.051 22.099V15.429H147.299V12.007H144.051V7.889H139.991V12.007H137.932V15.429H139.991V22.766C139.991 25.463 141.847 27.348 144.486 27.348C145.704 27.348 147.067 26.826 147.937 26.043L146.922 23.288ZM156.708 11.659C154.62 11.659 152.561 12.239 150.444 13.312L151.865 16.125C153.054 15.516 154.359 15.052 155.751 15.052C158.216 15.052 159.202 16.444 159.202 18.039V18.329C157.926 17.836 156.592 17.575 155.374 17.575C151.894 17.575 149.139 19.605 149.139 22.563C149.139 25.434 151.604 27.348 154.794 27.348C156.418 27.348 158.129 26.71 159.202 25.492V27H163.291V18.039C163.291 14.124 160.623 11.659 156.708 11.659ZM155.751 24.419C154.301 24.419 153.228 23.665 153.228 22.447C153.228 21.229 154.446 20.33 155.983 20.33C157.143 20.33 158.245 20.533 159.202 20.881V22.273C158.912 23.665 157.375 24.419 155.751 24.419ZM174.167 23.288C173.877 23.578 173.297 23.781 172.717 23.781C171.934 23.781 171.296 23.085 171.296 22.099V15.429H174.544V12.007H171.296V7.889H167.236V12.007H165.177V15.429H167.236V22.766C167.236 25.463 169.092 27.348 171.731 27.348C172.949 27.348 174.312 26.826 175.182 26.043L174.167 23.288ZM179.371 9.948C180.618 9.948 181.633 8.904 181.633 7.628C181.633 6.439 180.618 5.366 179.371 5.366C178.066 5.366 177.051 6.439 177.051 7.628C177.051 8.904 178.066 9.948 179.371 9.948ZM177.225 27H181.459V12.007H177.225V27ZM191.941 27.348C196.378 27.348 200.09 23.752 200.09 19.489C200.09 15.226 196.378 11.659 191.941 11.659C187.475 11.659 183.734 15.226 183.734 19.489C183.734 23.752 187.475 27.348 191.941 27.348ZM191.941 23.781C189.679 23.781 187.794 21.809 187.794 19.489C187.794 17.169 189.679 15.226 191.941 15.226C194.174 15.226 196.059 17.169 196.059 19.489C196.059 21.809 194.174 23.781 191.941 23.781ZM211.046 11.659C209.103 11.659 207.421 12.529 206.522 13.892V12.007H202.288V27H206.522V18.039L206.551 18.126C206.551 16.502 207.914 15.226 209.683 15.226C211.365 15.226 212.525 16.502 212.525 18.358V27H216.614V17.459C216.614 14.066 214.294 11.659 211.046 11.659Z" fill="black"/>
<path d="M267.193 26.319C271.137 26.319 273.921 24.057 273.921 20.867C273.921 18.083 272.036 16.517 267.367 15.415C263.075 14.371 261.364 13.211 261.364 11.297C261.364 8.629 263.539 6.744 266.642 6.744C268.962 6.744 271.224 7.701 272.935 9.354L273.573 8.542C271.63 6.744 269.136 5.7 266.7 5.7C262.959 5.7 260.32 8.049 260.32 11.384C260.32 13.878 262.176 15.299 266.845 16.372C271.166 17.387 272.877 18.692 272.877 20.954C272.877 23.477 270.528 25.275 267.222 25.275C264.496 25.275 261.799 24.173 259.972 22.346L259.334 23.158C261.364 25.159 264.264 26.319 267.193 26.319ZM283.884 24.55C283.275 25.014 282.492 25.304 281.738 25.304C280.52 25.304 279.65 24.144 279.65 22.52V12.051H283.594V11.007H279.65V6.889H278.606V11.007H275.967V12.051H278.606V22.52C278.606 24.753 279.882 26.348 281.68 26.348C282.666 26.348 283.681 26 284.464 25.391L283.884 24.55ZM292.826 10.659C291.26 10.659 289.317 11.152 287.664 12.109L288.099 13.008C289.491 12.167 291.173 11.703 292.681 11.703C296.248 11.703 297.553 14.342 297.553 16.865V17.619C295.871 17.01 293.899 16.575 292.246 16.575C288.621 16.575 286.214 18.634 286.214 21.534C286.214 24.376 288.505 26.348 291.608 26.348C293.783 26.348 296.393 25.362 297.553 23.564V26H298.597V16.865C298.597 13.24 296.422 10.659 292.826 10.659ZM291.724 25.304C289.23 25.304 287.258 23.738 287.258 21.505C287.258 19.243 289.317 17.619 292.362 17.619C294.102 17.619 296.016 18.141 297.553 18.663V21.302C296.973 23.999 294.015 25.304 291.724 25.304ZM303.692 14.429V11.007H302.648V26H303.692V17.619C303.692 14.168 306.099 11.703 309.492 11.703V10.659C306.737 10.659 304.33 12.312 303.692 14.429ZM318.705 24.55C318.096 25.014 317.313 25.304 316.559 25.304C315.341 25.304 314.471 24.144 314.471 22.52V12.051H318.415V11.007H314.471V6.889H313.427V11.007H310.788V12.051H313.427V22.52C313.427 24.753 314.703 26.348 316.501 26.348C317.487 26.348 318.502 26 319.285 25.391L318.705 24.55ZM332.316 11.007V20.577C332.316 23.332 330.344 25.304 327.531 25.304C324.776 25.304 322.833 23.39 322.833 20.693V11.007H321.789V20.838C321.789 24.057 324.109 26.348 327.386 26.348C329.735 26.348 331.562 25.188 332.316 23.39V26H333.36V11.007H332.316ZM344.373 10.659C341.763 10.659 339.646 11.993 338.457 14.139V11.007H337.413V30.988H338.457V22.868C339.646 25.014 341.763 26.348 344.373 26.348C348.027 26.348 351.101 22.752 351.101 18.489C351.101 14.226 348.027 10.659 344.373 10.659ZM344.17 25.304C340.835 25.304 338.457 22.491 338.457 18.489C338.457 14.516 340.835 11.703 344.17 11.703C347.36 11.703 350.057 14.806 350.057 18.489C350.057 22.201 347.36 25.304 344.17 25.304Z" fill="black"/>
<ellipse cx="238.5" cy="17.2788" rx="1.5" ry="1.49368" fill="black"/>
<defs>
<linearGradient id="paint0_linear_125_12729" x1="3.96549" y1="2.75164" x2="35.5278" y2="34.1521" gradientUnits="userSpaceOnUse">
<stop stop-color="#3F21DB"/>
<stop offset="0.284626" stop-color="#3F21DB" stop-opacity="0.934536"/>
<stop offset="1" stop-color="#3F21DB" stop-opacity="0.77"/>
</linearGradient>
</defs>
</svg>
