<svg width="188" height="35" viewBox="0 0 188 35" fill="none" xmlns="http://www.w3.org/2000/svg">
<mask id="path-1-outside-1_101_1068" maskUnits="userSpaceOnUse" x="41.9062" y="8.4519" width="146" height="22" fill="black">
<rect fill="white" x="41.9062" y="8.4519" width="146" height="22"/>
<path d="M49.3228 11.2873H49.5454C51.6657 11.2873 53.446 12.2304 54.8863 14.1166C55.6281 15.2351 55.9991 16.3717 55.9991 17.5264V17.8891C55.9991 19.9749 54.9729 21.7402 52.9206 23.1851C51.7955 23.8139 50.7199 24.1282 49.6937 24.1282H49.1374C47.524 24.1282 45.9785 23.4028 44.5011 21.9518C43.4379 20.6399 42.9062 19.2615 42.9062 17.8166V17.6352C42.9062 15.5918 43.8211 13.8748 45.6509 12.4843C46.8254 11.6863 48.0494 11.2873 49.3228 11.2873ZM45.0204 17.5989V17.8166C45.0204 19.3401 45.7746 20.5734 47.2829 21.5165C47.969 21.8793 48.6243 22.0606 49.2487 22.0606H49.6196C50.961 22.0606 52.1108 21.4561 53.0689 20.2469C53.6129 19.4731 53.8849 18.6751 53.8849 17.8529V17.5627C53.8849 15.9545 53.0195 14.6728 51.2886 13.7176C50.6395 13.4758 50.0461 13.3549 49.5083 13.3549H49.397C48.2658 13.3549 47.252 13.766 46.3556 14.5882C45.4655 15.4951 45.0204 16.4986 45.0204 17.5989Z"/>
<path d="M67.4072 11.7226C66.9807 11.6017 66.5603 11.5412 66.1462 11.5412C63.7106 11.6017 62.2888 12.6294 61.8808 14.6245H66.925C66.9745 14.6305 66.9992 14.6547 66.9992 14.697V16.6558C66.9992 16.7042 66.9745 16.7284 66.925 16.7284H61.7324V24.0557C61.7324 24.1041 61.7077 24.1282 61.6583 24.1282H59.6925C59.643 24.1282 59.6183 24.1041 59.6183 24.0557V18.0705C59.6183 17.212 59.6059 16.4261 59.5812 15.7127C59.6059 15.5132 59.6183 15.0295 59.6183 14.2617C60.4652 10.8399 62.9255 9.24385 66.9992 9.47358H67.1476C67.2341 9.47358 67.3207 9.47661 67.4072 9.48265V11.7226Z"/>
<path d="M79.1307 11.7226C78.7041 11.6017 78.2838 11.5412 77.8696 11.5412C75.434 11.6017 74.0122 12.6294 73.6042 14.6245H78.6485C78.6979 14.6305 78.7227 14.6547 78.7227 14.697V16.6558C78.7227 16.7042 78.6979 16.7284 78.6485 16.7284H73.4559V24.0557C73.4559 24.1041 73.4311 24.1282 73.3817 24.1282H71.4159C71.3665 24.1282 71.3417 24.1041 71.3417 24.0557V18.0705C71.3417 17.212 71.3294 16.4261 71.3046 15.7127C71.3294 15.5132 71.3417 15.0295 71.3417 14.2617C72.1886 10.8399 74.6489 9.24385 78.7227 9.47358H78.871C78.9576 9.47358 79.0441 9.47661 79.1307 9.48265V11.7226Z"/>
<path d="M89.3334 11.4686H89.6672C91.5959 11.4686 93.2649 12.3029 94.6744 13.9715C95.5398 15.1384 95.9725 16.3354 95.9725 17.5627V18.0705C95.9725 18.5058 95.9354 18.7234 95.8613 18.7234H85.1051V18.7597C85.3771 19.7875 85.8469 20.5613 86.5145 21.0812C87.38 21.8309 88.3443 22.2057 89.4076 22.2057H89.593C90.9159 22.2057 92.0781 21.6495 93.0795 20.5371H95.3049C94.7053 21.9155 93.5926 22.9554 91.9668 23.6567C91.1632 23.9711 90.3596 24.1282 89.5559 24.1282H89.4818C87.1884 24.1282 85.3338 23.0884 83.9182 21.0087C83.3248 19.9447 83.0281 18.8685 83.0281 17.7803C83.0281 15.5736 84.0666 13.772 86.1436 12.3755C87.2316 11.7709 88.2949 11.4686 89.3334 11.4686ZM85.1051 16.8372C90.0196 16.8614 92.962 16.8735 93.9326 16.8735V16.8372C93.5555 15.5736 92.925 14.6668 92.041 14.1166C91.225 13.633 90.4337 13.3912 89.6672 13.3912H89.2963C87.9425 13.3912 86.7556 14.0441 85.7357 15.35C85.4513 15.7852 85.2411 16.281 85.1051 16.8372Z"/>
<path d="M106.806 13.5363C106.379 13.4153 105.959 13.3549 105.545 13.3549C103.109 13.4153 101.687 14.4431 101.279 16.4382L101.131 18.5421V24.0557C101.131 24.1041 101.106 24.1282 101.057 24.1282H99.0911C99.0416 24.1282 99.0169 24.1041 99.0169 24.0557V19.8842C99.0169 19.0257 99.0045 18.2398 98.9798 17.5264C99.0045 17.3269 99.0169 16.8432 99.0169 16.0754C99.8638 12.6536 102.324 11.0575 106.398 11.2873H106.546C106.633 11.2873 106.719 11.2903 106.806 11.2963V13.5363Z"/>
<path d="M118.529 22.0334V24.2824C118.443 24.2885 118.356 24.2915 118.27 24.2915H118.121C114.048 24.5212 111.587 22.9252 110.74 19.5033C110.74 18.7355 110.728 18.2519 110.703 18.0524C110.728 17.339 110.74 16.553 110.74 15.6946V9.61868C110.74 9.57031 110.765 9.54613 110.814 9.54613H112.78C112.83 9.54613 112.854 9.57031 112.854 9.61868V12.9649L118.511 12.8561V15.0416L112.854 15.0326V17.0367L113.003 19.1406C113.411 21.1356 114.833 22.1634 117.268 22.2239C117.682 22.2239 118.103 22.1604 118.529 22.0334Z"/>
<path d="M133.628 12.9196V11.3598C133.628 11.3115 133.653 11.2873 133.702 11.2873H135.668C135.717 11.2873 135.742 11.3115 135.742 11.3598V15.5313C135.742 16.1963 135.754 17.079 135.779 18.1793C135.643 19.2796 135.371 20.1623 134.963 20.8273C133.529 23.0279 131.637 24.1282 129.288 24.1282H129.14C126.741 24.1282 124.825 22.9917 123.391 20.7185C122.896 19.721 122.649 18.7778 122.649 17.8891V11.3598C122.649 11.3115 122.674 11.2873 122.723 11.2873H124.726C124.776 11.2873 124.8 11.3115 124.8 11.3598V12.9196C124.8 15.3681 124.788 17.1092 124.763 18.143C124.93 19.0741 125.215 19.7875 125.616 20.2832C126.587 21.4682 127.786 22.0606 129.214 22.0606C130.988 22.0606 132.348 21.2021 133.294 19.4852C133.517 18.9108 133.628 18.4272 133.628 18.0342V17.345C133.628 16.2749 133.628 14.7998 133.628 12.9196Z"/>
<path d="M140.832 22.4959V24.0557C140.832 24.1041 140.808 24.1282 140.758 24.1282H138.792C138.743 24.1282 138.718 24.1041 138.718 24.0557V19.8842C138.718 19.2192 138.706 18.3365 138.681 17.2362C138.817 16.1359 139.089 15.2532 139.497 14.5882C140.931 12.3876 142.823 11.2873 145.172 11.2873H145.32C147.719 11.2873 149.635 12.4239 151.069 14.697C151.564 15.6946 151.811 16.6377 151.811 17.5264V24.0557C151.811 24.1041 151.786 24.1282 151.737 24.1282H149.734C149.684 24.1282 149.66 24.1041 149.66 24.0557V22.4959C149.66 20.0474 149.672 18.3063 149.697 17.2725C149.53 16.3414 149.246 15.6281 148.844 15.1323C147.873 13.9474 146.674 13.3549 145.246 13.3549C143.472 13.3549 142.112 14.2134 141.166 15.9303C140.944 16.5047 140.832 16.9883 140.832 17.3813V18.0705C140.832 19.1406 140.832 20.6157 140.832 22.4959Z"/>
<path d="M158.346 22.4234V24.0557C158.34 24.1041 158.315 24.1282 158.272 24.1282H156.306C156.257 24.1222 156.232 24.098 156.232 24.0557V11.3598C156.232 11.3115 156.257 11.2873 156.306 11.2873H158.272C158.321 11.2873 158.346 11.3115 158.346 11.3598V12.9922V22.4234ZM158.383 18.2972C158.383 16.9853 158.383 16.7405 158.383 17.5627V17.8529C158.383 19.461 158.383 19.6091 158.383 18.2972Z"/>
<path d="M169.68 22.0334V24.2824C169.594 24.2885 169.507 24.2915 169.421 24.2915H169.272C165.198 24.5212 162.738 22.9252 161.891 19.5033C161.891 18.7355 161.879 18.2519 161.854 18.0524C161.879 17.339 161.891 16.553 161.891 15.6946V9.61868C161.891 9.57031 161.916 9.54613 161.965 9.54613H163.931C163.981 9.54613 164.005 9.57031 164.005 9.61868V12.9649L169.662 12.8561V15.0416L164.005 15.0326V17.0367L164.154 19.1406C164.562 21.1356 165.984 22.1634 168.419 22.2239C168.833 22.2239 169.254 22.1604 169.68 22.0334Z"/>
<path d="M184.853 11.3689H186.856C186.905 11.3749 186.93 11.3991 186.93 11.4414V23.303C186.93 24.8326 186.312 26.2593 185.076 27.5833C183.685 28.865 182.189 29.5058 180.588 29.5058H180.143C178.096 29.5058 176.328 28.5385 174.839 26.6039C174.839 26.5737 174.703 26.3319 174.431 25.8785L174.505 25.8422H176.879C177.868 26.9062 178.98 27.4382 180.217 27.4382H180.513C182.053 27.4382 183.301 26.7007 184.26 25.2255C184.606 24.5786 184.779 24.0466 184.779 23.6295V22.5775C183.425 23.6657 182.028 24.2099 180.588 24.2099H180.143C178.708 24.2099 177.311 23.6657 175.951 22.5775C175.117 21.7674 174.598 21.0661 174.394 20.4736C173.998 19.6031 173.8 18.805 173.8 18.0796V11.4777C173.806 11.4294 173.831 11.4052 173.874 11.4052H175.877C175.927 11.4112 175.951 11.4354 175.951 11.4777V19.2041C176.23 19.7421 176.526 20.1774 176.842 20.5099C177.849 21.5981 178.974 22.1422 180.217 22.1422H180.513C181.812 22.1422 182.838 21.7614 183.592 20.9996C184.346 20.2318 184.742 19.6333 184.779 19.2041V11.4414C184.785 11.3931 184.81 11.3689 184.853 11.3689Z"/>
</mask>
<path d="M49.3228 11.2873H49.5454C51.6657 11.2873 53.446 12.2304 54.8863 14.1166C55.6281 15.2351 55.9991 16.3717 55.9991 17.5264V17.8891C55.9991 19.9749 54.9729 21.7402 52.9206 23.1851C51.7955 23.8139 50.7199 24.1282 49.6937 24.1282H49.1374C47.524 24.1282 45.9785 23.4028 44.5011 21.9518C43.4379 20.6399 42.9062 19.2615 42.9062 17.8166V17.6352C42.9062 15.5918 43.8211 13.8748 45.6509 12.4843C46.8254 11.6863 48.0494 11.2873 49.3228 11.2873ZM45.0204 17.5989V17.8166C45.0204 19.3401 45.7746 20.5734 47.2829 21.5165C47.969 21.8793 48.6243 22.0606 49.2487 22.0606H49.6196C50.961 22.0606 52.1108 21.4561 53.0689 20.2469C53.6129 19.4731 53.8849 18.6751 53.8849 17.8529V17.5627C53.8849 15.9545 53.0195 14.6728 51.2886 13.7176C50.6395 13.4758 50.0461 13.3549 49.5083 13.3549H49.397C48.2658 13.3549 47.252 13.766 46.3556 14.5882C45.4655 15.4951 45.0204 16.4986 45.0204 17.5989Z" fill="url(#paint0_linear_101_1068)"/>
<path d="M67.4072 11.7226C66.9807 11.6017 66.5603 11.5412 66.1462 11.5412C63.7106 11.6017 62.2888 12.6294 61.8808 14.6245H66.925C66.9745 14.6305 66.9992 14.6547 66.9992 14.697V16.6558C66.9992 16.7042 66.9745 16.7284 66.925 16.7284H61.7324V24.0557C61.7324 24.1041 61.7077 24.1282 61.6583 24.1282H59.6925C59.643 24.1282 59.6183 24.1041 59.6183 24.0557V18.0705C59.6183 17.212 59.6059 16.4261 59.5812 15.7127C59.6059 15.5132 59.6183 15.0295 59.6183 14.2617C60.4652 10.8399 62.9255 9.24385 66.9992 9.47358H67.1476C67.2341 9.47358 67.3207 9.47661 67.4072 9.48265V11.7226Z" fill="url(#paint1_linear_101_1068)"/>
<path d="M79.1307 11.7226C78.7041 11.6017 78.2838 11.5412 77.8696 11.5412C75.434 11.6017 74.0122 12.6294 73.6042 14.6245H78.6485C78.6979 14.6305 78.7227 14.6547 78.7227 14.697V16.6558C78.7227 16.7042 78.6979 16.7284 78.6485 16.7284H73.4559V24.0557C73.4559 24.1041 73.4311 24.1282 73.3817 24.1282H71.4159C71.3665 24.1282 71.3417 24.1041 71.3417 24.0557V18.0705C71.3417 17.212 71.3294 16.4261 71.3046 15.7127C71.3294 15.5132 71.3417 15.0295 71.3417 14.2617C72.1886 10.8399 74.6489 9.24385 78.7227 9.47358H78.871C78.9576 9.47358 79.0441 9.47661 79.1307 9.48265V11.7226Z" fill="url(#paint2_linear_101_1068)"/>
<path d="M89.3334 11.4686H89.6672C91.5959 11.4686 93.2649 12.3029 94.6744 13.9715C95.5398 15.1384 95.9725 16.3354 95.9725 17.5627V18.0705C95.9725 18.5058 95.9354 18.7234 95.8613 18.7234H85.1051V18.7597C85.3771 19.7875 85.8469 20.5613 86.5145 21.0812C87.38 21.8309 88.3443 22.2057 89.4076 22.2057H89.593C90.9159 22.2057 92.0781 21.6495 93.0795 20.5371H95.3049C94.7053 21.9155 93.5926 22.9554 91.9668 23.6567C91.1632 23.9711 90.3596 24.1282 89.5559 24.1282H89.4818C87.1884 24.1282 85.3338 23.0884 83.9182 21.0087C83.3248 19.9447 83.0281 18.8685 83.0281 17.7803C83.0281 15.5736 84.0666 13.772 86.1436 12.3755C87.2316 11.7709 88.2949 11.4686 89.3334 11.4686ZM85.1051 16.8372C90.0196 16.8614 92.962 16.8735 93.9326 16.8735V16.8372C93.5555 15.5736 92.925 14.6668 92.041 14.1166C91.225 13.633 90.4337 13.3912 89.6672 13.3912H89.2963C87.9425 13.3912 86.7556 14.0441 85.7357 15.35C85.4513 15.7852 85.2411 16.281 85.1051 16.8372Z" fill="url(#paint3_linear_101_1068)"/>
<path d="M106.806 13.5363C106.379 13.4153 105.959 13.3549 105.545 13.3549C103.109 13.4153 101.687 14.4431 101.279 16.4382L101.131 18.5421V24.0557C101.131 24.1041 101.106 24.1282 101.057 24.1282H99.0911C99.0416 24.1282 99.0169 24.1041 99.0169 24.0557V19.8842C99.0169 19.0257 99.0045 18.2398 98.9798 17.5264C99.0045 17.3269 99.0169 16.8432 99.0169 16.0754C99.8638 12.6536 102.324 11.0575 106.398 11.2873H106.546C106.633 11.2873 106.719 11.2903 106.806 11.2963V13.5363Z" fill="url(#paint4_linear_101_1068)"/>
<path d="M118.529 22.0334V24.2824C118.443 24.2885 118.356 24.2915 118.27 24.2915H118.121C114.048 24.5212 111.587 22.9252 110.74 19.5033C110.74 18.7355 110.728 18.2519 110.703 18.0524C110.728 17.339 110.74 16.553 110.74 15.6946V9.61868C110.74 9.57031 110.765 9.54613 110.814 9.54613H112.78C112.83 9.54613 112.854 9.57031 112.854 9.61868V12.9649L118.511 12.8561V15.0416L112.854 15.0326V17.0367L113.003 19.1406C113.411 21.1356 114.833 22.1634 117.268 22.2239C117.682 22.2239 118.103 22.1604 118.529 22.0334Z" fill="url(#paint5_linear_101_1068)"/>
<path d="M133.628 12.9196V11.3598C133.628 11.3115 133.653 11.2873 133.702 11.2873H135.668C135.717 11.2873 135.742 11.3115 135.742 11.3598V15.5313C135.742 16.1963 135.754 17.079 135.779 18.1793C135.643 19.2796 135.371 20.1623 134.963 20.8273C133.529 23.0279 131.637 24.1282 129.288 24.1282H129.14C126.741 24.1282 124.825 22.9917 123.391 20.7185C122.896 19.721 122.649 18.7778 122.649 17.8891V11.3598C122.649 11.3115 122.674 11.2873 122.723 11.2873H124.726C124.776 11.2873 124.8 11.3115 124.8 11.3598V12.9196C124.8 15.3681 124.788 17.1092 124.763 18.143C124.93 19.0741 125.215 19.7875 125.616 20.2832C126.587 21.4682 127.786 22.0606 129.214 22.0606C130.988 22.0606 132.348 21.2021 133.294 19.4852C133.517 18.9108 133.628 18.4272 133.628 18.0342V17.345C133.628 16.2749 133.628 14.7998 133.628 12.9196Z" fill="url(#paint6_linear_101_1068)"/>
<path d="M140.832 22.4959V24.0557C140.832 24.1041 140.808 24.1282 140.758 24.1282H138.792C138.743 24.1282 138.718 24.1041 138.718 24.0557V19.8842C138.718 19.2192 138.706 18.3365 138.681 17.2362C138.817 16.1359 139.089 15.2532 139.497 14.5882C140.931 12.3876 142.823 11.2873 145.172 11.2873H145.32C147.719 11.2873 149.635 12.4239 151.069 14.697C151.564 15.6946 151.811 16.6377 151.811 17.5264V24.0557C151.811 24.1041 151.786 24.1282 151.737 24.1282H149.734C149.684 24.1282 149.66 24.1041 149.66 24.0557V22.4959C149.66 20.0474 149.672 18.3063 149.697 17.2725C149.53 16.3414 149.246 15.6281 148.844 15.1323C147.873 13.9474 146.674 13.3549 145.246 13.3549C143.472 13.3549 142.112 14.2134 141.166 15.9303C140.944 16.5047 140.832 16.9883 140.832 17.3813V18.0705C140.832 19.1406 140.832 20.6157 140.832 22.4959Z" fill="url(#paint7_linear_101_1068)"/>
<path d="M158.346 22.4234V24.0557C158.34 24.1041 158.315 24.1282 158.272 24.1282H156.306C156.257 24.1222 156.232 24.098 156.232 24.0557V11.3598C156.232 11.3115 156.257 11.2873 156.306 11.2873H158.272C158.321 11.2873 158.346 11.3115 158.346 11.3598V12.9922V22.4234ZM158.383 18.2972C158.383 16.9853 158.383 16.7405 158.383 17.5627V17.8529C158.383 19.461 158.383 19.6091 158.383 18.2972Z" fill="url(#paint8_linear_101_1068)"/>
<path d="M169.68 22.0334V24.2824C169.594 24.2885 169.507 24.2915 169.421 24.2915H169.272C165.198 24.5212 162.738 22.9252 161.891 19.5033C161.891 18.7355 161.879 18.2519 161.854 18.0524C161.879 17.339 161.891 16.553 161.891 15.6946V9.61868C161.891 9.57031 161.916 9.54613 161.965 9.54613H163.931C163.981 9.54613 164.005 9.57031 164.005 9.61868V12.9649L169.662 12.8561V15.0416L164.005 15.0326V17.0367L164.154 19.1406C164.562 21.1356 165.984 22.1634 168.419 22.2239C168.833 22.2239 169.254 22.1604 169.68 22.0334Z" fill="url(#paint9_linear_101_1068)"/>
<path d="M184.853 11.3689H186.856C186.905 11.3749 186.93 11.3991 186.93 11.4414V23.303C186.93 24.8326 186.312 26.2593 185.076 27.5833C183.685 28.865 182.189 29.5058 180.588 29.5058H180.143C178.096 29.5058 176.328 28.5385 174.839 26.6039C174.839 26.5737 174.703 26.3319 174.431 25.8785L174.505 25.8422H176.879C177.868 26.9062 178.98 27.4382 180.217 27.4382H180.513C182.053 27.4382 183.301 26.7007 184.26 25.2255C184.606 24.5786 184.779 24.0466 184.779 23.6295V22.5775C183.425 23.6657 182.028 24.2099 180.588 24.2099H180.143C178.708 24.2099 177.311 23.6657 175.951 22.5775C175.117 21.7674 174.598 21.0661 174.394 20.4736C173.998 19.6031 173.8 18.805 173.8 18.0796V11.4777C173.806 11.4294 173.831 11.4052 173.874 11.4052H175.877C175.927 11.4112 175.951 11.4354 175.951 11.4777V19.2041C176.23 19.7421 176.526 20.1774 176.842 20.5099C177.849 21.5981 178.974 22.1422 180.217 22.1422H180.513C181.812 22.1422 182.838 21.7614 183.592 20.9996C184.346 20.2318 184.742 19.6333 184.779 19.2041V11.4414C184.785 11.3931 184.81 11.3689 184.853 11.3689Z" fill="url(#paint10_linear_101_1068)"/>
<path d="M49.3228 11.2873H49.5454C51.6657 11.2873 53.446 12.2304 54.8863 14.1166C55.6281 15.2351 55.9991 16.3717 55.9991 17.5264V17.8891C55.9991 19.9749 54.9729 21.7402 52.9206 23.1851C51.7955 23.8139 50.7199 24.1282 49.6937 24.1282H49.1374C47.524 24.1282 45.9785 23.4028 44.5011 21.9518C43.4379 20.6399 42.9062 19.2615 42.9062 17.8166V17.6352C42.9062 15.5918 43.8211 13.8748 45.6509 12.4843C46.8254 11.6863 48.0494 11.2873 49.3228 11.2873ZM45.0204 17.5989V17.8166C45.0204 19.3401 45.7746 20.5734 47.2829 21.5165C47.969 21.8793 48.6243 22.0606 49.2487 22.0606H49.6196C50.961 22.0606 52.1108 21.4561 53.0689 20.2469C53.6129 19.4731 53.8849 18.6751 53.8849 17.8529V17.5627C53.8849 15.9545 53.0195 14.6728 51.2886 13.7176C50.6395 13.4758 50.0461 13.3549 49.5083 13.3549H49.397C48.2658 13.3549 47.252 13.766 46.3556 14.5882C45.4655 15.4951 45.0204 16.4986 45.0204 17.5989Z" stroke="url(#paint11_linear_101_1068)" stroke-width="0.8" mask="url(#path-1-outside-1_101_1068)"/>
<path d="M67.4072 11.7226C66.9807 11.6017 66.5603 11.5412 66.1462 11.5412C63.7106 11.6017 62.2888 12.6294 61.8808 14.6245H66.925C66.9745 14.6305 66.9992 14.6547 66.9992 14.697V16.6558C66.9992 16.7042 66.9745 16.7284 66.925 16.7284H61.7324V24.0557C61.7324 24.1041 61.7077 24.1282 61.6583 24.1282H59.6925C59.643 24.1282 59.6183 24.1041 59.6183 24.0557V18.0705C59.6183 17.212 59.6059 16.4261 59.5812 15.7127C59.6059 15.5132 59.6183 15.0295 59.6183 14.2617C60.4652 10.8399 62.9255 9.24385 66.9992 9.47358H67.1476C67.2341 9.47358 67.3207 9.47661 67.4072 9.48265V11.7226Z" stroke="url(#paint12_linear_101_1068)" stroke-width="0.8" mask="url(#path-1-outside-1_101_1068)"/>
<path d="M79.1307 11.7226C78.7041 11.6017 78.2838 11.5412 77.8696 11.5412C75.434 11.6017 74.0122 12.6294 73.6042 14.6245H78.6485C78.6979 14.6305 78.7227 14.6547 78.7227 14.697V16.6558C78.7227 16.7042 78.6979 16.7284 78.6485 16.7284H73.4559V24.0557C73.4559 24.1041 73.4311 24.1282 73.3817 24.1282H71.4159C71.3665 24.1282 71.3417 24.1041 71.3417 24.0557V18.0705C71.3417 17.212 71.3294 16.4261 71.3046 15.7127C71.3294 15.5132 71.3417 15.0295 71.3417 14.2617C72.1886 10.8399 74.6489 9.24385 78.7227 9.47358H78.871C78.9576 9.47358 79.0441 9.47661 79.1307 9.48265V11.7226Z" stroke="url(#paint13_linear_101_1068)" stroke-width="0.8" mask="url(#path-1-outside-1_101_1068)"/>
<path d="M89.3334 11.4686H89.6672C91.5959 11.4686 93.2649 12.3029 94.6744 13.9715C95.5398 15.1384 95.9725 16.3354 95.9725 17.5627V18.0705C95.9725 18.5058 95.9354 18.7234 95.8613 18.7234H85.1051V18.7597C85.3771 19.7875 85.8469 20.5613 86.5145 21.0812C87.38 21.8309 88.3443 22.2057 89.4076 22.2057H89.593C90.9159 22.2057 92.0781 21.6495 93.0795 20.5371H95.3049C94.7053 21.9155 93.5926 22.9554 91.9668 23.6567C91.1632 23.9711 90.3596 24.1282 89.5559 24.1282H89.4818C87.1884 24.1282 85.3338 23.0884 83.9182 21.0087C83.3248 19.9447 83.0281 18.8685 83.0281 17.7803C83.0281 15.5736 84.0666 13.772 86.1436 12.3755C87.2316 11.7709 88.2949 11.4686 89.3334 11.4686ZM85.1051 16.8372C90.0196 16.8614 92.962 16.8735 93.9326 16.8735V16.8372C93.5555 15.5736 92.925 14.6668 92.041 14.1166C91.225 13.633 90.4337 13.3912 89.6672 13.3912H89.2963C87.9425 13.3912 86.7556 14.0441 85.7357 15.35C85.4513 15.7852 85.2411 16.281 85.1051 16.8372Z" stroke="url(#paint14_linear_101_1068)" stroke-width="0.8" mask="url(#path-1-outside-1_101_1068)"/>
<path d="M106.806 13.5363C106.379 13.4153 105.959 13.3549 105.545 13.3549C103.109 13.4153 101.687 14.4431 101.279 16.4382L101.131 18.5421V24.0557C101.131 24.1041 101.106 24.1282 101.057 24.1282H99.0911C99.0416 24.1282 99.0169 24.1041 99.0169 24.0557V19.8842C99.0169 19.0257 99.0045 18.2398 98.9798 17.5264C99.0045 17.3269 99.0169 16.8432 99.0169 16.0754C99.8638 12.6536 102.324 11.0575 106.398 11.2873H106.546C106.633 11.2873 106.719 11.2903 106.806 11.2963V13.5363Z" stroke="url(#paint15_linear_101_1068)" stroke-width="0.8" mask="url(#path-1-outside-1_101_1068)"/>
<path d="M118.529 22.0334V24.2824C118.443 24.2885 118.356 24.2915 118.27 24.2915H118.121C114.048 24.5212 111.587 22.9252 110.74 19.5033C110.74 18.7355 110.728 18.2519 110.703 18.0524C110.728 17.339 110.74 16.553 110.74 15.6946V9.61868C110.74 9.57031 110.765 9.54613 110.814 9.54613H112.78C112.83 9.54613 112.854 9.57031 112.854 9.61868V12.9649L118.511 12.8561V15.0416L112.854 15.0326V17.0367L113.003 19.1406C113.411 21.1356 114.833 22.1634 117.268 22.2239C117.682 22.2239 118.103 22.1604 118.529 22.0334Z" stroke="url(#paint16_linear_101_1068)" stroke-width="0.8" mask="url(#path-1-outside-1_101_1068)"/>
<path d="M133.628 12.9196V11.3598C133.628 11.3115 133.653 11.2873 133.702 11.2873H135.668C135.717 11.2873 135.742 11.3115 135.742 11.3598V15.5313C135.742 16.1963 135.754 17.079 135.779 18.1793C135.643 19.2796 135.371 20.1623 134.963 20.8273C133.529 23.0279 131.637 24.1282 129.288 24.1282H129.14C126.741 24.1282 124.825 22.9917 123.391 20.7185C122.896 19.721 122.649 18.7778 122.649 17.8891V11.3598C122.649 11.3115 122.674 11.2873 122.723 11.2873H124.726C124.776 11.2873 124.8 11.3115 124.8 11.3598V12.9196C124.8 15.3681 124.788 17.1092 124.763 18.143C124.93 19.0741 125.215 19.7875 125.616 20.2832C126.587 21.4682 127.786 22.0606 129.214 22.0606C130.988 22.0606 132.348 21.2021 133.294 19.4852C133.517 18.9108 133.628 18.4272 133.628 18.0342V17.345C133.628 16.2749 133.628 14.7998 133.628 12.9196Z" stroke="url(#paint17_linear_101_1068)" stroke-width="0.8" mask="url(#path-1-outside-1_101_1068)"/>
<path d="M140.832 22.4959V24.0557C140.832 24.1041 140.808 24.1282 140.758 24.1282H138.792C138.743 24.1282 138.718 24.1041 138.718 24.0557V19.8842C138.718 19.2192 138.706 18.3365 138.681 17.2362C138.817 16.1359 139.089 15.2532 139.497 14.5882C140.931 12.3876 142.823 11.2873 145.172 11.2873H145.32C147.719 11.2873 149.635 12.4239 151.069 14.697C151.564 15.6946 151.811 16.6377 151.811 17.5264V24.0557C151.811 24.1041 151.786 24.1282 151.737 24.1282H149.734C149.684 24.1282 149.66 24.1041 149.66 24.0557V22.4959C149.66 20.0474 149.672 18.3063 149.697 17.2725C149.53 16.3414 149.246 15.6281 148.844 15.1323C147.873 13.9474 146.674 13.3549 145.246 13.3549C143.472 13.3549 142.112 14.2134 141.166 15.9303C140.944 16.5047 140.832 16.9883 140.832 17.3813V18.0705C140.832 19.1406 140.832 20.6157 140.832 22.4959Z" stroke="url(#paint18_linear_101_1068)" stroke-width="0.8" mask="url(#path-1-outside-1_101_1068)"/>
<path d="M158.346 22.4234V24.0557C158.34 24.1041 158.315 24.1282 158.272 24.1282H156.306C156.257 24.1222 156.232 24.098 156.232 24.0557V11.3598C156.232 11.3115 156.257 11.2873 156.306 11.2873H158.272C158.321 11.2873 158.346 11.3115 158.346 11.3598V12.9922V22.4234ZM158.383 18.2972C158.383 16.9853 158.383 16.7405 158.383 17.5627V17.8529C158.383 19.461 158.383 19.6091 158.383 18.2972Z" stroke="url(#paint19_linear_101_1068)" stroke-width="0.8" mask="url(#path-1-outside-1_101_1068)"/>
<path d="M169.68 22.0334V24.2824C169.594 24.2885 169.507 24.2915 169.421 24.2915H169.272C165.198 24.5212 162.738 22.9252 161.891 19.5033C161.891 18.7355 161.879 18.2519 161.854 18.0524C161.879 17.339 161.891 16.553 161.891 15.6946V9.61868C161.891 9.57031 161.916 9.54613 161.965 9.54613H163.931C163.981 9.54613 164.005 9.57031 164.005 9.61868V12.9649L169.662 12.8561V15.0416L164.005 15.0326V17.0367L164.154 19.1406C164.562 21.1356 165.984 22.1634 168.419 22.2239C168.833 22.2239 169.254 22.1604 169.68 22.0334Z" stroke="url(#paint20_linear_101_1068)" stroke-width="0.8" mask="url(#path-1-outside-1_101_1068)"/>
<path d="M184.853 11.3689H186.856C186.905 11.3749 186.93 11.3991 186.93 11.4414V23.303C186.93 24.8326 186.312 26.2593 185.076 27.5833C183.685 28.865 182.189 29.5058 180.588 29.5058H180.143C178.096 29.5058 176.328 28.5385 174.839 26.6039C174.839 26.5737 174.703 26.3319 174.431 25.8785L174.505 25.8422H176.879C177.868 26.9062 178.98 27.4382 180.217 27.4382H180.513C182.053 27.4382 183.301 26.7007 184.26 25.2255C184.606 24.5786 184.779 24.0466 184.779 23.6295V22.5775C183.425 23.6657 182.028 24.2099 180.588 24.2099H180.143C178.708 24.2099 177.311 23.6657 175.951 22.5775C175.117 21.7674 174.598 21.0661 174.394 20.4736C173.998 19.6031 173.8 18.805 173.8 18.0796V11.4777C173.806 11.4294 173.831 11.4052 173.874 11.4052H175.877C175.927 11.4112 175.951 11.4354 175.951 11.4777V19.2041C176.23 19.7421 176.526 20.1774 176.842 20.5099C177.849 21.5981 178.974 22.1422 180.217 22.1422H180.513C181.812 22.1422 182.838 21.7614 183.592 20.9996C184.346 20.2318 184.742 19.6333 184.779 19.2041V11.4414C184.785 11.3931 184.81 11.3689 184.853 11.3689Z" stroke="url(#paint21_linear_101_1068)" stroke-width="0.8" mask="url(#path-1-outside-1_101_1068)"/>
<mask id="mask0_101_1068" style="mask-type:alpha" maskUnits="userSpaceOnUse" x="0" y="0" width="35" height="35">
<path d="M0 16.1858C0 7.24662 7.24662 0 16.1858 0H17.9662C26.9054 0 34.152 7.24662 34.152 16.1858V17.9662C34.152 26.9054 26.9054 34.152 17.9662 34.152H16.1858C7.24662 34.152 0 26.9054 0 17.9662V16.1858Z" fill="#3F21DB"/>
</mask>
<g mask="url(#mask0_101_1068)">
<path fill-rule="evenodd" clip-rule="evenodd" d="M6.98947 15.3895C11.5394 15.3895 15.2279 11.701 15.2279 7.15109C15.2279 4.45806 13.9357 2.06683 11.9376 0.563565C13.2917 0.196136 14.7163 6.05583e-05 16.1867 6.05583e-05H17.9672C18.0596 6.05583e-05 18.1519 0.000835896 18.244 0.00237942C19.5589 2.0683 20.3207 4.52073 20.3207 7.15109C20.3207 14.5137 14.3521 20.4824 6.98947 20.4824C4.43056 20.4824 2.04004 19.7614 0.0099597 18.5115C0.00396872 18.3305 0.000949383 18.1487 0.000949383 17.9663V16.1858C0.000949383 14.8161 0.171086 13.4862 0.491378 12.2159C1.99908 14.1475 4.34923 15.3895 6.98947 15.3895ZM0.0099597 18.5115C0.297483 27.1983 7.43003 34.1521 16.1867 34.1521H17.9672C26.9063 34.1521 34.153 26.9054 34.153 17.9663V16.1858C34.153 7.33913 27.0554 0.150124 18.244 0.00237942C15.8782 -3.71443 11.7218 -6.18018 6.98947 -6.18018C-0.373187 -6.18018 -6.3418 -0.211565 -6.3418 7.15109C-6.3418 11.9548 -3.80103 16.1652 0.0099597 18.5115ZM0.491378 12.2159C-0.599166 10.8188 -1.24895 9.06081 -1.24895 7.15109C-1.24895 2.60113 2.43951 -1.08733 6.98947 -1.08733C8.84639 -1.08733 10.5598 -0.472977 11.9376 0.563565C6.321 2.0876 1.91758 6.55974 0.491378 12.2159ZM20.0441 23.4444C20.5041 23.9045 21.071 24.1345 21.7446 24.1345C22.4183 24.1345 22.9851 23.9045 23.4452 23.4444C23.9052 22.9844 24.1353 22.4093 24.1353 21.7192C24.1353 21.0127 23.9052 20.4458 23.4452 20.0187C22.9851 19.575 22.4183 19.3532 21.7446 19.3532C21.071 19.3532 20.5041 19.575 20.0441 20.0187C19.584 20.4458 19.354 21.0127 19.354 21.7192C19.354 22.4093 19.584 22.9844 20.0441 23.4444Z" fill="white"/>
<path fill-rule="evenodd" clip-rule="evenodd" d="M6.98947 15.3895C11.5394 15.3895 15.2279 11.701 15.2279 7.15109C15.2279 4.45806 13.9357 2.06683 11.9376 0.563565C13.2917 0.196136 14.7163 6.05583e-05 16.1867 6.05583e-05H17.9672C18.0596 6.05583e-05 18.1519 0.000835896 18.244 0.00237942C19.5589 2.0683 20.3207 4.52073 20.3207 7.15109C20.3207 14.5137 14.3521 20.4824 6.98947 20.4824C4.43056 20.4824 2.04004 19.7614 0.0099597 18.5115C0.00396872 18.3305 0.000949383 18.1487 0.000949383 17.9663V16.1858C0.000949383 14.8161 0.171086 13.4862 0.491378 12.2159C1.99908 14.1475 4.34923 15.3895 6.98947 15.3895ZM0.0099597 18.5115C0.297483 27.1983 7.43003 34.1521 16.1867 34.1521H17.9672C26.9063 34.1521 34.153 26.9054 34.153 17.9663V16.1858C34.153 7.33913 27.0554 0.150124 18.244 0.00237942C15.8782 -3.71443 11.7218 -6.18018 6.98947 -6.18018C-0.373187 -6.18018 -6.3418 -0.211565 -6.3418 7.15109C-6.3418 11.9548 -3.80103 16.1652 0.0099597 18.5115ZM0.491378 12.2159C-0.599166 10.8188 -1.24895 9.06081 -1.24895 7.15109C-1.24895 2.60113 2.43951 -1.08733 6.98947 -1.08733C8.84639 -1.08733 10.5598 -0.472977 11.9376 0.563565C6.321 2.0876 1.91758 6.55974 0.491378 12.2159ZM20.0441 23.4444C20.5041 23.9045 21.071 24.1345 21.7446 24.1345C22.4183 24.1345 22.9851 23.9045 23.4452 23.4444C23.9052 22.9844 24.1353 22.4093 24.1353 21.7192C24.1353 21.0127 23.9052 20.4458 23.4452 20.0187C22.9851 19.575 22.4183 19.3532 21.7446 19.3532C21.071 19.3532 20.5041 19.575 20.0441 20.0187C19.584 20.4458 19.354 21.0127 19.354 21.7192C19.354 22.4093 19.584 22.9844 20.0441 23.4444Z" fill="url(#paint22_linear_101_1068)"/>
</g>
<defs>
<linearGradient id="paint0_linear_101_1068" x1="80.2211" y1="11.5218" x2="85.0003" y2="44.1354" gradientUnits="userSpaceOnUse">
<stop stop-color="#3F21DB"/>
<stop offset="0.284626" stop-color="#3F21DB" stop-opacity="0.934536"/>
<stop offset="1" stop-color="#3F21DB" stop-opacity="0.77"/>
</linearGradient>
<linearGradient id="paint1_linear_101_1068" x1="80.2211" y1="11.5218" x2="85.0003" y2="44.1354" gradientUnits="userSpaceOnUse">
<stop stop-color="#3F21DB"/>
<stop offset="0.284626" stop-color="#3F21DB" stop-opacity="0.934536"/>
<stop offset="1" stop-color="#3F21DB" stop-opacity="0.77"/>
</linearGradient>
<linearGradient id="paint2_linear_101_1068" x1="80.2211" y1="11.5218" x2="85.0003" y2="44.1354" gradientUnits="userSpaceOnUse">
<stop stop-color="#3F21DB"/>
<stop offset="0.284626" stop-color="#3F21DB" stop-opacity="0.934536"/>
<stop offset="1" stop-color="#3F21DB" stop-opacity="0.77"/>
</linearGradient>
<linearGradient id="paint3_linear_101_1068" x1="80.2211" y1="11.5218" x2="85.0003" y2="44.1354" gradientUnits="userSpaceOnUse">
<stop stop-color="#3F21DB"/>
<stop offset="0.284626" stop-color="#3F21DB" stop-opacity="0.934536"/>
<stop offset="1" stop-color="#3F21DB" stop-opacity="0.77"/>
</linearGradient>
<linearGradient id="paint4_linear_101_1068" x1="80.2211" y1="11.5218" x2="85.0003" y2="44.1354" gradientUnits="userSpaceOnUse">
<stop stop-color="#3F21DB"/>
<stop offset="0.284626" stop-color="#3F21DB" stop-opacity="0.934536"/>
<stop offset="1" stop-color="#3F21DB" stop-opacity="0.77"/>
</linearGradient>
<linearGradient id="paint5_linear_101_1068" x1="80.2211" y1="11.5218" x2="85.0003" y2="44.1354" gradientUnits="userSpaceOnUse">
<stop stop-color="#3F21DB"/>
<stop offset="0.284626" stop-color="#3F21DB" stop-opacity="0.934536"/>
<stop offset="1" stop-color="#3F21DB" stop-opacity="0.77"/>
</linearGradient>
<linearGradient id="paint6_linear_101_1068" x1="80.2211" y1="11.5218" x2="85.0003" y2="44.1354" gradientUnits="userSpaceOnUse">
<stop stop-color="#3F21DB"/>
<stop offset="0.284626" stop-color="#3F21DB" stop-opacity="0.934536"/>
<stop offset="1" stop-color="#3F21DB" stop-opacity="0.77"/>
</linearGradient>
<linearGradient id="paint7_linear_101_1068" x1="80.2211" y1="11.5218" x2="85.0003" y2="44.1354" gradientUnits="userSpaceOnUse">
<stop stop-color="#3F21DB"/>
<stop offset="0.284626" stop-color="#3F21DB" stop-opacity="0.934536"/>
<stop offset="1" stop-color="#3F21DB" stop-opacity="0.77"/>
</linearGradient>
<linearGradient id="paint8_linear_101_1068" x1="80.2211" y1="11.5218" x2="85.0003" y2="44.1354" gradientUnits="userSpaceOnUse">
<stop stop-color="#3F21DB"/>
<stop offset="0.284626" stop-color="#3F21DB" stop-opacity="0.934536"/>
<stop offset="1" stop-color="#3F21DB" stop-opacity="0.77"/>
</linearGradient>
<linearGradient id="paint9_linear_101_1068" x1="80.2211" y1="11.5218" x2="85.0003" y2="44.1354" gradientUnits="userSpaceOnUse">
<stop stop-color="#3F21DB"/>
<stop offset="0.284626" stop-color="#3F21DB" stop-opacity="0.934536"/>
<stop offset="1" stop-color="#3F21DB" stop-opacity="0.77"/>
</linearGradient>
<linearGradient id="paint10_linear_101_1068" x1="80.2211" y1="11.5218" x2="85.0003" y2="44.1354" gradientUnits="userSpaceOnUse">
<stop stop-color="#3F21DB"/>
<stop offset="0.284626" stop-color="#3F21DB" stop-opacity="0.934536"/>
<stop offset="1" stop-color="#3F21DB" stop-opacity="0.77"/>
</linearGradient>
<linearGradient id="paint11_linear_101_1068" x1="80.2211" y1="11.5218" x2="85.0003" y2="44.1354" gradientUnits="userSpaceOnUse">
<stop stop-color="#3F21DB"/>
<stop offset="0.284626" stop-color="#3F21DB" stop-opacity="0.934536"/>
<stop offset="1" stop-color="#3F21DB" stop-opacity="0.77"/>
</linearGradient>
<linearGradient id="paint12_linear_101_1068" x1="80.2211" y1="11.5218" x2="85.0003" y2="44.1354" gradientUnits="userSpaceOnUse">
<stop stop-color="#3F21DB"/>
<stop offset="0.284626" stop-color="#3F21DB" stop-opacity="0.934536"/>
<stop offset="1" stop-color="#3F21DB" stop-opacity="0.77"/>
</linearGradient>
<linearGradient id="paint13_linear_101_1068" x1="80.2211" y1="11.5218" x2="85.0003" y2="44.1354" gradientUnits="userSpaceOnUse">
<stop stop-color="#3F21DB"/>
<stop offset="0.284626" stop-color="#3F21DB" stop-opacity="0.934536"/>
<stop offset="1" stop-color="#3F21DB" stop-opacity="0.77"/>
</linearGradient>
<linearGradient id="paint14_linear_101_1068" x1="80.2211" y1="11.5218" x2="85.0003" y2="44.1354" gradientUnits="userSpaceOnUse">
<stop stop-color="#3F21DB"/>
<stop offset="0.284626" stop-color="#3F21DB" stop-opacity="0.934536"/>
<stop offset="1" stop-color="#3F21DB" stop-opacity="0.77"/>
</linearGradient>
<linearGradient id="paint15_linear_101_1068" x1="80.2211" y1="11.5218" x2="85.0003" y2="44.1354" gradientUnits="userSpaceOnUse">
<stop stop-color="#3F21DB"/>
<stop offset="0.284626" stop-color="#3F21DB" stop-opacity="0.934536"/>
<stop offset="1" stop-color="#3F21DB" stop-opacity="0.77"/>
</linearGradient>
<linearGradient id="paint16_linear_101_1068" x1="80.2211" y1="11.5218" x2="85.0003" y2="44.1354" gradientUnits="userSpaceOnUse">
<stop stop-color="#3F21DB"/>
<stop offset="0.284626" stop-color="#3F21DB" stop-opacity="0.934536"/>
<stop offset="1" stop-color="#3F21DB" stop-opacity="0.77"/>
</linearGradient>
<linearGradient id="paint17_linear_101_1068" x1="80.2211" y1="11.5218" x2="85.0003" y2="44.1354" gradientUnits="userSpaceOnUse">
<stop stop-color="#3F21DB"/>
<stop offset="0.284626" stop-color="#3F21DB" stop-opacity="0.934536"/>
<stop offset="1" stop-color="#3F21DB" stop-opacity="0.77"/>
</linearGradient>
<linearGradient id="paint18_linear_101_1068" x1="80.2211" y1="11.5218" x2="85.0003" y2="44.1354" gradientUnits="userSpaceOnUse">
<stop stop-color="#3F21DB"/>
<stop offset="0.284626" stop-color="#3F21DB" stop-opacity="0.934536"/>
<stop offset="1" stop-color="#3F21DB" stop-opacity="0.77"/>
</linearGradient>
<linearGradient id="paint19_linear_101_1068" x1="80.2211" y1="11.5218" x2="85.0003" y2="44.1354" gradientUnits="userSpaceOnUse">
<stop stop-color="#3F21DB"/>
<stop offset="0.284626" stop-color="#3F21DB" stop-opacity="0.934536"/>
<stop offset="1" stop-color="#3F21DB" stop-opacity="0.77"/>
</linearGradient>
<linearGradient id="paint20_linear_101_1068" x1="80.2211" y1="11.5218" x2="85.0003" y2="44.1354" gradientUnits="userSpaceOnUse">
<stop stop-color="#3F21DB"/>
<stop offset="0.284626" stop-color="#3F21DB" stop-opacity="0.934536"/>
<stop offset="1" stop-color="#3F21DB" stop-opacity="0.77"/>
</linearGradient>
<linearGradient id="paint21_linear_101_1068" x1="80.2211" y1="11.5218" x2="85.0003" y2="44.1354" gradientUnits="userSpaceOnUse">
<stop stop-color="#3F21DB"/>
<stop offset="0.284626" stop-color="#3F21DB" stop-opacity="0.934536"/>
<stop offset="1" stop-color="#3F21DB" stop-opacity="0.77"/>
</linearGradient>
<linearGradient id="paint22_linear_101_1068" x1="3.96647" y1="2.75164" x2="35.5288" y2="34.1521" gradientUnits="userSpaceOnUse">
<stop stop-color="#3F21DB"/>
<stop offset="0.284626" stop-color="#3F21DB" stop-opacity="0.934536"/>
<stop offset="1" stop-color="#3F21DB" stop-opacity="0.77"/>
</linearGradient>
</defs>
</svg>
