<svg width="219" height="35" viewBox="0 0 219 35" fill="none" xmlns="http://www.w3.org/2000/svg">
<path d="M55.612 26.3474H59.933L64.66 12.6594L69.358 26.3474H73.65L79.682 6.42441H75.042L71.359 19.7934L66.951 6.42441H62.311L57.903 19.7934L54.22 6.42441H49.58L55.612 26.3474ZM87.4066 26.6954C91.8436 26.6954 95.5556 23.0994 95.5556 18.8364C95.5556 14.5734 91.8436 11.0064 87.4066 11.0064C82.9406 11.0064 79.1996 14.5734 79.1996 18.8364C79.1996 23.0994 82.9406 26.6954 87.4066 26.6954ZM87.4066 23.1284C85.1446 23.1284 83.2596 21.1564 83.2596 18.8364C83.2596 16.5164 85.1446 14.5734 87.4066 14.5734C89.6396 14.5734 91.5246 16.5164 91.5246 18.8364C91.5246 21.1564 89.6396 23.1284 87.4066 23.1284ZM102.075 14.1384V11.3544H97.8405V26.3474H102.075V19.1844C102.075 16.3714 104.076 14.5734 107.208 14.5734V11.0064C104.917 11.0064 103.061 12.1954 102.075 14.1384ZM123.657 11.3544H118.785L113.217 17.8214V6.07641H108.983V26.3474H113.217V22.6644L115.015 20.7214L118.727 26.3474H123.599L117.828 17.9954L123.657 11.3544ZM130.683 26.6954C134.366 26.6954 136.773 24.8104 136.773 21.8524C136.773 18.5754 133.902 17.7054 131.321 17.0384C129.291 16.4874 128.682 16.2554 128.682 15.4434C128.682 14.9214 129.407 14.5444 130.451 14.5444C131.727 14.5444 133.293 15.0374 134.656 15.8784L136.367 12.8624C134.714 11.7604 132.597 11.0064 130.451 11.0064C126.913 11.0064 124.564 13.0364 124.593 15.8784C124.622 18.8364 127 19.6774 130.074 20.4314C131.611 20.8374 132.713 21.1274 132.713 22.0554C132.713 22.7224 131.901 23.1864 130.77 23.1864C128.769 23.1864 127.087 22.4614 125.753 21.5044L123.926 24.4334C125.724 25.8834 128.276 26.6954 130.683 26.6954ZM146.922 22.6354C146.632 22.9254 146.052 23.1284 145.472 23.1284C144.689 23.1284 144.051 22.4324 144.051 21.4464V14.7764H147.299V11.3544H144.051V7.23641H139.991V11.3544H137.932V14.7764H139.991V22.1134C139.991 24.8104 141.847 26.6954 144.486 26.6954C145.704 26.6954 147.067 26.1734 147.937 25.3904L146.922 22.6354ZM156.708 11.0064C154.62 11.0064 152.561 11.5864 150.444 12.6594L151.865 15.4724C153.054 14.8634 154.359 14.3994 155.751 14.3994C158.216 14.3994 159.202 15.7914 159.202 17.3864V17.6764C157.926 17.1834 156.592 16.9224 155.374 16.9224C151.894 16.9224 149.139 18.9524 149.139 21.9104C149.139 24.7814 151.604 26.6954 154.794 26.6954C156.418 26.6954 158.129 26.0574 159.202 24.8394V26.3474H163.291V17.3864C163.291 13.4714 160.623 11.0064 156.708 11.0064ZM155.751 23.7664C154.301 23.7664 153.228 23.0124 153.228 21.7944C153.228 20.5764 154.446 19.6774 155.983 19.6774C157.143 19.6774 158.245 19.8804 159.202 20.2284V21.6204C158.912 23.0124 157.375 23.7664 155.751 23.7664ZM174.167 22.6354C173.877 22.9254 173.297 23.1284 172.717 23.1284C171.934 23.1284 171.296 22.4324 171.296 21.4464V14.7764H174.544V11.3544H171.296V7.23641H167.236V11.3544H165.177V14.7764H167.236V22.1134C167.236 24.8104 169.092 26.6954 171.731 26.6954C172.949 26.6954 174.312 26.1734 175.182 25.3904L174.167 22.6354ZM179.371 9.29541C180.618 9.29541 181.633 8.25141 181.633 6.97541C181.633 5.78641 180.618 4.71341 179.371 4.71341C178.066 4.71341 177.051 5.78641 177.051 6.97541C177.051 8.25141 178.066 9.29541 179.371 9.29541ZM177.225 26.3474H181.459V11.3544H177.225V26.3474ZM191.941 26.6954C196.378 26.6954 200.09 23.0994 200.09 18.8364C200.09 14.5734 196.378 11.0064 191.941 11.0064C187.475 11.0064 183.734 14.5734 183.734 18.8364C183.734 23.0994 187.475 26.6954 191.941 26.6954ZM191.941 23.1284C189.679 23.1284 187.794 21.1564 187.794 18.8364C187.794 16.5164 189.679 14.5734 191.941 14.5734C194.174 14.5734 196.059 16.5164 196.059 18.8364C196.059 21.1564 194.174 23.1284 191.941 23.1284ZM211.046 11.0064C209.103 11.0064 207.421 11.8764 206.522 13.2394V11.3544H202.288V26.3474H206.522V17.3864L206.551 17.4734C206.551 15.8494 207.914 14.5734 209.683 14.5734C211.365 14.5734 212.525 15.8494 212.525 17.7054V26.3474H216.614V16.8064C216.614 13.4134 214.294 11.0064 211.046 11.0064Z" fill="black"/>
<mask id="mask0_122_12681" style="mask-type:alpha" maskUnits="userSpaceOnUse" x="0" y="0" width="35" height="35">
<path d="M0 16.5332C0 7.59404 7.24662 0.347412 16.1858 0.347412H17.9662C26.9054 0.347412 34.152 7.59404 34.152 16.5332V18.3136C34.152 27.2528 26.9054 34.4994 17.9662 34.4994H16.1858C7.24662 34.4994 0 27.2528 0 18.3136V16.5332Z" fill="#3F21DB"/>
</mask>
<g mask="url(#mask0_122_12681)">
<path fill-rule="evenodd" clip-rule="evenodd" d="M6.98852 15.7369C11.5385 15.7369 15.2269 12.0485 15.2269 7.4985C15.2269 4.80547 13.9348 2.41424 11.9367 0.910977C13.2908 0.543548 14.7154 0.347473 16.1858 0.347473H17.9662C18.0587 0.347473 18.1509 0.348248 18.243 0.349792C19.558 2.41571 20.3198 4.86814 20.3198 7.4985C20.3198 14.8612 14.3512 20.8298 6.98852 20.8298C4.42961 20.8298 2.03909 20.1088 0.0090135 18.8589C0.00302249 18.6779 3.21203e-06 18.4962 3.21203e-06 18.3137V16.5333C3.21203e-06 15.1636 0.17014 13.8336 0.490432 12.5633C1.99814 14.4949 4.34829 15.7369 6.98852 15.7369ZM0.0090135 18.8589C0.296537 27.5457 7.42909 34.4995 16.1858 34.4995H17.9662C26.9054 34.4995 34.152 27.2529 34.152 18.3137V16.5333C34.152 7.68654 27.0545 0.497536 18.243 0.349792C15.8772 -3.36702 11.7208 -5.83276 6.98852 -5.83276C-0.374133 -5.83276 -6.34274 0.135847 -6.34274 7.4985C-6.34274 12.3022 -3.80198 16.5126 0.0090135 18.8589ZM0.490432 12.5633C-0.600112 11.1662 -1.2499 9.40822 -1.2499 7.4985C-1.2499 2.94855 2.43857 -0.739921 6.98852 -0.739921C8.84545 -0.739921 10.5589 -0.125565 11.9367 0.910977C6.32005 2.43502 1.91663 6.90715 0.490432 12.5633ZM20.0431 23.7918C20.5032 24.2519 21.07 24.4819 21.7437 24.4819C22.4173 24.4819 22.9842 24.2519 23.4442 23.7918C23.9043 23.3318 24.1343 22.7567 24.1343 22.0666C24.1343 21.3601 23.9043 20.7933 23.4442 20.3661C22.9842 19.9224 22.4173 19.7006 21.7437 19.7006C21.07 19.7006 20.5032 19.9224 20.0431 20.3661C19.5831 20.7933 19.353 21.3601 19.353 22.0666C19.353 22.7567 19.5831 23.3318 20.0431 23.7918Z" fill="white"/>
<path fill-rule="evenodd" clip-rule="evenodd" d="M6.98852 15.7369C11.5385 15.7369 15.2269 12.0485 15.2269 7.4985C15.2269 4.80547 13.9348 2.41424 11.9367 0.910977C13.2908 0.543548 14.7154 0.347473 16.1858 0.347473H17.9662C18.0587 0.347473 18.1509 0.348248 18.243 0.349792C19.558 2.41571 20.3198 4.86814 20.3198 7.4985C20.3198 14.8612 14.3512 20.8298 6.98852 20.8298C4.42961 20.8298 2.03909 20.1088 0.0090135 18.8589C0.00302249 18.6779 3.21203e-06 18.4962 3.21203e-06 18.3137V16.5333C3.21203e-06 15.1636 0.17014 13.8336 0.490432 12.5633C1.99814 14.4949 4.34829 15.7369 6.98852 15.7369ZM0.0090135 18.8589C0.296537 27.5457 7.42909 34.4995 16.1858 34.4995H17.9662C26.9054 34.4995 34.152 27.2529 34.152 18.3137V16.5333C34.152 7.68654 27.0545 0.497536 18.243 0.349792C15.8772 -3.36702 11.7208 -5.83276 6.98852 -5.83276C-0.374133 -5.83276 -6.34274 0.135847 -6.34274 7.4985C-6.34274 12.3022 -3.80198 16.5126 0.0090135 18.8589ZM0.490432 12.5633C-0.600112 11.1662 -1.2499 9.40822 -1.2499 7.4985C-1.2499 2.94855 2.43857 -0.739921 6.98852 -0.739921C8.84545 -0.739921 10.5589 -0.125565 11.9367 0.910977C6.32005 2.43502 1.91663 6.90715 0.490432 12.5633ZM20.0431 23.7918C20.5032 24.2519 21.07 24.4819 21.7437 24.4819C22.4173 24.4819 22.9842 24.2519 23.4442 23.7918C23.9043 23.3318 24.1343 22.7567 24.1343 22.0666C24.1343 21.3601 23.9043 20.7933 23.4442 20.3661C22.9842 19.9224 22.4173 19.7006 21.7437 19.7006C21.07 19.7006 20.5032 19.9224 20.0431 20.3661C19.5831 20.7933 19.353 21.3601 19.353 22.0666C19.353 22.7567 19.5831 23.3318 20.0431 23.7918Z" fill="url(#paint0_linear_122_12681)"/>
</g>
<defs>
<linearGradient id="paint0_linear_122_12681" x1="3.96552" y1="3.09906" x2="35.5278" y2="34.4995" gradientUnits="userSpaceOnUse">
<stop stop-color="#3F21DB"/>
<stop offset="0.284626" stop-color="#3F21DB" stop-opacity="0.934536"/>
<stop offset="1" stop-color="#3F21DB" stop-opacity="0.77"/>
</linearGradient>
</defs>
</svg>
