<svg width="251" height="233" viewBox="0 0 251 233" fill="none" xmlns="http://www.w3.org/2000/svg">
<mask id="mask0_135_12684" style="mask-type:alpha" maskUnits="userSpaceOnUse" x="0" y="0" width="251" height="233">
<rect x="0.390625" y="0.410889" width="250" height="232" fill="white"/>
</mask>
<g mask="url(#mask0_135_12684)">
<mask id="mask1_135_12684" style="mask-type:alpha" maskUnits="userSpaceOnUse" x="-34" y="-52" width="285" height="285">
<path d="M-33.6094 83.008C-33.6094 8.67209 26.6518 -51.5891 100.988 -51.5891H115.793C190.129 -51.5891 250.391 8.67209 250.391 83.008V97.8137C250.391 172.15 190.129 232.411 115.793 232.411H100.988C26.6518 232.411 -33.6094 172.15 -33.6094 97.8137V83.008Z" fill="#3F21DB"/>
</mask>
<g mask="url(#mask1_135_12684)">
<path fill-rule="evenodd" clip-rule="evenodd" d="M24.5079 76.3816C62.3442 76.3816 93.0165 45.7092 93.0165 7.87293C93.0165 -14.5216 82.2713 -34.4065 65.6553 -46.9073C76.9157 -49.9627 88.7625 -51.5933 100.99 -51.5933H115.796C116.564 -51.5933 117.332 -51.5868 118.097 -51.574C129.033 -34.3943 135.367 -14.0005 135.367 7.87293C135.367 69.0989 85.7339 118.732 24.5079 118.732C3.22864 118.732 -16.6503 112.737 -33.532 102.343C-33.5818 100.838 -33.6069 99.3267 -33.6069 97.8094V83.0037C-33.6069 71.6136 -32.1921 60.5539 -29.5286 49.9908C-16.9909 66.0536 2.55236 76.3816 24.5079 76.3816ZM-33.532 102.343C-31.141 174.58 28.1715 232.406 100.99 232.406H115.796C190.132 232.406 250.393 172.145 250.393 97.8094V83.0037C250.393 9.43661 191.372 -50.3454 118.097 -51.574C98.424 -82.482 63.8605 -102.987 24.5079 -102.987C-36.7181 -102.987 -86.3516 -53.3531 -86.3516 7.87293C-86.3516 47.8197 -65.2232 82.8316 -33.532 102.343ZM-29.5286 49.9908C-38.5973 38.3724 -44.0008 23.7537 -44.0008 7.87293C-44.0008 -29.9634 -13.3284 -60.6358 24.5079 -60.6358C39.9496 -60.6358 54.1981 -55.5269 65.6553 -46.9073C18.949 -34.2338 -17.6687 2.95537 -29.5286 49.9908ZM133.067 143.364C136.892 147.19 141.606 149.103 147.208 149.103C152.81 149.103 157.524 147.19 161.349 143.364C165.175 139.539 167.088 134.756 167.088 129.018C167.088 123.143 165.175 118.429 161.349 114.876C157.524 111.187 152.81 109.343 147.208 109.343C141.606 109.343 136.892 111.187 133.067 114.876C129.241 118.429 127.328 123.143 127.328 129.018C127.328 134.756 129.241 139.539 133.067 143.364Z" fill="white"/>
<path fill-rule="evenodd" clip-rule="evenodd" d="M24.5079 76.3816C62.3442 76.3816 93.0165 45.7092 93.0165 7.87293C93.0165 -14.5216 82.2713 -34.4065 65.6553 -46.9073C76.9157 -49.9627 88.7625 -51.5933 100.99 -51.5933H115.796C116.564 -51.5933 117.332 -51.5868 118.097 -51.574C129.033 -34.3943 135.367 -14.0005 135.367 7.87293C135.367 69.0989 85.7339 118.732 24.5079 118.732C3.22864 118.732 -16.6503 112.737 -33.532 102.343C-33.5818 100.838 -33.6069 99.3267 -33.6069 97.8094V83.0037C-33.6069 71.6136 -32.1921 60.5539 -29.5286 49.9908C-16.9909 66.0536 2.55236 76.3816 24.5079 76.3816ZM-33.532 102.343C-31.141 174.58 28.1715 232.406 100.99 232.406H115.796C190.132 232.406 250.393 172.145 250.393 97.8094V83.0037C250.393 9.43661 191.372 -50.3454 118.097 -51.574C98.424 -82.482 63.8605 -102.987 24.5079 -102.987C-36.7181 -102.987 -86.3516 -53.3531 -86.3516 7.87293C-86.3516 47.8197 -65.2232 82.8316 -33.532 102.343ZM-29.5286 49.9908C-38.5973 38.3724 -44.0008 23.7537 -44.0008 7.87293C-44.0008 -29.9634 -13.3284 -60.6358 24.5079 -60.6358C39.9496 -60.6358 54.1981 -55.5269 65.6553 -46.9073C18.949 -34.2338 -17.6687 2.95537 -29.5286 49.9908ZM133.067 143.364C136.892 147.19 141.606 149.103 147.208 149.103C152.81 149.103 157.524 147.19 161.349 143.364C165.175 139.539 167.088 134.756 167.088 129.018C167.088 123.143 165.175 118.429 161.349 114.876C157.524 111.187 152.81 109.343 147.208 109.343C141.606 109.343 136.892 111.187 133.067 114.876C129.241 118.429 127.328 123.143 127.328 129.018C127.328 134.756 129.241 139.539 133.067 143.364Z" fill="#F2F2F2" fill-opacity="0.5"/>
</g>
</g>
</svg>
