<svg width="15" height="12" viewBox="0 0 15 12" fill="none" xmlns="http://www.w3.org/2000/svg">
<path d="M3.50014 0.937697C3.50014 0.799565 3.44746 0.667091 3.35369 0.569417C3.25992 0.471743 3.13275 0.41687 3.00014 0.41687C2.86753 0.41687 2.74036 0.471743 2.64659 0.569417C2.55282 0.667091 2.50014 0.799565 2.50014 0.937697V10.097L1.35414 8.90218C1.26026 8.80439 1.13292 8.74944 1.00014 8.74944C0.867367 8.74944 0.74003 8.80439 0.646143 8.90218C0.552257 8.99998 0.499512 9.13262 0.499512 9.27093C0.499512 9.40924 0.552257 9.54188 0.646143 9.63968L2.64614 11.7219L2.65314 11.7292C2.74702 11.8246 2.87326 11.8774 3.00438 11.8763C3.13549 11.8751 3.26085 11.82 3.35314 11.723L5.35314 9.63968C5.39962 9.59132 5.43651 9.5339 5.4617 9.47069C5.48688 9.40749 5.49987 9.33973 5.49991 9.2713C5.49996 9.20286 5.48707 9.13509 5.46197 9.07185C5.43687 9.00861 5.40006 8.95113 5.35364 8.90271C5.30721 8.85428 5.25209 8.81586 5.19141 8.78962C5.13073 8.76339 5.06569 8.74986 4.99999 8.74981C4.93429 8.74976 4.86923 8.7632 4.80852 8.78934C4.7478 8.81548 4.69263 8.85383 4.64614 8.90218L3.50014 10.097V0.937697ZM7.00013 1.97935C7.00013 1.84122 7.05281 1.70875 7.14658 1.61107C7.24035 1.5134 7.36753 1.45852 7.50013 1.45852H14.5001C14.6327 1.45852 14.7599 1.5134 14.8537 1.61107C14.9474 1.70875 15.0001 1.84122 15.0001 1.97935C15.0001 2.11748 14.9474 2.24996 14.8537 2.34763C14.7599 2.44531 14.6327 2.50018 14.5001 2.50018H7.50013C7.36753 2.50018 7.24035 2.44531 7.14658 2.34763C7.05281 2.24996 7.00013 2.11748 7.00013 1.97935ZM7.50013 4.58349C7.36753 4.58349 7.24035 4.63836 7.14658 4.73603C7.05281 4.83371 7.00013 4.96618 7.00013 5.10431C7.00013 5.24245 7.05281 5.37492 7.14658 5.47259C7.24035 5.57027 7.36753 5.62514 7.50013 5.62514H12.5001C12.6327 5.62514 12.7599 5.57027 12.8537 5.47259C12.9474 5.37492 13.0001 5.24245 13.0001 5.10431C13.0001 4.96618 12.9474 4.83371 12.8537 4.73603C12.7599 4.63836 12.6327 4.58349 12.5001 4.58349H7.50013ZM7.50013 7.70845C7.36753 7.70845 7.24035 7.76332 7.14658 7.861C7.05281 7.95867 7.00013 8.09114 7.00013 8.22928C7.00013 8.36741 7.05281 8.49988 7.14658 8.59756C7.24035 8.69523 7.36753 8.7501 7.50013 8.7501H10.5001C10.6327 8.7501 10.7599 8.69523 10.8537 8.59756C10.9474 8.49988 11.0001 8.36741 11.0001 8.22928C11.0001 8.09114 10.9474 7.95867 10.8537 7.861C10.7599 7.76332 10.6327 7.70845 10.5001 7.70845H7.50013ZM7.50013 10.8334C7.36753 10.8334 7.24035 10.8883 7.14658 10.986C7.05281 11.0836 7.00013 11.2161 7.00013 11.3542C7.00013 11.4924 7.05281 11.6248 7.14658 11.7225C7.24035 11.8202 7.36753 11.8751 7.50013 11.8751H8.50013C8.63274 11.8751 8.75992 11.8202 8.85368 11.7225C8.94745 11.6248 9.00013 11.4924 9.00013 11.3542C9.00013 11.2161 8.94745 11.0836 8.85368 10.986C8.75992 10.8883 8.63274 10.8334 8.50013 10.8334H7.50013Z" fill="white"/>
</svg>
