<svg width="21" height="21" viewBox="0 0 21 21" fill="none" xmlns="http://www.w3.org/2000/svg">
<path d="M2.625 2.625C2.625 1.92881 2.90156 1.26113 3.39384 0.768845C3.88613 0.276562 4.55381 0 5.25 0L15.75 0C16.4462 0 17.1139 0.276562 17.6062 0.768845C18.0984 1.26113 18.375 1.92881 18.375 2.625V20.3438C18.3749 20.4625 18.3427 20.5789 18.2817 20.6807C18.2206 20.7826 18.1332 20.8659 18.0285 20.922C17.9239 20.978 17.806 21.0046 17.6874 20.9989C17.5688 20.9932 17.454 20.9555 17.3552 20.8898L10.5 17.1951L3.64481 20.8898C3.54599 20.9555 3.43118 20.9932 3.31261 20.9989C3.19404 21.0046 3.07615 20.978 2.9715 20.922C2.86685 20.8659 2.77936 20.7826 2.71834 20.6807C2.65732 20.5789 2.62506 20.4625 2.625 20.3438V2.625ZM5.25 1.3125C4.9019 1.3125 4.56806 1.45078 4.32192 1.69692C4.07578 1.94306 3.9375 2.2769 3.9375 2.625V19.1179L10.1364 15.8602C10.2441 15.7886 10.3706 15.7503 10.5 15.7503C10.6294 15.7503 10.7559 15.7886 10.8636 15.8602L17.0625 19.1179V2.625C17.0625 2.2769 16.9242 1.94306 16.6781 1.69692C16.4319 1.45078 16.0981 1.3125 15.75 1.3125H5.25Z" fill="white"/>
</svg>
