<svg width="17" height="17" viewBox="0 0 17 17" fill="none" xmlns="http://www.w3.org/2000/svg">
<path d="M0.721761 0.0513753L16.0768 7.61737C16.1605 7.65864 16.231 7.72252 16.2803 7.80178C16.3296 7.88104 16.3557 7.97253 16.3557 8.06588C16.3557 8.15922 16.3296 8.25071 16.2803 8.32997C16.231 8.40923 16.1605 8.47311 16.0768 8.51437L0.720761 16.0804C0.634733 16.1226 0.538371 16.1393 0.443151 16.1283C0.347931 16.1174 0.257867 16.0793 0.183685 16.0186C0.109503 15.9579 0.0543289 15.8771 0.0247345 15.786C-0.00485988 15.6948 -0.00762748 15.5971 0.0167611 15.5044L1.53776 9.75937C1.56242 9.66641 1.61336 9.58253 1.68449 9.5178C1.75561 9.45306 1.8439 9.4102 1.93876 9.39437L8.81976 8.24737C8.86076 8.24058 8.89943 8.22368 8.93225 8.19819C8.96508 8.17269 8.99103 8.13942 9.00776 8.10137L9.02576 8.04138C9.0351 7.98576 9.02536 7.92863 8.99813 7.87925C8.9709 7.82987 8.92778 7.79115 8.87576 7.76938L8.81976 7.75338L1.90076 6.60038C1.80608 6.58437 1.71801 6.54144 1.64707 6.47671C1.57614 6.41198 1.52534 6.3282 1.50076 6.23537L0.0167611 0.628375C-0.00788118 0.535615 -0.00530504 0.437722 0.0241821 0.346386C0.0536692 0.25505 0.108821 0.174131 0.183052 0.113291C0.257283 0.0524512 0.347456 0.0142615 0.442804 0.00328244C0.538152 -0.00769663 0.634645 0.00899896 0.720761 0.0513753H0.721761Z" fill="white"/>
</svg>
