<svg width="18" height="18" viewBox="0 0 18 18" fill="none" xmlns="http://www.w3.org/2000/svg">
<path d="M3 11.25H13.3987C13.5413 11.2499 13.6808 11.2093 13.801 11.1328C13.9213 11.0563 14.0172 10.9471 14.0777 10.8181C14.1381 10.689 14.1605 10.5454 14.1423 10.4041C14.1241 10.2627 14.066 10.1295 13.9747 10.02L11.25 6.75L13.9747 3.48C14.066 3.3705 14.1241 3.23728 14.1423 3.09594C14.1605 2.9546 14.1381 2.81099 14.0777 2.68193C14.0172 2.55287 13.9213 2.4437 13.801 2.3672C13.6808 2.29071 13.5413 2.25005 13.3987 2.25H3V15.75" fill="white"/>
<path d="M3 11.25H13.3987C13.5413 11.2499 13.6808 11.2093 13.801 11.1328C13.9213 11.0563 14.0172 10.9471 14.0777 10.8181C14.1381 10.689 14.1605 10.5454 14.1423 10.4041C14.1241 10.2627 14.066 10.1295 13.9747 10.02L11.25 6.75L13.9747 3.48C14.066 3.3705 14.1241 3.23728 14.1423 3.09594C14.1605 2.9546 14.1381 2.81099 14.0777 2.68193C14.0172 2.55287 13.9213 2.4437 13.801 2.3672C13.6808 2.29071 13.5413 2.25005 13.3987 2.25H3V15.75" stroke="white" stroke-linecap="round" stroke-linejoin="round"/>
</svg>
