<svg width="18" height="18" viewBox="0 0 18 18" fill="none" xmlns="http://www.w3.org/2000/svg">
<path d="M3.63916 8.17303C3.59999 8.13385 3.56891 8.08734 3.54771 8.03615C3.5265 7.98496 3.51559 7.9301 3.51559 7.87469C3.51559 7.81929 3.5265 7.76442 3.54771 7.71324C3.56891 7.66205 3.59999 7.61554 3.63916 7.57636C3.67834 7.53718 3.72485 7.5061 3.77604 7.4849C3.82723 7.4637 3.88209 7.45278 3.9375 7.45278C3.99291 7.45278 4.04777 7.4637 4.09896 7.4849C4.15015 7.5061 4.19666 7.53718 4.23584 7.57636L8.57812 11.9187V2.24969C8.57812 2.13781 8.62257 2.0305 8.70169 1.95138C8.78081 1.87227 8.88811 1.82782 9 1.82782C9.11189 1.82782 9.21919 1.87227 9.29831 1.95138C9.37743 2.0305 9.42188 2.13781 9.42188 2.24969V11.9187L13.7642 7.57636C13.8033 7.53718 13.8499 7.5061 13.901 7.4849C13.9522 7.4637 14.0071 7.45278 14.0625 7.45278C14.1179 7.45278 14.1728 7.4637 14.224 7.4849C14.2751 7.5061 14.3217 7.53718 14.3608 7.57636C14.4 7.61554 14.4311 7.66205 14.4523 7.71324C14.4735 7.76442 14.4844 7.81929 14.4844 7.87469C14.4844 7.9301 14.4735 7.98496 14.4523 8.03615C14.4311 8.08734 14.4 8.13385 14.3608 8.17303L9.29834 13.2355H9.29819C9.27841 13.2553 9.25672 13.2731 9.23344 13.2885C9.23189 13.2895 9.23034 13.2903 9.2288 13.2914C9.20714 13.3054 9.18424 13.3174 9.16038 13.3273L9.15497 13.3293C9.13128 13.3388 9.10678 13.346 9.08177 13.351L9.07763 13.3517C9.02635 13.3616 8.97365 13.3616 8.92238 13.3517L8.91823 13.351C8.89322 13.346 8.86872 13.3388 8.84503 13.3293C8.84327 13.3286 8.84138 13.3281 8.83962 13.3273C8.81576 13.3174 8.79285 13.3054 8.7712 13.2913C8.76966 13.2903 8.76811 13.2895 8.76656 13.2885C8.74332 13.273 8.72165 13.2553 8.70188 13.2356L8.70166 13.2355L3.63916 8.17303ZM15.1875 14.7653H2.8125C2.70061 14.7653 2.59331 14.8098 2.51419 14.8889C2.43507 14.968 2.39063 15.0753 2.39062 15.1872C2.39063 15.2991 2.43507 15.4064 2.51419 15.4855C2.59331 15.5646 2.70061 15.6091 2.8125 15.6091H15.1875C15.2994 15.6091 15.4067 15.5646 15.4858 15.4855C15.5649 15.4064 15.6094 15.2991 15.6094 15.1872C15.6094 15.0753 15.5649 14.968 15.4858 14.8889C15.4067 14.8098 15.2994 14.7653 15.1875 14.7653Z" fill="black"/>
</svg>
