<svg width="26" height="26" viewBox="0 0 26 26" fill="none" xmlns="http://www.w3.org/2000/svg">
<path d="M6.28027 6.5H7.85026V9.75H6.28027V6.5Z" fill="black"/>
<path d="M6.28027 11.375H7.85026V14.625H6.28027V11.375Z" fill="black"/>
<path d="M10.9902 6.5H12.5602V9.75H10.9902V6.5Z" fill="black"/>
<path d="M10.9902 11.375H12.5602V14.625H10.9902V11.375Z" fill="black"/>
<path d="M6.28027 16.25H7.85026V19.5H6.28027V16.25Z" fill="black"/>
<path d="M10.9902 16.25H12.5602V19.5H10.9902V16.25Z" fill="black"/>
<path d="M23.5498 11.375H17.1364L19.1617 13.4794L18.0548 14.625L14.1299 10.5625L18.0548 6.5L19.1617 7.64562L17.1364 9.75H23.5498V11.375Z" fill="black"/>
<path d="M21.9801 16.25V22.75H17.2702V16.25H15.7002V22.75H3.1403V3.25H15.7002V4.875H17.2702V3.25C17.2702 2.81902 17.1048 2.4057 16.8103 2.10095C16.5159 1.7962 16.1166 1.625 15.7002 1.625H3.1403C2.72391 1.625 2.32458 1.7962 2.03015 2.10095C1.73572 2.4057 1.57031 2.81902 1.57031 3.25V24.375H23.5501V16.25H21.9801Z" fill="black"/>
</svg>
