<svg width="28" height="28" viewBox="0 0 28 28" fill="none" xmlns="http://www.w3.org/2000/svg">
<path d="M12.8796 20.1601C8.84761 20.1601 5.59961 16.9121 5.59961 12.8801C5.59961 8.8481 8.84761 5.6001 12.8796 5.6001C16.9116 5.6001 20.1596 8.8481 20.1596 12.8801C20.1596 16.9121 16.9116 20.1601 12.8796 20.1601ZM12.8796 6.7201C9.46361 6.7201 6.71961 9.4641 6.71961 12.8801C6.71961 16.2961 9.46361 19.0401 12.8796 19.0401C16.2956 19.0401 19.0396 16.2961 19.0396 12.8801C19.0396 9.4641 16.2956 6.7201 12.8796 6.7201Z" fill="black"/>
<path d="M18.3016 17.5095L23.3304 22.5383L22.5386 23.3302L17.5098 18.3014L18.3016 17.5095Z" fill="black"/>
</svg>
