<svg width="21" height="21" viewBox="0 0 21 21" fill="none" xmlns="http://www.w3.org/2000/svg">
<g clip-path="url(#clip0_101_8797)">
<path d="M2.625 2.625V20.3438C2.62492 20.4577 2.65451 20.5697 2.71087 20.6688C2.76723 20.7678 2.84841 20.8505 2.94642 20.9086C3.04443 20.9668 3.15589 20.9984 3.26984 21.0004C3.38378 21.0024 3.49628 20.9746 3.59625 20.9199L10.5 17.1531L17.4038 20.9199C17.5037 20.9746 17.6162 21.0024 17.7302 21.0004C17.8441 20.9984 17.9556 20.9668 18.0536 20.9086C18.1516 20.8505 18.2328 20.7678 18.2891 20.6688C18.3455 20.5697 18.3751 20.4577 18.375 20.3438V2.625C18.375 1.92881 18.0984 1.26113 17.6062 0.768845C17.1139 0.276562 16.4462 0 15.75 0L5.25 0C4.55381 0 3.88613 0.276562 3.39384 0.768845C2.90156 1.26113 2.625 1.92881 2.625 2.625Z" fill="#5F53EF"/>
</g>
<defs>
<clipPath id="clip0_101_8797">
<rect width="21" height="21" fill="white"/>
</clipPath>
</defs>
</svg>
