<svg width="23" height="23" viewBox="0 0 23 23" fill="none" xmlns="http://www.w3.org/2000/svg">
<path fill-rule="evenodd" clip-rule="evenodd" d="M11.4998 3.83337C11.8843 3.83337 12.2632 3.86185 12.6323 3.91661L13.1887 5.60218C13.6761 5.74128 14.1394 5.93952 14.5687 6.18923L16.1677 5.41818C16.734 5.85299 17.2378 6.36556 17.6627 6.93947L16.8632 8.52428C17.1053 8.95799 17.2958 9.42456 17.4262 9.91523L19.1019 10.499C19.1942 11.2076 19.188 11.9256 19.0833 12.6325L17.3977 13.1889C17.2595 13.6713 17.0624 14.1348 16.8107 14.5689L17.5817 16.1679C17.1463 16.7343 16.6343 17.2375 16.0604 17.6629L14.4756 16.8634C14.0419 17.1055 13.5753 17.296 13.0847 17.4264L12.5009 19.1021C11.7923 19.1944 11.0743 19.1881 10.3674 19.0835L9.81099 17.3979C9.32858 17.2597 8.86508 17.0626 8.43099 16.8108L6.83194 17.5819C6.26554 17.1465 5.7624 16.6345 5.33694 16.0606L6.13646 14.4758C5.89224 14.0371 5.70315 13.5699 5.57351 13.0848L3.8978 12.5C3.80557 11.7917 3.81183 11.0741 3.91641 10.3676L5.60199 9.81118C5.74108 9.3238 5.93932 8.86052 6.18903 8.43118L5.41799 6.83214C5.85338 6.26574 6.36538 5.7626 6.93927 5.33714L8.52408 6.13666C8.95779 5.89461 9.42437 5.70404 9.91503 5.57371L10.4999 3.89799C10.8274 3.85528 11.1614 3.83337 11.4998 3.83337Z" stroke="#5F53EF" stroke-linecap="round" stroke-linejoin="round"/>
<path d="M11.5001 14.7858C13.3147 14.7858 14.7858 13.3147 14.7858 11.5001C14.7858 9.68542 13.3147 8.21436 11.5001 8.21436C9.68542 8.21436 8.21436 9.68542 8.21436 11.5001C8.21436 13.3147 9.68542 14.7858 11.5001 14.7858Z" stroke="#5F53EF" stroke-linecap="round" stroke-linejoin="round"/>
</svg>
