<svg width="10" height="8" viewBox="0 0 10 8" fill="none" xmlns="http://www.w3.org/2000/svg">
<path d="M7.65611 0.501443C7.64854 0.508778 7.64144 0.516586 7.63486 0.524818L3.94479 5.22638L1.72098 3.00151C1.56992 2.86075 1.37012 2.78411 1.16368 2.78776C0.957232 2.7914 0.76026 2.87503 0.614259 3.02103C0.468257 3.16703 0.384626 3.36401 0.380984 3.57045C0.377341 3.77689 0.453972 3.97669 0.594732 4.12776L3.40611 6.94019C3.48184 7.01579 3.57203 7.07536 3.67129 7.11535C3.77055 7.15534 3.87684 7.17492 3.98384 7.17294C4.09083 7.17096 4.19633 7.14745 4.29403 7.10381C4.39174 7.06017 4.47966 6.9973 4.55254 6.91894L8.79404 1.61707C8.93847 1.46548 9.01743 1.26315 9.01387 1.0538C9.0103 0.84446 8.92448 0.644932 8.77498 0.498356C8.62547 0.35178 8.42428 0.269933 8.21491 0.270511C8.00554 0.271089 7.8048 0.354044 7.65611 0.501443V0.501443Z" fill="black"/>
</svg>
