<svg width="24" height="24" viewBox="0 0 24 24" fill="none" xmlns="http://www.w3.org/2000/svg">
<path d="M22.0822 11.3953C21.2583 9.65947 20.2778 8.24385 19.1408 7.14838L17.9483 8.34088C18.9207 9.27018 19.7678 10.4859 20.5002 11.9999C18.5502 16.0359 15.7822 17.9531 11.9994 17.9531C10.8639 17.9531 9.81808 17.7782 8.86182 17.4285L7.56972 18.7206C8.89784 19.3339 10.3744 19.6406 11.9994 19.6406C16.5041 19.6406 19.865 17.2945 22.0822 12.6023C22.1714 12.4136 22.2176 12.2075 22.2176 11.9988C22.2176 11.7901 22.1714 11.584 22.0822 11.3953ZM20.5923 3.88025L19.5932 2.87994C19.5757 2.86251 19.5551 2.84868 19.5323 2.83924C19.5095 2.82981 19.4851 2.82495 19.4605 2.82495C19.4359 2.82495 19.4115 2.82981 19.3887 2.83924C19.3659 2.84868 19.3453 2.86251 19.3278 2.87994L16.7645 5.44213C15.3512 4.72026 13.7628 4.35932 11.9994 4.35932C7.49472 4.35932 4.13378 6.70541 1.91659 11.3976C1.82747 11.5863 1.78125 11.7924 1.78125 12.0011C1.78125 12.2098 1.82747 12.4159 1.91659 12.6046C2.80237 14.4703 3.86878 15.9656 5.11581 17.0908L2.63565 19.5703C2.60052 19.6054 2.58078 19.6531 2.58078 19.7028C2.58078 19.7525 2.60052 19.8002 2.63565 19.8353L3.6362 20.8359C3.67136 20.871 3.71903 20.8908 3.76874 20.8908C3.81845 20.8908 3.86612 20.871 3.90128 20.8359L20.5923 4.14557C20.6097 4.12815 20.6236 4.10747 20.633 4.08471C20.6424 4.06195 20.6473 4.03755 20.6473 4.01291C20.6473 3.98827 20.6424 3.96387 20.633 3.94111C20.6236 3.91835 20.6097 3.89767 20.5923 3.88025ZM3.49862 11.9999C5.45097 7.96401 8.21893 6.04682 11.9994 6.04682C13.2777 6.04682 14.4399 6.26619 15.4944 6.71221L13.8467 8.35986C13.0664 7.94353 12.173 7.78901 11.2982 7.91911C10.4234 8.04921 9.61352 8.45704 8.98813 9.08242C8.36275 9.70781 7.95492 10.5176 7.82482 11.3925C7.69472 12.2673 7.84924 13.1607 8.26557 13.941L6.31042 15.8962C5.22831 14.9411 4.2955 13.6471 3.49862 11.9999ZM9.28065 11.9999C9.28106 11.5867 9.37896 11.1793 9.56638 10.811C9.75381 10.4426 10.0255 10.1237 10.3593 9.88004C10.6932 9.63642 11.0798 9.47498 11.4877 9.40884C11.8957 9.3427 12.3135 9.37373 12.7072 9.4994L9.40511 12.8015C9.32234 12.5424 9.28035 12.272 9.28065 11.9999Z" fill="#BCBCBC"/>
<path d="M11.9059 14.6251C11.8248 14.6251 11.7449 14.6213 11.6657 14.614L10.4277 15.852C11.1723 16.1372 11.9836 16.2005 12.7634 16.0345C13.5432 15.8684 14.2583 15.48 14.8221 14.9162C15.3858 14.3524 15.7743 13.6373 15.9403 12.8575C16.1064 12.0777 16.043 11.2664 15.7579 10.5219L14.5199 11.7598C14.5272 11.839 14.5309 11.919 14.5309 12.0001C14.5311 12.3448 14.4634 12.6863 14.3315 13.0048C14.1996 13.3234 14.0063 13.6128 13.7625 13.8566C13.5187 14.1004 13.2293 14.2938 12.9107 14.4256C12.5921 14.5575 12.2507 14.6252 11.9059 14.6251Z" fill="#BCBCBC"/>
</svg>
