<svg width="21" height="21" viewBox="0 0 21 21" fill="none" xmlns="http://www.w3.org/2000/svg">
<path d="M10.5008 19.9968C10.8683 19.9883 11.2209 19.8501 11.4963 19.6067C11.7718 19.3633 11.9522 19.0304 12.0058 18.6667H8.9375C8.99261 19.0403 9.18152 19.381 9.46909 19.6257C9.75666 19.8703 10.1233 20.0022 10.5008 19.9968Z" fill="#D7D7D7"/>
<path d="M19.1626 16.4091L18.9643 16.2341C18.4016 15.7328 17.9091 15.1579 17.5001 14.525C17.0534 13.6515 16.7857 12.6975 16.7126 11.7192V8.83748C16.7103 8.48745 16.679 8.13822 16.6193 7.79332C15.6312 7.59022 14.7436 7.05191 14.1069 6.26952C13.4701 5.48713 13.1233 4.50874 13.1251 3.49998V3.13248C12.5161 2.83276 11.8617 2.63566 11.1885 2.54915V1.81415C11.1885 1.60761 11.1064 1.40953 10.9604 1.26349C10.8143 1.11745 10.6162 1.0354 10.4097 1.0354C10.2032 1.0354 10.0051 1.11745 9.85905 1.26349C9.71301 1.40953 9.63096 1.60761 9.63096 1.81415V2.57832C8.12346 2.79097 6.7438 3.54183 5.74668 4.69228C4.74955 5.84272 4.2023 7.31506 4.20596 8.83748V11.7192C4.1329 12.6975 3.86517 13.6515 3.41846 14.525C3.01648 15.1564 2.53191 15.7312 1.97763 16.2341L1.7793 16.4091V18.0541H19.1626V16.4091Z" fill="#D7D7D7"/>
<path d="M17.5007 6.41659C19.1115 6.41659 20.4173 5.11075 20.4173 3.49992C20.4173 1.88909 19.1115 0.583252 17.5007 0.583252C15.8898 0.583252 14.584 1.88909 14.584 3.49992C14.584 5.11075 15.8898 6.41659 17.5007 6.41659Z" fill="#5F53EF"/>
</svg>
