<svg width="23" height="33" viewBox="0 0 23 33" fill="none" xmlns="http://www.w3.org/2000/svg">
<path d="M8.96213 9.85381L10.8549 7.85432L7.86434 1.80536C7.86434 1.80536 5.20817 1.68552 3.62457 2.43612C2.79546 2.85091 2.1065 3.50008 1.64326 4.30297C1.18002 5.10587 0.962905 6.02715 1.01889 6.95235C1.35959 10.1818 2.47 13.2599 5.4353 19.5675C8.64665 25.793 10.388 28.4927 12.7476 30.7318C13.4493 31.3359 14.3127 31.7211 15.231 31.8399C16.1494 31.9588 17.0824 31.806 17.9148 31.4004C19.4984 30.6183 21.0189 28.4359 21.0189 28.4359L18.0284 22.3869L15.2965 22.6645C14.9432 22.8348 14.2492 22.2923 13.4858 21.4913C10.9925 18.89 9.35453 15.5885 8.79177 12.0299C8.62142 10.9135 8.61513 10.0304 8.96213 9.85381Z" stroke="#333333" stroke-width="2" stroke-linecap="round" stroke-linejoin="round"/>
</svg>
