<svg width="17" height="21" viewBox="0 0 17 21" fill="none" xmlns="http://www.w3.org/2000/svg">
<path d="M1.125 20.3441V20.3438V2.625C1.125 2.06141 1.34888 1.52091 1.7474 1.1224C2.14591 0.723883 2.68642 0.5 3.25 0.5H13.75C14.3136 0.5 14.8541 0.723883 15.2526 1.1224C15.6511 1.52091 15.875 2.06142 15.875 2.625V20.3438V20.3441C15.875 20.3712 15.868 20.3979 15.8546 20.4215C15.8411 20.4451 15.8218 20.4648 15.7985 20.4786C15.7751 20.4925 15.7486 20.5 15.7215 20.5005C15.6943 20.5009 15.6676 20.4943 15.6438 20.4813L15.6432 20.481L8.73948 16.7141L8.5 16.5835L8.26052 16.7141L1.35677 20.481L1.35625 20.4813C1.33245 20.4943 1.30566 20.5009 1.27853 20.5005C1.2514 20.5 1.22487 20.4925 1.20153 20.4786C1.17819 20.4648 1.15886 20.4451 1.14545 20.4215C1.13203 20.3979 1.12498 20.3713 1.125 20.3441Z" stroke="#BCBCBC"/>
</svg>
