<svg width="21" height="21" viewBox="0 0 21 21" fill="none" xmlns="http://www.w3.org/2000/svg">
<path d="M18.1863 10.9676L14.741 14.4129C14.615 14.5333 14.4477 14.6008 14.2734 14.6016C14.1433 14.6013 14.0162 14.5624 13.9082 14.4898C13.8002 14.4172 13.7163 14.3141 13.6671 14.1936C13.6178 14.0732 13.6055 13.9408 13.6317 13.8133C13.6579 13.6859 13.7213 13.569 13.8141 13.4777L16.1355 11.1562H8.53125C8.3572 11.1562 8.19028 11.0871 8.06721 10.964C7.94414 10.841 7.875 10.674 7.875 10.5C7.875 10.326 7.94414 10.159 8.06721 10.036C8.19028 9.91289 8.3572 9.84375 8.53125 9.84375H16.1355L13.8141 7.52227C13.6901 7.39934 13.62 7.23219 13.6192 7.05759C13.6184 6.88298 13.687 6.71522 13.81 6.59121C13.9329 6.4672 14.1 6.3971 14.2746 6.39633C14.4492 6.39556 14.617 6.46419 14.741 6.58711L18.1863 10.0324C18.3096 10.1568 18.3787 10.3249 18.3787 10.5C18.3787 10.6751 18.3096 10.8432 18.1863 10.9676ZM8.53125 17.0625H3.9375V3.9375H8.53125C8.7053 3.9375 8.87222 3.86836 8.99529 3.74529C9.11836 3.62222 9.1875 3.4553 9.1875 3.28125C9.1875 3.1072 9.11836 2.94028 8.99529 2.81721C8.87222 2.69414 8.7053 2.625 8.53125 2.625H3.9375C3.5894 2.625 3.25556 2.76328 3.00942 3.00942C2.76328 3.25556 2.625 3.5894 2.625 3.9375V17.0625C2.625 17.4106 2.76328 17.7444 3.00942 17.9906C3.25556 18.2367 3.5894 18.375 3.9375 18.375H8.53125C8.7053 18.375 8.87222 18.3059 8.99529 18.1828C9.11836 18.0597 9.1875 17.8928 9.1875 17.7188C9.1875 17.5447 9.11836 17.3778 8.99529 17.2547C8.87222 17.1316 8.7053 17.0625 8.53125 17.0625Z" fill="#5F53EF"/>
</svg>
