<svg width="20" height="20" viewBox="0 0 20 20" fill="none" xmlns="http://www.w3.org/2000/svg">
<g clip-path="url(#clip0_1_3644)">
<path d="M17.75 16.4062H16.9688V8.125C16.9688 7.83492 16.8535 7.55672 16.6484 7.3516C16.4433 7.14648 16.1651 7.03125 15.875 7.03125H10.7188V3.125C10.7188 2.83492 10.6035 2.55672 10.3984 2.3516C10.1933 2.14648 9.91508 2.03125 9.625 2.03125H2.125C1.83492 2.03125 1.55672 2.14648 1.3516 2.3516C1.14648 2.55672 1.03125 2.83492 1.03125 3.125V16.4062H0.25C0.12568 16.4062 0.00645138 16.4556 -0.0814563 16.5435C-0.169364 16.6315 -0.21875 16.7507 -0.21875 16.875C-0.21875 16.9993 -0.169364 17.1185 -0.0814563 17.2065C0.00645138 17.2944 0.12568 17.3438 0.25 17.3438H17.75C17.8743 17.3438 17.9935 17.2944 18.0815 17.2065C18.1694 17.1185 18.2188 16.9993 18.2188 16.875C18.2188 16.7507 18.1694 16.6315 18.0815 16.5435C17.9935 16.4556 17.8743 16.4062 17.75 16.4062ZM15.875 7.96875C15.9164 7.96875 15.9562 7.98521 15.9855 8.01451C16.0148 8.04382 16.0312 8.08356 16.0312 8.125V16.4062H10.7188V7.96875H15.875ZM1.96875 3.125C1.96875 3.08356 1.98521 3.04382 2.01451 3.01451C2.04382 2.98521 2.08356 2.96875 2.125 2.96875H9.625C9.66644 2.96875 9.70618 2.98521 9.73549 3.01451C9.76479 3.04382 9.78125 3.08356 9.78125 3.125V16.4062H1.96875V3.125ZM3.53125 5.625C3.53125 5.50068 3.58064 5.38145 3.66854 5.29354C3.75645 5.20564 3.87568 5.15625 4 5.15625H6.5C6.62432 5.15625 6.74355 5.20564 6.83146 5.29354C6.91936 5.38145 6.96875 5.50068 6.96875 5.625C6.96875 5.74932 6.91936 5.86855 6.83146 5.95646C6.74355 6.04436 6.62432 6.09375 6.5 6.09375H4C3.87568 6.09375 3.75645 6.04436 3.66854 5.95646C3.58064 5.86855 3.53125 5.74932 3.53125 5.625ZM8.21875 10.625C8.21875 10.7493 8.16936 10.8685 8.08146 10.9565C7.99355 11.0444 7.87432 11.0938 7.75 11.0938H5.25C5.12568 11.0938 5.00645 11.0444 4.91854 10.9565C4.83064 10.8685 4.78125 10.7493 4.78125 10.625C4.78125 10.5007 4.83064 10.3815 4.91854 10.2935C5.00645 10.2056 5.12568 10.1562 5.25 10.1562H7.75C7.87432 10.1562 7.99355 10.2056 8.08146 10.2935C8.16936 10.3815 8.21875 10.5007 8.21875 10.625ZM6.96875 13.75C6.96875 13.8743 6.91936 13.9935 6.83146 14.0815C6.74355 14.1694 6.62432 14.2188 6.5 14.2188H4C3.87568 14.2188 3.75645 14.1694 3.66854 14.0815C3.58064 13.9935 3.53125 13.8743 3.53125 13.75C3.53125 13.6257 3.58064 13.5065 3.66854 13.4185C3.75645 13.3306 3.87568 13.2812 4 13.2812H6.5C6.62432 13.2812 6.74355 13.3306 6.83146 13.4185C6.91936 13.5065 6.96875 13.6257 6.96875 13.75ZM14.4688 13.75C14.4688 13.8743 14.4194 13.9935 14.3315 14.0815C14.2435 14.1694 14.1243 14.2188 14 14.2188H12.75C12.6257 14.2188 12.5065 14.1694 12.4185 14.0815C12.3306 13.9935 12.2812 13.8743 12.2812 13.75C12.2812 13.6257 12.3306 13.5065 12.4185 13.4185C12.5065 13.3306 12.6257 13.2812 12.75 13.2812H14C14.1243 13.2812 14.2435 13.3306 14.3315 13.4185C14.4194 13.5065 14.4688 13.6257 14.4688 13.75ZM12.2812 10.625C12.2812 10.5007 12.3306 10.3815 12.4185 10.2935C12.5065 10.2056 12.6257 10.1562 12.75 10.1562H14C14.1243 10.1562 14.2435 10.2056 14.3315 10.2935C14.4194 10.3815 14.4688 10.5007 14.4688 10.625C14.4688 10.7493 14.4194 10.8685 14.3315 10.9565C14.2435 11.0444 14.1243 11.0938 14 11.0938H12.75C12.6257 11.0938 12.5065 11.0444 12.4185 10.9565C12.3306 10.8685 12.2812 10.7493 12.2812 10.625Z" fill="white"/>
</g>
<defs>
<clipPath id="clip0_1_3644">
<rect width="20" height="20" fill="white"/>
</clipPath>
</defs>
</svg>
