<svg width="26" height="23" viewBox="0 0 26 23" fill="none" xmlns="http://www.w3.org/2000/svg">
<path d="M13.0004 0C19.7251 0 25.1766 4.24891 25.1766 9.49163C25.1766 14.7332 19.7251 18.9821 13.0004 18.9821C12.3308 18.9824 11.6619 18.9398 10.9977 18.8545L5.88603 22.1978C5.30506 22.5051 5.0998 22.4714 5.33869 21.7188L6.37308 17.4537C3.03333 15.7606 0.824219 12.8267 0.824219 9.49163C0.824219 4.25007 6.27567 0 13.0004 0ZM19.8504 9.34667L21.555 7.69535C21.6534 7.59319 21.7083 7.45685 21.7081 7.31504C21.7079 7.17323 21.6527 7.03702 21.5541 6.9351C21.4555 6.83319 21.3212 6.77352 21.1795 6.76867C21.0377 6.76382 20.8997 6.81418 20.7943 6.90912L18.5585 9.073V7.28484C18.5585 7.13967 18.5009 7.00045 18.3982 6.8978C18.2956 6.79516 18.1564 6.73749 18.0112 6.73749C17.866 6.73749 17.7268 6.79516 17.6242 6.8978C17.5215 7.00045 17.4638 7.13967 17.4638 7.28484V10.25C17.4433 10.3346 17.4433 10.4229 17.4638 10.5075V12.1762C17.4638 12.3214 17.5215 12.4606 17.6242 12.5632C17.7268 12.6659 17.866 12.7235 18.0112 12.7235C18.1564 12.7235 18.2956 12.6659 18.3982 12.5632C18.5009 12.4606 18.5585 12.3214 18.5585 12.1762V10.5956L19.0537 10.1167L20.7097 12.4742C20.751 12.5331 20.8036 12.5832 20.8643 12.6218C20.925 12.6603 20.9927 12.6865 21.0636 12.6989C21.1344 12.7113 21.207 12.7096 21.2772 12.6939C21.3474 12.6783 21.4139 12.6489 21.4727 12.6076C21.5316 12.5662 21.5817 12.5137 21.6203 12.453C21.6588 12.3922 21.685 12.3245 21.6974 12.2537C21.7098 12.1828 21.7081 12.1102 21.6924 12.04C21.6768 11.9698 21.6474 11.9034 21.6061 11.8445L19.8504 9.34551V9.34667ZM16.4202 11.5778H14.7271V7.30223C14.7206 7.16158 14.6602 7.02883 14.5584 6.93158C14.4565 6.83433 14.3211 6.78007 14.1803 6.78007C14.0395 6.78007 13.9041 6.83433 13.8023 6.93158C13.7005 7.02883 13.64 7.16158 13.6336 7.30223V12.1252C13.6336 12.4267 13.8771 12.6725 14.1798 12.6725H16.4202C16.5653 12.6725 16.7046 12.6148 16.8072 12.5122C16.9099 12.4095 16.9675 12.2703 16.9675 12.1252C16.9675 11.98 16.9099 11.8408 16.8072 11.7381C16.7046 11.6355 16.5653 11.5778 16.4202 11.5778ZM9.62818 10.3115L10.4353 8.33199L11.1751 10.3115H9.62818ZM12.5539 10.8774L12.5563 10.8588C12.556 10.7209 12.5033 10.5883 12.409 10.4878L11.196 7.24077C11.1452 7.08604 11.0483 6.95051 10.9184 6.85229C10.7885 6.75407 10.6317 6.69784 10.4689 6.6911C10.305 6.69038 10.1447 6.73959 10.0095 6.83219C9.87419 6.92479 9.77032 7.05638 9.71168 7.20946L7.78552 11.935C7.75834 12.0015 7.74453 12.0728 7.74488 12.1447C7.74523 12.2166 7.75974 12.2877 7.78758 12.3539C7.81541 12.4202 7.85603 12.4804 7.90711 12.5309C7.95819 12.5815 8.01874 12.6216 8.08529 12.6487C8.15183 12.6759 8.22309 12.6897 8.29497 12.6894C8.36686 12.689 8.43797 12.6745 8.50425 12.6467C8.57053 12.6188 8.63067 12.5782 8.68125 12.5271C8.73183 12.4761 8.77186 12.4155 8.79904 12.349L9.18172 11.4062H11.5822L11.9289 12.3339C11.9525 12.4032 11.9897 12.4671 12.0384 12.5218C12.0872 12.5765 12.1464 12.6209 12.2125 12.6523C12.2787 12.6837 12.3505 12.7014 12.4237 12.7046C12.4969 12.7077 12.5699 12.6961 12.6385 12.6705C12.7072 12.6449 12.7699 12.6058 12.8232 12.5555C12.8764 12.5051 12.919 12.4446 12.9484 12.3776C12.9778 12.3105 12.9935 12.2382 12.9944 12.165C12.9954 12.0917 12.9817 12.019 12.954 11.9512L12.5539 10.8774ZM8.70163 7.30803C8.70163 7.16307 8.64412 7.02402 8.54173 6.92141C8.43933 6.81879 8.30041 6.76099 8.15544 6.76068H4.39242C4.24726 6.76068 4.10804 6.81835 4.00539 6.921C3.90274 7.02364 3.84507 7.16286 3.84507 7.30803C3.84507 7.4532 3.90274 7.59242 4.00539 7.69507C4.10804 7.79771 4.24726 7.85538 4.39242 7.85538H5.7376V12.1878C5.7376 12.3329 5.79527 12.4722 5.89792 12.5748C6.00056 12.6775 6.13978 12.7351 6.28495 12.7351C6.43012 12.7351 6.56933 12.6775 6.67198 12.5748C6.77463 12.4722 6.8323 12.3329 6.8323 12.1878V7.85538H8.15428C8.29945 7.85538 8.43867 7.79771 8.54132 7.69507C8.64397 7.59242 8.70163 7.4532 8.70163 7.30803Z" fill="#321C1B"/>
<rect x="2.69727" y="5.39258" width="20.6059" height="7.49304" fill="#321C1B"/>
</svg>
