<svg width="24" height="24" viewBox="0 0 24 24" fill="none" xmlns="http://www.w3.org/2000/svg">
<path d="M22.4131 11.6862C20.1665 7.53286 16.2265 5.01953 11.8665 5.01953C7.50648 5.01953 3.55982 7.53286 1.33315 11.6862L1.14648 11.9995L1.31982 12.3195C3.56648 16.4729 7.50648 18.9862 11.8665 18.9862C16.2265 18.9862 20.1731 16.5062 22.4131 12.3195L22.5865 11.9995L22.4131 11.6862ZM11.8665 17.6195C8.11315 17.6195 4.66648 15.5262 2.66648 11.9995C4.66648 8.47286 8.11315 6.37953 11.8665 6.37953C15.6198 6.37953 19.0265 8.47953 21.0598 11.9995C19.0265 15.5262 15.6131 17.6195 11.8665 17.6195Z" fill="#BCBCBC"/>
<path d="M12.0605 7.44641C11.1565 7.45301 10.2749 7.72733 9.52675 8.23473C8.77864 8.74213 8.19768 9.45985 7.85724 10.2972C7.5168 11.1346 7.43216 12.0541 7.61399 12.9396C7.79583 13.8251 8.23599 14.6368 8.87889 15.2722C9.52179 15.9077 10.3386 16.3384 11.2261 16.5099C12.1136 16.6814 13.0321 16.586 13.8654 16.2359C14.6988 15.8857 15.4097 15.2964 15.9084 14.5425C16.407 13.7885 16.6711 12.9037 16.6671 11.9997C16.6645 11.398 16.5432 10.8028 16.3101 10.248C16.077 9.69329 15.7367 9.19001 15.3088 8.76701C14.8808 8.34402 14.3736 8.00964 13.8162 7.78302C13.2588 7.55641 12.6622 7.44202 12.0605 7.44641ZM12.0605 15.2597C11.422 15.2532 10.7997 15.0581 10.2717 14.699C9.7437 14.3398 9.3336 13.8327 9.09289 13.2413C8.85219 12.6499 8.7916 12.0005 8.91874 11.3748C9.04588 10.749 9.35509 10.1748 9.80752 9.72422C10.2599 9.27363 10.8354 8.96678 11.4617 8.84219C12.0879 8.7176 12.7371 8.78084 13.3275 9.02396C13.9179 9.26708 14.4234 9.67924 14.7803 10.2087C15.1373 10.7381 15.3298 11.3612 15.3338 11.9997C15.3356 12.4295 15.252 12.8553 15.088 13.2525C14.924 13.6497 14.6827 14.0104 14.3782 14.3136C14.0737 14.6169 13.7121 14.8566 13.3142 15.0191C12.9163 15.1815 12.4902 15.2633 12.0605 15.2597Z" fill="#BCBCBC"/>
</svg>
