<svg width="20" height="20" viewBox="0 0 20 20" fill="none" xmlns="http://www.w3.org/2000/svg">
<g clip-path="url(#clip0_1_4646)">
<path d="M0.02125 10.4175C0.2425 15.7369 4.62687 20 10 20C15.3731 20 19.7575 15.7369 19.9788 10.4175C19.9919 10.384 19.9991 10.3485 20 10.3125C20 10.29 19.9919 10.2706 19.9875 10.25C19.9894 10.1663 20 10.0844 20 10C20 4.48625 15.5138 0 10 0C4.48625 0 0 4.48625 0 10C0 10.0844 0.010625 10.1663 0.0125 10.25C0.008125 10.2706 0 10.29 0 10.3125C0 10.35 0.009375 10.3844 0.02125 10.4175ZM15.5756 14.2138C14.7264 13.8612 13.8438 13.5951 12.9412 13.4194C13.04 12.5113 13.0981 11.5681 13.1163 10.6256H16.2288C16.1719 11.9094 15.9437 13.1213 15.5756 14.2138ZM16.8531 10.625H19.3431C19.2329 12.3267 18.6572 13.9653 17.6787 15.3619C17.1927 15.0198 16.6791 14.7188 16.1431 14.4619C16.5462 13.2937 16.7944 11.9975 16.8531 10.625ZM7.74312 13.9287C8.48967 13.811 9.24422 13.7512 10 13.75C10.765 13.75 11.5206 13.8137 12.2563 13.9287C11.8225 17.2631 10.875 19.375 10 19.375C9.125 19.375 8.1775 17.2631 7.74312 13.9287ZM8.6925 19.165C6.97312 18.6138 5.51875 16.9956 4.64125 14.8C5.44502 14.4638 6.28044 14.209 7.135 14.0394C7.42188 16.2244 7.94625 18.1281 8.6925 19.165ZM7.67125 6.69312C8.44172 6.81312 9.22024 6.87393 10 6.875C10.7798 6.87393 11.5583 6.81312 12.3287 6.69312C12.4362 7.70562 12.5 8.81063 12.5 10H7.5C7.5 8.81063 7.56375 7.70562 7.67125 6.69312ZM12.4906 10.625C12.4757 11.5209 12.4215 12.4157 12.3281 13.3069C11.5579 13.1868 10.7795 13.126 10 13.125C9.22024 13.126 8.44171 13.1869 7.67125 13.3069C7.57761 12.4157 7.52339 11.5209 7.50875 10.625H12.4906ZM12.8656 14.0394C13.7431 14.2156 14.58 14.4719 15.3594 14.8C14.4819 16.9956 13.0275 18.6138 11.3081 19.165C12.0538 18.1281 12.5781 16.2244 12.8656 14.0394ZM13.125 10C13.125 8.8525 13.0612 7.69 12.9412 6.58125C13.8663 6.39875 14.7512 6.13125 15.5756 5.78687C16.0031 7.055 16.25 8.48375 16.25 10H13.125ZM12.8656 5.96062C12.5781 3.77562 12.0544 1.87125 11.3075 0.835C13.0269 1.38625 14.4812 3.00437 15.3587 5.2C14.5553 5.53646 13.7201 5.79128 12.8656 5.96062ZM12.2569 6.07125C11.5206 6.18625 10.765 6.25 10 6.25C9.235 6.25 8.47937 6.18625 7.74312 6.07125C8.1775 2.73687 9.125 0.625 10 0.625C10.875 0.625 11.8225 2.73687 12.2569 6.07125ZM7.13438 5.96062C6.27983 5.7909 5.44442 5.53609 4.64062 5.2C5.51813 3.00437 6.9725 1.38625 8.69187 0.835C7.94625 1.87188 7.42188 3.77562 7.13438 5.96062ZM7.05875 6.58125C6.93667 7.71675 6.87534 8.85796 6.875 10H3.75C3.75 8.48375 3.99688 7.055 4.42438 5.78625C5.24875 6.13125 6.13375 6.39812 7.05875 6.58125ZM6.88375 10.625C6.90188 11.5675 6.96 12.5106 7.05875 13.4194C6.13375 13.6019 5.24875 13.8694 4.42438 14.2138C4.05625 13.1213 3.82812 11.9094 3.77125 10.625H6.88375ZM3.85625 14.4619C3.32065 14.719 2.80723 15.0201 2.32125 15.3619C1.34273 13.9653 0.766964 12.3267 0.656875 10.625H3.14687C3.20562 11.9975 3.45375 13.2937 3.85625 14.4619ZM2.69563 15.8625C3.13304 15.5544 3.59429 15.2817 4.075 15.0469C4.7025 16.6 5.60563 17.8894 6.69125 18.7612C5.12506 18.1679 3.74569 17.1672 2.69563 15.8625ZM13.3088 18.7606C14.395 17.8894 15.2975 16.5994 15.925 15.0462C16.4187 15.2862 16.8762 15.5625 17.3044 15.8619C16.2547 17.167 14.8752 18.1678 13.3088 18.7606ZM16.875 10C16.875 8.39563 16.6075 6.88312 16.1437 5.53813C16.6938 5.27437 17.205 4.97125 17.6794 4.63812C18.7833 6.20816 19.3754 8.08074 19.375 10H16.875ZM17.305 4.1375C16.8769 4.43687 16.4194 4.71313 15.9256 4.95312C15.2981 3.4 14.395 2.11 13.3094 1.23875C14.8754 1.83238 16.2547 2.83303 17.305 4.1375ZM6.69125 1.23937C5.605 2.11063 4.7025 3.40063 4.075 4.95375C3.59433 4.71861 3.13309 4.44567 2.69563 4.1375C3.74555 2.83277 5.12499 1.83224 6.69125 1.23937ZM2.32125 4.63812C2.80714 4.98007 3.32057 5.2811 3.85625 5.53813C3.36745 6.97475 3.12034 8.4825 3.125 10H0.625C0.625 8.00625 1.25563 6.15938 2.32125 4.63812Z" fill="white"/>
</g>
<defs>
<clipPath id="clip0_1_4646">
<rect width="20" height="20" fill="white"/>
</clipPath>
</defs>
</svg>
