<svg width="53" height="55" viewBox="0 0 53 55" fill="none" xmlns="http://www.w3.org/2000/svg">
<ellipse cx="26.5" cy="27.1201" rx="26" ry="27.1201" fill="white"/>
<mask id="mask0_120_12207" style="mask-type:alpha" maskUnits="userSpaceOnUse" x="7" y="7" width="39" height="38">
<path d="M7.5 24.9384C7.5 15.0313 15.5313 7 25.4384 7H27.4116C37.3187 7 45.35 15.0313 45.35 24.9384V26.9116C45.35 36.8187 37.3187 44.85 27.4116 44.85H25.4384C15.5313 44.85 7.5 36.8187 7.5 26.9116V24.9384Z" fill="#3F21DB"/>
</mask>
<g mask="url(#mask0_120_12207)">
<path fill-rule="evenodd" clip-rule="evenodd" d="M15.2504 24.0557C20.293 24.0557 24.3808 19.9678 24.3808 14.9252C24.3808 11.9405 22.9488 9.29038 20.7343 7.62435C22.235 7.21713 23.8139 6.99982 25.4435 6.99982H27.4167C27.5192 6.99982 27.6214 7.00068 27.7235 7.00239C29.1809 9.29201 30.0251 12.01 30.0251 14.9252C30.0251 23.0851 23.4102 29.6999 15.2504 29.6999C12.4144 29.6999 9.76501 28.9009 7.51511 27.5157C7.50847 27.3151 7.50513 27.1137 7.50513 26.9114V24.9382C7.50513 23.4202 7.69369 21.9462 8.04866 20.5384C9.71962 22.6792 12.3242 24.0557 15.2504 24.0557ZM7.51511 27.5157C7.83377 37.143 15.7386 44.8498 25.4435 44.8498H27.4167C37.3238 44.8498 45.3551 36.8185 45.3551 26.9114V24.9382C45.3551 15.1336 37.4891 7.16614 27.7235 7.00239C25.1015 2.88313 20.4951 0.150391 15.2504 0.150391C7.09048 0.150391 0.475586 6.76528 0.475586 14.9252C0.475586 20.2491 3.29146 24.9153 7.51511 27.5157ZM8.04866 20.5384C6.84003 18.99 6.11988 17.0417 6.11988 14.9252C6.11988 9.88254 10.2077 5.79469 15.2504 5.79469C17.3084 5.79469 19.2073 6.47557 20.7343 7.62435C14.5095 9.31341 9.62929 14.2698 8.04866 20.5384ZM29.7185 32.9827C30.2284 33.4926 30.8566 33.7475 31.6032 33.7475C32.3498 33.7475 32.978 33.4926 33.4879 32.9827C33.9978 32.4729 34.2527 31.8355 34.2527 31.0707C34.2527 30.2877 33.9978 29.6595 33.4879 29.186C32.978 28.6944 32.3498 28.4485 31.6032 28.4485C30.8566 28.4485 30.2284 28.6944 29.7185 29.186C29.2086 29.6595 28.9537 30.2877 28.9537 31.0707C28.9537 31.8355 29.2086 32.4729 29.7185 32.9827Z" fill="white"/>
<path fill-rule="evenodd" clip-rule="evenodd" d="M15.2504 24.0557C20.293 24.0557 24.3808 19.9678 24.3808 14.9252C24.3808 11.9405 22.9488 9.29038 20.7343 7.62435C22.235 7.21713 23.8139 6.99982 25.4435 6.99982H27.4167C27.5192 6.99982 27.6214 7.00068 27.7235 7.00239C29.1809 9.29201 30.0251 12.01 30.0251 14.9252C30.0251 23.0851 23.4102 29.6999 15.2504 29.6999C12.4144 29.6999 9.76501 28.9009 7.51511 27.5157C7.50847 27.3151 7.50513 27.1137 7.50513 26.9114V24.9382C7.50513 23.4202 7.69369 21.9462 8.04866 20.5384C9.71962 22.6792 12.3242 24.0557 15.2504 24.0557ZM7.51511 27.5157C7.83377 37.143 15.7386 44.8498 25.4435 44.8498H27.4167C37.3238 44.8498 45.3551 36.8185 45.3551 26.9114V24.9382C45.3551 15.1336 37.4891 7.16614 27.7235 7.00239C25.1015 2.88313 20.4951 0.150391 15.2504 0.150391C7.09048 0.150391 0.475586 6.76528 0.475586 14.9252C0.475586 20.2491 3.29146 24.9153 7.51511 27.5157ZM8.04866 20.5384C6.84003 18.99 6.11988 17.0417 6.11988 14.9252C6.11988 9.88254 10.2077 5.79469 15.2504 5.79469C17.3084 5.79469 19.2073 6.47557 20.7343 7.62435C14.5095 9.31341 9.62929 14.2698 8.04866 20.5384ZM29.7185 32.9827C30.2284 33.4926 30.8566 33.7475 31.6032 33.7475C32.3498 33.7475 32.978 33.4926 33.4879 32.9827C33.9978 32.4729 34.2527 31.8355 34.2527 31.0707C34.2527 30.2877 33.9978 29.6595 33.4879 29.186C32.978 28.6944 32.3498 28.4485 31.6032 28.4485C30.8566 28.4485 30.2284 28.6944 29.7185 29.186C29.2086 29.6595 28.9537 30.2877 28.9537 31.0707C28.9537 31.8355 29.2086 32.4729 29.7185 32.9827Z" fill="url(#paint0_linear_120_12207)"/>
</g>
<defs>
<linearGradient id="paint0_linear_120_12207" x1="11.9" y1="10.0494" x2="46.8799" y2="44.8498" gradientUnits="userSpaceOnUse">
<stop stop-color="#3F21DB"/>
<stop offset="0.284626" stop-color="#3F21DB" stop-opacity="0.934536"/>
<stop offset="1" stop-color="#3F21DB" stop-opacity="0.77"/>
</linearGradient>
</defs>
</svg>
