<svg width="34" height="34" viewBox="0 0 34 34" fill="none" xmlns="http://www.w3.org/2000/svg">
<path d="M16.9999 32.8011C25.7266 32.8011 32.801 25.7267 32.801 17C32.801 8.27329 25.7266 1.19888 16.9999 1.19888C8.27314 1.19888 1.19873 8.27329 1.19873 17C1.19873 25.7267 8.27314 32.8011 16.9999 32.8011Z" stroke="#333333" stroke-width="2" stroke-linecap="round" stroke-linejoin="round"/>
<path d="M11.9457 13.2307C11.9457 13.5864 11.8403 13.9341 11.6427 14.2298C11.4451 14.5256 11.1642 14.756 10.8356 14.8922C10.507 15.0283 10.1454 15.0639 9.79659 14.9945C9.44775 14.9251 9.12733 14.7538 8.87583 14.5023C8.62434 14.2508 8.45306 13.9304 8.38367 13.5816C8.31428 13.2327 8.34992 12.8712 8.48603 12.5426C8.62213 12.214 8.85263 11.9331 9.14836 11.7355C9.44409 11.5379 9.79177 11.4324 10.1474 11.4324C10.6244 11.4324 11.0818 11.6219 11.419 11.9591C11.7563 12.2964 11.9457 12.7538 11.9457 13.2307Z" fill="#333333"/>
<path d="M23.8525 15.029C24.8457 15.029 25.6508 14.2239 25.6508 13.2307C25.6508 12.2376 24.8457 11.4324 23.8525 11.4324C22.8593 11.4324 22.0542 12.2376 22.0542 13.2307C22.0542 14.2239 22.8593 15.029 23.8525 15.029Z" fill="#333333"/>
<path d="M21.5412 19.1004C21.5412 20.3049 21.0627 21.46 20.211 22.3116C19.3593 23.1633 18.2042 23.6417 16.9998 23.6417C15.7954 23.6417 14.6403 23.1633 13.7886 22.3116C12.9369 21.46 12.4585 20.3049 12.4585 19.1004" stroke="#333333" stroke-width="2" stroke-linecap="round" stroke-linejoin="round"/>
</svg>
