<svg width="20" height="20" viewBox="0 0 20 20" fill="none" xmlns="http://www.w3.org/2000/svg">
<rect width="20" height="20" fill="white"/>
<path fill-rule="evenodd" clip-rule="evenodd" d="M10.0002 0.833374C4.93766 0.833374 0.833496 4.93754 0.833496 10C0.833496 15.0625 4.93766 19.1667 10.0002 19.1667C15.0627 19.1667 19.1668 15.0625 19.1668 10C19.1668 4.93754 15.0627 0.833374 10.0002 0.833374ZM13.9735 8.45004C14.0467 8.36641 14.1024 8.26899 14.1373 8.16351C14.1723 8.05804 14.1858 7.94664 14.1771 7.83586C14.1683 7.72509 14.1375 7.61718 14.0865 7.51848C14.0354 7.41978 13.9652 7.3323 13.8798 7.26116C13.7944 7.19002 13.6957 7.13668 13.5894 7.10426C13.4831 7.07184 13.3714 7.06101 13.2609 7.0724C13.1504 7.08379 13.0432 7.11716 12.9458 7.17057C12.8483 7.22397 12.7626 7.29633 12.6935 7.38337L9.11016 11.6825L7.256 9.82754C7.09883 9.67574 6.88833 9.59175 6.66983 9.59365C6.45133 9.59554 6.24232 9.68319 6.08781 9.83769C5.93331 9.9922 5.84567 10.2012 5.84377 10.4197C5.84187 10.6382 5.92586 10.8487 6.07766 11.0059L8.57766 13.5059C8.65954 13.5877 8.75758 13.6516 8.86551 13.6934C8.97344 13.7353 9.08891 13.7542 9.20455 13.7489C9.3202 13.7437 9.43348 13.7144 9.53717 13.6629C9.64087 13.6115 9.7327 13.539 9.80683 13.45L13.9735 8.45004Z" fill="#5F53EF"/>
</svg>
