<svg width="26" height="25" viewBox="0 0 26 25" fill="none" xmlns="http://www.w3.org/2000/svg">
<path d="M17.6563 8.62036C18.2776 8.62036 18.7813 8.11668 18.7813 7.49536C18.7813 6.87404 18.2776 6.37036 17.6563 6.37036C17.0349 6.37036 16.5312 6.87404 16.5312 7.49536C16.5312 8.11668 17.0349 8.62036 17.6563 8.62036Z" fill="black"/>
<path d="M12.652 7.68604C11.6998 7.68604 10.7691 7.96837 9.97741 8.49735C9.18574 9.02633 8.56871 9.77818 8.20434 10.6578C7.83998 11.5375 7.74464 12.5054 7.93039 13.4393C8.11615 14.3731 8.57464 15.2309 9.2479 15.9042C9.92116 16.5774 10.7789 17.0359 11.7128 17.2217C12.6466 17.4074 13.6146 17.3121 14.4942 16.9477C15.3739 16.5833 16.1257 15.9663 16.6547 15.1746C17.1837 14.383 17.466 13.4522 17.466 12.5001C17.466 11.2233 16.9588 9.99885 16.056 9.09604C15.1532 8.19323 13.9287 7.68604 12.652 7.68604ZM12.652 15.6251C12.0339 15.6251 11.4297 15.4418 10.9158 15.0984C10.4019 14.7551 10.0014 14.267 9.76483 13.696C9.52831 13.125 9.46642 12.4966 9.587 11.8904C9.70758 11.2843 10.0052 10.7274 10.4422 10.2904C10.8793 9.85335 11.4361 9.55572 12.0423 9.43514C12.6485 9.31456 13.2768 9.37645 13.8478 9.61297C14.4189 9.8495 14.9069 10.25 15.2503 10.7639C15.5937 11.2778 15.777 11.882 15.777 12.5001C15.777 13.3289 15.4477 14.1238 14.8617 14.7098C14.2756 15.2959 13.4808 15.6251 12.652 15.6251Z" fill="black"/>
<path d="M12.6523 4.81406C15.1555 4.81406 15.4523 4.82344 16.4406 4.86875C17.035 4.87581 17.6238 4.98495 18.1812 5.19141C18.5857 5.34742 18.953 5.58636 19.2595 5.89287C19.566 6.19939 19.8049 6.56667 19.9609 6.97109C20.1674 7.52854 20.2765 8.11731 20.2836 8.71172C20.3289 9.7 20.3383 9.99687 20.3383 12.5008C20.3383 15.0047 20.3289 15.3 20.2836 16.2883C20.2765 16.8827 20.1674 17.4715 19.9609 18.0289C19.8049 18.4333 19.566 18.8006 19.2595 19.1071C18.953 19.4136 18.5857 19.6526 18.1812 19.8086C17.6238 20.0151 17.035 20.1242 16.4406 20.1312C15.4523 20.1766 15.1555 20.1859 12.6523 20.1859C10.1492 20.1859 9.85234 20.1766 8.86406 20.1312C8.26966 20.1242 7.68088 20.0151 7.12344 19.8086C6.71901 19.6526 6.35173 19.4136 6.04522 19.1071C5.73871 18.8006 5.49976 18.4333 5.34375 18.0289C5.13729 17.4715 5.02815 16.8827 5.02109 16.2883C4.97578 15.3 4.96641 15.0031 4.96641 12.5C4.96641 9.99688 4.97578 9.7 5.02109 8.71172C5.02815 8.11731 5.13729 7.52854 5.34375 6.97109C5.49976 6.56667 5.73871 6.19939 6.04522 5.89287C6.35173 5.58636 6.71901 5.34742 7.12344 5.19141C7.68088 4.98495 8.26966 4.87581 8.86406 4.86875C9.85234 4.82344 10.1492 4.81406 12.6523 4.81406V4.81406ZM12.6523 3.125C10.1062 3.125 9.78672 3.13594 8.78672 3.18125C8.0092 3.19695 7.23997 3.34435 6.51172 3.61719C5.88885 3.85804 5.32317 4.22639 4.85095 4.69861C4.37873 5.17083 4.01039 5.7365 3.76953 6.35938C3.49661 7.08787 3.34921 7.85737 3.33359 8.63516C3.28828 9.63516 3.27734 9.95313 3.27734 12.5C3.27734 15.0469 3.28828 15.3656 3.33359 16.3656C3.34929 17.1431 3.49669 17.9124 3.76953 18.6406C4.01039 19.2635 4.37873 19.8292 4.85095 20.3014C5.32317 20.7736 5.88885 21.142 6.51172 21.3828C7.24021 21.6557 8.00972 21.8031 8.7875 21.8187C9.7875 21.8641 10.1062 21.875 12.6523 21.875C15.1984 21.875 15.518 21.8641 16.518 21.8187C17.2958 21.8031 18.0653 21.6557 18.7938 21.3828C19.4166 21.142 19.9823 20.7736 20.4545 20.3014C20.9267 19.8292 21.2951 19.2635 21.5359 18.6406C21.8086 17.9121 21.9557 17.1426 21.9711 16.3648C22.0164 15.3648 22.0273 15.0469 22.0273 12.5C22.0273 9.95313 22.0164 9.63438 21.9711 8.63438C21.9554 7.85685 21.808 7.08762 21.5352 6.35938C21.2943 5.7365 20.926 5.17083 20.4537 4.69861C19.9815 4.22639 19.4158 3.85804 18.793 3.61719C18.0644 3.34453 17.2949 3.19739 16.5172 3.18203C15.5172 3.13516 15.1992 3.125 12.6523 3.125Z" fill="black"/>
</svg>
