<svg width="24" height="24" viewBox="0 0 24 24" fill="none" xmlns="http://www.w3.org/2000/svg">
<path fill-rule="evenodd" clip-rule="evenodd" d="M10.3138 3.66333C10.7696 3.23735 11.3729 3 12 3C12.6271 3 13.2304 3.23735 13.6862 3.66333C13.6862 3.66336 13.6861 3.66329 13.6862 3.66333L19.7185 9.30061C20.1233 9.67875 20.4457 10.1346 20.6661 10.6403C20.8864 11.146 21 11.6908 21 12.2414C21 12.2414 21 12.2413 21 12.2414V18.5729C21 19.2166 20.7414 19.8339 20.2811 20.2891C19.8208 20.7443 19.1964 21 18.5455 21H5.45455C4.80356 21 4.17924 20.7443 3.71892 20.2891C3.2586 19.8339 3 19.2166 3 18.5729V12.2415C3 12.2414 3 12.2415 3 12.2415C2.99995 11.6909 3.11358 11.146 3.33392 10.6403C3.55425 10.1347 3.87666 9.67882 4.28138 9.30069M4.28138 9.30069L10.3138 3.66333C10.3139 3.66329 10.3138 3.66336 10.3138 3.66333M12 4.61807C11.7909 4.61807 11.5898 4.6972 11.4379 4.83922L5.40534 10.4767C5.16248 10.7036 4.96893 10.9772 4.83671 11.2806C4.7045 11.584 4.63633 11.9109 4.63636 12.2413V18.5729C4.63636 18.7875 4.72256 18.9932 4.876 19.145C5.02944 19.2967 5.23755 19.3819 5.45455 19.3819H18.5455C18.7624 19.3819 18.9706 19.2967 19.124 19.145C19.2774 18.9932 19.3636 18.7875 19.3636 18.5729V12.2414C19.3637 11.911 19.2955 11.584 19.1633 11.2806C19.0311 10.9772 18.8376 10.7037 18.5947 10.4768L12.5622 4.83932C12.4103 4.69731 12.2091 4.61807 12 4.61807Z" fill="white"/>
</svg>
