<svg width="15" height="16" viewBox="0 0 15 16" fill="none" xmlns="http://www.w3.org/2000/svg">
<path d="M14.0524 3.69766L11.4435 1.07543C11.2711 0.903907 11.0378 0.807617 10.7946 0.807617C10.5514 0.807617 10.3181 0.903907 10.1457 1.07543L0.896827 10.311L0.052382 13.9554C0.0232515 14.0887 0.0242501 14.2267 0.0553048 14.3595C0.0863595 14.4923 0.146686 14.6165 0.231877 14.7229C0.317068 14.8294 0.424971 14.9156 0.547705 14.975C0.670438 15.0344 0.804901 15.0657 0.941271 15.0665C1.00481 15.073 1.06884 15.073 1.13238 15.0665L4.81683 14.2221L14.0524 4.99543C14.2239 4.82304 14.3202 4.58974 14.3202 4.34654C14.3202 4.10335 14.2239 3.87005 14.0524 3.69766ZM4.37238 13.4221L0.919049 14.1465L1.70572 10.7599L8.62572 3.86654L11.2924 6.53321L4.37238 13.4221ZM11.8879 5.88877L9.22127 3.2221L10.7679 1.68432L13.3902 4.35099L11.8879 5.88877Z" fill="#1A1A1A"/>
</svg>
