<svg width="361" height="124" viewBox="0 0 361 124" fill="none" xmlns="http://www.w3.org/2000/svg">
<mask id="mask0_107_14550" style="mask-type:alpha" maskUnits="userSpaceOnUse" x="0" y="0" width="361" height="124">
<rect x="0.347656" width="360" height="124" fill="#EAE7FB"/>
</mask>
<g mask="url(#mask0_107_14550)">
<rect x="0.347656" width="360" height="124" fill="#FEFFB5"/>
<path fill-rule="evenodd" clip-rule="evenodd" d="M309.447 30.4503C309.518 30.4395 309.579 30.4835 309.584 30.5485C309.717 32.2515 309.874 33.3356 310.032 34.4214L310.033 34.425C310.191 35.5107 310.349 36.5987 310.482 38.3047L310.482 38.3048C310.6 39.8569 310.756 41.4568 311.726 42.6024L311.727 42.6025C312.707 43.7609 314.211 44.1791 315.896 44.4032C316.486 44.4816 317.092 44.5357 317.703 44.5903C317.967 44.6138 318.232 44.6375 318.497 44.6632C319.372 44.7482 320.244 44.8555 321.059 45.0575C325.174 46.0748 327.808 49.6569 328.881 53.4425C329.712 56.3776 329.783 59.4936 329.853 62.5881C329.873 63.4802 329.894 64.3706 329.932 65.2543C330.342 74.4227 332.734 83.252 336.968 91.2263C338.811 94.6897 341.092 98.0578 344.588 100.078C346.863 101.392 349.556 102.069 352.301 102.429C355.952 102.904 359.827 102.809 363.405 101.505C366.983 100.2 370.22 97.5445 371.463 94.2044C371.487 94.1405 371.561 94.1018 371.628 94.118C371.695 94.1342 371.73 94.1991 371.706 94.263C370.429 97.6932 367.116 100.399 363.479 101.726C359.843 103.052 355.918 103.144 352.243 102.665L352.272 102.547L352.242 102.665C349.479 102.304 346.75 101.62 344.438 100.284L344.513 100.181L344.437 100.284C340.886 98.2316 338.582 94.8187 336.735 91.3475L336.735 91.3475C332.486 83.3457 330.086 74.4861 329.675 65.2862L329.675 65.2861C329.636 64.3919 329.616 63.4947 329.595 62.5984C329.525 59.5087 329.454 56.4295 328.631 53.5229C327.57 49.7773 324.975 46.2784 320.971 45.2886L320.971 45.2886C320.175 45.0912 319.319 44.9853 318.446 44.9006C318.186 44.8754 317.924 44.852 317.662 44.8285C317.048 44.7737 316.432 44.7188 315.837 44.6396C314.136 44.4135 312.555 43.9853 311.518 42.7603C310.497 41.5552 310.343 39.8842 310.225 38.3437C310.093 36.645 309.935 35.5626 309.777 34.478L309.777 34.4747C309.619 33.3877 309.46 32.2979 309.327 30.5876C309.322 30.5226 309.376 30.4611 309.447 30.4503Z" fill="black"/>
<path d="M276.071 66.2134H263.352V80.5401H276.071V66.2134Z" fill="white"/>
<path fill-rule="evenodd" clip-rule="evenodd" d="M265.168 70.1815C265.168 70.1001 265.224 70.0342 265.292 70.0342H273.221C273.289 70.0342 273.345 70.1001 273.345 70.1815V75.6175C273.345 75.6989 273.289 75.7649 273.221 75.7649H265.292C265.224 75.7649 265.168 75.6989 265.168 75.6175V70.1815ZM265.416 70.3289V75.4702H273.097V70.3289H265.416Z" fill="black"/>
<path d="M276.071 77.6748H263.352V80.5401H276.071V77.6748Z" fill="white"/>
<path fill-rule="evenodd" clip-rule="evenodd" d="M263.352 77.803C263.352 77.7322 263.408 77.6748 263.478 77.6748H275.945C276.015 77.6748 276.071 77.7322 276.071 77.803V80.4119C276.071 80.4827 276.015 80.5401 275.945 80.5401H263.478C263.408 80.5401 263.352 80.4827 263.352 80.4119V77.803ZM263.604 77.9312V80.2837H275.818V77.9312H263.604Z" fill="black"/>
<path d="M274.254 67.646C274.254 67.5516 274.228 67.4592 274.178 67.3807C274.128 67.3022 274.057 67.241 273.974 67.2048C273.891 67.1687 273.799 67.1592 273.711 67.1776C273.623 67.1961 273.542 67.2415 273.479 67.3083C273.415 67.3751 273.372 67.4602 273.354 67.5528C273.337 67.6455 273.346 67.7415 273.38 67.8288C273.415 67.916 273.473 67.9906 273.548 68.0431C273.622 68.0956 273.71 68.1236 273.8 68.1236C273.92 68.1236 274.036 68.0733 274.121 67.9837C274.206 67.8941 274.254 67.7727 274.254 67.646Z" fill="white"/>
<path d="M264.26 67.646C264.26 67.5516 264.286 67.4592 264.336 67.3807C264.386 67.3022 264.457 67.241 264.54 67.2048C264.623 67.1687 264.715 67.1592 264.803 67.1776C264.891 67.1961 264.972 67.2415 265.035 67.3083C265.099 67.3751 265.142 67.4602 265.16 67.5528C265.177 67.6455 265.168 67.7415 265.134 67.8288C265.099 67.916 265.041 67.9906 264.966 68.0431C264.892 68.0956 264.804 68.1236 264.714 68.1236C264.594 68.1236 264.478 68.0733 264.393 67.9837C264.308 67.8941 264.26 67.7727 264.26 67.646Z" fill="white"/>
<path d="M310.643 27.5338H308.66L308.289 24.6685H311.015L310.643 27.5338Z" fill="black"/>
<path fill-rule="evenodd" clip-rule="evenodd" d="M308.32 24.7161C308.344 24.6858 308.379 24.6685 308.415 24.6685H310.888C310.925 24.6685 310.96 24.6858 310.984 24.7161C311.008 24.7464 311.019 24.7866 311.013 24.8262L310.677 27.415C310.668 27.4832 310.614 27.5338 310.551 27.5338H308.752C308.689 27.5338 308.636 27.4832 308.627 27.415L308.29 24.8262C308.285 24.7866 308.296 24.7464 308.32 24.7161ZM308.561 24.945L308.862 27.2572H310.442L310.743 24.945H308.561Z" fill="black"/>
<path d="M311.924 74.334H294.662V76.2442H311.924V74.334Z" fill="white"/>
<path fill-rule="evenodd" clip-rule="evenodd" d="M294.662 74.4717C294.662 74.3957 294.718 74.334 294.787 74.334H311.8C311.869 74.334 311.924 74.3957 311.924 74.4717V76.1065C311.924 76.1825 311.869 76.2442 311.8 76.2442H294.787C294.718 76.2442 294.662 76.1825 294.662 76.1065V74.4717ZM294.912 74.6095V75.9687H311.675V74.6095H294.912Z" fill="black"/>
<path d="M323.84 16.2547C323.84 12.9803 321.399 10.3264 318.389 10.3264V6.70361C321.399 6.70361 323.84 9.35751 323.84 12.6303V16.2547Z" fill="black"/>
<path fill-rule="evenodd" clip-rule="evenodd" d="M317.48 6.83396C317.48 6.76197 317.544 6.70361 317.621 6.70361C321.555 6.70361 324.749 9.60676 324.749 13.1916V17.0795C324.749 17.1515 324.686 17.2099 324.608 17.2099C324.53 17.2099 324.467 17.1515 324.467 17.0795C324.467 13.641 321.403 10.8505 317.621 10.8505C317.544 10.8505 317.48 10.7921 317.48 10.7201V6.83396ZM324.467 15.2668V13.1916C324.467 9.79763 321.479 7.03387 317.762 6.96561V10.591C320.944 10.6472 323.618 12.6028 324.467 15.2668Z" fill="black"/>
<path d="M318.389 19.318C321.399 19.318 323.84 16.6641 323.84 13.3896V17.0141C323.84 20.2869 321.399 22.9408 318.389 22.9408V19.318Z" fill="white"/>
<path fill-rule="evenodd" clip-rule="evenodd" d="M324.608 13.3896C324.686 13.3896 324.749 13.4427 324.749 13.5081V17.0426C324.749 20.3015 321.555 22.9408 317.621 22.9408C317.544 22.9408 317.48 22.8877 317.48 22.8223V19.2894C317.48 19.2239 317.544 19.1709 317.621 19.1709C321.403 19.1709 324.467 16.634 324.467 13.5081C324.467 13.4427 324.53 13.3896 324.608 13.3896ZM324.467 15.156C323.618 17.5778 320.944 19.3557 317.762 19.4068V22.7026C321.479 22.6405 324.467 20.128 324.467 17.0426V15.156Z" fill="black"/>
<path d="M313.741 10.3413H307.381V20.8475H313.741V10.3413Z" fill="white"/>
<path fill-rule="evenodd" clip-rule="evenodd" d="M306.473 10.4696C306.473 10.3987 306.535 10.3413 306.611 10.3413H313.603C313.679 10.3413 313.741 10.3987 313.741 10.4696V20.7193C313.741 20.7901 313.679 20.8475 313.603 20.8475H306.611C306.535 20.8475 306.473 20.7901 306.473 20.7193V10.4696ZM306.749 10.5979V20.591H313.465V10.5979H306.749Z" fill="black"/>
<path d="M310.106 15.1168C311.11 15.1168 311.923 14.2616 311.923 13.2066C311.923 12.1516 311.11 11.2964 310.106 11.2964C309.103 11.2964 308.289 12.1516 308.289 13.2066C308.289 14.2616 309.103 15.1168 310.106 15.1168Z" fill="white"/>
<path fill-rule="evenodd" clip-rule="evenodd" d="M310.106 11.5724C309.248 11.5724 308.552 12.3041 308.552 13.2066C308.552 14.1091 309.248 14.8408 310.106 14.8408C310.965 14.8408 311.661 14.1091 311.661 13.2066C311.661 12.3041 310.965 11.5724 310.106 11.5724ZM308.289 13.2066C308.289 12.1516 309.103 11.2964 310.106 11.2964C311.11 11.2964 311.923 12.1516 311.923 13.2066C311.923 14.2616 311.11 15.1168 310.106 15.1168C309.103 15.1168 308.289 14.2616 308.289 13.2066Z" fill="black"/>
<path d="M310.463 19.3953C311.329 19.1995 311.88 18.3027 311.694 17.3923C311.508 16.482 310.655 15.9027 309.789 16.0985C308.923 16.2944 308.372 17.1911 308.558 18.1015C308.744 19.0119 309.597 19.5912 310.463 19.3953Z" fill="white"/>
<path fill-rule="evenodd" clip-rule="evenodd" d="M309.815 16.2271C309.016 16.4077 308.508 17.2346 308.68 18.0741C308.852 18.9136 309.638 19.4477 310.437 19.2671C311.236 19.0866 311.744 18.2596 311.572 17.4201C311.4 16.5807 310.614 16.0465 309.815 16.2271ZM308.436 18.1293C308.235 17.148 308.829 16.1814 309.762 15.9703C310.696 15.7592 311.615 16.3836 311.816 17.3649C312.017 18.3462 311.423 19.3128 310.49 19.5239C309.556 19.735 308.637 19.1106 308.436 18.1293Z" fill="black"/>
<path d="M303.504 66.8557L303.046 68.8233L302.838 70.0973L307.381 70.5138L305.744 69.3218C305.191 68.8495 305.073 68.5987 305.147 67.7526L305.286 66.6934L303.504 66.8557Z" fill="white"/>
<path fill-rule="evenodd" clip-rule="evenodd" d="M305.36 66.729C305.384 66.7543 305.396 66.7893 305.391 66.8241L305.259 67.8168C305.225 68.21 305.238 68.4436 305.312 68.6301C305.385 68.8148 305.524 68.9686 305.783 69.187L307.333 70.3044C307.375 70.3347 307.391 70.3897 307.373 70.4385C307.355 70.4874 307.307 70.518 307.255 70.5133L302.942 70.122C302.911 70.1192 302.881 70.1031 302.862 70.0776C302.842 70.0522 302.834 70.0198 302.839 69.9881L303.037 68.7911C303.038 68.7885 303.038 68.7859 303.039 68.7834L303.474 66.9348C303.485 66.8864 303.526 66.8508 303.575 66.8463L305.267 66.6938C305.302 66.6907 305.336 66.7036 305.36 66.729ZM303.678 67.069L303.263 68.8328L303.086 69.9031L306.856 70.2451L305.645 69.3722C305.643 69.3705 305.64 69.3687 305.638 69.3668C305.373 69.1431 305.195 68.9577 305.098 68.7157C305.003 68.4751 304.995 68.194 305.031 67.7938C305.031 67.7921 305.031 67.7905 305.031 67.7888L305.144 66.9369L303.678 67.069Z" fill="black"/>
<path d="M307.381 70.5137L305.796 69.649C304.923 69.6419 303.94 69.7489 303.11 69.5586L302.838 70.4554L307.381 70.5137Z" fill="white"/>
<path fill-rule="evenodd" clip-rule="evenodd" d="M303.152 69.5687C303.179 69.5583 303.211 69.5558 303.24 69.5618C303.619 69.6387 304.037 69.6563 304.469 69.6546C304.664 69.6538 304.859 69.6491 305.055 69.6445C305.077 69.6439 305.098 69.6434 305.12 69.6429C305.337 69.6378 305.553 69.6332 305.763 69.6348C305.786 69.6349 305.808 69.6398 305.827 69.6488L307.334 70.3775C307.374 70.3966 307.39 70.4309 307.375 70.4621C307.36 70.4934 307.316 70.5143 307.267 70.5137L302.947 70.4646C302.914 70.4642 302.882 70.4536 302.862 70.4357C302.841 70.4179 302.833 70.3946 302.841 70.3725L303.099 69.6169C303.106 69.5966 303.125 69.5792 303.152 69.5687ZM303.29 69.7272L303.089 70.3158L306.914 70.3593L305.726 69.7849C305.532 69.7841 305.332 69.7883 305.128 69.7932C305.106 69.7937 305.084 69.7942 305.063 69.7947C304.868 69.7994 304.669 69.8041 304.471 69.8049C304.072 69.8065 303.669 69.7922 303.29 69.7272Z" fill="black"/>
<path d="M284.668 83.8852V85.7954H311.924V83.8852H284.668Z" fill="black"/>
<path fill-rule="evenodd" clip-rule="evenodd" d="M284.791 85.7954C284.723 85.7954 284.668 85.7316 284.668 85.653V84.0276C284.668 83.9489 284.723 83.8852 284.791 83.8852H311.801C311.869 83.8852 311.924 83.9489 311.924 84.0276V85.653C311.924 85.7316 311.869 85.7954 311.801 85.7954H284.791ZM284.915 85.5106H311.677V84.17H284.915V85.5106Z" fill="black"/>
<path fill-rule="evenodd" clip-rule="evenodd" d="M283.886 95.3467C283.816 95.3467 283.76 95.2829 283.76 95.2043V93.5789C283.76 93.5002 283.816 93.4365 283.886 93.4365H313.615C313.685 93.4365 313.742 93.5002 313.742 93.5789V95.2043C313.742 95.2829 313.685 95.3467 313.615 95.3467H283.886ZM284.013 95.0619H313.488V93.7213H284.013V95.0619Z" fill="black"/>
<path fill-rule="evenodd" clip-rule="evenodd" d="M283.886 100.122C283.816 100.122 283.76 100.058 283.76 99.9797V98.3543C283.76 98.2756 283.816 98.2118 283.886 98.2118H313.615C313.685 98.2118 313.742 98.2756 313.742 98.3543V99.9797C313.742 100.058 313.685 100.122 313.615 100.122H283.886ZM284.013 99.8372H313.489V98.4967H284.013V99.8372Z" fill="black"/>
<path d="M309.803 31.3542C309.901 31.0742 310.27 29.7206 310.419 29.4686C310.746 28.9085 310.957 28.8693 311.416 28.438C311.8 28.0758 311.923 27.4112 311.923 26.9183C311.923 26.5655 311.813 25.9027 311.537 25.6693C311.416 25.5274 311.243 25.7459 311.145 25.9083C310.697 26.642 309.607 27.5662 309.607 27.5662C309.607 27.5662 309.536 26.9314 309.438 26.446C309.406 26.278 309.389 26.0726 309.243 26.011C309.017 25.9251 308.957 26.3172 308.932 26.5804C308.852 27.405 308.822 28.2345 308.841 29.0635C308.851 29.5787 308.289 30.979 308.289 30.979L309.803 31.3542Z" fill="white"/>
<path fill-rule="evenodd" clip-rule="evenodd" d="M311.523 25.7008C311.473 25.645 311.41 25.6183 311.342 25.6244C311.279 25.6301 311.224 25.6638 311.182 25.6982C311.099 25.7668 311.027 25.8734 310.979 25.9542C310.778 26.289 310.429 26.6746 310.122 26.9815C309.97 27.1337 309.831 27.2644 309.73 27.357C309.73 27.3574 309.73 27.3578 309.729 27.3582C309.724 27.3185 309.718 27.275 309.712 27.2288C309.684 27.0188 309.644 26.7486 309.597 26.5129C309.595 26.4979 309.592 26.4811 309.589 26.463C309.578 26.3988 309.564 26.3185 309.542 26.25C309.511 26.1563 309.456 26.0509 309.342 26.0018C309.341 26.0012 309.339 26.0007 309.338 26.0002C309.253 25.9673 309.17 25.9778 309.101 26.0315C309.039 26.0798 309 26.1535 308.974 26.2208C308.923 26.3558 308.902 26.5303 308.891 26.6552C308.816 27.4471 308.787 28.2437 308.805 29.0398C308.807 29.1416 308.78 29.3008 308.732 29.4936C308.686 29.6828 308.622 29.8919 308.558 30.0876C308.493 30.2831 308.429 30.4636 308.38 30.5954C308.356 30.6612 308.335 30.7148 308.321 30.7518C308.314 30.7703 308.309 30.7847 308.305 30.7943L308.301 30.8053L308.299 30.8087L308.299 30.8089C308.285 30.8454 308.286 30.8873 308.302 30.923C308.318 30.9587 308.347 30.9844 308.382 30.9932L309.797 31.351C309.854 31.3654 309.913 31.3305 309.934 31.2688C309.963 31.183 310.018 30.9952 310.082 30.7736C310.121 30.6411 310.163 30.4964 310.206 30.3543C310.263 30.1617 310.321 29.9714 310.374 29.8148C310.428 29.6531 310.472 29.5416 310.498 29.4958L310.498 29.4952C310.697 29.1476 310.836 29.0333 311.046 28.8598C311.145 28.7776 311.261 28.682 311.407 28.542C311.609 28.348 311.737 28.0783 311.815 27.8032C311.893 27.5275 311.923 27.2376 311.923 26.9915C311.923 26.8109 311.896 26.5565 311.835 26.3167C311.776 26.0861 311.68 25.8405 311.523 25.7008ZM309.522 27.6255L309.522 27.6239L309.521 27.6189L309.519 27.5993C309.517 27.5821 309.514 27.5569 309.51 27.5252C309.503 27.4618 309.492 27.3724 309.478 27.2686C309.45 27.0606 309.411 26.7971 309.366 26.5702L309.365 26.5687C309.361 26.5432 309.357 26.5193 309.353 26.4967C309.342 26.4378 309.334 26.3881 309.319 26.3415C309.3 26.2842 309.281 26.262 309.259 26.2519C309.242 26.2456 309.238 26.2494 309.236 26.251C309.236 26.2511 309.236 26.2512 309.235 26.2513C309.227 26.258 309.211 26.278 309.193 26.3253C309.157 26.4195 309.138 26.5573 309.127 26.6834C309.053 27.4638 309.024 28.2488 309.042 29.0334L309.042 29.0338C309.045 29.1776 309.009 29.3694 308.961 29.565C308.912 29.7642 308.846 29.981 308.78 30.1804C308.714 30.3801 308.649 30.564 308.599 30.6979C308.59 30.7231 308.581 30.7465 308.573 30.7679L309.747 31.0646C309.775 30.9733 309.811 30.8478 309.853 30.7047C309.892 30.5704 309.936 30.4207 309.981 30.2693C310.038 30.0759 310.098 29.8818 310.152 29.7205C310.204 29.5645 310.256 29.4248 310.299 29.3504C310.522 28.9605 310.703 28.8102 310.931 28.6213C311.028 28.5412 311.133 28.4541 311.253 28.3389C311.41 28.1876 311.519 27.9677 311.589 27.7221C311.658 27.4772 311.686 27.2153 311.686 26.9915C311.686 26.8356 311.662 26.6059 311.607 26.3901C311.551 26.1683 311.469 25.9905 311.372 25.9066C311.367 25.9023 311.362 25.8976 311.358 25.8925C311.358 25.8922 311.357 25.8918 311.357 25.8916C311.352 25.8935 311.34 25.8989 311.322 25.9135C311.274 25.9538 311.22 26.0286 311.176 26.1026L311.176 26.1032C310.957 26.4678 310.588 26.8724 310.28 27.1809C310.125 27.3363 309.983 27.4696 309.88 27.5641C309.829 27.6113 309.787 27.6489 309.758 27.6747C309.743 27.6876 309.732 27.6976 309.724 27.7044L309.715 27.7122L309.713 27.7142L309.712 27.7149C309.712 27.7149 309.712 27.715 309.64 27.6091L309.712 27.7149C309.678 27.7441 309.633 27.7508 309.594 27.7323C309.555 27.7138 309.527 27.673 309.522 27.6255C309.522 27.6255 309.522 27.6255 309.522 27.6255ZM311.354 25.8886C311.354 25.8885 311.354 25.8885 311.354 25.8886Z" fill="black"/>
<path d="M285.127 80.0649L284.564 81.2981L283.76 82.5326L288.302 83.8854L286.945 82.5507C286.505 82.0385 286.355 81.6056 286.659 80.9278L286.918 80.3572L285.127 80.0649Z" fill="white"/>
<path fill-rule="evenodd" clip-rule="evenodd" d="M285.062 79.2062C285.083 79.1377 285.141 79.0979 285.2 79.1123L286.894 79.528C286.929 79.5365 286.959 79.5632 286.976 79.6011C286.994 79.6389 286.997 79.6842 286.984 79.7249L286.74 80.5361C286.74 80.5362 286.74 80.5362 286.74 80.5363C286.601 81.0006 286.569 81.3687 286.616 81.7023C286.664 82.036 286.792 82.3499 286.993 82.7033L288.275 84.597C288.31 84.6486 288.312 84.7225 288.28 84.7773C288.249 84.832 288.191 84.854 288.139 84.831L283.839 82.9069C283.807 82.8922 283.78 82.8607 283.768 82.8207C283.755 82.7806 283.757 82.7359 283.774 82.698L284.532 80.9508L285.062 79.2062ZM285.254 79.4284L284.757 81.0634C284.755 81.0695 284.753 81.0754 284.75 81.0812L284.054 82.6866L287.801 84.3636L286.803 82.8878C286.801 82.8847 286.799 82.8815 286.797 82.8782C286.583 82.5052 286.433 82.1485 286.377 81.7528C286.321 81.3555 286.362 80.9338 286.512 80.4342L286.512 80.4338L286.707 79.785L285.254 79.4284Z" fill="black"/>
<path d="M290.401 58.3277L284.668 80.0994L286.639 81.0196L296.649 59.8506L304.642 57.1757L303.053 67.4562L305.334 67.8128L308.891 57.5092C309.144 56.5747 309.29 55.5957 309.134 54.6363C308.978 53.677 308.515 53.0118 307.638 52.6552C307.075 52.4485 306.482 52.3513 305.887 52.3681C304.703 52.3895 298.888 53.2204 298.888 53.2204L294.719 53.9962L290.401 58.3277Z" fill="white"/>
<path fill-rule="evenodd" clip-rule="evenodd" d="M305.796 52.3681C306.399 52.3512 306.999 52.4498 307.571 52.6595C307.572 52.6599 307.573 52.6604 307.575 52.6609C308.026 52.8446 308.377 53.1105 308.635 53.4595C308.893 53.808 309.053 54.2324 309.133 54.7248C309.292 55.704 309.142 56.6965 308.889 57.6315C308.889 57.6346 308.888 57.6376 308.887 57.6406L305.365 67.849C305.344 67.9073 305.29 67.9425 305.233 67.9336L302.974 67.5802C302.942 67.5752 302.913 67.556 302.893 67.5272C302.874 67.4984 302.866 67.4623 302.872 67.4272L304.413 57.4536L296.737 60.024L286.85 80.9476C286.82 81.0096 286.752 81.0363 286.693 81.0088L284.742 80.0971C284.685 80.0708 284.656 80.0031 284.673 79.939L290.349 58.3686C290.355 58.3453 290.367 58.3242 290.384 58.3077L294.659 54.0163C294.676 53.9989 294.697 53.9873 294.721 53.983L298.848 53.2144C298.849 53.2142 298.851 53.2139 298.852 53.2137L298.868 53.3451C298.852 53.2137 298.852 53.2137 298.852 53.2137L298.917 53.2044C298.96 53.1984 299.022 53.1895 299.102 53.1782C299.262 53.1557 299.492 53.1234 299.771 53.0846C300.329 53.0071 301.086 52.9035 301.879 52.7992C303.461 52.5913 305.201 52.3789 305.796 52.3681ZM298.886 53.4761L294.798 54.2376L290.574 58.4772L284.937 79.8997L286.685 80.7164L296.543 59.8533C296.558 59.8216 296.585 59.7977 296.616 59.7872L304.53 57.1371C304.57 57.1236 304.614 57.1337 304.646 57.164C304.678 57.1943 304.693 57.2403 304.686 57.2857L303.133 67.3373L305.171 67.6561L308.657 57.5522C308.904 56.637 309.043 55.6913 308.893 54.7709C308.819 54.3128 308.672 53.9324 308.445 53.6255C308.219 53.3194 307.907 53.0794 307.491 52.9098C306.947 52.7106 306.375 52.6169 305.802 52.633L305.8 52.633C305.222 52.6435 303.498 52.8533 301.908 53.0623C301.116 53.1665 300.36 53.27 299.802 53.3475C299.523 53.3863 299.293 53.4185 299.134 53.441C299.054 53.4523 298.991 53.4612 298.949 53.4672L298.886 53.4761Z" fill="black"/>
<path d="M288.302 83.8854L286.946 82.2276C286.946 82.2241 286.946 82.2207 286.946 82.2172C286.038 81.9437 285.175 81.5406 284.381 81.02L283.76 82.2086L288.302 83.8854Z" fill="white"/>
<path fill-rule="evenodd" clip-rule="evenodd" d="M284.439 81.0251C284.472 81.0139 284.507 81.0214 284.535 81.0456C285.277 81.674 286.084 82.1606 286.932 82.4907C286.968 82.5049 286.997 82.5402 287.01 82.5852L288.275 84.5815C288.31 84.6366 288.312 84.7153 288.28 84.7736C288.248 84.8319 288.191 84.8554 288.139 84.8308L283.839 82.7803C283.807 82.7646 283.78 82.7312 283.768 82.6886C283.755 82.646 283.757 82.5984 283.774 82.558L284.362 81.1045C284.378 81.0651 284.405 81.0363 284.439 81.0251ZM284.515 81.4044L284.053 82.5454L287.802 84.3332L286.816 82.7757C286.005 82.4542 285.231 81.993 284.515 81.4044Z" fill="black"/>
<path d="M293.171 43.7705L297.225 42.7548C297.225 42.7548 295.764 37.1426 295.846 36.8349C295.988 36.7637 296.483 36.5894 296.61 36.4951C297.236 36.0273 297.213 35.4047 296.813 34.5864L297.387 34.3178C296.785 33.2861 295.698 31.0857 294.213 31.381C291.958 31.8275 291.661 33.2755 292.119 35.2499C292.32 36.1109 292.948 36.673 293.711 36.9238C293.848 37.5464 293.171 43.7705 293.171 43.7705Z" fill="white"/>
<path fill-rule="evenodd" clip-rule="evenodd" d="M297.208 34.0289C297.265 34.1331 297.319 34.2303 297.369 34.3179C297.387 34.35 297.392 34.389 297.381 34.425C297.371 34.4609 297.347 34.4903 297.315 34.5056L296.882 34.7132C297.041 35.0743 297.13 35.4113 297.109 35.7217C297.084 36.0768 296.917 36.3768 296.593 36.6242L296.593 36.6243C296.552 36.6559 296.489 36.6884 296.426 36.7183C296.36 36.7496 296.283 36.7826 296.208 36.8142C296.163 36.8329 296.12 36.8508 296.079 36.8677C296.016 36.8936 295.959 36.9169 295.914 36.9364C295.915 36.9409 295.915 36.9456 295.916 36.9505C295.921 37.0028 295.932 37.0738 295.947 37.1621C295.977 37.3382 296.024 37.5753 296.084 37.8534C296.203 38.4091 296.37 39.1228 296.54 39.8281C296.709 40.5331 296.881 41.2289 297.011 41.7485C297.076 42.0082 297.13 42.2239 297.168 42.3746C297.187 42.45 297.202 42.5091 297.212 42.5494L297.228 42.6109C297.228 42.611 297.228 42.611 297.111 42.6455L297.228 42.6109C297.236 42.6451 297.232 42.6816 297.215 42.7121C297.198 42.7426 297.171 42.7644 297.139 42.7726L293.265 43.7669C293.227 43.7768 293.186 43.7658 293.157 43.7376C293.127 43.7093 293.112 43.6673 293.117 43.625L293.237 43.6399C293.117 43.625 293.117 43.625 293.117 43.625L293.124 43.5566C293.129 43.5118 293.136 43.4461 293.144 43.3623C293.162 43.1946 293.186 42.9544 293.216 42.6642C293.274 42.0837 293.351 41.3035 293.424 40.5044C293.497 39.7051 293.565 38.8877 293.607 38.2327C293.628 37.905 293.643 37.6192 293.648 37.3971C293.652 37.233 293.65 37.1124 293.644 37.0362C292.916 36.7684 292.312 36.198 292.114 35.3299L292.114 35.3297C291.893 34.3556 291.847 33.4807 292.151 32.7881C292.459 32.086 293.111 31.6058 294.211 31.3828C294.987 31.2247 295.642 31.7395 296.157 32.3756C296.584 32.9024 296.938 33.5419 297.208 34.0289ZM293.377 43.4698L296.961 42.5497C296.953 42.5191 296.944 42.4834 296.934 42.4432C296.896 42.2922 296.842 42.0763 296.777 41.8163C296.647 41.2963 296.475 40.5998 296.305 39.8936C296.136 39.1878 295.968 38.4715 295.848 37.9124C295.788 37.633 295.74 37.3914 295.709 37.2094C295.693 37.1187 295.682 37.0407 295.675 36.9795C295.672 36.9489 295.67 36.9206 295.669 36.8957C295.669 36.874 295.67 36.8435 295.677 36.8147C295.687 36.7785 295.71 36.7485 295.742 36.7323C295.796 36.7046 295.897 36.6628 296.005 36.6185C296.043 36.6027 296.082 36.5866 296.12 36.5707C296.195 36.5394 296.268 36.5081 296.329 36.4792C296.392 36.449 296.434 36.4257 296.453 36.4111C296.729 36.2005 296.849 35.9667 296.867 35.7023C296.886 35.4285 296.797 35.1019 296.609 34.709C296.594 34.677 296.592 34.6397 296.603 34.6058C296.614 34.5719 296.637 34.5444 296.668 34.5298L297.091 34.3271C297.06 34.2721 297.028 34.2149 296.996 34.1557C296.726 33.6684 296.385 33.0545 295.975 32.5475C295.472 31.9264 294.898 31.5087 294.255 31.6395C293.2 31.8536 292.633 32.3007 292.369 32.8999C292.102 33.5086 292.132 34.3088 292.349 35.2676C292.529 36.0561 293.091 36.5774 293.79 36.8126C293.831 36.8265 293.862 36.8627 293.871 36.9079C293.892 37.0032 293.895 37.1826 293.89 37.4036C293.885 37.6313 293.87 37.9215 293.849 38.2508C293.806 38.9096 293.738 39.7298 293.665 40.5299C293.592 41.3302 293.515 42.1114 293.456 42.6924C293.427 42.983 293.402 43.2235 293.385 43.3914C293.382 43.4196 293.379 43.4458 293.377 43.4698Z" fill="black"/>
<path d="M294.06 34.5506C293.104 33.7509 292.167 34.4443 293.072 35.4077C293.289 35.6221 293.456 35.8829 293.561 36.171C293.665 36.4591 293.705 36.7673 293.676 37.0728C293.319 37.1673 292.375 36.6797 291.966 36.2495C291.166 35.406 290.831 34.3161 291.143 33.2583C291.644 31.5712 294.483 30.7496 295.612 31.8648C295.935 32.2207 296.225 32.6059 296.479 33.0154C295.958 33.675 294.06 34.5506 294.06 34.5506Z" fill="black"/>
<path fill-rule="evenodd" clip-rule="evenodd" d="M293.203 31.7412C292.351 32 291.596 32.5797 291.372 33.3336C291.088 34.2976 291.391 35.2975 292.131 36.0798C292.314 36.2723 292.624 36.4844 292.933 36.6375C293.087 36.7136 293.237 36.7731 293.366 36.808C293.447 36.83 293.515 36.8405 293.567 36.8421C293.577 36.6001 293.54 36.3582 293.457 36.1302C293.363 35.8712 293.213 35.6368 293.018 35.4441C293.017 35.443 293.016 35.4419 293.015 35.4408C292.788 35.1988 292.665 34.9618 292.637 34.748C292.609 34.53 292.681 34.3408 292.832 34.219C293.115 33.9907 293.604 34.0396 294.064 34.3951C294.067 34.3933 294.071 34.3916 294.075 34.3897C294.125 34.3658 294.197 34.3308 294.285 34.2869C294.462 34.199 294.702 34.0754 294.958 33.9322C295.214 33.789 295.484 33.6271 295.72 33.4627C295.922 33.3213 296.094 33.1821 296.21 33.0551C295.984 32.6982 295.727 32.3615 295.444 32.0486C294.949 31.5615 294.057 31.482 293.203 31.7412ZM294.047 34.5366C294.097 34.6468 294.097 34.6468 294.097 34.6468L294.098 34.6461L294.102 34.6442L294.118 34.6369C294.132 34.6305 294.151 34.6211 294.177 34.6089C294.228 34.5845 294.301 34.549 294.391 34.5044C294.57 34.4153 294.814 34.2898 295.074 34.1443C295.334 33.999 295.611 33.8328 295.855 33.6623C296.098 33.4932 296.317 33.3141 296.452 33.1418C296.484 33.1016 296.487 33.0455 296.46 33.002C296.214 32.6035 295.932 32.2287 295.618 31.8823C295.617 31.8807 295.615 31.8791 295.614 31.8776C295.029 31.2987 294.026 31.2383 293.134 31.5091C292.24 31.7806 291.398 32.4022 291.143 33.2641L291.143 33.2642C290.83 34.3264 291.169 35.414 291.958 36.2475L291.958 36.2476C292.167 36.4671 292.503 36.6944 292.828 36.8552C292.992 36.936 293.156 37.0021 293.304 37.0421C293.448 37.081 293.594 37.1002 293.71 37.0694C293.759 37.0565 293.794 37.0142 293.799 36.9636C293.828 36.6529 293.788 36.3397 293.682 36.0467C293.576 35.7546 293.407 35.49 293.187 35.2723C292.983 35.0537 292.893 34.8623 292.874 34.7164C292.856 34.5743 292.902 34.4723 292.981 34.4085C293.146 34.2756 293.532 34.2629 293.971 34.6299C294.006 34.6595 294.055 34.6661 294.097 34.6468L294.047 34.5366Z" fill="black"/>
<path d="M294.902 39.6105C296.569 38.6258 304.131 35.3342 304.131 35.3342L307.722 29.4438L310.107 30.7538C310.107 30.7538 307.15 37.0838 307.03 37.2825C306.826 37.6329 306.579 37.9506 306.295 38.2267C305.016 39.4733 300.182 42.9197 300.182 42.9197C300.182 42.9197 299.448 50.2185 299.222 53.3413C296.524 56.1546 293.624 57.658 290.119 59.0523C290.908 54.0886 291.512 49.2602 292.301 44.2964C292.461 43.3294 292.621 42.3447 293.048 41.4831C293.475 40.6215 294.12 40.0835 294.902 39.6105Z" fill="#616DFA"/>
<path fill-rule="evenodd" clip-rule="evenodd" d="M308.208 29.5018C308.245 29.4472 308.315 29.4282 308.374 29.4576L310.944 30.756C310.975 30.7716 310.999 30.7991 311.01 30.8323C311.02 30.8655 311.017 30.9016 311.002 30.9327L310.887 30.873C311.002 30.9327 311.002 30.9326 311.002 30.9327L311.002 30.933L311.001 30.9338L310.864 31.2027C310.777 31.3746 310.652 31.6205 310.501 31.9162C310.201 32.5075 309.798 33.2979 309.391 34.0946C308.985 34.8912 308.574 35.694 308.257 36.3101C308.098 36.6182 307.963 36.8797 307.863 37.0705C307.767 37.254 307.699 37.3815 307.678 37.4151C307.451 37.7723 307.177 38.0962 306.864 38.3777C306.166 39.0024 304.51 40.1705 303.038 41.1773C302.3 41.6819 301.605 42.1478 301.094 42.4875C300.839 42.6574 300.63 42.7958 300.485 42.8917C300.412 42.9396 300.356 42.9769 300.317 43.0023L300.309 43.0073L300.307 43.0277C300.301 43.0814 300.293 43.1606 300.282 43.2626C300.26 43.4664 300.228 43.761 300.189 44.1242C300.111 44.8507 300.004 45.8516 299.89 46.9492C299.662 49.1449 299.403 51.7256 299.282 53.2713C299.279 53.3035 299.265 53.3336 299.242 53.3558C296.314 56.1624 293.169 57.66 289.384 59.0445C289.341 59.0604 289.292 59.0517 289.257 59.0218C289.222 58.9918 289.205 58.9451 289.213 58.8991C289.638 56.4405 290.013 54.0152 290.388 51.5886L290.389 51.5881C290.764 49.162 291.14 46.7346 291.565 44.2735L291.565 44.2726L291.572 44.2344C291.741 43.2918 291.918 42.309 292.384 41.445C292.861 40.5597 293.58 40.0112 294.433 39.5369L294.435 39.5363C295.34 39.0443 297.835 37.9816 300.095 37.0453C301.227 36.5763 302.302 36.1379 303.095 35.8167C303.491 35.6561 303.817 35.5248 304.043 35.4336C304.156 35.388 304.245 35.3525 304.305 35.3284L304.36 35.3064L308.208 29.5018ZM304.445 35.413C304.492 35.5345 304.492 35.5345 304.492 35.5345L304.401 35.5713C304.34 35.5954 304.252 35.631 304.139 35.6765C303.913 35.7676 303.587 35.8988 303.191 36.0593C302.399 36.3803 301.324 36.8185 300.193 37.2872C297.928 38.2259 295.449 39.2822 294.558 39.7663C293.725 40.2295 293.054 40.7477 292.611 41.5701C292.165 42.3969 291.995 43.3442 291.823 44.3007L291.82 44.3185C291.82 44.3187 291.82 44.3188 291.819 44.319C291.395 46.7774 291.019 49.2026 290.644 51.629L290.644 51.6296C290.28 53.9825 289.916 56.3367 289.506 58.7216C293.167 57.3693 296.202 55.8976 299.028 53.2006C299.151 51.6459 299.407 49.0936 299.633 46.9218C299.747 45.8239 299.854 44.8227 299.932 44.096C299.971 43.7327 300.002 43.438 300.025 43.2341C300.036 43.1321 300.044 43.0529 300.05 42.9991L300.059 42.9174L300.059 42.9171C300.059 42.9171 300.059 42.917 300.188 42.9314C300.117 42.8217 300.117 42.8217 300.117 42.8217L300.117 42.8216L300.176 42.7832C300.214 42.7579 300.271 42.7206 300.343 42.6728C300.489 42.577 300.697 42.4389 300.952 42.2692C301.462 41.9299 302.156 41.4646 302.893 40.9607C304.37 39.9506 306.01 38.793 306.692 38.1821C306.988 37.9165 307.247 37.6107 307.46 37.2735L307.461 37.2717M300.188 42.9314L300.117 42.8217C300.085 42.843 300.063 42.8782 300.059 42.9171L300.188 42.9314ZM304.445 35.413L304.492 35.5345C304.517 35.5248 304.538 35.5077 304.552 35.4857L308.36 29.7429L310.712 30.9308L310.634 31.0832C310.547 31.2551 310.422 31.501 310.271 31.7966C309.971 32.3878 309.568 33.1782 309.161 33.9747C308.755 34.7712 308.344 35.5738 308.027 36.1895C307.869 36.4973 307.734 36.7583 307.635 36.9483C307.585 37.0434 307.544 37.1204 307.514 37.1766C307.499 37.2047 307.487 37.2272 307.477 37.244C307.473 37.2524 307.469 37.259 307.466 37.2641C307.465 37.2666 307.463 37.2685 307.463 37.2699C307.462 37.271 307.462 37.2716 307.461 37.2717" fill="black"/>
<path d="M240.053 92.1899C240.059 90.4229 240.734 88.7308 241.931 87.4857C243.128 86.2406 244.748 85.5446 246.435 85.5508C248.122 85.557 249.737 86.2649 250.925 87.5187C252.114 88.7725 252.778 90.4696 252.772 92.2366L240.053 92.1899Z" fill="white"/>
<path fill-rule="evenodd" clip-rule="evenodd" d="M246.434 85.8095C244.814 85.8037 243.258 86.4592 242.109 87.632C240.989 88.7743 240.344 90.3162 240.306 91.9335L252.52 91.9774C252.493 90.3598 251.859 88.8134 250.747 87.663C249.605 86.482 248.054 85.8153 246.434 85.8095ZM241.931 87.4484C243.128 86.2273 244.748 85.5448 246.435 85.5508C248.122 85.5569 249.737 86.2511 250.925 87.4808C252.114 88.7104 252.778 90.3748 252.772 92.1077C252.772 92.142 252.759 92.1748 252.735 92.199C252.711 92.2232 252.679 92.2367 252.646 92.2366L240.178 92.1917C240.109 92.1915 240.052 92.1334 240.053 92.0619C240.059 90.329 240.734 88.6695 241.931 87.4484Z" fill="black"/>
<path d="M242.035 86.5059C241.414 87.2201 240.915 88.0975 240.574 89.0804C240.232 90.0632 240.054 91.1291 240.053 92.2077L246.413 92.2365L242.035 86.5059Z" fill="black"/>
<path fill-rule="evenodd" clip-rule="evenodd" d="M242.002 86.5426C242.048 86.4912 242.117 86.494 242.16 86.5492L246.379 91.9864C246.412 92.0285 246.422 92.0917 246.404 92.1464C246.386 92.2012 246.344 92.2367 246.297 92.2365L240.167 92.2091C240.104 92.2089 240.053 92.1431 240.053 92.0621C240.054 91.018 240.229 89.9862 240.565 89.0348C240.901 88.0834 241.391 87.234 242.002 86.5426ZM242.074 86.8552C241.524 87.5017 241.082 88.2842 240.774 89.1557C240.467 90.0248 240.3 90.9637 240.283 91.9162L246.021 91.9418L242.074 86.8552Z" fill="black"/>
<path d="M238.982 87.4606C238.497 86.9283 238.23 86.2193 238.236 85.484C238.243 84.7488 238.523 84.0453 239.018 83.5228C239.512 83.0003 240.181 82.7 240.883 82.6856C241.586 82.6712 242.266 82.9439 242.779 83.4458L238.982 87.4606Z" fill="black"/>
<path fill-rule="evenodd" clip-rule="evenodd" d="M242.465 83.5436C242.018 83.1522 241.45 82.9416 240.865 82.9535C240.235 82.9664 239.635 83.2356 239.193 83.704C238.75 84.1724 238.498 84.8031 238.492 85.4622C238.487 86.0752 238.694 86.6678 239.072 87.1316L242.465 83.5436ZM240.86 82.6856C241.556 82.6714 242.23 82.9417 242.738 83.4392C242.764 83.4639 242.778 83.4983 242.779 83.5345C242.78 83.5707 242.766 83.6057 242.742 83.6314L239.159 87.4209C239.134 87.4466 239.101 87.461 239.066 87.4606C239.032 87.4603 238.999 87.4453 238.975 87.4191C238.495 86.8914 238.23 86.1885 238.236 85.4597C238.243 84.7308 238.521 84.0334 239.011 83.5155C239.5 82.9975 240.164 82.6998 240.86 82.6856Z" fill="black"/>
<path d="M298.296 14.1621H295.57V17.0274H298.296V14.1621Z" fill="black"/>
<path fill-rule="evenodd" clip-rule="evenodd" d="M295.57 14.2755C295.57 14.2129 295.62 14.1621 295.68 14.1621H298.186C298.247 14.1621 298.296 14.2129 298.296 14.2755V16.9141C298.296 16.9767 298.247 17.0274 298.186 17.0274H295.68C295.62 17.0274 295.57 16.9767 295.57 16.9141V14.2755ZM295.79 14.3888V16.8008H298.076V14.3888H295.79Z" fill="black"/>
<path d="M295.569 11.2964H292.844V14.1617H295.569V11.2964Z" fill="white"/>
<path fill-rule="evenodd" clip-rule="evenodd" d="M291.936 11.4097C291.936 11.3471 292.001 11.2964 292.082 11.2964H295.423C295.504 11.2964 295.57 11.3471 295.57 11.4097V14.0484C295.57 14.111 295.504 14.1617 295.423 14.1617H292.082C292.001 14.1617 291.936 14.111 291.936 14.0484V11.4097ZM292.229 11.5231V13.935H295.276V11.5231H292.229Z" fill="black"/>
<path d="M301.931 5.56592H299.205V8.43126H301.931V5.56592Z" fill="#616DFA"/>
<path fill-rule="evenodd" clip-rule="evenodd" d="M234.861 16.9243C234.861 16.8539 234.918 16.7969 234.988 16.7969H247.454C247.524 16.7969 247.581 16.8539 247.581 16.9243V30.9961C247.581 31.0665 247.524 31.1236 247.454 31.1236H234.988C234.918 31.1236 234.861 31.0665 234.861 30.9961V16.9243ZM235.114 17.0517V30.8687H247.328V17.0517H235.114Z" fill="black"/>
<path d="M244.855 20.6172H236.678V26.3479H244.855V20.6172Z" fill="black"/>
<path fill-rule="evenodd" clip-rule="evenodd" d="M245.587 17.7611C245.763 17.7427 245.946 17.7522 246.112 17.7883C246.278 17.8244 246.42 17.8857 246.519 17.9642C246.619 18.0427 246.673 18.1351 246.673 18.2295C246.673 18.3562 246.577 18.4776 246.406 18.5672C246.236 18.6568 246.005 18.7071 245.764 18.7071C245.584 18.7071 245.409 18.6791 245.259 18.6266C245.11 18.5741 244.993 18.4995 244.925 18.4123C244.856 18.325 244.838 18.229 244.873 18.1363C244.908 18.0437 244.995 17.9586 245.122 17.8918C245.249 17.825 245.411 17.7796 245.587 17.7611ZM245.999 17.9309C245.887 17.9065 245.763 17.9001 245.644 17.9125C245.525 17.925 245.415 17.9558 245.329 18.001C245.243 18.0462 245.185 18.1038 245.161 18.1665C245.137 18.2292 245.149 18.2941 245.196 18.3532C245.243 18.4122 245.321 18.4627 245.422 18.4982C245.524 18.5337 245.642 18.5527 245.764 18.5527C245.927 18.5527 246.083 18.5186 246.199 18.458C246.314 18.3974 246.379 18.3152 246.379 18.2295C246.379 18.1656 246.343 18.1031 246.275 18.05C246.208 17.9968 246.112 17.9554 245.999 17.9309Z" fill="black"/>
<path fill-rule="evenodd" clip-rule="evenodd" d="M235.89 17.9125C235.771 17.9001 235.647 17.9065 235.535 17.9309C235.422 17.9554 235.326 17.9968 235.259 18.05C235.191 18.1031 235.155 18.1656 235.155 18.2295C235.155 18.3152 235.22 18.3974 235.335 18.458C235.45 18.5186 235.607 18.5527 235.77 18.5527C235.891 18.5527 236.01 18.5337 236.111 18.4982C236.213 18.4627 236.291 18.4122 236.338 18.3532C236.384 18.2941 236.397 18.2292 236.373 18.1665C236.349 18.1038 236.291 18.0462 236.205 18.001C236.119 17.9558 236.009 17.925 235.89 17.9125ZM235.422 17.7883C235.588 17.7522 235.771 17.7427 235.947 17.7611C236.123 17.7796 236.285 17.825 236.412 17.8918C236.539 17.9586 236.626 18.0437 236.661 18.1363C236.696 18.229 236.678 18.325 236.609 18.4123C236.54 18.4995 236.424 18.5741 236.275 18.6266C236.125 18.6791 235.95 18.7071 235.77 18.7071C235.529 18.7071 235.298 18.6568 235.127 18.5672C234.957 18.4776 234.861 18.3562 234.861 18.2295C234.861 18.1351 234.915 18.0427 235.014 17.9642C235.114 17.8857 235.256 17.8245 235.422 17.7883Z" fill="black"/>
<path fill-rule="evenodd" clip-rule="evenodd" d="M243.947 29.6909C243.947 29.4272 244.016 29.2134 244.101 29.2134H246.519C246.604 29.2134 246.673 29.4272 246.673 29.6909C246.673 29.9547 246.604 30.1685 246.519 30.1685H244.101C244.016 30.1685 243.947 29.9547 243.947 29.6909Z" fill="black"/>
<path fill-rule="evenodd" clip-rule="evenodd" d="M253.252 42.9181C253.942 42.6031 254.718 42.5532 255.395 42.9457C256.073 43.3371 256.421 44.0688 256.741 44.7408C256.766 44.7952 256.792 44.8491 256.818 44.9024C257.169 45.634 257.515 46.2556 258.219 46.4423C258.738 46.5787 259.135 46.4463 259.529 46.315C259.581 46.2977 259.633 46.2805 259.685 46.2638C259.905 46.1934 260.134 46.1339 260.375 46.1537C260.621 46.1738 260.87 46.2746 261.136 46.5033C261.333 46.6723 261.53 46.9378 261.725 47.239C261.906 47.521 262.091 47.8439 262.275 48.1648C262.289 48.1889 262.302 48.2129 262.316 48.2369C262.514 48.583 262.711 48.9235 262.905 49.2138C263.101 49.5061 263.287 49.7366 263.461 49.8704C263.503 49.9029 263.521 49.9607 263.505 50.0136C263.489 50.0665 263.443 50.1027 263.391 50.1032L244.554 50.3074C244.52 50.3078 244.487 50.2926 244.463 50.2656C244.44 50.2386 244.429 50.2023 244.432 50.1659C244.475 49.7132 244.519 49.2945 244.653 48.9315C244.789 48.5611 245.016 48.2508 245.414 48.0083C245.571 47.9136 245.743 47.8489 245.913 47.7961C245.998 47.7696 246.084 47.7456 246.167 47.7223L246.18 47.7188C246.26 47.6966 246.338 47.6749 246.414 47.6516C246.738 47.5525 246.998 47.4322 247.152 47.1774C247.236 47.0372 247.275 46.8712 247.32 46.6803C247.321 46.6755 247.322 46.6707 247.324 46.6659C247.368 46.4772 247.421 46.2635 247.544 46.082C247.726 45.8154 247.97 45.702 248.238 45.6736C248.499 45.6459 248.787 45.6979 249.069 45.7596C249.131 45.7733 249.194 45.7875 249.256 45.8015C249.479 45.8525 249.699 45.9025 249.914 45.9259C250.187 45.9554 250.434 45.9395 250.649 45.8348C250.87 45.7223 251.033 45.5301 251.178 45.293C251.273 45.1363 251.354 44.9711 251.437 44.8012C251.483 44.7075 251.529 44.6123 251.579 44.5164C251.947 43.817 252.562 43.2328 253.252 42.9181ZM251.791 44.6411C251.748 44.724 251.705 44.8128 251.66 44.9036C251.573 45.0811 251.482 45.2666 251.381 45.4325C251.225 45.6893 251.031 45.9258 250.753 46.0673L250.751 46.0681C250.48 46.2007 250.182 46.2136 249.89 46.1819C249.66 46.157 249.423 46.1029 249.197 46.0515C249.137 46.0379 249.078 46.0244 249.02 46.0117C248.737 45.9498 248.482 45.9064 248.262 45.9297C248.049 45.9523 247.874 46.0369 247.74 46.2325C247.648 46.3683 247.605 46.5346 247.559 46.7288C247.557 46.7383 247.554 46.7478 247.552 46.7574C247.51 46.9366 247.462 47.1394 247.356 47.3156C247.151 47.6561 246.812 47.7977 246.481 47.8989C246.402 47.9231 246.321 47.9455 246.242 47.9675L246.229 47.9712C246.145 47.9946 246.062 48.0177 245.981 48.043C245.819 48.0936 245.668 48.1514 245.535 48.2316C245.186 48.4438 244.995 48.7073 244.879 49.0249C244.772 49.3155 244.727 49.6528 244.687 50.0486L263.076 49.8493C262.952 49.7104 262.828 49.5436 262.707 49.3628C262.507 49.0638 262.306 48.7156 262.109 48.3705C262.095 48.347 262.082 48.3235 262.068 48.3C261.884 47.9774 261.702 47.6603 261.524 47.3843C261.332 47.0865 261.151 46.8474 260.983 46.7033C260.75 46.5031 260.547 46.4259 260.357 46.4103C260.162 46.3944 259.97 46.4413 259.755 46.5103C259.706 46.5259 259.656 46.5427 259.605 46.5599C259.211 46.6918 258.749 46.8469 258.161 46.6921C257.337 46.4738 256.948 45.7408 256.602 45.0193C256.578 44.9696 256.554 44.9199 256.53 44.8703C256.202 44.1826 255.887 43.5228 255.279 43.1716C254.684 42.8264 253.988 42.8622 253.347 43.1545C252.707 43.4471 252.132 43.9921 251.791 44.6411Z" fill="black"/>
<path fill-rule="evenodd" clip-rule="evenodd" d="M264.873 41.0564C264.238 41.0564 263.724 41.7773 263.724 42.6666C263.724 43.5559 264.238 44.2768 264.873 44.2768C265.507 44.2768 266.021 43.5559 266.021 42.6666C266.021 41.7773 265.507 41.0564 264.873 41.0564ZM263.51 42.6666C263.51 41.6116 264.12 40.7563 264.873 40.7563C265.625 40.7563 266.235 41.6116 266.235 42.6666C266.235 43.7216 265.625 44.5768 264.873 44.5768C264.12 44.5768 263.51 43.7216 263.51 42.6666Z" fill="black"/>
<path d="M360.258 73.474L364.809 95.2887L368.65 94.3394L364.61 64.2412L353.205 63.77" fill="black"/>
<path fill-rule="evenodd" clip-rule="evenodd" d="M353.205 62.944C353.208 62.8699 353.267 62.8122 353.337 62.815L365.225 63.2965C365.286 63.299 365.337 63.3474 365.346 63.4115L369.558 94.1653C369.567 94.2344 369.525 94.2996 369.46 94.3153L365.456 95.2854C365.423 95.2934 365.388 95.2872 365.359 95.2681C365.33 95.2491 365.31 95.2188 365.303 95.1839L360.559 72.8939C360.544 72.8216 360.587 72.7498 360.656 72.7336C360.724 72.7174 360.792 72.7629 360.808 72.8352L365.523 94.9935L369.288 94.0814L365.109 63.5605L353.328 63.0833C353.257 63.0805 353.202 63.0181 353.205 62.944Z" fill="black"/>
<path d="M347.694 89.5581L345.856 92.0071L345.029 93.0392L348.428 97.199L347.875 94.2602C347.287 92.5669 348.663 91.3179 348.663 91.3179L347.694 89.5581Z" fill="white"/>
<path fill-rule="evenodd" clip-rule="evenodd" d="M347.654 89.5585C347.685 89.5618 347.714 89.5851 347.731 89.6217L348.646 91.5357C348.676 91.5987 348.666 91.6834 348.623 91.7289C348.623 91.7289 348.623 91.7289 348.623 91.7289L348.623 91.7289M348.623 91.7289L348.622 91.7294L348.62 91.7317C348.618 91.7339 348.615 91.7374 348.61 91.7422C348.602 91.7517 348.589 91.7662 348.573 91.7856C348.54 91.8242 348.493 91.882 348.439 91.9572C348.33 92.1079 348.19 92.3267 348.068 92.5999C347.823 93.1452 347.651 93.8956 347.911 94.7598C347.913 94.7675 347.915 94.7753 347.917 94.7834L348.438 97.9798C348.448 98.0419 348.428 98.1059 348.388 98.1366C348.348 98.1672 348.298 98.157 348.266 98.1117L345.059 93.5873C345.02 93.5321 345.019 93.4435 345.058 93.3878L345.837 92.2669L347.57 89.6049C347.591 89.5724 347.622 89.5552 347.654 89.5585M348.424 91.5866L347.634 89.9323L345.987 92.4603C345.987 92.4611 345.986 92.4619 345.986 92.4627C345.986 92.4631 345.985 92.4634 345.985 92.4637L345.275 93.486L348.159 97.555L347.719 94.8586C347.43 93.886 347.629 93.0407 347.894 92.4487C348.027 92.152 348.178 91.9161 348.295 91.7545C348.345 91.6846 348.39 91.6282 348.424 91.5866Z" fill="black"/>
<path d="M360.37 68.6977C360.37 68.6977 360.31 73.1858 360.419 76.7171C360.512 79.7279 360.714 83.0764 358.765 85.0443L349.761 93.3785L346.846 90.1848L355.627 81.0627L353.007 71.2355C352.273 68.7997 352.354 66.2093 353.073 63.77" fill="black"/>
<path fill-rule="evenodd" clip-rule="evenodd" d="M353.12 63.7758C353.186 63.7971 353.222 63.8702 353.202 63.9393C352.502 66.3349 352.425 68.8752 353.138 71.261C353.138 71.2617 353.138 71.2623 353.138 71.263C353.138 71.2638 353.139 71.2645 353.139 71.2652L355.711 81.0057C355.723 81.0513 355.711 81.1001 355.679 81.1334L347.143 90.0847L349.839 93.0663L358.587 84.8913C359.515 83.945 359.936 82.6619 360.113 81.2312C360.274 79.9252 360.228 78.5117 360.185 77.1388C360.18 77.0047 360.176 76.871 360.172 76.7378C360.118 74.9856 360.106 72.9967 360.108 71.4466C360.108 70.6714 360.112 70.0056 360.116 69.5336C360.118 69.2976 360.12 69.11 360.122 68.9814C360.122 68.9171 360.123 68.8676 360.123 68.8341L360.124 68.784L360.124 68.7834C360.124 68.7833 360.124 68.7831 360.248 68.785C360.372 68.7868 360.372 68.7868 360.372 68.7869L360.371 68.8375C360.371 68.8709 360.37 68.9203 360.37 68.9845C360.368 69.1128 360.366 69.3002 360.364 69.5359C360.361 70.0073 360.357 70.6724 360.356 71.4468C360.354 72.9959 360.366 74.9814 360.42 76.7293C360.424 76.863 360.428 76.9975 360.433 77.1326C360.476 78.5013 360.522 79.9364 360.359 81.2648C360.179 82.7262 359.743 84.077 358.758 85.0812C358.757 85.0825 358.755 85.0837 358.754 85.085L349.914 93.3456C349.864 93.3923 349.788 93.3889 349.742 93.338L346.88 90.1725C346.833 90.121 346.834 90.0398 346.882 89.9896L355.452 81.0021L352.9 71.3374C352.171 68.8955 352.253 66.3013 352.965 63.8623C352.985 63.7933 353.055 63.7546 353.12 63.7758ZM360.248 68.785L360.372 68.7869C360.373 68.7147 360.318 68.6553 360.25 68.6543C360.181 68.6532 360.125 68.7109 360.124 68.7831L360.248 68.785Z" fill="black"/>
<path d="M348.663 97.1994L348.073 94.4999C348.074 94.4956 348.074 94.4913 348.073 94.487C347.291 93.9937 346.528 93.1196 345.91 92.4238L345.029 93.3783L348.663 97.1994Z" fill="white"/>
<path fill-rule="evenodd" clip-rule="evenodd" d="M345.967 92.4238C345.997 92.4242 346.026 92.4402 346.046 92.4681C346.065 92.4942 346.085 92.5206 346.104 92.5471C346.677 93.3317 347.361 94.2674 348.056 94.8007C348.083 94.8214 348.102 94.856 348.107 94.8954C348.108 94.9035 348.109 94.9117 348.109 94.9199L348.661 97.9863C348.672 98.0463 348.65 98.108 348.607 98.1375C348.564 98.1671 348.511 98.1573 348.477 98.1136L345.061 93.7486C345.019 93.6956 345.019 93.6104 345.06 93.5565L345.888 92.4662C345.908 92.4388 345.937 92.4235 345.967 92.4238ZM345.29 93.6504L348.364 97.5773L347.901 95.0029C347.198 94.4484 346.518 93.5194 345.965 92.7623L345.29 93.6504Z" fill="black"/>
<path d="M358.211 49.4438L364.108 48.6595L363.509 45.3089C362.824 45.1311 361.708 44.9301 361.576 44.1316C361.534 43.8826 361.455 43.0539 361.564 42.7533C361.703 42.7 362.183 42.5879 362.307 42.5079C362.936 42.1166 362.981 41.4853 362.697 40.6067L363.256 40.4093C362.809 39.2925 362.041 36.9325 360.624 37.0303C358.488 37.1921 358.061 38.6149 358.275 40.6654C358.369 41.5546 358.894 42.2038 359.572 42.5612C359.655 43.1974 359.541 43.8468 359.25 44.3966C358.666 45.4814 358.569 45.4868 357.748 45.967L358.211 49.4438Z" fill="white"/>
<path fill-rule="evenodd" clip-rule="evenodd" d="M363.924 40.0921C363.974 40.2083 364.022 40.3167 364.066 40.4142C364.081 40.4484 364.081 40.4877 364.066 40.5221C364.051 40.5565 364.022 40.5825 363.987 40.5936L363.498 40.7468C363.626 41.1336 363.681 41.4862 363.621 41.7968C363.552 42.151 363.338 42.4309 362.964 42.6376C362.917 42.6647 362.846 42.6895 362.776 42.7114C362.702 42.7344 362.616 42.7577 362.531 42.7797C362.478 42.7934 362.427 42.8064 362.379 42.8185C362.303 42.8377 362.235 42.8548 362.184 42.8691C362.171 42.921 362.162 42.9897 362.156 43.0728C362.149 43.1874 362.15 43.3187 362.156 43.4508C362.168 43.7158 362.201 43.9733 362.223 44.088L362.223 44.0885C362.282 44.4083 362.567 44.6296 362.981 44.7954C363.314 44.9291 363.695 45.0134 364.034 45.0883C364.111 45.1052 364.185 45.1216 364.256 45.138C364.305 45.1493 364.343 45.1888 364.353 45.2391L365.014 48.5192C365.021 48.555 365.013 48.5923 364.992 48.622C364.971 48.6516 364.939 48.6709 364.903 48.6751L358.401 49.4429C358.333 49.451 358.27 49.4024 358.26 49.333L357.75 45.9292C357.741 45.8736 357.769 45.8187 357.818 45.7932C357.877 45.7627 357.931 45.7344 357.983 45.7078C358.338 45.5246 358.539 45.4207 358.719 45.2637C358.922 45.0858 359.101 44.8356 359.423 44.304C359.716 43.8116 359.838 43.2336 359.77 42.6632C359.023 42.2931 358.437 41.636 358.33 40.7353L358.329 40.735C358.211 39.7236 358.265 38.8354 358.672 38.1772C359.085 37.5101 359.838 37.1113 361.038 37.0305L361.039 37.0305C361.892 36.9782 362.53 37.5845 363.005 38.2954C363.395 38.8801 363.695 39.567 363.924 40.0921ZM361.055 37.2912C361.764 37.2478 362.33 37.7488 362.793 38.4424C363.169 39.0054 363.457 39.6647 363.686 40.19C363.716 40.2583 363.745 40.3243 363.772 40.3876L363.295 40.5372C363.262 40.5478 363.234 40.572 363.218 40.6042C363.203 40.6364 363.201 40.6737 363.213 40.7074C363.366 41.1294 363.422 41.4716 363.369 41.7462C363.318 42.0116 363.161 42.2321 362.842 42.4084L362.842 42.4084L362.84 42.4094C362.819 42.4212 362.773 42.4393 362.701 42.4615C362.633 42.4827 362.552 42.5048 362.468 42.5266C362.423 42.5382 362.377 42.5499 362.331 42.5614C362.213 42.5912 362.102 42.6193 362.043 42.6396C362.007 42.6516 361.979 42.6785 361.965 42.7135C361.927 42.8073 361.909 42.9305 361.901 43.0555C361.892 43.1834 361.893 43.3253 361.9 43.4632C361.913 43.7383 361.947 44.0081 361.971 44.1372C362.057 44.5991 362.459 44.8669 362.887 45.0384C363.241 45.1807 363.649 45.2706 363.988 45.3454C364.033 45.3553 364.077 45.3649 364.119 45.3744L364.735 48.4321L358.495 49.169L358.017 45.9832C358.045 45.9686 358.072 45.9545 358.099 45.9407C358.448 45.7607 358.681 45.641 358.886 45.4619C359.123 45.2543 359.32 44.9709 359.641 44.4408L359.642 44.4399C359.978 43.8756 360.109 43.2092 360.014 42.5562C360.008 42.5126 359.98 42.4752 359.941 42.4568C359.223 42.1207 358.681 41.5185 358.584 40.7038C358.467 39.7079 358.53 38.8961 358.889 38.3164C359.242 37.7457 359.901 37.3688 361.055 37.2912Z" fill="black"/>
<path d="M360.461 40.2611C359.68 39.3366 358.756 39.9243 359.473 41.002C359.647 41.2449 359.77 41.5284 359.834 41.8317C359.897 42.1351 359.9 42.4506 359.84 42.7551C359.506 42.8056 358.705 42.1993 358.38 41.7144C357.745 40.768 357.559 39.6262 357.957 38.599C358.59 36.9638 361.256 36.4805 362.156 37.7435C362.898 38.7792 360.328 39.8418 360.461 40.2611Z" fill="black"/>
<path fill-rule="evenodd" clip-rule="evenodd" d="M359.978 37.322C359.179 37.4785 358.434 37.9703 358.152 38.7017C357.792 39.6388 357.957 40.6866 358.543 41.5646M359.978 37.322C360.778 37.165 361.578 37.3551 361.971 37.9097ZM362.139 37.7584C361.674 37.1034 360.775 36.9201 359.941 37.0837C359.104 37.2477 358.277 37.7705 357.956 38.6053L357.956 38.6053C357.559 39.636 357.748 40.7753 358.371 41.7102L358.372 41.7102C358.536 41.9574 358.816 42.2277 359.091 42.4297C359.23 42.5312 359.371 42.6179 359.501 42.6765C359.626 42.7334 359.755 42.7705 359.863 42.7541C359.908 42.7473 359.944 42.7097 359.954 42.66C360.013 42.3508 360.011 42.0303 359.947 41.7221C359.883 41.4147 359.759 41.1274 359.584 40.8811C359.422 40.6364 359.362 40.4326 359.36 40.2828C359.359 40.137 359.412 40.0391 359.491 39.984C359.655 39.8693 360.006 39.9041 360.363 40.3287C360.398 40.3702 360.453 40.3785 360.497 40.3485C360.538 40.3199 360.557 40.264 360.543 40.2122C360.544 40.2113 360.544 40.2102 360.545 40.2089C360.549 40.1967 360.56 40.1763 360.583 40.1473C360.628 40.0893 360.703 40.019 360.802 39.936C360.891 39.8617 360.995 39.7815 361.107 39.6947C361.119 39.6857 361.131 39.6765 361.143 39.6673C361.267 39.5706 361.401 39.4668 361.529 39.358C361.784 39.1429 362.035 38.8982 362.175 38.6351C362.246 38.5017 362.292 38.3572 362.291 38.205C362.29 38.0508 362.24 37.9007 362.139 37.7584ZM362.076 38.2071C362.076 38.1142 362.047 38.0156 361.972 37.91L361.971 37.9097M362.076 38.2071C362.077 38.302 362.049 38.4028 361.991 38.5107ZM361.991 38.5107C361.875 38.7299 361.654 38.9508 361.401 39.1643ZM361.401 39.1643C361.276 39.2698 361.146 39.3711 361.021 39.4678ZM361.021 39.4678C361.009 39.4771 360.997 39.4863 360.985 39.4955ZM360.985 39.4955C360.874 39.5816 360.767 39.6644 360.675 39.7415ZM360.675 39.7415C360.574 39.8258 360.483 39.9087 360.422 39.9871ZM360.422 39.9871C360.412 40 360.402 40.0133 360.393 40.0271ZM360.393 40.0271C360.035 39.6782 359.638 39.5963 359.378 39.7783C359.229 39.8822 359.144 40.0633 359.146 40.2857C359.148 40.5037 359.234 40.7569 359.413 41.0275C359.414 41.0287 359.414 41.0299 359.415 41.031C359.571 41.2495 359.681 41.5046 359.738 41.7776C359.788 42.0185 359.796 42.268 359.761 42.5117C359.713 42.5037 359.652 42.4846 359.58 42.4519C359.467 42.4008 359.339 42.3224 359.208 42.2267C358.945 42.0343 358.688 41.7821 358.543 41.5647" fill="black"/>
<path d="M369.241 42.7578L362.875 44.5529L362.165 47.6547L358.909 44.5529C357.186 45.1402 355.528 45.7397 354.294 47.1108C352.603 48.9945 352.218 50.9442 352.309 53.5073L353.053 63.3028L364.877 63.7703C365.862 58.9707 367.791 48.8259 367.791 48.8259L369.559 47.9293C369.372 47.0993 369.259 46.2536 369.221 45.4026C369.191 44.1358 369.241 42.7578 369.241 42.7578Z" fill="white"/>
<path fill-rule="evenodd" clip-rule="evenodd" d="M369.246 42.8914L369.246 42.8916L369.245 42.9068C369.245 42.917 369.244 42.9321 369.244 42.9518C369.243 42.9913 369.241 43.0492 369.239 43.1226C369.234 43.2693 369.229 43.4781 369.225 43.7259C369.216 44.2213 369.211 44.8718 369.226 45.4944C369.263 46.3267 369.374 47.1539 369.556 47.9656C369.569 48.0238 369.542 48.0836 369.49 48.1101L367.802 48.9676L367.731 49.3449C367.677 49.6282 367.599 50.0381 367.502 50.5449C367.309 51.5585 367.041 52.9593 366.742 54.5082C366.146 57.6059 365.427 61.2969 364.942 63.6681C364.929 63.7295 364.875 63.7726 364.815 63.7702L353.162 63.3085C353.099 63.306 353.048 63.255 353.043 63.1899L352.31 53.5144C352.309 53.5126 352.309 53.5108 352.309 53.5091C352.219 50.9575 352.602 48.9932 354.298 47.0989L354.298 47.0988C355.539 45.7168 357.205 45.1164 358.899 44.5374C358.942 44.5227 358.99 44.5333 359.023 44.5652L362.075 47.4787L362.725 44.6301C362.736 44.5842 362.77 44.5479 362.814 44.5355L369.088 42.7624C369.126 42.7516 369.167 42.7602 369.199 42.7857C369.23 42.8112 369.247 42.8504 369.246 42.8914ZM367.692 48.8803L367.569 48.8556C367.576 48.8162 367.601 48.7826 367.636 48.7649L369.291 47.9241C369.118 47.1287 369.012 46.3192 368.976 45.5048L368.976 45.5021C368.961 44.8739 368.966 44.2188 368.975 43.7212C368.979 43.4723 368.985 43.2625 368.989 43.115C368.989 43.0944 368.99 43.075 368.99 43.0569L362.951 44.7635L362.269 47.7529C362.258 47.7975 362.226 47.8332 362.184 47.8466C362.141 47.8599 362.095 47.849 362.062 47.8179L358.908 44.8058C357.233 45.3793 355.657 45.9653 354.482 47.2736C352.847 49.0998 352.47 50.9865 352.559 53.497L353.283 63.0556L364.719 63.5087C365.204 61.1362 365.909 57.5099 366.497 54.4581C366.795 52.9093 367.063 51.5087 367.257 50.4953C367.353 49.9885 367.432 49.5786 367.485 49.2954L367.569 48.8556C367.569 48.8555 367.569 48.8556 367.692 48.8803Z" fill="black"/>
<path d="M354.115 52.6772C354.115 52.6772 359.201 56.4153 360.006 56.8661C360.81 57.3169 362.569 56.9295 362.569 56.9295L362.815 56.8661C364.789 56.3484 371.378 54.6704 371.378 54.6704L370.524 51.1347L362.783 52.8462L357.614 48.4883" fill="white"/>
<path fill-rule="evenodd" clip-rule="evenodd" d="M357.774 48.536C357.82 48.4809 357.902 48.4722 357.958 48.5167L363.272 52.7065L371.243 51.0586C371.312 51.0444 371.38 51.0859 371.397 51.1526L372.282 54.5829C372.291 54.616 372.285 54.6511 372.267 54.6804C372.249 54.7096 372.22 54.7306 372.186 54.7387L372.155 54.6142C372.186 54.7387 372.186 54.7387 372.186 54.7387L371.888 54.8096C371.698 54.8551 371.423 54.9207 371.086 55.0009C370.413 55.1614 369.495 55.3806 368.512 55.6155C366.547 56.0853 364.327 56.6177 363.303 56.8687L363.303 56.8689L363.048 56.9304C363.046 56.9307 363.045 56.9311 363.043 56.9314L363.016 56.806C363.043 56.9314 363.043 56.9313 363.043 56.9314L363.042 56.9317L363.038 56.9326C363.034 56.9333 363.028 56.9344 363.021 56.9357C363.007 56.9385 362.987 56.9424 362.96 56.9472C362.908 56.9568 362.832 56.97 362.739 56.9844C362.552 57.0132 362.294 57.047 362.009 57.067C361.725 57.087 361.411 57.0933 361.113 57.0661C360.817 57.0392 360.526 56.9783 360.295 56.8574C359.87 56.6343 358.333 55.6122 356.914 54.6539C356.202 54.1731 355.517 53.7059 355.009 53.359C354.755 53.1855 354.545 53.0421 354.399 52.9421C354.326 52.892 354.269 52.8528 354.23 52.8262L354.171 52.7853C354.171 52.7853 354.171 52.7853 354.246 52.6804C354.321 52.5756 354.321 52.5756 354.322 52.5756L354.381 52.6164C354.42 52.643 354.477 52.6822 354.55 52.7322C354.696 52.8322 354.905 52.9755 355.159 53.1489C355.666 53.4957 356.352 53.9625 357.063 54.443C358.491 55.4074 360.01 56.4173 360.419 56.6315C360.606 56.7293 360.856 56.7854 361.137 56.811C361.416 56.8364 361.714 56.8308 361.99 56.8114C362.266 56.7921 362.516 56.7593 362.698 56.7313C362.789 56.7173 362.862 56.7046 362.912 56.6953C362.938 56.6907 362.957 56.687 362.97 56.6844L362.985 56.6815L362.987 56.681L363.24 56.6202C363.24 56.6202 363.24 56.6202 363.24 56.6201C364.264 56.3689 366.486 55.8363 368.45 55.3666C369.433 55.1317 370.351 54.9125 371.024 54.752C371.361 54.6717 371.636 54.6062 371.826 54.5607L371.996 54.5203L371.174 51.3348L363.265 52.9698C363.227 52.9778 363.187 52.9684 363.156 52.9442L357.794 48.7162C357.738 48.6718 357.729 48.5911 357.774 48.536ZM354.246 52.6804L354.322 52.5756C354.262 52.535 354.181 52.5489 354.139 52.6068C354.097 52.6647 354.112 52.7446 354.171 52.7853L354.246 52.6804Z" fill="black"/>
<path fill-rule="evenodd" clip-rule="evenodd" d="M297.387 70.6464C297.387 70.5731 297.445 70.5137 297.517 70.5137H309.646C309.714 70.5137 309.771 70.5672 309.776 70.6364L313.74 123.857C313.746 123.93 313.692 123.994 313.62 124C313.548 124.005 313.485 123.95 313.48 123.877L309.525 70.7791H297.517C297.445 70.7791 297.387 70.7196 297.387 70.6464Z" fill="black"/>
<path fill-rule="evenodd" clip-rule="evenodd" d="M286.346 84.8407C286.429 84.8463 286.492 84.9101 286.485 84.9834L283.153 123.877C283.146 123.95 283.074 124.005 282.991 124C282.908 123.994 282.846 123.93 282.852 123.857L286.185 84.9633C286.191 84.8901 286.263 84.8352 286.346 84.8407Z" fill="black"/>
<path d="M289.664 35.1745C290.918 35.1745 291.935 34.3192 291.935 33.2642C291.935 32.2092 290.918 31.354 289.664 31.354C288.41 31.354 287.393 32.2092 287.393 33.2642C287.393 34.3192 288.41 35.1745 289.664 35.1745Z" fill="black"/>
<path fill-rule="evenodd" clip-rule="evenodd" d="M289.664 31.5754C288.555 31.5754 287.656 32.3315 287.656 33.2642C287.656 34.1969 288.555 34.953 289.664 34.953C290.773 34.953 291.672 34.1969 291.672 33.2642C291.672 32.3315 290.773 31.5754 289.664 31.5754ZM287.393 33.2642C287.393 32.2092 288.41 31.354 289.664 31.354C290.918 31.354 291.935 32.2092 291.935 33.2642C291.935 34.3192 290.918 35.1745 289.664 35.1745C288.41 35.1745 287.393 34.3192 287.393 33.2642Z" fill="black"/>
</g>
<path d="M37.6937 39.438V37.585H35.4157V31.805H33.1717V47.496H35.4157V39.438H37.6937ZM25.9977 41.869V35.069H31.0637V33.25H23.7537V43.739H25.0967C27.8167 43.739 29.9587 43.637 32.3217 43.229L32.1007 41.376C30.0777 41.716 28.2247 41.852 25.9977 41.869ZM51.7684 31.788H49.5244V47.496H51.7684V31.788ZM44.8664 35.29V33.012H42.6224V35.29C42.6224 38.35 41.3304 41.342 38.5934 42.532L39.9364 44.385C41.8574 43.501 43.0814 41.852 43.7784 39.727C44.4754 41.648 45.6484 43.195 47.4844 44.011L48.7594 42.192C46.1074 41.053 44.8664 38.197 44.8664 35.29ZM68.6141 43.824H62.6301V40.951H67.0671V32.774H64.8571V35.205H58.1591V32.774H55.9321V40.951H60.3861V43.824H54.4361V45.643H68.6141V43.824ZM58.1591 39.166V36.973H64.8571V39.166H58.1591ZM80.0198 41.886L82.2638 42.141C82.8928 38.826 82.8928 36.599 82.8928 34.644V33.148H71.5198V34.933H80.6488C80.6488 36.752 80.6148 38.945 80.0198 41.886ZM84.2528 43.773H77.3338V38.384H75.0898V43.773H70.0918V45.575H84.2528V43.773ZM98.7184 40.475V31.805H96.4574V40.475H98.7184ZM94.2474 39.999L95.3184 38.248C92.7854 37.517 91.6634 35.698 91.6634 33.845V32.349H89.3854V33.845C89.3854 35.749 88.2464 37.704 85.6284 38.52L86.7164 40.288C88.5694 39.693 89.8274 38.537 90.5584 37.041C91.2554 38.401 92.4624 39.472 94.2474 39.999ZM98.9564 45.524H96.9504V42.957H98.7694V41.189H88.1274V42.957H89.9804V45.524H87.9914V47.275H98.9564V45.524ZM92.1904 45.524V42.957H94.7404V45.524H92.1904ZM108.424 38.724C111.841 38.724 114.102 37.483 114.102 35.494C114.102 33.505 111.841 32.264 108.424 32.264C105.024 32.264 102.763 33.505 102.763 35.494C102.763 37.483 105.024 38.724 108.424 38.724ZM108.424 34.032C110.549 34.032 111.79 34.542 111.79 35.494C111.79 36.463 110.549 36.939 108.424 36.939C106.299 36.939 105.075 36.463 105.075 35.494C105.075 34.542 106.299 34.032 108.424 34.032ZM115.496 39.795H101.352V41.58H115.496V39.795ZM105.313 45.405V42.634H103.069V47.19H113.915V45.405H105.313ZM135.02 43.824H129.036V41.172C131.807 40.849 133.762 39.234 133.762 36.922C133.762 34.287 131.263 32.604 127.914 32.604C124.582 32.604 122.083 34.287 122.083 36.922C122.083 39.234 124.021 40.849 126.792 41.172V43.824H120.842V45.643H135.02V43.824ZM124.293 36.922C124.293 35.324 125.772 34.389 127.914 34.389C130.073 34.389 131.552 35.324 131.552 36.922C131.552 38.52 130.073 39.455 127.914 39.455C125.772 39.455 124.293 38.52 124.293 36.922ZM149.622 31.805H147.378V37.483H145.049V39.302H147.378V47.479H149.622V31.805ZM144.012 41.852V34.967H145.474V33.182H136.838V34.967H138.13V42.107H136.413L136.651 43.926C139.337 43.926 142.873 43.858 146.001 43.314L145.865 41.682C145.27 41.75 144.641 41.801 144.012 41.852ZM140.306 42.056V34.967H141.853V41.988C141.326 42.039 140.833 42.039 140.306 42.056ZM164.802 39.982V38.231H156.098V37.041H164.309V35.341H156.098V34.202H164.649V32.434H153.871V39.982H164.802ZM166.281 42.855V41.053H152.103V42.855H155.384V47.462H157.645V42.855H160.79V47.462H163.051V42.855H166.281ZM180.831 31.788H178.587V47.445H180.831V31.788ZM170.801 41.682V33.284H168.574V43.603H169.968C172.365 43.603 174.949 43.433 177.618 42.872L177.38 41.002C175.051 41.461 172.858 41.631 170.801 41.682ZM196.436 31.805H194.175V47.479H196.436V31.805ZM186.474 42.124V39.217H191.506V37.466H186.474V34.916H192.152V33.097H184.23V43.926H185.59C188.412 43.926 190.588 43.841 193.036 43.484L192.832 41.699C190.707 42.022 188.803 42.124 186.474 42.124ZM217.422 39.557V37.704H215.178V31.788H212.934V47.496H215.178V39.557H217.422ZM205.743 42.022V39.183H210.707V33.131H203.516V34.916H208.497V37.415H203.533V43.875H204.859C207.579 43.875 209.721 43.756 212.084 43.348L211.88 41.529C209.84 41.886 207.987 42.005 205.743 42.022ZM231.497 31.788H229.253V47.496H231.497V31.788ZM223.082 32.893C220.719 32.893 218.968 35.035 218.968 38.469C218.968 41.92 220.719 44.079 223.082 44.079C225.445 44.079 227.196 41.92 227.196 38.469C227.196 35.035 225.445 32.893 223.082 32.893ZM223.082 34.916C224.238 34.916 225.037 36.14 225.037 38.469C225.037 40.798 224.238 42.039 223.082 42.039C221.926 42.039 221.127 40.798 221.127 38.469C221.127 36.14 221.926 34.916 223.082 34.916ZM237.888 32.825H235.661V41.172H246.796V32.825H244.586V35.358H237.888V32.825ZM237.888 39.387V37.109H244.586V39.387H237.888ZM248.343 43.773H234.165V45.609H248.343V43.773Z" fill="black"/>
<path d="M31.8717 64.124H30.8877V74.912H31.8717V64.124ZM26.1957 64.952C24.5997 64.952 23.4597 66.416 23.4597 68.708C23.4597 71 24.5997 72.464 26.1957 72.464C27.7917 72.464 28.9317 71 28.9317 68.708C28.9317 66.416 27.7917 64.952 26.1957 64.952ZM26.1957 65.84C27.2397 65.84 27.9837 66.968 27.9837 68.708C27.9837 70.46 27.2397 71.588 26.1957 71.588C25.1397 71.588 24.3957 70.46 24.3957 68.708C24.3957 66.968 25.1397 65.84 26.1957 65.84ZM43.2468 64.124H42.3108V74.876H43.2468V64.124ZM40.1748 64.364V68.18H38.5788V65.372H34.4868V71.996H38.5788V68.996H40.1748V74.348H41.1108V64.364H40.1748ZM37.6668 66.152V71.216H35.4108V66.152H37.6668ZM53.9739 69.644V64.124H52.9899V69.644H53.9739ZM50.9499 66.908C50.9499 65.48 49.7619 64.508 48.1659 64.508C46.5699 64.508 45.3939 65.48 45.3939 66.908C45.3939 68.312 46.5699 69.284 48.1659 69.284C49.7619 69.284 50.9499 68.312 50.9499 66.908ZM46.3419 66.908C46.3419 65.984 47.1219 65.312 48.1659 65.312C49.2219 65.312 49.9899 65.984 49.9899 66.908C49.9899 67.82 49.2219 68.492 48.1659 68.492C47.1219 68.492 46.3419 67.82 46.3419 66.908ZM54.3339 73.964H47.9979V72.776H53.9739V70.172H47.0019V70.952H53.0019V72.044H47.0259V74.744H54.3339V73.964ZM68.9205 69.248V68.42H67.1445V64.136H66.1605V74.888H67.1445V69.248H68.9205ZM59.2965 65.204V72.152H64.2285V65.204H59.2965ZM60.2565 71.36V65.996H63.2685V71.36H60.2565ZM79.0476 64.112H78.1116V74.876H79.0476V64.112ZM75.8796 64.4V68.372H74.1876C74.4876 67.412 74.6076 66.404 74.6076 65.396H70.4916V66.188H73.6596C73.6236 66.776 73.5396 67.34 73.3836 67.904L69.9636 68.132L70.0956 68.972L73.1196 68.672C72.5916 69.932 71.6076 71.036 69.9636 71.948L70.5276 72.656C72.2556 71.696 73.2756 70.508 73.8876 69.176H75.8796V74.336H76.8036V64.4H75.8796ZM89.7746 70.796V64.136H88.7906V70.796H89.7746ZM87.6626 69.716L87.5546 68.936C86.0426 69.188 84.7826 69.236 82.5386 69.236V67.832H86.3906V67.052H82.5386V65.708H86.6906V64.916H81.5546V70.028H82.4306C84.7706 70.028 86.0906 69.968 87.6626 69.716ZM86.1986 70.952C83.9546 70.952 82.5986 71.672 82.5986 72.92C82.5986 74.168 83.9546 74.876 86.1986 74.876C88.4546 74.876 89.8106 74.168 89.8106 72.92C89.8106 71.672 88.4546 70.952 86.1986 70.952ZM86.1986 74.108C84.5546 74.108 83.5706 73.688 83.5706 72.92C83.5706 72.152 84.5546 71.72 86.1986 71.72C87.8426 71.72 88.8386 72.152 88.8386 72.92C88.8386 73.688 87.8426 74.108 86.1986 74.108ZM92.0177 72.476L91.5857 74.9H92.3777L93.1097 72.476H92.0177ZM103.707 70.556V67.856H105.075V70.94H106.023V64.124H105.075V67.052H103.707V64.34H102.771V70.556H103.707ZM102.351 66.188V65.408H100.107V64.208H99.1347V65.408H96.8787V66.188H102.351ZM101.919 68.588C101.919 67.484 100.983 66.752 99.6267 66.752C98.2707 66.752 97.3227 67.484 97.3227 68.588C97.3227 69.704 98.2707 70.436 99.6267 70.436C100.983 70.436 101.919 69.704 101.919 68.588ZM98.2107 68.588C98.2107 67.916 98.7627 67.484 99.6267 67.484C100.491 67.484 101.043 67.916 101.043 68.588C101.043 69.26 100.491 69.704 99.6267 69.704C98.7627 69.704 98.2107 69.26 98.2107 68.588ZM102.483 71.12C100.239 71.12 98.8827 71.804 98.8827 73.004C98.8827 74.204 100.239 74.876 102.483 74.876C104.727 74.876 106.083 74.204 106.083 73.004C106.083 71.804 104.727 71.12 102.483 71.12ZM102.483 74.12C100.839 74.12 99.8547 73.724 99.8547 73.004C99.8547 72.284 100.839 71.876 102.483 71.876C104.127 71.876 105.099 72.284 105.099 73.004C105.099 73.724 104.127 74.12 102.483 74.12ZM118.034 69.308V68.492H116.258V64.136H115.274V74.888H116.258V69.308H118.034ZM111.59 66.992V65.06H110.618V66.992C110.618 68.948 109.394 71 107.846 71.804L108.434 72.596C109.646 71.924 110.642 70.628 111.11 69.032C111.59 70.52 112.562 71.768 113.714 72.38L114.326 71.6C112.826 70.832 111.59 68.876 111.59 66.992ZM130.532 64.124H129.548V74.888H130.532V64.124ZM127.376 65.288H122.336V66.08H126.38C126.176 68.636 124.736 70.7 121.844 72.08L122.372 72.884C125.96 71.12 127.376 68.396 127.376 65.288ZM139.448 65.852V65.108H136.784V64.064H135.8V65.108H133.148V65.852H139.448ZM141.548 64.148H140.564V71.336H141.548V64.148ZM139.772 70.58L139.712 69.884C138.752 70.016 137.792 70.088 136.784 70.136V69.44C138.08 69.308 138.86 68.732 138.86 67.856C138.86 66.848 137.828 66.248 136.292 66.248C134.768 66.248 133.748 66.872 133.748 67.856C133.748 68.72 134.54 69.308 135.8 69.44V70.184C134.732 70.22 133.7 70.22 132.788 70.22L132.932 71C134.864 71 137.444 70.964 139.772 70.58ZM134.672 67.856C134.672 67.292 135.32 66.944 136.292 66.944C137.3 66.944 137.924 67.292 137.924 67.856C137.924 68.42 137.3 68.768 136.292 68.768C135.32 68.768 134.672 68.42 134.672 67.856ZM134.336 71.84V72.62H140.564V74.888H141.548V71.84H134.336ZM155.066 68.216V67.424H148.67V65.348H154.994V64.556H147.686V68.216H155.066ZM156.206 69.248H146.462V70.064H156.206V69.248ZM151.322 70.988C149.03 70.988 147.638 71.684 147.638 72.932C147.638 74.18 149.03 74.876 151.322 74.876C153.614 74.876 155.006 74.18 155.006 72.932C155.006 71.684 153.614 70.988 151.322 70.988ZM151.322 74.108C149.63 74.108 148.634 73.7 148.634 72.932C148.634 72.164 149.63 71.756 151.322 71.756C153.014 71.756 154.01 72.164 154.01 72.932C154.01 73.7 153.014 74.108 151.322 74.108ZM170.241 69.188V68.372H168.465V64.124H167.481V74.912H168.465V69.188H170.241ZM161.625 71.384V65.972H165.645V65.156H160.641V72.224H161.493C163.509 72.224 164.949 72.164 166.581 71.84L166.473 71.024C164.925 71.312 163.545 71.384 161.625 71.384ZM179.576 66.536H181.148V65.732H179.576V64.136H178.592V70.508H179.576V68.84H181.148V68.024H179.576V66.536ZM177.044 67.292C177.044 65.804 175.856 64.772 174.236 64.772C172.604 64.772 171.428 65.804 171.428 67.292C171.428 68.792 172.604 69.836 174.236 69.836C175.856 69.836 177.044 68.792 177.044 67.292ZM172.388 67.292C172.388 66.284 173.156 65.588 174.236 65.588C175.304 65.588 176.084 66.284 176.084 67.292C176.084 68.3 175.304 69.008 174.236 69.008C173.156 69.008 172.388 68.3 172.388 67.292ZM176.156 70.844C173.972 70.844 172.604 71.564 172.604 72.86C172.604 74.132 173.972 74.876 176.156 74.876C178.328 74.876 179.696 74.132 179.696 72.86C179.696 71.564 178.328 70.844 176.156 70.844ZM176.156 74.096C174.56 74.096 173.588 73.628 173.588 72.86C173.588 72.08 174.56 71.624 176.156 71.624C177.752 71.624 178.712 72.08 178.712 72.86C178.712 73.628 177.752 74.096 176.156 74.096ZM188.647 66.236V65.444H185.959V64.136H184.975V65.444H182.299V66.236H188.647ZM192.211 67.676H190.615V64.136H189.631V72.2H190.615V68.504H192.211V67.676ZM188.047 68.828C188.047 67.628 187.003 66.836 185.467 66.836C183.943 66.836 182.899 67.628 182.899 68.828C182.899 70.04 183.943 70.832 185.467 70.832C187.003 70.832 188.047 70.04 188.047 68.828ZM183.835 68.828C183.835 68.06 184.459 67.604 185.467 67.604C186.439 67.604 187.111 68.06 187.111 68.828C187.111 69.596 186.439 70.064 185.467 70.064C184.459 70.064 183.835 69.596 183.835 68.828ZM184.903 73.844V71.564H183.919V74.648H191.095V73.844H184.903ZM204.446 68.768V64.472H203.474V65.84H198.242V64.472H197.27V68.768H204.446ZM203.474 66.596V67.988H198.242V66.596H203.474ZM205.742 69.812H195.962V70.604H200.438V72.692H201.422V70.604H205.742V69.812ZM198.182 73.844V71.72H197.21V74.648H204.65V73.844H198.182ZM215.305 67.652H217.021V66.836H215.305V64.136H214.321V74.888H215.305V70.856H217.021V70.04H215.305V67.652ZM209.893 64.952C208.297 64.952 207.181 66.416 207.181 68.696C207.181 71 208.297 72.464 209.893 72.464C211.477 72.464 212.593 71 212.593 68.696C212.593 66.416 211.477 64.952 209.893 64.952ZM209.893 71.588C208.849 71.588 208.117 70.46 208.117 68.696C208.117 66.968 208.849 65.84 209.893 65.84C210.913 65.84 211.657 66.968 211.657 68.696C211.657 70.46 210.913 71.588 209.893 71.588ZM31.8357 83.124H30.8517V93.912H31.8357V83.124ZM26.5557 83.916C24.8877 83.916 23.6757 84.948 23.6757 86.448C23.6757 87.948 24.8877 88.98 26.5557 88.98C28.2357 88.98 29.4357 87.948 29.4357 86.448C29.4357 84.948 28.2357 83.916 26.5557 83.916ZM26.5557 84.756C27.6717 84.756 28.4757 85.44 28.4757 86.448C28.4757 87.444 27.6717 88.14 26.5557 88.14C25.4397 88.14 24.6357 87.444 24.6357 86.448C24.6357 85.44 25.4397 84.756 26.5557 84.756ZM23.1357 90.72L23.2557 91.548C25.2117 91.548 27.7917 91.524 30.2277 91.08L30.1437 90.348C27.7677 90.696 25.1157 90.72 23.1357 90.72ZM46.7344 85.908H45.1384V83.124H44.1544V89.556H45.1384V86.724H46.7344V85.908ZM42.2344 83.928H37.2664V84.72H41.1664C40.9744 86.592 39.3664 88.032 36.8104 88.8L37.2064 89.592C40.3264 88.668 42.2344 86.664 42.2344 83.928ZM41.7664 89.7C39.6424 89.7 38.2624 90.492 38.2624 91.788C38.2624 93.084 39.6424 93.876 41.7664 93.876C43.8904 93.876 45.2704 93.084 45.2704 91.788C45.2704 90.492 43.8904 89.7 41.7664 89.7ZM41.7664 93.096C40.2184 93.096 39.2344 92.604 39.2344 91.788C39.2344 90.96 40.2184 90.468 41.7664 90.468C43.3144 90.468 44.2984 90.96 44.2984 91.788C44.2984 92.604 43.3144 93.096 41.7664 93.096ZM52.9735 88.188H55.6975V91.08H56.6935V83.136H55.6975V84.816H52.9615C52.4455 84.192 51.6895 83.808 50.7655 83.808C49.1815 83.808 47.9935 84.924 47.9935 86.508C47.9935 88.092 49.1815 89.208 50.7655 89.208C51.6895 89.208 52.4575 88.824 52.9735 88.188ZM48.9295 86.508C48.9295 85.44 49.7095 84.672 50.7655 84.672C51.8095 84.672 52.5895 85.44 52.5895 86.508C52.5895 87.576 51.8095 88.344 50.7655 88.344C49.7095 88.344 48.9295 87.576 48.9295 86.508ZM53.3815 85.608H55.6975V87.396H53.3815C53.4775 87.12 53.5255 86.82 53.5255 86.508C53.5255 86.184 53.4775 85.884 53.3815 85.608ZM56.9935 92.844H50.8015V90.264H49.8055V93.648H56.9935V92.844ZM63.7245 87.036C66.0885 87.036 67.5045 86.388 67.5045 85.176C67.5045 83.964 66.0885 83.304 63.7245 83.304C61.3605 83.304 59.9445 83.964 59.9445 85.176C59.9445 86.388 61.3605 87.036 63.7245 87.036ZM63.7245 84.048C65.5125 84.048 66.4965 84.456 66.4965 85.176C66.4965 85.896 65.5125 86.304 63.7245 86.304C61.9365 86.304 60.9525 85.896 60.9525 85.176C60.9525 84.456 61.9365 84.048 63.7245 84.048ZM68.5965 87.768H58.8525V88.56H68.5965V87.768ZM61.0245 93V91.908H67.3485V89.484H60.0285V90.228H66.3765V91.188H60.0645V93.768H67.6725V93H61.0245ZM78.2632 86.916H80.4592V91.056H81.4552V83.124H80.4592V86.112H78.2752C78.0832 84.744 76.9792 83.808 75.5272 83.808C73.9432 83.808 72.7552 84.924 72.7552 86.496C72.7552 88.044 73.9432 89.148 75.5272 89.148C76.9672 89.148 78.0712 88.236 78.2632 86.916ZM73.6912 86.496C73.6912 85.428 74.4712 84.672 75.5272 84.672C76.5832 84.672 77.3632 85.428 77.3632 86.496C77.3632 87.552 76.5832 88.284 75.5272 88.284C74.4712 88.284 73.6912 87.552 73.6912 86.496ZM81.7552 92.844H75.5632V90.264H74.5672V93.648H81.7552V92.844ZM92.7702 83.112H91.8222V93.876H92.7702V83.112ZM89.6622 83.364V86.988H87.8862V87.792H89.6622V93.324H90.5982V83.364H89.6622ZM86.7822 86.16V85.188H88.7022V84.384H83.7942V85.188H85.8342V86.16C85.8342 88.14 85.0062 90.096 83.4942 90.996L84.0942 91.728C85.1622 91.056 85.9422 89.82 86.3142 88.32C86.6862 89.724 87.4182 90.84 88.4742 91.464L89.0742 90.744C87.5862 89.904 86.7822 88.032 86.7822 86.16ZM103.281 87.372V86.58H96.8733V84.384H103.185V83.58H95.8893V87.372H103.281ZM104.397 88.56H94.6653V89.352H104.397V88.56ZM96.8973 92.832V90.492H95.9133V93.636H103.377V92.832H96.8973ZM118.444 88.188V87.372H116.668V83.124H115.684V93.912H116.668V88.188H118.444ZM109.828 90.384V84.972H113.848V84.156H108.844V91.224H109.696C111.712 91.224 113.152 91.164 114.784 90.84L114.676 90.024C113.128 90.312 111.748 90.384 109.828 90.384ZM128.235 83.124H127.251V93.912H128.235V83.124ZM123.243 85.992V84.06H122.271V85.992C122.271 88.056 120.951 90.084 119.379 90.852L119.979 91.656C121.239 90.984 122.271 89.688 122.763 88.044C123.279 89.592 124.287 90.84 125.535 91.452L126.123 90.66C124.539 89.952 123.243 87.96 123.243 85.992ZM142.882 87.876H138.502V86.844H141.61V83.292H140.638V84.312H135.406V83.292H134.434V86.844H137.518V87.876H133.138V88.668H142.882V87.876ZM135.406 86.088V85.056H140.638V86.088H135.406ZM135.31 93.012V91.968H141.634V89.568H134.314V90.312H140.662V91.248H134.35V93.768H141.958V93.012H135.31ZM155.728 88.02L156.136 87.228C154.18 86.94 152.26 85.608 152.26 84.108V83.508H151.228V84.108C151.228 85.656 149.344 86.94 147.376 87.228L147.772 88.02C149.44 87.732 151.072 86.808 151.744 85.5C152.452 86.808 154.048 87.732 155.728 88.02ZM156.616 90L156.604 89.184H146.884V90H151.228V93.9H152.212V90H156.616ZM169.427 89.28V83.136H168.443V89.28H169.427ZM163.643 88.776C165.275 88.776 166.463 87.756 166.463 86.268C166.463 84.78 165.275 83.76 163.643 83.76C162.023 83.76 160.847 84.78 160.847 86.268C160.847 87.756 162.023 88.776 163.643 88.776ZM163.643 84.576C164.711 84.576 165.503 85.272 165.503 86.268C165.503 87.264 164.711 87.96 163.643 87.96C162.575 87.96 161.807 87.264 161.807 86.268C161.807 85.272 162.575 84.576 163.643 84.576ZM168.227 90.324V89.748H167.267V90.324C167.267 91.164 166.751 92.232 165.719 92.88C164.711 92.292 164.231 91.284 164.231 90.324V89.748H163.283V90.324C163.283 91.368 162.479 92.52 161.123 93L161.615 93.744C162.623 93.36 163.355 92.616 163.739 91.752C164.063 92.664 164.687 93.42 165.743 93.84C166.751 93.408 167.399 92.592 167.735 91.716C168.107 92.628 168.839 93.36 169.895 93.744L170.387 93C169.007 92.556 168.227 91.44 168.227 90.324ZM180.502 83.124H179.518V87.228H177.178C177.022 85.212 175.966 83.952 174.514 83.952C172.942 83.952 171.826 85.416 171.826 87.708C171.826 90 172.942 91.464 174.514 91.464C176.014 91.464 177.082 90.144 177.178 88.032H179.518V93.912H180.502V83.124ZM174.514 90.588C173.482 90.588 172.762 89.46 172.762 87.708C172.762 85.968 173.482 84.84 174.514 84.84C175.534 84.84 176.254 85.968 176.254 87.708C176.254 89.46 175.534 90.588 174.514 90.588ZM192.441 91.692H190.029V88.776C190.941 88.308 191.445 87.54 191.445 86.568C191.445 84.9 189.825 83.808 187.533 83.808C185.253 83.808 183.621 84.9 183.621 86.568C183.621 87.54 184.149 88.32 185.061 88.788V91.692H182.661V92.508H192.441V91.692ZM187.533 84.576C189.261 84.576 190.509 85.368 190.509 86.568C190.509 87.768 189.261 88.56 187.533 88.56C185.805 88.56 184.569 87.768 184.569 86.568C184.569 85.368 185.805 84.576 187.533 84.576ZM186.045 91.692V89.16C186.513 89.268 187.005 89.328 187.533 89.328C188.025 89.328 188.529 89.268 189.045 89.16V91.692H186.045Z" fill="#616161"/>
</svg>
