<svg width="267" height="267" viewBox="0 0 267 267" fill="none" xmlns="http://www.w3.org/2000/svg">
<mask id="mask0_1_2044" style="mask-type:alpha" maskUnits="userSpaceOnUse" x="0" y="0" width="267" height="267">
<rect width="267" height="267" rx="133.5" fill="#F6F6F6"/>
</mask>
<g mask="url(#mask0_1_2044)">
<rect width="267" height="267" rx="133.5" fill="#E8E7FF"/>
<path d="M105.116 97.9869C105.116 97.9869 103.074 96.9844 102.867 95.5741C102.66 94.1639 115.849 74.5006 115.849 74.5006C115.849 74.5006 117.418 76.1381 115.849 79.6905C114.281 83.2428 113.39 88.0784 113.39 89.2848C113.39 90.4912 113.757 94.3176 113.757 94.3176L105.116 97.9869Z" fill="#FDEEE6"/>
<path d="M99.3058 272.2H126.636L127.473 270.629L105.276 256.336L101.505 259.932L98.8887 259.621L99.3058 272.2Z" fill="#FDEEE6"/>
<path d="M126.636 272.701H99.306C99.1761 272.701 99.0512 272.65 98.9578 272.56C98.8644 272.47 98.8097 272.346 98.8054 272.216L98.3849 259.638C98.3835 259.566 98.3975 259.494 98.4258 259.428C98.4542 259.362 98.4963 259.302 98.5493 259.254C98.6023 259.205 98.665 259.168 98.7334 259.146C98.8017 259.123 98.874 259.115 98.9455 259.123L101.328 259.407L104.93 255.975C105.01 255.897 105.115 255.849 105.226 255.838C105.338 255.827 105.449 255.854 105.544 255.915L127.744 270.208C127.854 270.275 127.933 270.383 127.965 270.507C127.996 270.632 127.978 270.765 127.914 270.876L127.076 272.45C127.032 272.528 126.968 272.592 126.89 272.636C126.813 272.68 126.725 272.703 126.636 272.701ZM99.7899 271.698H126.336L126.816 270.799L105.333 256.971L101.849 260.313C101.796 260.363 101.732 260.402 101.662 260.425C101.592 260.448 101.518 260.455 101.445 260.446L99.4061 260.206L99.7899 271.698Z" fill="#577689"/>
<path d="M107.579 272.2H126.635L127.473 270.629L104.018 255.544L101.505 259.948C107.262 261.522 110.93 268.233 110.93 268.233H107.592L107.579 272.2Z" fill="#3F362E"/>
<path d="M60.9287 215.893C60.9287 215.893 63.0746 222.911 64.3295 228.475C65.5844 234.039 68.8317 249.138 68.8317 249.138L49.2511 253.903C49.2511 253.903 46.1106 241.792 43.8045 231.623C41.4984 221.454 42.0257 211.806 48.834 208.133C55.6423 204.461 62.3404 206.128 66.3086 210.022C70.2768 213.915 79.2844 227.636 79.2844 227.636L85.4586 246.825L64.0125 253.903" fill="#FEFAD0"/>
<path d="M64.0162 254.404C63.8979 254.403 63.7839 254.36 63.6942 254.283C63.6046 254.206 63.5451 254.1 63.5263 253.983C63.5075 253.866 63.5306 253.746 63.5916 253.645C63.6525 253.543 63.7474 253.467 63.8593 253.429L84.8315 246.521L78.8242 227.87C78.1901 226.904 69.7131 214.065 65.9552 210.396C62.6378 207.151 56.2233 204.715 49.068 208.591C41.3352 212.759 42.7569 224.749 44.2921 231.526C46.2946 240.439 49.0045 250.966 49.6086 253.315L68.238 248.78C67.674 246.167 64.954 233.535 63.8393 228.602C62.6011 223.125 60.4685 216.124 60.4451 216.054C60.4241 215.99 60.4159 215.923 60.4212 215.856C60.4264 215.789 60.445 215.724 60.4757 215.665C60.5065 215.606 60.5488 215.553 60.6002 215.51C60.6516 215.467 60.7111 215.435 60.775 215.416C60.839 215.396 60.9062 215.39 60.9727 215.397C61.0392 215.404 61.1036 215.424 61.1621 215.457C61.2206 215.489 61.2721 215.533 61.3135 215.585C61.3548 215.638 61.3853 215.698 61.403 215.763C61.4263 215.833 63.569 222.868 64.8138 228.378C66.0587 233.889 69.2859 248.897 69.3193 249.047C69.3465 249.175 69.323 249.308 69.2538 249.418C69.1847 249.529 69.0753 249.608 68.9488 249.639L49.365 254.404C49.2376 254.436 49.1029 254.415 48.9904 254.348C48.8779 254.28 48.7966 254.171 48.7643 254.043C48.7309 253.923 45.5937 241.809 43.3143 231.747C41.7157 224.692 40.2773 212.19 48.5907 207.706C56.2267 203.589 63.095 206.195 66.656 209.677C70.6175 213.551 79.3381 226.814 79.6986 227.389C79.7245 227.426 79.7447 227.466 79.7587 227.509L85.9362 246.698C85.9558 246.762 85.9627 246.828 85.9565 246.894C85.9503 246.96 85.9312 247.025 85.9002 247.083C85.8692 247.142 85.8269 247.194 85.7758 247.236C85.7247 247.278 85.6658 247.31 85.6024 247.33L64.1563 254.408C64.1097 254.413 64.0625 254.412 64.0162 254.404Z" fill="#F9F4C9"/>
<path d="M74.5924 239.276C74.5924 239.276 42.1295 240.997 39.7232 256.319C37.317 271.642 49.355 274.175 57.6284 274.596C65.9018 275.017 101.505 273.59 101.505 273.59V258.237" fill="#FEFAD0"/>
<path d="M61.8964 275.187C60.1142 275.187 58.6424 275.164 57.6045 275.114C49.9284 274.723 44.7421 272.744 41.7585 269.065C39.2321 265.95 38.3811 261.643 39.2288 256.259C40.23 249.779 46.7112 244.7 57.9182 241.572C63.3631 240.11 68.9353 239.173 74.5585 238.775C74.6906 238.77 74.8194 238.817 74.9178 238.905C75.0161 238.994 75.0763 239.117 75.0858 239.249C75.0894 239.315 75.08 239.381 75.0581 239.443C75.0362 239.505 75.0023 239.563 74.9582 239.612C74.9142 239.661 74.861 239.701 74.8015 239.729C74.7421 239.757 74.6776 239.774 74.6119 239.777C74.2781 239.777 42.5294 241.652 40.21 256.416C39.409 261.506 40.1899 265.549 42.5294 268.447C45.3262 271.892 50.2689 273.75 57.6479 274.128C65.2838 274.515 96.7188 273.286 100.997 273.125V258.237C100.997 258.104 101.05 257.977 101.144 257.883C101.238 257.789 101.365 257.736 101.498 257.736C101.631 257.736 101.758 257.789 101.852 257.883C101.946 257.977 101.999 258.104 101.999 258.237V273.59C101.999 273.719 101.949 273.844 101.859 273.937C101.769 274.031 101.647 274.086 101.518 274.091C101.214 274.094 74.198 275.187 61.8964 275.187Z" fill="#F9F4C9"/>
<path d="M65.7949 264.48C65.7949 264.48 72.8035 264.126 89.1567 262.141C105.51 260.156 108.1 251.534 109.568 246.521L80.4528 233.615" fill="#FEFAD0"/>
<path d="M65.5176 153.261L67.5434 150.955L76.4075 158.046L74.325 160.69L65.5176 153.261Z" fill="#EFEFEF"/>
<path d="M74.3249 161.191C74.2034 161.192 74.0853 161.151 73.9911 161.074L65.1837 153.645C65.0832 153.561 65.0196 153.441 65.0068 153.311C64.9986 153.177 65.0429 153.045 65.1303 152.943L67.1561 150.637C67.2411 150.541 67.3599 150.481 67.4879 150.47C67.6159 150.458 67.7432 150.497 67.8436 150.577L76.7111 157.669C76.8142 157.751 76.8805 157.871 76.8955 158.003C76.9106 158.134 76.873 158.266 76.7912 158.37L74.7086 161.014C74.626 161.117 74.5063 161.184 74.3749 161.201L74.3249 161.191ZM66.2317 153.207L74.2414 159.971L75.6965 158.126L67.6033 151.647L66.2317 153.207Z" fill="#D1D1D1"/>
<path d="M102.306 176.61C102.306 176.61 91.6027 178.074 87.2508 177.83C82.8988 177.586 76.7546 176.887 73.4039 176.61C70.0531 176.333 65.1672 175.073 65.1672 175.073L75.64 159.968L65.5877 152.054C65.5877 152.054 47.8561 173.589 45.7602 180.37C43.6643 187.15 45.343 191.204 52.1847 193.443C59.0264 195.682 79.2844 198.756 79.2844 198.756C79.2844 198.756 79.201 210.57 77.4555 221.334C75.71 232.098 73.9646 235.176 77.4555 238.377C80.9464 241.578 89.9507 246.204 101.538 247.463C113.126 248.723 110.883 249.134 113.126 242.01C115.368 234.885 120.107 211.599 115.292 196.925C110.476 182.251 103.924 176.4 102.306 176.61Z" fill="#8F8FF9"/>
<path d="M109.085 248.717C107.93 248.717 106.348 248.536 104.108 248.282L101.485 247.988C90.2983 246.775 81.0103 242.36 77.1223 238.771C74.192 236.071 74.686 233.505 75.8774 227.306C76.2111 225.578 76.5849 223.63 76.9687 221.267C78.5006 211.813 78.7476 201.423 78.7843 199.211C75.7406 198.743 58.3661 196.016 52.035 193.944C45.14 191.692 43.0608 187.468 45.2902 180.243C47.3894 173.445 64.4802 152.636 65.2078 151.754C65.2911 151.653 65.4103 151.589 65.5399 151.576C65.6696 151.562 65.7994 151.599 65.9019 151.68L75.9542 159.593C76.0516 159.672 76.1163 159.784 76.1354 159.908C76.1546 160.031 76.1268 160.158 76.0576 160.262L66.0021 174.752C67.4672 175.106 70.9281 175.892 73.4545 176.089C74.6025 176.186 76.101 176.333 77.6863 176.49C80.8468 176.797 84.4312 177.158 87.2846 177.312C91.5398 177.552 102.139 176.105 102.246 176.092C104.512 175.791 111.134 182.645 115.769 196.775C120.892 212.384 115.369 236.542 113.61 242.167C113.276 243.236 113.036 244.152 112.846 244.887C112.082 247.831 111.638 248.717 109.085 248.717ZM65.665 152.766C63.2921 155.674 48.1303 174.411 46.238 180.533C44.1554 187.274 45.9243 190.893 52.3387 192.978C59.0636 195.177 79.1581 198.242 79.3717 198.272C79.4911 198.29 79.5999 198.351 79.6783 198.443C79.7567 198.535 79.7995 198.652 79.7989 198.773C79.7989 198.89 79.6954 210.747 77.9633 221.427C77.5795 223.797 77.199 225.772 76.8653 227.496C75.7172 233.475 75.2867 235.714 77.8064 238.033C81.5844 241.515 90.6454 245.803 101.605 246.992C102.577 247.096 103.451 247.196 104.235 247.286C107.639 247.674 109.515 247.888 110.43 247.554C111.167 247.28 111.381 246.595 111.885 244.653C112.082 243.908 112.322 242.982 112.662 241.889C113.607 238.882 115.452 231.349 116.37 222.276C117.091 215.135 117.411 204.972 114.828 197.109C110.213 183.04 103.878 177.101 102.443 177.101H102.386C101.919 177.168 91.5799 178.572 87.2379 178.328C84.3611 178.167 80.7667 177.813 77.5962 177.502C76.0142 177.349 74.5191 177.202 73.3777 177.105C70.0403 176.827 65.2578 175.604 65.0576 175.554C64.9797 175.533 64.9079 175.494 64.8482 175.44C64.7886 175.386 64.7428 175.318 64.7147 175.242C64.6866 175.167 64.677 175.086 64.6867 175.005C64.6964 174.925 64.7252 174.849 64.7706 174.782L74.973 160.078L65.665 152.766Z" fill="#8680F9"/>
<path d="M87.4047 181.713C86.0857 187.184 85.4357 192.794 85.469 198.422L98.8853 180.376L89.6007 183.661L87.4047 181.713Z" fill="#EFEFEF"/>
<path d="M85.4589 198.92C85.4068 198.92 85.355 198.913 85.3054 198.897C85.2085 198.862 85.1246 198.799 85.0648 198.715C85.0051 198.632 84.9726 198.532 84.9716 198.429C84.8214 189.72 86.904 181.666 86.924 181.586C86.9457 181.503 86.9883 181.427 87.0478 181.365C87.1072 181.303 87.1815 181.258 87.2636 181.233C87.3457 181.208 87.4327 181.205 87.5164 181.223C87.6002 181.242 87.6777 181.282 87.7417 181.339L89.7174 183.097L98.7284 179.912C98.8296 179.876 98.9397 179.873 99.0424 179.904C99.1452 179.936 99.2352 179.999 99.2991 180.086C99.3623 180.172 99.3963 180.277 99.3963 180.385C99.3963 180.492 99.3623 180.597 99.2991 180.684L85.8827 198.73C85.8322 198.793 85.7674 198.843 85.6937 198.876C85.62 198.909 85.5395 198.924 85.4589 198.92ZM87.6883 182.642C86.6305 187.328 86.0501 192.109 85.9562 196.912L97.4936 181.406L89.7575 184.143C89.6733 184.172 89.5826 184.179 89.495 184.161C89.4074 184.144 89.3263 184.102 89.2602 184.042L87.6883 182.642Z" fill="#8680F9"/>
<path d="M85.833 171.507L87.999 181.152L89.6043 183.668L100.978 175.069L99.236 167.59L85.833 171.507Z" fill="#FDEEE6"/>
<path d="M99.8966 170.434L99.2291 167.59L85.8262 171.507L87.2446 177.83C89.9579 177.345 95.9785 175.761 99.8966 170.434Z" fill="#FFC3B8"/>
<path d="M101.38 165.726C102.772 159.73 99.0466 153.74 93.0593 152.346C87.072 150.952 81.0897 154.682 79.6975 160.677C78.3053 166.673 82.0304 172.663 88.0178 174.057C94.0051 175.451 99.9873 171.721 101.38 165.726Z" fill="#FFEAE2"/>
<path d="M96.5121 154.521C96.5121 154.521 87.5011 152.472 81.6807 156.469C81.6807 156.469 82.268 153.461 84.0168 151.236C86.3897 148.228 95.3874 144.442 100.977 152.068C100.977 152.068 107.612 154.798 105.937 160.88C104.261 166.962 101.265 168.232 101.265 168.232C101.265 168.232 102.172 164.299 100.01 163.219C97.847 162.14 95.6744 158.715 96.5121 154.521Z" fill="#3F362E"/>
<path d="M100.284 164.118C100.284 164.118 102.099 163.213 103.214 165.004C104.399 166.905 103.214 168.79 101.672 169.629C100.13 170.468 98.2578 169.479 98.2578 169.479" fill="#FDEEE6"/>
<path d="M100.566 169C100.08 168.991 99.603 168.886 99.1671 168.692C99.0937 168.657 99.0386 168.597 99.0141 168.526C98.9895 168.454 98.9974 168.376 99.036 168.31C99.0746 168.243 99.1409 168.193 99.2201 168.171C99.2993 168.149 99.3851 168.156 99.4585 168.191C99.4585 168.191 100.499 168.672 101.292 168.278C101.54 168.161 101.759 168.001 101.938 167.807C102.117 167.612 102.251 167.388 102.333 167.146C102.384 166.963 102.392 166.773 102.356 166.587C102.32 166.401 102.241 166.225 102.125 166.069C101.989 165.849 101.765 165.685 101.5 165.611C101.234 165.538 100.947 165.56 100.699 165.673C100.625 165.706 100.539 165.711 100.46 165.687C100.382 165.663 100.317 165.612 100.281 165.544C100.244 165.477 100.238 165.399 100.265 165.328C100.291 165.257 100.348 165.199 100.422 165.165C100.809 164.988 101.255 164.952 101.67 165.064C102.086 165.176 102.437 165.429 102.653 165.769C102.815 165.99 102.924 166.24 102.972 166.502C103.02 166.764 103.006 167.032 102.932 167.289C102.827 167.606 102.654 167.901 102.421 168.157C102.188 168.412 101.901 168.622 101.577 168.775C101.266 168.926 100.918 169.003 100.566 169Z" fill="#E9665C"/>
<path d="M84.9785 158.046C84.9785 158.186 84.937 158.323 84.8593 158.44C84.7816 158.556 84.6711 158.647 84.5418 158.701C84.4125 158.754 84.2702 158.768 84.133 158.741C83.9957 158.714 83.8697 158.646 83.7707 158.547C83.6718 158.448 83.6044 158.322 83.5771 158.184C83.5498 158.047 83.5638 157.905 83.6173 157.775C83.6709 157.646 83.7616 157.535 83.8779 157.457C83.9943 157.379 84.1311 157.338 84.271 157.338C84.4587 157.338 84.6386 157.412 84.7713 157.545C84.904 157.678 84.9785 157.858 84.9785 158.046Z" fill="#3F362E"/>
<path d="M91.249 159.968C91.249 160.108 91.2075 160.245 91.1298 160.361C91.052 160.478 90.9415 160.569 90.8122 160.622C90.6829 160.676 90.5407 160.69 90.4035 160.663C90.2662 160.635 90.1402 160.568 90.0412 160.469C89.9423 160.37 89.8749 160.243 89.8476 160.106C89.8203 159.969 89.8343 159.826 89.8878 159.697C89.9414 159.567 90.0321 159.457 90.1484 159.379C90.2648 159.301 90.4015 159.259 90.5415 159.259C90.7291 159.259 90.9091 159.334 91.0418 159.467C91.1744 159.6 91.249 159.78 91.249 159.968Z" fill="#3F362E"/>
<path d="M84.9786 162.22C84.897 162.221 84.8166 162.201 84.7444 162.164C84.6722 162.126 84.6105 162.07 84.5647 162.003L83.8572 160.97C83.7933 160.877 83.7629 160.765 83.7708 160.652C83.7786 160.539 83.8244 160.432 83.9006 160.349L86.3002 157.705C86.3918 157.62 86.512 157.572 86.637 157.571C86.762 157.57 86.8829 157.616 86.9758 157.7C87.0687 157.784 87.1269 157.9 87.139 158.024C87.1511 158.149 87.1161 158.274 87.0411 158.374L84.9085 160.713L85.3891 161.415C85.4265 161.469 85.4528 161.53 85.4665 161.595C85.4802 161.659 85.481 161.726 85.4689 161.791C85.4568 161.856 85.432 161.918 85.396 161.973C85.36 162.028 85.3134 162.076 85.2589 162.113C85.179 162.177 85.0809 162.215 84.9786 162.22Z" fill="#E9665C"/>
<path d="M87.2208 165.592C86.3991 165.592 85.5829 165.458 84.8045 165.194C84.6934 165.141 84.6059 165.048 84.559 164.933C84.5121 164.819 84.5091 164.691 84.5505 164.575C84.5919 164.458 84.6748 164.361 84.7833 164.302C84.8918 164.243 85.0182 164.227 85.1383 164.255C85.185 164.255 87.6113 165.127 89.577 164.011C89.6925 163.946 89.8293 163.929 89.9573 163.964C90.0853 164 90.194 164.084 90.2595 164.2C90.325 164.316 90.342 164.453 90.3066 164.581C90.2712 164.709 90.1865 164.818 90.071 164.883C89.1977 165.362 88.216 165.606 87.2208 165.592Z" fill="#3F362E"/>
<path d="M87.6378 179.547L86.6699 181.713V188.143L89.6035 183.668L87.9982 181.152L87.6378 179.547Z" fill="#EFEFEF"/>
<path d="M86.6706 188.644C86.622 188.644 86.5738 188.637 86.5271 188.624C86.4237 188.593 86.3331 188.529 86.2687 188.443C86.2044 188.356 86.1697 188.251 86.17 188.143V181.713C86.1691 181.643 86.184 181.573 86.2133 181.509L87.1779 179.344C87.2217 179.248 87.2941 179.169 87.385 179.117C87.4759 179.065 87.5808 179.042 87.685 179.052C87.7893 179.063 87.8878 179.105 87.9667 179.174C88.0457 179.243 88.1013 179.335 88.1257 179.437L88.4594 180.958L90.018 183.401C90.0704 183.482 90.0983 183.576 90.0983 183.673C90.0983 183.77 90.0704 183.864 90.018 183.945L87.0844 188.417C87.0394 188.486 86.9781 188.543 86.9059 188.582C86.8337 188.622 86.7529 188.643 86.6706 188.644ZM87.1712 181.82V186.465L89.0067 183.665L87.575 181.422C87.5432 181.373 87.5206 181.319 87.5083 181.262L87.4782 181.131L87.1712 181.82Z" fill="#D1D1D1"/>
<path d="M89.6035 183.668L92.8641 189.89L102.309 176.61L100.977 175.069L89.6035 183.668Z" fill="#EFEFEF"/>
<path d="M92.8647 190.378H92.8313C92.7459 190.372 92.6635 190.344 92.5917 190.298C92.5199 190.251 92.4611 190.187 92.4208 190.111L89.1568 183.889C89.1016 183.783 89.0857 183.662 89.112 183.546C89.1383 183.43 89.2051 183.328 89.3003 183.257L100.674 174.672C100.775 174.599 100.898 174.566 101.021 174.579C101.144 174.592 101.258 174.65 101.342 174.742L102.677 176.279C102.75 176.365 102.793 176.473 102.798 176.585C102.803 176.698 102.769 176.809 102.703 176.901L93.2618 190.181C93.2154 190.243 93.1553 190.292 93.0864 190.327C93.0175 190.361 92.9416 190.379 92.8647 190.378ZM90.2415 183.798L92.9114 188.921L101.655 176.627L100.888 175.741L90.2415 183.798Z" fill="#D1D1D1"/>
<path d="M79.2845 198.77C79.2845 198.77 79.3379 194.014 78.5703 191.358L79.2845 198.77Z" fill="#FDEEE6"/>
<path d="M79.2844 199.271C79.2187 199.27 79.1538 199.256 79.0934 199.23C79.033 199.204 78.9783 199.167 78.9324 199.119C78.8865 199.072 78.8504 199.017 78.826 198.955C78.8017 198.894 78.7896 198.829 78.7905 198.763C78.7905 198.716 78.8339 194.051 78.0963 191.498C78.0748 191.434 78.0665 191.366 78.0719 191.298C78.0773 191.231 78.0962 191.165 78.1276 191.106C78.159 191.046 78.2022 190.993 78.2546 190.95C78.3069 190.907 78.3674 190.875 78.4323 190.857C78.4972 190.838 78.5652 190.833 78.6323 190.841C78.6993 190.849 78.764 190.871 78.8224 190.905C78.8808 190.939 78.9318 190.984 78.9722 191.039C79.0126 191.093 79.0416 191.155 79.0575 191.221C79.8385 193.914 79.7917 198.573 79.7917 198.773C79.7913 198.839 79.7778 198.905 79.752 198.965C79.7263 199.026 79.6887 199.081 79.6416 199.128C79.5944 199.174 79.5386 199.21 79.4773 199.235C79.416 199.26 79.3505 199.272 79.2844 199.271Z" fill="#8680F9"/>
<path d="M81.1908 235.493C81.1575 235.496 81.124 235.496 81.0907 235.493C81.026 235.48 80.9646 235.455 80.9098 235.418C80.8551 235.381 80.8082 235.334 80.7719 235.279C80.7356 235.224 80.7105 235.162 80.6982 235.097C80.6859 235.033 80.6866 234.966 80.7002 234.901L83.2133 222.32C83.2427 222.193 83.3204 222.082 83.4298 222.012C83.5392 221.941 83.6718 221.916 83.7994 221.942C83.927 221.967 84.0396 222.042 84.1133 222.149C84.1871 222.256 84.2162 222.388 84.1945 222.517L81.6814 235.099C81.6564 235.21 81.5942 235.31 81.5051 235.382C81.4159 235.454 81.3051 235.493 81.1908 235.493Z" fill="#8680F9"/>
<path d="M154.517 51.178L148.796 7.21632C148.761 6.92512 148.661 6.64532 148.506 6.39666C148.35 6.148 148.142 5.93653 147.896 5.77719C147.65 5.61784 147.372 5.5145 147.082 5.47446C146.792 5.43441 146.496 5.45863 146.216 5.54541L103.902 18.6086C103.649 18.685 103.414 18.8106 103.21 18.9783C103.006 19.1459 102.837 19.3523 102.713 19.5855C102.589 19.8187 102.512 20.0742 102.487 20.3373C102.462 20.6003 102.489 20.8658 102.567 21.1183L106.592 34.2049C106.668 34.4579 106.793 34.6932 106.961 34.8975C107.128 35.1018 107.334 35.2708 107.567 35.3951C107.8 35.5193 108.055 35.5962 108.318 35.6213C108.581 35.6465 108.846 35.6194 109.098 35.5416L119.501 32.3268L41.7392 158.601L7.13037 134.316C5.24182 132.989 2.9361 132.396 0.642792 132.645C-1.65051 132.895 -3.77498 133.971 -5.33481 135.673L-63.0718 198.623L-92.3274 173.195C-94.0522 171.693 -96.2591 170.864 -98.5444 170.859C-100.83 170.853 -103.041 171.672 -104.773 173.165L-138.187 201.964C-140.098 203.613 -141.277 205.954 -141.465 208.472C-141.653 210.991 -140.834 213.481 -139.188 215.395C-138.373 216.343 -137.38 217.121 -136.265 217.685C-135.149 218.248 -133.934 218.586 -132.689 218.679C-131.443 218.772 -130.191 218.619 -129.005 218.227C-127.819 217.836 -126.721 217.214 -125.775 216.398L-98.5917 192.972L-68.5852 219.078C-66.7141 220.704 -64.2838 221.535 -61.8104 221.395C-59.337 221.256 -57.0155 220.156 -55.339 218.329L3.02538 154.704L39.0693 179.995C40.1306 180.74 41.3327 181.259 42.6017 181.522C43.8708 181.785 45.18 181.785 46.4492 181.523C47.7183 181.26 48.9205 180.741 49.9821 179.997C51.0437 179.253 51.9421 178.299 52.6224 177.195L135.553 42.5361L136.975 53.4672C137.008 53.7292 137.093 53.9821 137.224 54.2113C137.356 54.4404 137.531 54.6413 137.74 54.8025C137.949 54.9637 138.188 55.0819 138.442 55.1504C138.697 55.2189 138.963 55.2363 139.225 55.2016L152.784 53.4304C153.046 53.397 153.299 53.3122 153.528 53.1808C153.756 53.0494 153.957 52.874 154.118 52.6647C154.279 52.4554 154.397 52.2163 154.465 51.9612C154.534 51.7061 154.551 51.4399 154.517 51.178Z" fill="#6B53EB"/>
<path d="M-62.3514 221.915C-64.7646 221.913 -67.0958 221.038 -68.9161 219.452L-98.5956 193.637L-125.465 216.779C-126.462 217.638 -127.617 218.292 -128.866 218.703C-130.115 219.115 -131.433 219.276 -132.744 219.178C-134.056 219.079 -135.335 218.723 -136.508 218.13C-137.682 217.536 -138.728 216.717 -139.585 215.719C-140.445 214.722 -141.099 213.563 -141.508 212.311C-141.917 211.059 -142.073 209.738 -141.968 208.424C-141.874 207.11 -141.52 205.828 -140.927 204.652C-140.334 203.476 -139.514 202.43 -138.514 201.573L-105.107 172.784C-103.278 171.224 -100.953 170.371 -98.551 170.377C-96.1491 170.383 -93.8284 171.248 -92.0075 172.817L-63.1457 197.924L-5.74249 135.332C-4.09639 133.543 -1.85876 132.413 0.555893 132.15C2.97055 131.887 5.39856 132.509 7.39015 133.901L41.5651 157.879L118.365 33.1989L109.251 36.0061C108.936 36.1025 108.604 36.1358 108.276 36.104C107.948 36.0722 107.629 35.976 107.338 35.8208C107.047 35.6656 106.79 35.4546 106.58 35.1996C106.37 34.9447 106.213 34.651 106.117 34.3352L102.112 21.2452C102.016 20.9295 101.983 20.5978 102.014 20.2692C102.046 19.9406 102.142 19.6215 102.297 19.33C102.452 19.0386 102.663 18.7806 102.918 18.5708C103.172 18.361 103.465 18.2035 103.781 18.1073L146.096 5.07415C146.445 4.96647 146.813 4.93638 147.174 4.98599C147.536 5.0356 147.882 5.16371 148.189 5.36137C148.497 5.55902 148.757 5.82144 148.952 6.13029C149.147 6.43914 149.273 6.78696 149.32 7.14943L155.04 51.1111C155.125 51.7713 154.945 52.4384 154.54 52.9659C154.134 53.4935 153.536 53.8384 152.877 53.9249L139.287 55.7028C138.628 55.7891 137.962 55.6098 137.435 55.2043C136.908 54.7989 136.564 54.2004 136.477 53.5406L135.239 44.0064L53.0391 177.455C52.3232 178.619 51.3775 179.623 50.2598 180.407C49.1421 181.192 47.8762 181.739 46.5397 182.015C45.2033 182.291 43.8245 182.291 42.4881 182.014C41.1517 181.738 39.8859 181.191 38.7684 180.406L3.08492 155.366L-54.9858 218.67C-55.9237 219.69 -57.0623 220.505 -58.3298 221.064C-59.5974 221.622 -60.9666 221.912 -62.3514 221.915ZM-98.5956 192.474C-98.4729 192.472 -98.354 192.516 -98.2618 192.597L-68.2553 218.7C-66.4839 220.24 -64.1827 221.027 -61.8407 220.895C-59.4987 220.763 -57.3006 219.721 -55.7133 217.992L2.64104 154.363C2.72427 154.272 2.83832 154.214 2.96143 154.201C3.08452 154.188 3.20807 154.221 3.30852 154.293L39.3524 179.584C40.3579 180.289 41.4966 180.781 42.6988 181.03C43.901 181.279 45.1413 181.279 46.3435 181.031C47.5457 180.782 48.6846 180.29 49.6902 179.585C50.6958 178.88 51.5469 177.977 52.1914 176.931L135.126 42.272C135.18 42.1831 135.26 42.1132 135.356 42.0722C135.452 42.0311 135.557 42.0209 135.659 42.0429C135.761 42.065 135.853 42.1182 135.923 42.1952C135.993 42.2722 136.038 42.3691 136.05 42.4725L137.472 53.4036C137.497 53.6001 137.561 53.7895 137.66 53.9612C137.759 54.1329 137.89 54.2834 138.047 54.4042C138.204 54.5249 138.383 54.6135 138.574 54.6649C138.765 54.7162 138.964 54.7294 139.161 54.7036L152.72 52.9358C152.917 52.9107 153.107 52.8467 153.279 52.7475C153.451 52.6482 153.601 52.5157 153.722 52.3576C153.844 52.2017 153.933 52.0228 153.984 51.8317C154.036 51.6405 154.049 51.441 154.022 51.2448L148.298 7.2831C148.271 7.06519 148.196 6.85599 148.079 6.67022C147.962 6.48444 147.805 6.3266 147.621 6.20779C147.436 6.08897 147.228 6.01208 147.011 5.9825C146.793 5.95293 146.572 5.97139 146.363 6.0366L104.048 19.0697C103.666 19.1869 103.345 19.4513 103.158 19.8047C102.97 20.1581 102.93 20.5716 103.047 20.9545L107.072 34.0411C107.189 34.4238 107.453 34.7444 107.806 34.9324C108.158 35.1203 108.571 35.1604 108.954 35.0436L119.34 31.8422C119.437 31.812 119.541 31.8124 119.638 31.8431C119.736 31.8738 119.821 31.9335 119.883 32.0141C119.946 32.0947 119.982 32.1925 119.988 32.2943C119.993 32.3961 119.967 32.4972 119.914 32.5841L42.1525 158.855C42.1156 158.914 42.0669 158.965 42.0095 159.004C41.952 159.043 41.8871 159.07 41.8187 159.082C41.7517 159.097 41.6823 159.097 41.6151 159.083C41.5478 159.069 41.4842 159.042 41.4283 159.002L6.81946 134.717C5.02762 133.469 2.8452 132.912 0.675385 133.15C-1.49443 133.388 -3.505 134.404 -4.98491 136.01L-62.7219 198.963C-62.8104 199.059 -62.9329 199.117 -63.0632 199.124C-63.1935 199.131 -63.3213 199.086 -63.4194 199L-92.655 173.572C-94.2934 172.162 -96.3814 171.384 -98.5422 171.379C-100.703 171.374 -102.795 172.142 -104.439 173.546L-137.86 202.345C-138.76 203.116 -139.499 204.057 -140.033 205.116C-140.567 206.174 -140.885 207.328 -140.971 208.511C-141.062 209.692 -140.919 210.88 -140.548 212.006C-140.178 213.131 -139.589 214.172 -138.815 215.068C-138.043 215.966 -137.102 216.704 -136.046 217.238C-134.989 217.772 -133.838 218.093 -132.658 218.182C-131.478 218.27 -130.292 218.125 -129.167 217.755C-128.043 217.385 -127.003 216.796 -126.106 216.023L-98.9193 192.594C-98.8291 192.517 -98.7143 192.474 -98.5956 192.474Z" fill="#6B53EB"/>
<path d="M11.8262 217.223L12.4536 230.714L16.2215 229.946L28.3697 240.429H31.0229L25.7865 214.847C25.7865 214.847 17.3396 216.943 11.8262 217.223Z" fill="#FDEEE6"/>
<path d="M31.0221 240.93H28.3689C28.2468 240.932 28.1283 240.889 28.0351 240.81L16.0806 230.48L12.553 231.202C12.4821 231.216 12.4091 231.214 12.3389 231.198C12.2687 231.181 12.2029 231.149 12.1458 231.105C12.0884 231.061 12.0413 231.005 12.0079 230.941C11.9745 230.877 11.9555 230.806 11.9522 230.734L11.3248 217.243C11.3184 217.111 11.3647 216.981 11.4536 216.883C11.5424 216.785 11.6665 216.726 11.7987 216.719C17.202 216.445 25.5822 214.379 25.6656 214.356C25.7312 214.34 25.7994 214.337 25.8661 214.348C25.9327 214.359 25.9965 214.383 26.0536 214.419C26.1107 214.455 26.1598 214.503 26.1981 214.559C26.2364 214.614 26.263 214.677 26.2763 214.744L31.5127 240.325C31.5276 240.398 31.526 240.473 31.5083 240.545C31.4905 240.618 31.4569 240.685 31.41 240.743C31.363 240.8 31.3038 240.847 31.2368 240.878C31.1697 240.91 31.0964 240.927 31.0221 240.927V240.93ZM28.5558 239.928H30.408L25.3853 215.442C23.5397 215.88 17.0418 217.364 12.3327 217.681L12.9134 230.093L16.1106 229.424C16.185 229.408 16.262 229.41 16.3355 229.429C16.4091 229.449 16.4772 229.484 16.5345 229.534L28.5558 239.928Z" fill="#577689"/>
<path d="M16.8623 230.497L28.3697 240.429H31.0229L25.7865 214.847C25.7865 214.847 22.1454 215.749 18.0838 216.448L21.4212 229.524L18.1739 227.359L16.8623 230.497Z" fill="#587689"/>
<path d="M-17.6662 185.556L-14.696 217.153L12.9477 216.174L13.7854 232.251C13.7854 232.251 -13.351 237.983 -18.3537 238.123C-23.3565 238.263 -31.5899 239.383 -35.9185 228.766C-40.2471 218.149 -41.9258 202.342 -41.9258 202.342" fill="white"/>
<path d="M-21.8219 238.724C-26.7146 238.724 -32.8353 237.658 -36.3897 228.946C-40.6949 218.376 -42.397 202.546 -42.427 202.385C-42.4407 202.253 -42.4012 202.12 -42.317 202.016C-42.2328 201.912 -42.1109 201.846 -41.9781 201.832C-41.8454 201.819 -41.7126 201.858 -41.609 201.943C-41.5054 202.027 -41.4395 202.149 -41.4258 202.282C-41.4091 202.439 -39.707 218.132 -35.4552 228.565C-31.5571 238.14 -24.5553 237.862 -19.4357 237.662L-18.361 237.622C-13.7988 237.495 9.81993 232.572 13.2708 231.85L12.4798 216.692L-14.6732 217.654C-14.8012 217.661 -14.9266 217.617 -15.0227 217.532C-15.1187 217.447 -15.1778 217.328 -15.1872 217.2L-18.1575 185.603C-18.1636 185.537 -18.1567 185.471 -18.1372 185.407C-18.1178 185.344 -18.086 185.286 -18.0439 185.235C-17.9588 185.132 -17.8364 185.067 -17.7036 185.055C-17.5708 185.042 -17.4386 185.083 -17.3359 185.169C-17.2333 185.254 -17.1686 185.376 -17.1563 185.509L-14.2294 216.635L12.9437 215.673C13.0751 215.667 13.2033 215.714 13.3002 215.803C13.3971 215.892 13.455 216.016 13.461 216.147L14.2987 232.225C14.3059 232.344 14.2698 232.463 14.1968 232.558C14.1238 232.653 14.019 232.719 13.9016 232.743C12.7935 232.977 -13.3383 238.484 -18.3243 238.624L-19.389 238.661C-20.1632 238.691 -20.9742 238.724 -21.8219 238.724Z" fill="#577689"/>
<path d="M142.863 250.468L143.493 253.773C143.493 253.773 133.147 264.116 131.078 265.188C129.009 266.261 129.924 268.136 131.946 267.932C133.968 267.728 144.705 267.407 144.705 267.407L149.02 264.356L149.297 267.03L156.185 266.228L154.223 249.184L142.863 250.468Z" fill="#FDEEE6"/>
<path d="M131.952 267.932C133.975 267.725 144.711 267.407 144.711 267.407L149.026 264.356L149.303 267.03L156.192 266.228L155.007 255.938C152.491 257.141 141.26 262.438 138.32 262.585C136.601 262.672 136.177 261.76 136.164 260.864C133.948 262.933 131.889 264.757 131.078 265.175C129.002 266.265 129.93 268.136 131.952 267.932Z" fill="#3F362E"/>
<path d="M159.789 251.199L161.027 254.484C161.027 254.484 152.233 266.953 150.284 268.43C148.335 269.907 149.617 271.665 151.663 271.103C153.709 270.542 164.679 268.296 164.679 268.296L168.577 264.393L169.338 267.107L176.276 265.058L171.24 247.878L159.789 251.199Z" fill="#FDEEE6"/>
<path d="M151.663 271.1C153.705 270.529 164.678 268.293 164.678 268.293L168.577 264.39L169.337 267.103L176.276 265.055L173.236 254.695C170.863 256.366 160.256 263.822 157.263 264.497C155.511 264.891 154.927 264.029 154.743 263.106C152.831 265.63 151.035 267.872 150.278 268.453C148.335 269.914 149.617 271.672 151.663 271.1Z" fill="#3F362E"/>
<path d="M154.75 224.599L156.008 252.068L140.353 252.647C140.353 252.647 136.635 231.259 135.747 224.909C134.859 218.56 134.439 213.323 135.08 208.448C135.72 203.572 142.088 173.111 142.088 173.111C142.088 173.111 141.564 169.913 141.147 168.235C140.73 166.558 139.575 163.647 140.309 163.096C140.937 162.624 149.1 161.294 149.1 161.294" fill="#A8DBF4"/>
<path d="M140.353 253.148C140.235 253.147 140.121 253.104 140.031 253.028C139.94 252.952 139.88 252.846 139.859 252.73C139.822 252.516 136.131 231.259 135.25 224.993C134.485 219.549 133.875 213.774 134.582 208.394C135.196 203.642 141.127 175.31 141.591 173.114C141.504 172.58 141.043 169.85 140.673 168.369C140.576 167.985 140.439 167.53 140.296 167.032C139.602 164.723 139.238 163.279 140.019 162.688C140.686 162.197 146.54 161.198 149.03 160.793C149.094 160.782 149.161 160.784 149.225 160.799C149.288 160.814 149.349 160.841 149.402 160.879C149.456 160.917 149.501 160.966 149.535 161.021C149.57 161.077 149.593 161.139 149.604 161.204C149.625 161.336 149.593 161.47 149.516 161.579C149.438 161.687 149.321 161.76 149.19 161.782C145.392 162.401 141.18 163.203 140.623 163.49C140.389 163.871 140.957 165.806 141.25 166.742C141.4 167.233 141.541 167.701 141.641 168.108C142.061 169.779 142.572 172.891 142.592 173.024C142.604 173.085 142.604 173.147 142.592 173.208C142.529 173.512 136.201 203.702 135.583 208.504C134.916 213.764 135.51 219.459 136.251 224.833C137.062 230.597 140.256 249.054 140.783 252.119L155.494 251.577L154.263 224.609C154.26 224.543 154.27 224.477 154.292 224.415C154.314 224.354 154.349 224.297 154.393 224.248C154.437 224.2 154.491 224.161 154.55 224.133C154.61 224.105 154.674 224.09 154.74 224.087C154.806 224.083 154.872 224.093 154.934 224.115C154.996 224.137 155.053 224.171 155.102 224.216C155.15 224.26 155.189 224.314 155.217 224.374C155.244 224.434 155.259 224.499 155.261 224.565L156.519 252.035C156.524 252.169 156.476 252.3 156.385 252.399C156.298 252.492 156.179 252.55 156.052 252.56L140.399 253.138L140.353 253.148Z" fill="#A8DBF4"/>
<path d="M140.823 163.099L162.45 158.384C162.45 158.384 163.811 157.909 164.332 160.723C164.852 163.537 167.789 166.02 168.837 174.722C169.885 183.424 167.369 202.369 167.225 205.417C167.082 208.464 166.338 211.024 168.327 220.455C170.316 229.885 174.137 249.763 174.137 249.763L157.801 253.903C157.801 253.903 148.012 223.653 147.017 220.037C146.023 216.421 145.759 181.502 145.759 181.502L143.824 178.408" fill="#A8DBF4"/>
<path d="M157.787 254.404C157.683 254.406 157.581 254.374 157.496 254.314C157.411 254.254 157.347 254.169 157.313 254.07C156.912 252.837 147.507 223.77 146.52 220.184C145.532 216.598 145.268 184.427 145.245 181.663L143.386 178.689C143.347 178.633 143.32 178.57 143.307 178.504C143.293 178.437 143.293 178.369 143.307 178.302C143.32 178.236 143.347 178.173 143.386 178.117C143.424 178.061 143.474 178.014 143.531 177.978C143.589 177.942 143.653 177.918 143.72 177.908C143.787 177.897 143.855 177.9 143.921 177.917C143.986 177.934 144.048 177.964 144.102 178.005C144.155 178.046 144.2 178.098 144.233 178.157L146.169 181.249C146.219 181.328 146.246 181.419 146.246 181.513C146.246 181.847 146.52 216.401 147.484 219.917C148.399 223.242 156.902 249.545 158.12 253.315L173.543 249.405C172.955 246.354 169.618 229.097 167.822 220.572C166.13 212.551 166.397 209.367 166.611 206.81C166.651 206.326 166.688 205.868 166.711 205.397C166.748 204.728 166.894 203.278 167.101 201.296C167.816 194.389 169.147 181.533 168.34 174.812C167.672 169.171 166.177 166.19 165.096 164.015C164.502 162.825 164.031 161.883 163.841 160.847C163.597 159.537 163.173 159.106 162.97 158.962C162.861 158.885 162.727 158.853 162.596 158.875H162.556L140.929 163.594C140.802 163.615 140.672 163.587 140.565 163.514C140.459 163.442 140.384 163.331 140.357 163.205C140.33 163.079 140.352 162.947 140.42 162.837C140.487 162.727 140.595 162.647 140.719 162.615L162.326 157.899C162.514 157.852 162.711 157.843 162.903 157.872C163.096 157.901 163.281 157.968 163.447 158.07C164.114 158.461 164.582 159.33 164.825 160.653C164.992 161.552 165.433 162.437 165.99 163.56C167.105 165.799 168.633 168.867 169.327 174.682C170.152 181.513 168.813 194.442 168.093 201.39C167.899 203.281 167.742 204.778 167.709 205.437C167.682 205.925 167.645 206.389 167.605 206.884C167.385 209.504 167.138 212.475 168.797 220.355C170.766 229.688 174.574 249.472 174.611 249.669C174.636 249.795 174.612 249.925 174.543 250.033C174.475 250.142 174.368 250.22 174.243 250.251L157.907 254.394C157.867 254.402 157.827 254.406 157.787 254.404Z" fill="#96CFEE"/>
<path d="M105.797 95.4171C105.797 95.4171 103.421 93.9467 105.006 91.3467C106.591 88.7468 109.412 82.5209 111.347 83.0957C113.283 83.6705 110.877 87.9213 110.346 88.9172" fill="#FDEEE6"/>
<path d="M105.797 95.9183C105.704 95.9185 105.613 95.893 105.533 95.8448C105.507 95.8281 102.753 94.077 104.579 91.0861C104.913 90.548 105.3 89.8329 105.714 89.081C107.9 85.0975 109.719 82.0932 111.491 82.6212C111.703 82.6795 111.9 82.7861 112.065 82.9327C112.23 83.0793 112.359 83.2621 112.442 83.4667C112.982 84.7633 111.905 87.0792 110.903 88.9506L110.796 89.1545C110.766 89.2128 110.724 89.2646 110.673 89.3068C110.623 89.3489 110.564 89.3807 110.501 89.4002C110.438 89.4198 110.372 89.4267 110.307 89.4207C110.241 89.4147 110.177 89.3957 110.119 89.365C110.061 89.3343 110.009 89.2924 109.967 89.2417C109.925 89.1909 109.893 89.1324 109.874 89.0694C109.854 89.0064 109.847 88.9402 109.853 88.8745C109.859 88.8088 109.878 88.745 109.909 88.6866L110.022 88.4761C111.297 86.0867 111.801 84.5294 111.517 83.851C111.491 83.7836 111.449 83.7237 111.394 83.6765C111.34 83.6293 111.274 83.5962 111.204 83.5803C110.062 83.2461 107.806 87.3532 106.591 89.5655C106.171 90.3308 105.774 91.0526 105.433 91.6107C104.155 93.706 105.864 94.869 106.064 94.996C106.176 95.0668 106.255 95.1789 106.284 95.3078C106.313 95.4368 106.291 95.5721 106.221 95.6844C106.176 95.7565 106.114 95.8159 106.04 95.8569C105.965 95.8979 105.882 95.919 105.797 95.9183Z" fill="#FFC3B8"/>
<path d="M118.349 75.8808V79.5L127.043 78.8316C127.177 76.6105 127.473 74.4024 127.93 72.2248C128.665 68.883 129.973 65.2504 130.183 62.4734C130.393 59.6963 130.236 55.763 128.611 55.5525C126.986 55.3419 127.043 57.4941 127.043 57.4941L123.371 58.5935" fill="#FDEEE6"/>
<path d="M118.349 80.0012C118.217 79.9995 118.091 79.9461 117.997 79.8525C117.904 79.7589 117.85 79.6324 117.849 79.5V75.8808C117.849 75.7478 117.901 75.6203 117.995 75.5263C118.089 75.4323 118.216 75.3795 118.349 75.3795C118.482 75.3795 118.609 75.4323 118.703 75.5263C118.797 75.6203 118.85 75.7478 118.85 75.8808V78.9553L126.569 78.3504C126.717 76.2507 127.009 74.1638 127.444 72.1045C127.714 70.8614 128.068 69.5781 128.405 68.3349C128.996 66.1728 129.556 64.1343 129.683 62.4233C129.95 58.901 129.463 56.154 128.548 56.037C128.444 56.013 128.336 56.0134 128.233 56.0384C128.129 56.0633 128.033 56.112 127.951 56.1807C127.617 56.4949 127.537 57.2334 127.544 57.4673C127.546 57.577 127.512 57.6842 127.447 57.7728C127.383 57.8614 127.291 57.9267 127.187 57.9586L123.516 59.0614C123.388 59.0995 123.251 59.0854 123.134 59.0221C123.017 58.9588 122.929 58.8515 122.891 58.7239C122.853 58.5962 122.868 58.4587 122.931 58.3415C122.994 58.2243 123.101 58.1371 123.229 58.099L126.566 57.0964C126.598 56.4708 126.854 55.8776 127.287 55.4255C127.475 55.26 127.697 55.139 127.938 55.0713C128.179 55.0036 128.432 54.991 128.678 55.0345C130.971 55.3319 130.844 60.348 130.681 62.4901C130.547 64.298 129.977 66.3833 129.373 68.5923C129.039 69.8221 128.688 71.0953 128.421 72.3117C127.972 74.4621 127.677 76.6422 127.54 78.835C127.535 78.9568 127.485 79.0724 127.4 79.1599C127.315 79.2474 127.201 79.3006 127.08 79.3095L118.403 79.9779L118.349 80.0012Z" fill="#FFC3B8"/>
<path d="M127.567 66.0625C128.217 63.8662 128.568 61.5922 128.611 59.302C128.611 55.8398 126.99 54.1622 125.628 54.3193C124.266 54.4764 124.737 57.2501 124.737 57.2501L124.66 61.4508" fill="#FDEEE6"/>
<path d="M127.567 66.5771C127.515 66.5775 127.463 66.5696 127.414 66.5537C127.35 66.535 127.291 66.5038 127.24 66.462C127.188 66.4201 127.146 66.3684 127.115 66.3099C127.084 66.2513 127.065 66.1872 127.059 66.1212C127.053 66.0552 127.06 65.9886 127.08 65.9255C127.712 63.7772 128.055 61.5543 128.101 59.3153C128.101 57.4874 127.617 56.0069 126.766 55.255C126.623 55.1107 126.45 54.9982 126.261 54.9251C126.071 54.852 125.868 54.8198 125.665 54.8306C125.612 54.836 125.561 54.8528 125.516 54.88C125.47 54.9071 125.431 54.9438 125.401 54.9877C125.067 55.4321 125.107 56.565 125.211 57.1799C125.216 57.2098 125.216 57.2403 125.211 57.2701L125.174 61.4742C125.172 61.6071 125.116 61.7335 125.02 61.8257C124.925 61.9178 124.796 61.9681 124.664 61.9654C124.531 61.9627 124.405 61.9074 124.313 61.8115C124.221 61.7156 124.17 61.587 124.173 61.4541L124.25 57.2969C124.193 56.9426 123.976 55.265 124.634 54.3861C124.746 54.2338 124.888 54.1063 125.052 54.0114C125.215 53.9166 125.397 53.8564 125.585 53.8347C125.928 53.8062 126.273 53.8511 126.598 53.9663C126.922 54.0815 127.218 54.2645 127.467 54.5031C128.522 55.4455 129.136 57.1966 129.136 59.312C129.097 61.655 128.736 63.9816 128.064 66.2262C128.032 66.3319 127.966 66.4238 127.876 66.4874C127.786 66.551 127.677 66.5826 127.567 66.5771Z" fill="#FFC3B8"/>
<path d="M125.418 65.6581C125.418 65.6581 126.362 62.0924 126.362 59.6829C126.362 57.2735 125.528 54.4396 123.979 54.9643C122.431 55.489 122.958 57.8449 122.958 57.8449L122.591 63.1417" fill="#FDEEE6"/>
<path d="M125.418 66.1594C125.375 66.1585 125.332 66.1529 125.291 66.1427C125.163 66.1089 125.053 66.0256 124.986 65.9109C124.919 65.7962 124.9 65.6596 124.934 65.5311C124.934 65.4944 125.862 61.9988 125.862 59.6829C125.862 57.7948 125.351 56.0069 124.673 55.5157C124.599 55.4581 124.511 55.4207 124.418 55.4072C124.325 55.3938 124.23 55.4046 124.143 55.4388C123.041 55.8098 123.442 57.7179 123.445 57.738C123.452 57.7857 123.452 57.834 123.445 57.8817L123.078 63.1751C123.068 63.3075 123.006 63.4306 122.906 63.5181C122.807 63.6055 122.677 63.6504 122.544 63.643C122.412 63.6336 122.289 63.572 122.202 63.4717C122.115 63.3715 122.071 63.2408 122.08 63.1083L122.441 57.8817C122.227 56.829 122.287 55.0044 123.806 54.4864C124.045 54.4008 124.301 54.3756 124.552 54.4129C124.803 54.4502 125.04 54.5489 125.244 54.7003C126.352 55.499 126.849 57.7781 126.849 59.6829C126.849 62.1291 125.928 65.6381 125.888 65.7851C125.862 65.8906 125.801 65.9845 125.716 66.0522C125.631 66.1198 125.526 66.1575 125.418 66.1594Z" fill="#FFC3B8"/>
<path d="M118.5 79.1323C117.558 76.773 116.617 73.9926 117.402 70.5873C118.186 67.182 119.915 63.8234 120.385 60.9929C120.856 58.1624 121.487 57.1632 122.638 57.2701C123.789 57.3771 124.156 59.2752 123.893 61.6145C123.78 62.8922 123.481 64.1464 123.005 65.3373" fill="#FDEEE6"/>
<path d="M118.499 79.6336C118.399 79.633 118.302 79.6029 118.219 79.547C118.137 79.491 118.072 79.4119 118.035 79.3194C117.067 76.8899 116.099 74.0026 116.914 70.4736C117.327 68.8366 117.84 67.2262 118.449 65.6514C119.066 63.9537 119.65 62.353 119.89 60.9093C120.324 58.3127 120.962 56.6118 122.681 56.7688C122.891 56.7898 123.094 56.8531 123.28 56.9547C123.465 57.0563 123.628 57.1943 123.759 57.3603C124.61 58.4063 124.519 60.515 124.389 61.678C124.27 63.0088 123.957 64.315 123.458 65.5545C123.431 65.6144 123.391 65.6682 123.343 65.713C123.295 65.7578 123.238 65.7925 123.176 65.8154C123.114 65.8382 123.049 65.8485 122.983 65.8459C122.917 65.8433 122.852 65.8277 122.792 65.8001C122.733 65.7724 122.679 65.7333 122.634 65.6848C122.589 65.6363 122.555 65.5795 122.532 65.5176C122.509 65.4557 122.499 65.3899 122.501 65.324C122.504 65.2581 122.519 65.1933 122.547 65.1334C123 63.9908 123.285 62.7887 123.395 61.5643C123.582 59.8767 123.428 58.5567 122.981 57.9953C122.936 57.9319 122.877 57.8789 122.81 57.8397C122.743 57.8005 122.668 57.7761 122.59 57.768C122.036 57.7179 121.402 57.9284 120.878 61.0731C120.625 62.607 120.024 64.2512 119.39 65.9922C118.796 67.5293 118.295 69.1006 117.888 70.6975C117.14 73.9458 118.008 76.5524 118.966 78.9451C119.014 79.0688 119.012 79.2066 118.96 79.3286C118.907 79.4506 118.809 79.547 118.686 79.5968C118.626 79.6205 118.563 79.633 118.499 79.6336Z" fill="#FFC3B8"/>
<path d="M115.589 91.6442L102.867 97.3052C102.867 97.3052 107.54 114.395 113.65 121.841C119.761 129.286 134.803 137.882 134.803 137.882L141.401 123.779C141.401 123.779 126.896 113.557 124.75 110.255C122.605 106.953 115.589 91.6442 115.589 91.6442Z" fill="black"/>
<path d="M134.803 138.386C134.716 138.386 134.631 138.363 134.556 138.319C134.519 138.296 130.731 136.124 126.242 133.069C120.202 128.952 115.836 125.283 113.266 122.158C110.697 119.034 108.074 113.914 105.484 106.956C103.565 101.79 102.383 97.4789 102.373 97.4355C102.342 97.3201 102.352 97.1971 102.404 97.0891C102.455 96.9811 102.544 96.8953 102.654 96.8473L115.376 91.1863C115.436 91.1578 115.501 91.1416 115.567 91.1387C115.633 91.1357 115.699 91.1461 115.761 91.1691C115.824 91.1922 115.881 91.2274 115.929 91.2728C115.977 91.3183 116.016 91.3729 116.043 91.4336C116.113 91.5873 123.068 106.746 125.171 109.981C127.274 113.216 141.544 123.268 141.688 123.371C141.785 123.438 141.854 123.538 141.885 123.652C141.916 123.765 141.905 123.886 141.855 123.993L135.257 138.095C135.228 138.158 135.186 138.214 135.134 138.26C135.083 138.305 135.022 138.339 134.956 138.359C134.907 138.377 134.855 138.386 134.803 138.386ZM103.481 97.5859C104.239 100.236 108.594 114.887 114.054 121.523C119.447 128.077 132.013 135.653 134.599 137.173L140.787 123.946C138.524 122.339 126.362 113.627 124.35 110.529C122.388 107.521 116.554 94.9024 115.339 92.3024L103.481 97.5859Z" fill="#262626"/>
<path d="M155.103 94.9593C155.103 94.9593 152.687 90.9491 146.643 92.4161C140.599 93.8832 145.071 100.53 145.071 100.53L141.684 113.851L156.799 131.041L161.885 134.306C161.885 134.306 165.029 130.433 163.941 125.711C162.853 120.989 159.709 118.693 161.161 112.029C162.612 105.366 162.602 96.8975 155.103 94.9593Z" fill="#3F362E"/>
<path d="M152.207 95.9284C152.207 95.9284 149.427 93.2549 142.896 95.8081L139.148 95.4438L139.391 97.5024C139.391 97.5024 135.764 100.286 135.523 103.798C135.283 107.311 139.632 113.968 142.775 115.782C142.775 115.782 145.195 112.15 146.403 112.273C147.611 112.397 150.875 114.693 153.055 111.304C155.234 107.916 150.151 107.672 150.151 107.672C150.151 107.672 150.151 106.098 150.271 103.661C150.391 101.225 153.896 99.8149 152.207 95.9284Z" fill="#FFEAE2"/>
<path d="M140.96 136.241C140.96 136.241 132.133 128.735 128.278 124.374C124.423 120.013 117.518 113.346 116.931 109.122C116.344 104.898 113.787 77.6453 113.787 77.6453L128.899 76.9167C129.373 83.0097 130.181 89.0719 131.318 95.0762C133.131 104.4 135.911 107.548 138.814 110.332C141.718 113.115 148.753 115.141 153.686 120.38C157.674 124.618 161.422 129.945 161.786 138.66C162.149 147.376 161.906 154.033 163.357 158.758C163.357 158.758 156.349 165.174 140.506 163.965C138.205 160.185 136.145 156.262 134.339 152.221C131.439 145.681 132.023 142.804 133.471 136.361C134.559 131.515 134.572 130.647 134.572 130.647" fill="black"/>
<path d="M144.42 164.623C143.159 164.623 141.832 164.571 140.439 164.466C140.36 164.461 140.284 164.437 140.217 164.397C140.149 164.356 140.093 164.299 140.052 164.232C137.739 160.432 135.668 156.49 133.851 152.429C130.847 145.648 131.548 142.507 132.953 136.254C133.797 132.491 133.988 131.158 134.031 130.77C131.772 128.698 129.432 126.449 127.89 124.712C127.193 123.926 126.395 123.064 125.554 122.152C121.709 117.994 116.924 112.821 116.406 109.195C115.806 104.995 113.286 77.9661 113.259 77.6921C113.253 77.6248 113.26 77.5569 113.281 77.4926C113.301 77.4282 113.335 77.3688 113.379 77.3178C113.423 77.2668 113.478 77.2254 113.539 77.1961C113.599 77.1668 113.666 77.1503 113.733 77.1474L128.845 76.4222C128.976 76.4167 129.104 76.4624 129.201 76.5497C129.299 76.6371 129.359 76.7592 129.369 76.8901C129.845 82.9623 130.65 89.0042 131.778 94.9894C133.534 104.012 136.147 107.114 139.121 109.977C140.252 111.064 142.081 112.049 144.197 113.192C147.24 114.836 151.032 116.868 154.009 120.043C157.88 124.14 161.885 129.557 162.255 138.644C162.342 140.739 162.392 142.684 162.442 144.569C162.599 150.447 162.723 155.089 163.804 158.604C163.832 158.695 163.834 158.792 163.809 158.884C163.784 158.975 163.734 159.058 163.664 159.122C163.397 159.376 157.496 164.623 144.42 164.623ZM140.766 163.487C154.473 164.466 161.424 159.63 162.753 158.588C161.718 154.978 161.595 150.377 161.441 144.595C161.394 142.714 161.341 140.772 161.254 138.684C160.89 129.928 157.022 124.691 153.291 120.728C150.424 117.684 146.867 115.762 143.73 114.071C141.55 112.895 139.668 111.879 138.436 110.696C135.326 107.712 132.606 104.487 130.794 95.1765C129.689 89.3118 128.893 83.3931 128.408 77.4448L114.304 78.1132C114.657 81.9128 116.843 105.182 117.394 109.042C117.868 112.357 122.537 117.396 126.285 121.46C127.133 122.376 127.934 123.241 128.621 124.036C132.422 128.317 141.18 135.776 141.267 135.85C141.368 135.936 141.431 136.059 141.442 136.191C141.453 136.324 141.411 136.455 141.325 136.557C141.239 136.658 141.116 136.721 140.984 136.732C140.852 136.743 140.72 136.701 140.619 136.615C140.569 136.575 137.926 134.323 134.909 131.579C134.775 132.388 134.498 133.858 133.908 136.461C132.506 142.691 131.868 145.534 134.742 152.011C136.515 155.955 138.527 159.787 140.766 163.487Z" fill="#262626"/>
<path d="M144.728 99.4039C145.119 99.4039 145.436 99.0867 145.436 98.6954C145.436 98.3041 145.119 97.9869 144.728 97.9869C144.337 97.9869 144.021 98.3041 144.021 98.6954C144.021 99.0867 144.337 99.4039 144.728 99.4039Z" fill="#3F362E"/>
<path d="M139.645 102.662C139.451 103.284 139.017 103.701 138.67 103.595C138.323 103.488 138.2 102.899 138.393 102.274C138.587 101.65 139.021 101.235 139.364 101.342C139.708 101.449 139.835 102.041 139.645 102.662Z" fill="#FDEEE6"/>
<path d="M138.784 104.116C138.695 104.116 138.607 104.102 138.523 104.076C137.896 103.882 137.632 103.043 137.912 102.128C138.018 101.769 138.211 101.442 138.473 101.175C138.596 101.026 138.76 100.917 138.945 100.861C139.13 100.806 139.327 100.807 139.512 100.864C139.696 100.921 139.86 101.031 139.981 101.181C140.103 101.331 140.178 101.514 140.195 101.706C140.263 102.074 140.237 102.453 140.122 102.809C139.878 103.601 139.331 104.116 138.784 104.116ZM139.204 101.864C139.05 102.021 138.936 102.213 138.871 102.423C138.806 102.633 138.792 102.856 138.83 103.073C138.993 102.924 139.109 102.73 139.164 102.515C139.235 102.305 139.244 102.079 139.191 101.864H139.204Z" fill="#3F362E"/>
<path d="M146.723 169.515C145.362 169.525 144.002 169.457 142.648 169.311C142.515 169.295 142.394 169.227 142.312 169.122C142.229 169.017 142.192 168.883 142.208 168.75C142.224 168.617 142.292 168.496 142.397 168.413C142.502 168.33 142.636 168.293 142.768 168.309C142.902 168.309 156.252 169.873 163.43 163.727C163.48 163.683 163.538 163.65 163.601 163.628C163.664 163.607 163.731 163.598 163.797 163.603C163.863 163.607 163.928 163.624 163.988 163.654C164.047 163.683 164.101 163.724 164.144 163.774C164.188 163.824 164.222 163.882 164.243 163.945C164.265 164.008 164.273 164.075 164.269 164.141C164.265 164.208 164.247 164.273 164.218 164.332C164.189 164.392 164.148 164.445 164.098 164.489C160.156 167.864 154.533 168.991 150.505 169.345C149.109 169.475 147.831 169.515 146.723 169.515Z" fill="#96CFEE"/>
<path d="M165.065 179.487C164.967 179.488 164.87 179.459 164.788 179.404C160.95 176.841 158.447 171.871 158.334 171.661C158.275 171.542 158.265 171.404 158.307 171.277C158.349 171.151 158.44 171.047 158.559 170.987C158.678 170.928 158.816 170.918 158.942 170.961C159.068 171.003 159.172 171.094 159.232 171.213C159.255 171.26 161.731 176.159 165.342 178.565C165.397 178.601 165.444 178.648 165.481 178.703C165.518 178.758 165.543 178.819 165.556 178.883C165.569 178.948 165.57 179.014 165.557 179.079C165.544 179.144 165.519 179.205 165.483 179.26C165.437 179.329 165.375 179.386 165.302 179.426C165.229 179.465 165.148 179.486 165.065 179.487Z" fill="#96CFEE"/>
<path d="M132.874 47.5688C132.694 47.5687 132.519 47.5189 132.366 47.4251L115.192 36.9385C114.972 36.804 114.814 36.5886 114.752 36.3385C114.69 36.0885 114.728 35.8239 114.858 35.6017C114.991 35.3805 115.207 35.2211 115.457 35.1584C115.707 35.0958 115.972 35.135 116.193 35.2676L133.368 45.7542C133.55 45.8647 133.692 46.0322 133.77 46.231C133.849 46.4299 133.86 46.649 133.802 46.8548C133.744 47.0606 133.62 47.2415 133.449 47.3699C133.279 47.4983 133.07 47.567 132.857 47.5655L132.874 47.5688Z" fill="#C1C1C1"/>
<path d="M132.279 48.9657C132.116 48.9668 131.955 48.9253 131.812 48.8454L114.16 39.2009C113.969 39.0976 113.818 38.9332 113.73 38.7339C113.643 38.5346 113.625 38.3118 113.679 38.1009C113.732 37.89 113.855 37.7032 114.027 37.57C114.199 37.4369 114.41 37.3652 114.628 37.3662C114.792 37.366 114.953 37.4062 115.098 37.4832L132.753 47.131C132.941 47.2322 133.091 47.3925 133.179 47.5873C133.268 47.7821 133.29 48.0005 133.242 48.209C133.194 48.4175 133.079 48.6045 132.915 48.7412C132.751 48.8779 132.546 48.9568 132.332 48.9657H132.279Z" fill="#C1C1C1"/>
<path d="M130.924 51.1947C130.745 51.195 130.57 51.1453 130.417 51.051L113.236 40.581C113.119 40.5192 113.016 40.434 112.932 40.3308C112.849 40.2275 112.788 40.1084 112.752 39.9806C112.716 39.8528 112.707 39.719 112.725 39.5875C112.742 39.4559 112.787 39.3294 112.855 39.2156C112.923 39.1018 113.014 39.0031 113.121 38.9256C113.229 38.8481 113.351 38.7933 113.48 38.7647C113.61 38.7361 113.744 38.7343 113.874 38.7593C114.004 38.7843 114.128 38.8356 114.237 38.9101L131.418 49.38C131.528 49.4455 131.624 49.5325 131.7 49.6358C131.776 49.7392 131.83 49.8568 131.859 49.9816C131.891 50.1065 131.897 50.2366 131.877 50.3641C131.858 50.4915 131.813 50.6137 131.745 50.7235C131.658 50.8665 131.535 50.9846 131.389 51.0665C131.243 51.1484 131.079 51.1914 130.911 51.1913L130.924 51.1947Z" fill="#C1C1C1"/>
<path d="M159.645 2.07659C159.527 2.07805 159.412 2.03754 159.321 1.96223C159.23 1.88692 159.168 1.78169 159.147 1.66517C159.126 1.54866 159.146 1.42839 159.205 1.32569C159.264 1.22299 159.357 1.1445 159.469 1.10411L170.148 -2.98294C170.21 -3.00962 170.277 -3.02347 170.344 -3.02368C170.412 -3.02389 170.479 -3.01044 170.541 -2.98413C170.603 -2.95783 170.659 -2.91923 170.706 -2.87063C170.753 -2.82204 170.789 -2.76445 170.814 -2.70135C170.838 -2.63824 170.849 -2.57091 170.846 -2.50341C170.844 -2.4359 170.827 -2.3696 170.799 -2.3085C170.77 -2.24741 170.729 -2.19277 170.679 -2.14787C170.628 -2.10297 170.569 -2.06873 170.505 -2.04722L159.826 2.04317C159.768 2.06395 159.707 2.07524 159.645 2.07659Z" fill="#577689"/>
<path d="M80.3992 138.446C80.3992 138.446 82.2581 133.019 82.2247 131.706C82.1914 130.393 81.0466 129.56 80.0254 130.703" fill="#FDEEE6"/>
<path d="M79.0706 143.412C79.0706 143.412 80.8561 137.795 81.2366 133.457C81.6171 129.119 78.3664 129.196 78.1128 129.514C77.8591 129.831 77.1116 130.583 77.3485 132.498" fill="#FDEEE6"/>
<path d="M79.0711 143.927C79.019 143.927 78.9672 143.92 78.9176 143.904C78.854 143.885 78.7948 143.853 78.7434 143.811C78.6921 143.769 78.6497 143.717 78.6186 143.658C78.5876 143.599 78.5685 143.535 78.5625 143.468C78.5566 143.402 78.5638 143.335 78.5839 143.272C78.6006 143.219 80.356 137.658 80.7298 133.424C80.8633 131.917 80.5363 130.83 79.792 130.279C79.411 129.982 78.9307 129.844 78.4504 129.891C78.1934 130.202 77.6527 130.854 77.8596 132.414C77.8684 132.48 77.8642 132.547 77.8471 132.611C77.83 132.676 77.8005 132.736 77.7602 132.788C77.7199 132.841 77.6697 132.886 77.6123 132.919C77.5549 132.952 77.4915 132.974 77.4258 132.983C77.36 132.991 77.2932 132.987 77.2291 132.97C77.165 132.953 77.1049 132.923 77.0523 132.883C76.9996 132.843 76.9553 132.792 76.9221 132.735C76.8888 132.677 76.8672 132.614 76.8584 132.548C76.5948 130.543 77.3524 129.637 77.6761 129.25L77.7295 129.183C78.0632 128.755 79.0444 128.795 79.752 129.079C80.6097 129.413 82.0114 130.453 81.7544 133.484C81.3706 137.828 79.6385 143.315 79.5651 143.549C79.5362 143.658 79.472 143.754 79.3826 143.823C79.2932 143.891 79.1836 143.928 79.0711 143.927Z" fill="#FFC3B8"/>
<path d="M78.1766 149.668C78.1766 149.668 80.8465 137.922 80.5128 134.476C80.179 131.031 77.676 128.859 75.8905 129.691C74.105 130.523 75.4466 133.902 75.4466 133.902" fill="#FDEEE6"/>
<path d="M78.1803 150.17C78.1427 150.174 78.1045 150.174 78.0669 150.17C77.9375 150.139 77.8254 150.059 77.7547 149.946C77.6841 149.834 77.6607 149.698 77.6897 149.568C77.7164 149.451 80.3597 137.872 80.0092 134.53C79.819 132.662 78.9079 131.004 77.6897 130.312C77.4566 130.159 77.1898 130.064 76.9121 130.035C76.6344 130.006 76.3539 130.046 76.0945 130.149C74.9864 130.663 75.6005 132.959 75.9042 133.721C75.9524 133.845 75.9496 133.983 75.8964 134.105C75.8433 134.228 75.7441 134.324 75.6206 134.373C75.5595 134.397 75.4942 134.409 75.4284 134.408C75.3627 134.407 75.2979 134.392 75.2376 134.366C75.1774 134.34 75.123 134.301 75.0776 134.254C75.0322 134.206 74.9967 134.15 74.9731 134.089C74.9097 133.935 73.4846 130.256 75.6739 129.24C76.0773 129.065 76.5173 128.992 76.9554 129.027C77.3935 129.062 77.8164 129.204 78.187 129.44C79.6989 130.299 80.7768 132.214 81.0038 134.43C81.3609 137.918 78.7777 149.301 78.6676 149.782C78.642 149.892 78.5799 149.99 78.4914 150.061C78.403 150.131 78.2933 150.17 78.1803 150.17Z" fill="#FFC3B8"/>
<path d="M70.5309 149.859L69.3828 152.412L75.0564 157.09C75.0564 157.09 77.2224 155.019 77.9232 152.529C78.6241 150.039 79.1981 143.593 79.2582 140.913C79.3183 138.233 78.9411 134.229 76.8986 132.488C74.8562 130.747 73.2676 132.234 73.2042 133.317C73.1407 134.399 74.7994 136.956 74.4156 138.296C74.0318 139.636 72.4432 145.073 72.4432 145.073" fill="#FDEEE6"/>
<path d="M75.0558 157.602C74.9341 157.604 74.8155 157.563 74.7221 157.485L69.0485 152.806C68.9639 152.736 68.9048 152.639 68.88 152.532C68.8553 152.424 68.8664 152.312 68.9116 152.211L70.0597 149.658C70.0855 149.596 70.1234 149.54 70.1713 149.493C70.2192 149.446 70.276 149.409 70.3385 149.384C70.4009 149.36 70.4677 149.348 70.5348 149.349C70.6019 149.351 70.6679 149.366 70.729 149.394C70.7901 149.422 70.845 149.462 70.8904 149.511C70.9359 149.561 70.9709 149.619 70.9935 149.682C71.016 149.745 71.0256 149.813 71.0218 149.88C71.0179 149.947 71.0006 150.012 70.9708 150.073L69.9696 152.275L74.9757 156.425C75.5798 155.757 76.9014 154.186 77.402 152.415C78.0995 149.939 78.6602 143.479 78.7203 140.923C78.7536 139.502 78.6969 134.717 76.5409 132.902C75.7967 132.271 75.0825 132.077 74.4784 132.338C74.2644 132.425 74.0768 132.567 73.9341 132.749C73.7913 132.932 73.6983 133.148 73.6641 133.377C73.6441 133.711 73.9211 134.44 74.1914 135.128C74.652 136.308 75.1259 137.527 74.8589 138.47C74.4784 139.807 72.8965 145.187 72.8798 145.24C72.8648 145.307 72.8362 145.371 72.7958 145.426C72.7554 145.481 72.704 145.528 72.6449 145.563C72.5858 145.598 72.5201 145.62 72.4521 145.628C72.384 145.636 72.3149 145.631 72.2492 145.611C72.1834 145.592 72.1224 145.559 72.0698 145.515C72.0173 145.471 71.9743 145.416 71.9436 145.355C71.913 145.293 71.8952 145.226 71.8915 145.158C71.8878 145.089 71.8981 145.021 71.922 144.956C71.922 144.903 73.5172 139.519 73.8977 138.196C74.0713 137.584 73.6207 136.428 73.2569 135.499C72.9232 134.637 72.6328 133.895 72.6662 133.327C72.7109 132.912 72.8657 132.516 73.1145 132.181C73.3633 131.846 73.6971 131.584 74.0813 131.422C74.6386 131.185 75.7834 130.957 77.1851 132.14C79.6147 134.192 79.7682 138.994 79.7215 140.963C79.6581 143.636 79.094 150.109 78.3632 152.703C77.6323 155.296 75.4529 157.401 75.3595 157.488C75.2739 157.559 75.1669 157.599 75.0558 157.602Z" fill="#FFC3B8"/>
<path d="M71.2947 151.767C71.2947 151.767 67.7871 149.157 69.626 143.924C71.4649 138.69 73.1436 139.917 73.7777 140.221C74.4118 140.525 74.9859 142.136 73.3305 146.156" fill="#FDEEE6"/>
<path d="M71.295 152.282C71.1871 152.282 71.0818 152.248 70.9946 152.185C70.9579 152.155 67.2167 149.287 69.1657 143.77C70.0301 141.324 70.9646 139.934 72.0292 139.516C72.3383 139.406 72.6686 139.369 72.9944 139.407C73.3202 139.445 73.6328 139.558 73.9082 139.736L74.0049 139.786C74.4889 140.03 75.9139 141.223 73.798 146.36C73.773 146.421 73.7363 146.476 73.6899 146.523C73.6435 146.57 73.5884 146.607 73.5276 146.633C73.4669 146.658 73.4017 146.671 73.3359 146.671C73.2701 146.672 73.2048 146.659 73.1439 146.634C73.083 146.609 73.0276 146.572 72.9809 146.526C72.9341 146.479 72.897 146.424 72.8716 146.363C72.8462 146.302 72.833 146.237 72.8327 146.171C72.8325 146.105 72.8453 146.04 72.8702 145.979C74.4722 142.099 73.8181 140.812 73.5544 140.682L73.4409 140.622C73.2925 140.512 73.1199 140.439 72.9376 140.409C72.7553 140.38 72.5686 140.394 72.393 140.451C71.8657 140.655 71.058 141.454 70.1102 144.104C68.4015 148.933 71.562 151.356 71.592 151.379C71.6759 151.442 71.7378 151.53 71.7693 151.63C71.8007 151.73 71.7999 151.838 71.7671 151.937C71.7343 152.037 71.6711 152.124 71.5864 152.185C71.5017 152.247 71.3998 152.281 71.295 152.282Z" fill="#FFC3B8"/>
<path d="M58.4263 162.197C58.4263 162.197 58.5097 161.234 59.8013 160.887C61.0929 160.539 63.3289 162.651 63.8662 166.712C64.4036 170.772 62.7749 174.435 62.0974 176.76C61.4199 179.086 60.6557 180.968 60.6557 180.968L62.9384 184.624L54.9521 191.207L52.3389 180.179" fill="#FDEEE6"/>
<path d="M55.9432 163.714C55.8178 163.277 55.8286 162.812 55.9741 162.382C56.1196 161.951 56.3929 161.575 56.7575 161.304C58.0357 160.302 59.7611 162.06 60.5187 163.774C61.2763 165.488 62.5979 167.657 60.9159 173.088" fill="#FDEEE6"/>
<path d="M60.9057 173.596C60.8561 173.595 60.8067 173.589 60.7589 173.576C60.6956 173.557 60.6368 173.525 60.5857 173.483C60.5346 173.441 60.4924 173.39 60.4613 173.331C60.4303 173.273 60.4112 173.209 60.4049 173.143C60.3987 173.077 60.4056 173.011 60.4251 172.947C61.9169 168.129 60.9858 166.063 60.2349 164.406L60.048 163.981C59.524 162.775 58.5829 161.756 57.8153 161.559C57.6854 161.518 57.5476 161.511 57.4142 161.537C57.2808 161.563 57.156 161.622 57.051 161.709C56.77 161.916 56.5588 162.205 56.4456 162.536C56.3323 162.866 56.3223 163.224 56.4169 163.56C56.4585 163.687 56.4483 163.824 56.3885 163.943C56.3288 164.062 56.2243 164.152 56.0982 164.194C55.9721 164.235 55.8346 164.225 55.716 164.165C55.5974 164.105 55.5074 164.001 55.4658 163.874C55.3055 163.341 55.3126 162.772 55.4863 162.243C55.6601 161.714 55.9919 161.251 56.4369 160.917C56.6622 160.737 56.927 160.612 57.2095 160.554C57.492 160.496 57.7842 160.506 58.0622 160.583C59.3071 160.917 60.4184 162.317 60.9658 163.59C61.0225 163.724 61.0859 163.861 61.1493 164.001C61.9236 165.719 62.9882 168.072 61.383 173.255C61.3488 173.354 61.2845 173.441 61.1989 173.502C61.1134 173.563 61.0108 173.596 60.9057 173.596Z" fill="#FFC3B8"/>
<path d="M54.5746 166.755C54.5746 166.755 53.3431 164.61 54.8749 163.29C56.4068 161.97 58.2657 164.813 58.9566 166.504C59.6474 168.195 59.7242 170.989 58.6228 173.896" fill="#FDEEE6"/>
<path d="M58.6294 174.394C58.5691 174.394 58.5094 174.384 58.4525 174.364C58.391 174.341 58.3346 174.306 58.2866 174.261C58.2386 174.216 58.2 174.162 58.173 174.102C58.146 174.043 58.1312 173.978 58.1293 173.912C58.1274 173.846 58.1386 173.781 58.1621 173.719C59.2969 170.712 59.0499 168.038 58.4959 166.702C57.9118 165.285 56.7871 163.694 55.9094 163.48C55.7845 163.448 55.6536 163.45 55.5295 163.485C55.4054 163.519 55.2925 163.586 55.2018 163.677C53.997 164.713 54.9983 166.491 55.0083 166.511C55.0447 166.568 55.0691 166.632 55.0801 166.699C55.0911 166.766 55.0884 166.835 55.0722 166.9C55.056 166.966 55.0266 167.028 54.9859 167.082C54.9451 167.136 54.8938 167.182 54.835 167.215C54.7763 167.249 54.7113 167.271 54.644 167.278C54.5767 167.286 54.5086 167.28 54.4437 167.261C54.3787 167.242 54.3184 167.209 54.2663 167.166C54.2142 167.123 54.1714 167.069 54.1405 167.009C53.6432 166.143 53.0859 164.175 54.5477 162.915C54.7596 162.721 55.0159 162.582 55.2941 162.51C55.5723 162.439 55.8638 162.437 56.143 162.504C57.6448 162.865 58.9097 165.074 59.4203 166.321C60.0878 167.918 60.3348 170.795 59.0866 174.077C59.0507 174.169 58.988 174.249 58.9065 174.306C58.825 174.362 58.7285 174.393 58.6294 174.394Z" fill="#FFC3B8"/>
<path d="M55.9766 174.769C55.9766 174.769 56.9778 172.256 56.7909 170.251C56.604 168.245 55.5194 164.94 53.4736 166.13C51.4277 167.32 52.9262 169.398 52.7393 170.909C52.5525 172.419 51.9851 174.739 49.472 178.261C46.959 181.783 48.0069 184.818 50.2496 186.221C52.4924 187.625 54.1778 190.809 54.1778 190.809L59.5677 186.174" fill="#FDEEE6"/>
<path d="M54.1776 191.304H54.0841C54.0133 191.288 53.9469 191.256 53.8893 191.212C53.8318 191.167 53.7844 191.111 53.7504 191.047C53.7337 191.013 52.0817 187.966 49.9992 186.649C49.3922 186.279 48.8681 185.788 48.4598 185.206C48.0514 184.624 47.7677 183.964 47.6263 183.267C47.396 182.101 47.4594 180.233 49.078 177.97C51.5777 174.475 52.0817 172.236 52.2586 170.855C52.2758 170.38 52.2241 169.905 52.1051 169.445C51.8714 168.279 51.551 166.681 53.2331 165.702C53.5135 165.516 53.8381 165.407 54.174 165.387C54.5098 165.367 54.845 165.437 55.1454 165.589C56.5671 166.321 57.1712 168.837 57.3047 170.207C57.5083 172.309 56.5004 174.856 56.457 174.963C56.4327 175.024 56.3966 175.08 56.3507 175.127C56.3048 175.174 56.2501 175.212 56.1897 175.238C56.1292 175.264 56.0643 175.278 55.9985 175.279C55.9327 175.28 55.8674 175.268 55.8062 175.243C55.7451 175.219 55.6893 175.183 55.6422 175.137C55.595 175.091 55.5573 175.036 55.5313 174.976C55.5052 174.915 55.4914 174.85 55.4904 174.784C55.4895 174.718 55.5016 174.653 55.5259 174.592C55.5259 174.565 56.4871 172.162 56.3068 170.304C56.16 168.78 55.5426 166.919 54.6882 166.478C54.5364 166.404 54.3673 166.374 54.1995 166.391C54.0317 166.407 53.8717 166.47 53.737 166.571C52.7358 167.159 52.8326 167.971 53.0862 169.245C53.2306 169.808 53.2858 170.391 53.2498 170.972C53.0696 172.463 52.5222 174.869 49.8924 178.548C48.7777 180.112 48.3305 181.673 48.6075 183.07C48.7233 183.632 48.9539 184.164 49.2847 184.633C49.6155 185.101 50.0394 185.496 50.5298 185.793C52.3086 186.91 53.7237 189.032 54.3244 190.031L59.2537 185.79C59.3547 185.704 59.4857 185.661 59.6181 185.671C59.7505 185.682 59.8733 185.744 59.9596 185.845C60.0459 185.946 60.0886 186.077 60.0783 186.21C60.0679 186.343 60.0054 186.466 59.9045 186.552L54.518 191.187C54.4232 191.268 54.3017 191.309 54.1776 191.304Z" fill="#FFC3B8"/>
<path d="M66.4223 183.26L64.0928 180.687L52.3652 190.311L55.6325 194.282L66.4223 183.26Z" fill="#EFEFEF"/>
<path d="M55.6293 194.783H55.6093C55.5394 194.78 55.4708 194.763 55.4081 194.732C55.3454 194.701 55.2899 194.657 55.2455 194.602L51.9782 190.632C51.9357 190.582 51.9038 190.523 51.8843 190.46C51.8648 190.397 51.8582 190.33 51.8648 190.265C51.8807 190.135 51.9451 190.015 52.045 189.93L63.7659 180.299C63.8652 180.218 63.9923 180.177 64.1205 180.187C64.2487 180.197 64.368 180.257 64.4535 180.353L66.7896 182.926C66.8717 183.018 66.9171 183.137 66.9171 183.26C66.9171 183.384 66.8717 183.503 66.7896 183.594L55.9965 194.622C55.95 194.674 55.8933 194.714 55.83 194.742C55.7667 194.769 55.6984 194.783 55.6293 194.783ZM53.0862 190.378L55.6794 193.53L65.7517 183.244L64.0563 181.375L53.0862 190.378Z" fill="#D1D1D1"/>
<path d="M102.356 178.224C100.197 178.177 94.1797 180.386 90.3984 187.214C87.9891 191.494 85.0918 195.479 81.7646 199.09L66.1022 181.863L52.6992 193.322C52.6992 193.322 65.942 211.034 71.9693 215.846C77.9967 220.659 83.8305 221.654 90.0547 217.988C96.2789 214.323 104.172 204.975 104.172 204.975" fill="#8F8FF9"/>
<path d="M82.6054 220.692C79.0077 220.692 75.3799 219.208 71.6554 216.237C65.6481 211.445 52.8358 194.348 52.2985 193.623C52.2269 193.522 52.1952 193.398 52.2094 193.274C52.2235 193.151 52.2826 193.037 52.3752 192.955L65.7682 181.482C65.8672 181.397 65.9955 181.354 66.1258 181.362C66.2561 181.37 66.3781 181.429 66.4657 181.526L81.7643 198.349C84.9021 194.873 87.6496 191.062 89.9577 186.986C93.8557 179.945 100.103 177.693 102.366 177.736C102.499 177.736 102.626 177.789 102.72 177.883C102.814 177.977 102.867 178.105 102.867 178.237C102.867 178.37 102.814 178.498 102.72 178.592C102.626 178.686 102.499 178.739 102.366 178.739H102.289C100.17 178.739 94.4865 180.898 90.8488 187.471C88.4075 191.782 85.4792 195.797 82.1215 199.438C82.0744 199.488 82.0174 199.527 81.9542 199.554C81.8909 199.58 81.8229 199.593 81.7543 199.592C81.6858 199.59 81.6182 199.575 81.5557 199.547C81.4932 199.519 81.437 199.479 81.3906 199.428L66.0385 182.562L53.3564 193.399C55.3054 195.983 66.8295 211.128 72.2561 215.455C78.3669 220.328 83.937 220.996 89.7741 217.557C95.8549 213.975 103.684 204.745 103.761 204.655C103.802 204.6 103.854 204.554 103.913 204.52C103.972 204.486 104.037 204.464 104.105 204.457C104.173 204.449 104.241 204.455 104.307 204.475C104.372 204.494 104.433 204.527 104.485 204.571C104.537 204.615 104.58 204.67 104.61 204.731C104.641 204.792 104.658 204.858 104.662 204.927C104.666 204.995 104.656 205.063 104.632 205.127C104.609 205.191 104.572 205.25 104.525 205.3C104.192 205.684 96.5157 214.754 90.2814 218.42C87.735 219.933 85.1785 220.692 82.6054 220.692Z" fill="#8680F9"/>
<path d="M114.737 37.544C114.958 37.5447 115.172 37.5895 115.346 37.6713C115.52 37.7531 115.643 37.8672 115.696 37.9958C115.749 38.1243 115.729 38.26 115.64 38.3814C115.55 38.5028 115.396 38.6031 115.201 38.6665L-270.463 160.667C-270.603 160.711 -270.759 160.735 -270.917 160.735C-271.139 160.736 -271.355 160.693 -271.53 160.611C-271.706 160.53 -271.83 160.416 -271.884 160.287C-271.937 160.158 -271.917 160.022 -271.826 159.9C-271.734 159.779 -271.578 159.679 -271.381 159.617L114.277 37.6292C114.42 37.5864 114.577 37.5631 114.737 37.5607L114.737 37.544ZM114.733 36.3071C114.247 36.3132 113.77 36.3863 113.338 36.521L-272.354 158.509C-272.713 158.622 -273.031 158.777 -273.291 158.964C-273.55 159.15 -273.746 159.366 -273.866 159.598C-274.11 160.066 -274.033 160.573 -273.654 161.006C-273.274 161.439 -272.622 161.763 -271.841 161.907C-271.06 162.052 -270.214 162.004 -269.49 161.775L116.175 39.7913C116.782 39.5976 117.265 39.2884 117.547 38.9127C117.83 38.5369 117.895 38.116 117.734 37.7164C117.572 37.3168 117.193 36.9613 116.656 36.706C116.119 36.4508 115.454 36.3104 114.767 36.307L114.733 36.3071Z" fill="#C1C1C1"/>
<path d="M148.512 112.269C148.046 112.135 147.612 111.91 147.241 111.61C147.179 111.557 147.141 111.485 147.136 111.409C147.131 111.333 147.159 111.26 147.213 111.206C147.268 111.152 147.345 111.121 147.427 111.12C147.509 111.119 147.59 111.148 147.652 111.201C147.652 111.201 148.533 111.935 149.401 111.759C149.67 111.711 149.924 111.613 150.147 111.471C150.37 111.33 150.557 111.148 150.699 110.935C150.796 110.772 150.853 110.59 150.866 110.402C150.88 110.213 150.849 110.022 150.777 109.841C150.703 109.594 150.529 109.377 150.291 109.237C150.054 109.097 149.771 109.044 149.502 109.09C149.422 109.102 149.338 109.085 149.268 109.042C149.198 108.998 149.149 108.932 149.131 108.857C149.113 108.783 149.128 108.706 149.172 108.645C149.216 108.583 149.286 108.541 149.366 108.528C149.785 108.457 150.226 108.537 150.598 108.753C150.97 108.969 151.244 109.304 151.365 109.688C151.464 109.944 151.504 110.213 151.483 110.479C151.461 110.744 151.379 111 151.241 111.229C151.058 111.508 150.813 111.748 150.522 111.935C150.232 112.121 149.9 112.25 149.547 112.314C149.208 112.378 148.852 112.363 148.512 112.269Z" fill="#E9665C"/>
</g>
</svg>
