<svg width="267" height="267" viewBox="0 0 267 267" fill="none" xmlns="http://www.w3.org/2000/svg">
<rect width="267" height="267" rx="133.5" fill="#E8E7FF"/>
<mask id="mask0_119_12206" style="mask-type:alpha" maskUnits="userSpaceOnUse" x="0" y="0" width="267" height="267">
<rect width="267" height="267" rx="133.5" fill="#FBFBFF"/>
</mask>
<g mask="url(#mask0_119_12206)">
<path d="M275.967 232.371C275.967 232.371 278.451 240.473 279.904 246.896C281.357 253.319 285.117 270.748 285.117 270.748L262.446 276.249C262.446 276.249 258.809 262.269 256.139 250.53C253.469 238.791 254.079 227.653 261.963 223.414C269.846 219.174 277.601 221.099 282.196 225.593C286.791 230.088 297.22 245.927 297.22 245.927L304.369 268.079L279.537 276.249" fill="#EEEBB2"/>
<path d="M279.541 276.828C279.404 276.827 279.272 276.777 279.168 276.688C279.064 276.599 278.995 276.476 278.974 276.341C278.952 276.207 278.979 276.068 279.049 275.951C279.12 275.834 279.23 275.746 279.359 275.702L303.643 267.728L296.687 246.198C295.953 245.083 286.137 230.261 281.786 226.025C277.945 222.28 270.518 219.467 262.233 223.942C253.279 228.753 254.925 242.594 256.703 250.418C259.022 260.707 262.159 272.859 262.859 275.57L284.429 270.336C283.776 267.319 280.627 252.736 279.336 247.042C277.902 240.72 275.433 232.638 275.406 232.557C275.382 232.483 275.372 232.406 275.378 232.329C275.384 232.252 275.406 232.177 275.442 232.108C275.477 232.039 275.526 231.979 275.586 231.929C275.645 231.88 275.714 231.843 275.788 231.82C275.862 231.798 275.94 231.791 276.017 231.799C276.094 231.807 276.169 231.83 276.236 231.868C276.304 231.905 276.364 231.955 276.412 232.016C276.459 232.077 276.495 232.146 276.515 232.221C276.542 232.302 279.023 240.423 280.465 246.784C281.906 253.145 285.643 270.471 285.681 270.644C285.713 270.791 285.686 270.945 285.605 271.072C285.525 271.2 285.399 271.291 285.252 271.327L262.577 276.828C262.429 276.864 262.273 276.841 262.143 276.763C262.013 276.685 261.919 276.559 261.881 276.411C261.842 276.273 258.21 262.288 255.571 250.673C253.72 242.529 252.054 228.097 261.68 222.92C270.522 218.167 278.474 221.176 282.598 225.196C287.184 229.667 297.282 244.979 297.699 245.642C297.729 245.685 297.753 245.731 297.769 245.781L304.922 267.932C304.944 268.005 304.952 268.082 304.945 268.159C304.938 268.235 304.916 268.309 304.88 268.377C304.844 268.444 304.795 268.504 304.736 268.553C304.677 268.602 304.609 268.639 304.535 268.661L279.703 276.832C279.649 276.838 279.595 276.837 279.541 276.828Z" fill="#577689"/>
<path d="M291.786 259.364C291.786 259.364 254.198 261.351 251.412 279.039C248.626 296.726 262.565 299.651 272.144 300.137C281.724 300.623 322.948 298.975 322.948 298.975V281.253" fill="#EEEBB2"/>
<path d="M277.087 300.82C275.023 300.82 273.319 300.793 272.117 300.735C263.229 300.283 257.224 297.999 253.77 293.752C250.844 290.157 249.859 285.184 250.84 278.969C252 271.489 259.504 265.625 272.48 262.014C278.785 260.327 285.237 259.245 291.748 258.785C291.901 258.78 292.05 258.834 292.164 258.936C292.278 259.038 292.347 259.181 292.358 259.333C292.363 259.409 292.352 259.485 292.326 259.557C292.301 259.629 292.262 259.695 292.211 259.752C292.16 259.808 292.098 259.854 292.029 259.887C291.96 259.92 291.886 259.939 291.81 259.943C291.423 259.943 254.662 262.107 251.977 279.15C251.049 285.026 251.953 289.694 254.662 293.038C257.9 297.016 263.624 299.161 272.167 299.597C281.009 300.044 317.407 298.624 322.361 298.439V281.253C322.361 281.099 322.422 280.952 322.531 280.844C322.639 280.735 322.787 280.674 322.94 280.674C323.094 280.674 323.242 280.735 323.35 280.844C323.459 280.952 323.52 281.099 323.52 281.253V298.976C323.52 299.125 323.462 299.269 323.359 299.377C323.255 299.485 323.113 299.548 322.964 299.554C322.612 299.558 291.331 300.82 277.087 300.82Z" fill="#577689"/>
<path d="M323.876 187.024C323.876 187.024 311.483 188.713 306.444 188.432C301.405 188.15 294.291 187.344 290.411 187.024C286.532 186.703 280.874 185.249 280.874 185.249L293 167.812L281.361 158.677C281.361 158.677 260.83 183.536 258.403 191.364C255.977 199.191 257.92 203.87 265.842 206.455C273.764 209.04 297.22 212.589 297.22 212.589C297.22 212.589 297.124 226.226 295.103 238.652C293.082 251.078 291.061 254.631 295.103 258.326C299.145 262.022 309.571 267.361 322.987 268.816C336.404 270.27 333.807 270.745 336.404 262.52C339.001 254.295 344.488 227.414 338.912 210.475C333.336 193.535 325.75 186.78 323.876 187.024Z" fill="white"/>
<path d="M331.724 270.262C330.387 270.262 328.555 270.054 325.962 269.761L322.925 269.421C309.972 268.021 299.218 262.925 294.716 258.782C291.323 255.665 291.895 252.702 293.274 245.546C293.661 243.551 294.094 241.302 294.538 238.575C296.312 227.661 296.598 215.667 296.64 213.113C293.116 212.573 272.998 209.425 265.668 207.034C257.684 204.434 255.277 199.557 257.858 191.217C260.289 183.37 280.078 159.348 280.92 158.33C281.017 158.214 281.155 158.14 281.305 158.124C281.455 158.108 281.605 158.152 281.724 158.245L293.363 167.38C293.476 167.47 293.551 167.6 293.573 167.742C293.595 167.885 293.563 168.031 293.483 168.151L281.84 184.879C283.536 185.288 287.544 186.194 290.469 186.422C291.798 186.534 293.533 186.703 295.369 186.885C299.028 187.24 303.178 187.656 306.482 187.834C311.409 188.111 323.682 186.441 323.806 186.426C326.43 186.078 334.097 193.991 339.464 210.301C345.396 228.321 339 256.208 336.964 262.701C336.578 263.936 336.299 264.993 336.079 265.841C335.194 269.24 334.68 270.262 331.724 270.262ZM281.45 159.498C278.702 162.855 261.147 184.485 258.955 191.553C256.544 199.334 258.592 203.512 266.019 205.919C273.806 208.457 297.073 211.995 297.32 212.029C297.458 212.051 297.584 212.121 297.675 212.227C297.766 212.333 297.816 212.469 297.815 212.608C297.815 212.743 297.695 226.43 295.689 238.76C295.245 241.495 294.805 243.775 294.418 245.766C293.089 252.667 292.59 255.252 295.508 257.929C299.882 261.949 310.374 266.898 323.064 268.272C324.189 268.391 325.201 268.507 326.109 268.611C330.051 269.059 332.223 269.306 333.281 268.92C334.135 268.603 334.383 267.813 334.966 265.571C335.194 264.711 335.472 263.642 335.867 262.381C336.96 258.909 339.097 250.214 340.16 239.74C340.994 231.496 341.365 219.764 338.374 210.687C333.03 194.446 325.696 187.591 324.034 187.591H323.968C323.427 187.668 311.456 189.288 306.428 189.006C303.097 188.821 298.935 188.412 295.264 188.054C293.433 187.876 291.702 187.706 290.38 187.594C286.516 187.274 280.978 185.862 280.746 185.804C280.656 185.781 280.573 185.735 280.504 185.673C280.435 185.61 280.382 185.532 280.349 185.445C280.317 185.357 280.306 185.264 280.317 185.171C280.328 185.079 280.361 184.99 280.414 184.913L292.227 167.939L281.45 159.498Z" fill="#577689"/>
<path d="M384.329 42.2266L377.706 -8.52211C377.665 -8.85827 377.55 -9.18127 377.37 -9.46832C377.19 -9.75537 376.949 -9.99949 376.664 -10.1834C376.379 -10.3674 376.057 -10.4867 375.721 -10.5329C375.385 -10.5791 375.043 -10.5512 374.719 -10.451L325.724 4.62897C325.431 4.71713 325.159 4.86215 324.923 5.05569C324.686 5.24923 324.491 5.48747 324.347 5.75671C324.204 6.02595 324.115 6.32087 324.086 6.62454C324.057 6.9282 324.088 7.2346 324.178 7.52614L328.838 22.6331C328.926 22.9251 329.072 23.1969 329.266 23.4326C329.459 23.6684 329.698 23.8636 329.968 24.007C330.238 24.1504 330.533 24.2392 330.837 24.2682C331.141 24.2973 331.448 24.266 331.74 24.1762L343.785 20.465L253.747 166.234L213.674 138.2C211.488 136.669 208.818 135.983 206.163 136.271C203.507 136.56 201.047 137.802 199.241 139.766L132.389 212.435L98.5145 183.081C96.5174 181.348 93.9621 180.391 91.316 180.384C88.6699 180.378 86.11 181.323 84.1045 183.046L45.4152 216.292C43.2022 218.195 41.8368 220.897 41.6194 223.805C41.402 226.712 42.3504 229.587 44.2559 231.797C45.1993 232.891 46.3495 233.789 47.6407 234.439C48.9319 235.09 50.3388 235.48 51.781 235.588C53.2233 235.695 54.6726 235.518 56.0463 235.066C57.4199 234.614 58.6908 233.896 59.7865 232.954L91.2612 205.911L126.005 236.048C128.172 237.925 130.986 238.884 133.849 238.723C136.713 238.562 139.401 237.292 141.343 235.184L208.921 161.736L250.656 190.931C251.885 191.791 253.276 192.391 254.746 192.694C256.215 192.997 257.731 192.997 259.201 192.695C260.67 192.392 262.062 191.793 263.291 190.933C264.521 190.074 265.561 188.974 266.349 187.699L362.373 32.2505L364.019 44.8692C364.057 45.1717 364.155 45.4636 364.307 45.7282C364.459 45.9927 364.662 46.2247 364.904 46.4107C365.146 46.5968 365.423 46.7332 365.718 46.8123C366.013 46.8913 366.32 46.9114 366.623 46.8714L382.324 44.8268C382.627 44.7882 382.919 44.6903 383.184 44.5386C383.449 44.3869 383.682 44.1845 383.868 43.9428C384.054 43.7012 384.191 43.4252 384.27 43.1307C384.349 42.8362 384.37 42.5289 384.329 42.2266Z" fill="#6B53EB"/>
<path d="M133.223 239.323C130.429 239.321 127.73 238.311 125.622 236.48L91.257 206.679L60.1456 233.394C58.9916 234.385 57.6533 235.14 56.2071 235.615C54.7609 236.09 53.2352 236.277 51.7169 236.163C50.1987 236.049 48.7177 235.638 47.3586 234.953C45.9994 234.268 44.7888 233.323 43.7957 232.171C42.8003 231.019 42.0438 229.682 41.5702 228.236C41.0965 226.791 40.9152 225.266 41.0366 223.749C41.1462 222.233 41.5561 220.753 42.2426 219.395C42.9292 218.038 43.8787 216.83 45.0362 215.841L83.7178 182.606C85.8353 180.806 88.5274 179.821 91.3086 179.828C94.0898 179.835 96.7769 180.834 98.8851 182.645L132.304 211.628L198.769 139.373C200.675 137.308 203.266 136.003 206.062 135.7C208.858 135.396 211.669 136.114 213.975 137.721L253.546 165.401L342.471 21.4719L331.918 24.7124C331.553 24.8237 331.169 24.8622 330.789 24.8255C330.409 24.7888 330.04 24.6777 329.703 24.4985C329.366 24.3194 329.068 24.0757 328.825 23.7815C328.583 23.4872 328.4 23.1481 328.289 22.7835L323.652 7.67271C323.54 7.30821 323.502 6.92535 323.539 6.546C323.575 6.16665 323.687 5.79824 323.866 5.46184C324.046 5.12544 324.29 4.82762 324.584 4.58542C324.879 4.34322 325.219 4.16138 325.584 4.05028L374.58 -10.995C374.983 -11.1193 375.41 -11.154 375.828 -11.0967C376.247 -11.0395 376.648 -10.8916 377.004 -10.6634C377.359 -10.4352 377.661 -10.1323 377.887 -9.77576C378.113 -9.41923 378.258 -9.01772 378.312 -8.59929L384.936 42.1495C385.034 42.9116 384.826 43.6816 384.357 44.2906C383.887 44.8996 383.195 45.2977 382.432 45.3977L366.696 47.45C365.933 47.5496 365.162 47.3426 364.552 46.8746C363.942 46.4065 363.543 45.7157 363.443 44.954L362.009 33.9479L266.831 188C266.002 189.343 264.907 190.502 263.613 191.407C262.319 192.312 260.853 192.944 259.306 193.263C257.758 193.582 256.162 193.582 254.615 193.262C253.067 192.943 251.602 192.311 250.308 191.406L208.991 162.5L141.752 235.577C140.666 236.755 139.347 237.696 137.88 238.34C136.412 238.985 134.827 239.32 133.223 239.323ZM91.257 205.336C91.399 205.335 91.5367 205.385 91.6434 205.479L126.387 235.612C128.438 237.389 131.103 238.298 133.815 238.146C136.526 237.993 139.072 236.791 140.909 234.794L208.477 161.342C208.573 161.237 208.705 161.17 208.848 161.155C208.99 161.14 209.133 161.178 209.249 161.261L250.984 190.457C252.148 191.271 253.467 191.839 254.859 192.126C256.251 192.413 257.687 192.413 259.079 192.127C260.471 191.84 261.789 191.272 262.954 190.458C264.118 189.644 265.104 188.602 265.85 187.394L361.878 31.9457C361.94 31.843 362.033 31.7624 362.144 31.715C362.255 31.6676 362.378 31.6558 362.495 31.6813C362.613 31.7067 362.72 31.7682 362.801 31.857C362.882 31.9459 362.934 32.0578 362.948 32.1772L364.594 44.7959C364.624 45.0226 364.698 45.2414 364.812 45.4396C364.926 45.6377 365.079 45.8115 365.26 45.9509C365.442 46.0903 365.649 46.1925 365.87 46.2518C366.092 46.3111 366.322 46.3263 366.549 46.2965L382.25 44.2558C382.478 44.2269 382.698 44.153 382.897 44.0384C383.096 43.9239 383.27 43.7709 383.409 43.5884C383.551 43.4084 383.654 43.2019 383.714 42.9813C383.773 42.7606 383.788 42.5302 383.757 42.3038L377.13 -8.44498C377.098 -8.69653 377.011 -8.93802 376.876 -9.15248C376.74 -9.36694 376.559 -9.54915 376.345 -9.68631C376.132 -9.82346 375.891 -9.91223 375.639 -9.94637C375.387 -9.98051 375.131 -9.95919 374.889 -9.88392L325.893 5.16132C325.451 5.29663 325.08 5.60177 324.863 6.00972C324.645 6.41768 324.599 6.8951 324.734 7.33709L329.394 22.444C329.53 22.8859 329.835 23.2559 330.244 23.4729C330.653 23.6899 331.131 23.7361 331.574 23.6014L343.599 19.9057C343.712 19.8709 343.833 19.8713 343.945 19.9067C344.058 19.9422 344.157 20.011 344.229 20.1041C344.301 20.1972 344.343 20.31 344.349 20.4276C344.356 20.5452 344.326 20.6618 344.264 20.7621L254.226 166.527C254.183 166.595 254.127 166.654 254.06 166.699C253.994 166.744 253.919 166.775 253.84 166.79C253.762 166.806 253.682 166.807 253.604 166.791C253.526 166.775 253.452 166.743 253.387 166.697L213.315 138.663C211.24 137.222 208.713 136.579 206.201 136.854C203.688 137.128 201.36 138.301 199.647 140.156L132.794 212.828C132.692 212.939 132.55 213.005 132.399 213.013C132.248 213.021 132.1 212.97 131.987 212.87L98.1355 183.517C96.2384 181.888 93.8208 180.99 91.3187 180.985C88.8167 180.979 86.3951 181.866 84.4906 183.486L45.7936 216.732C44.7511 217.621 43.896 218.708 43.2778 219.93C42.6595 221.152 42.2905 222.484 42.192 223.85C42.0861 225.213 42.2522 226.585 42.6807 227.884C43.1092 229.183 43.7916 230.384 44.6884 231.419C45.5819 232.456 46.6714 233.307 47.8946 233.924C49.1177 234.54 50.4506 234.911 51.8171 235.013C53.1835 235.116 54.5568 234.948 55.8586 234.521C57.1603 234.093 58.3649 233.414 59.4036 232.522L90.8822 205.475C90.9867 205.386 91.1195 205.337 91.257 205.336Z" fill="#6B53EB"/>
<path d="M240.044 44.1516C240.044 44.6902 239.884 45.2168 239.585 45.6647C239.285 46.1126 238.859 46.4617 238.36 46.6678C237.862 46.8739 237.313 46.9279 236.784 46.8228C236.255 46.7177 235.769 46.4583 235.387 46.0774C235.005 45.6965 234.746 45.2112 234.64 44.6829C234.535 44.1546 234.589 43.6069 234.796 43.1093C235.002 42.6116 235.352 42.1863 235.8 41.887C236.249 41.5877 236.777 41.428 237.316 41.428C238.04 41.428 238.734 41.7149 239.245 42.2257C239.757 42.7365 240.044 43.4292 240.044 44.1516Z" fill="white"/>
<path d="M219.111 233.907L219.838 249.481L224.201 248.593L238.267 260.695H241.339L235.276 231.164C235.276 231.164 225.495 233.583 219.111 233.907Z" fill="#FFEAE2"/>
<path d="M224.942 249.23L238.267 260.695H241.339L235.276 231.164C235.276 231.164 231.06 232.206 226.357 233.012L230.221 248.107L226.461 245.607L224.942 249.23Z" fill="#587689"/>
<path d="M184.963 197.351L188.402 233.826L220.41 232.695L221.38 251.255C221.38 251.255 189.959 257.871 184.167 258.033C178.374 258.195 168.841 259.487 163.829 247.231C158.817 234.975 156.873 216.728 156.873 216.728" fill="white"/>
<path d="M180.151 258.728C174.486 258.728 167.399 257.497 163.284 247.44C158.299 235.238 156.328 216.964 156.293 216.778C156.277 216.625 156.323 216.471 156.421 216.352C156.518 216.232 156.659 216.156 156.813 216.14C156.967 216.124 157.12 216.17 157.24 216.267C157.36 216.364 157.437 216.505 157.452 216.659C157.472 216.84 159.443 234.956 164.366 247C168.879 258.052 176.986 257.732 182.914 257.501L184.159 257.455C189.441 257.308 216.789 251.625 220.784 250.792L219.868 233.293L188.429 234.404C188.28 234.412 188.135 234.361 188.024 234.263C187.913 234.165 187.844 234.028 187.833 233.88L184.394 197.405C184.387 197.329 184.395 197.252 184.418 197.179C184.44 197.106 184.477 197.038 184.526 196.98C184.624 196.861 184.766 196.786 184.92 196.772C185.074 196.758 185.227 196.805 185.346 196.903C185.464 197.002 185.539 197.143 185.554 197.297L188.943 233.228L220.406 232.117C220.558 232.111 220.706 232.165 220.818 232.267C220.931 232.37 220.998 232.513 221.005 232.665L221.975 251.224C221.983 251.362 221.941 251.499 221.857 251.609C221.772 251.719 221.651 251.795 221.515 251.822C220.232 252.092 189.974 258.45 184.201 258.612L182.968 258.654C182.072 258.689 181.133 258.728 180.151 258.728Z" fill="#F6F6F6"/>
<path d="M155.277 191.379L183.219 184.686C183.219 184.686 187.439 196.483 186.778 203.485C185.646 215.444 178.37 225.273 164.79 240.442C151.211 255.611 118.883 295.639 118.883 295.639L102.228 285.794C102.228 285.794 127.933 243.038 131.326 237.213C134.719 231.388 157.526 199.445 157.526 199.445" fill="white"/>
<path d="M118.883 296.217C118.78 296.217 118.678 296.189 118.59 296.136L101.934 286.291C101.869 286.253 101.811 286.202 101.765 286.141C101.719 286.08 101.686 286.01 101.668 285.936C101.629 285.787 101.652 285.629 101.73 285.497C101.989 285.068 127.474 242.676 130.828 236.924C134.182 231.172 156.112 200.418 157.043 199.118C157.132 198.992 157.268 198.907 157.42 198.882C157.571 198.856 157.727 198.892 157.853 198.981C157.978 199.07 158.063 199.205 158.089 199.356C158.115 199.508 158.079 199.664 157.99 199.789C157.762 200.109 135.191 231.808 131.829 237.51C128.668 242.911 105.938 280.782 103.024 285.597L118.744 294.886C122.125 290.705 151.641 254.268 164.343 240.06C178.254 224.509 185.083 215.062 186.184 203.434C186.752 197.44 183.606 187.664 182.83 185.372L155.393 191.931C155.243 191.966 155.086 191.941 154.955 191.861C154.823 191.781 154.73 191.652 154.694 191.502C154.658 191.353 154.683 191.196 154.763 191.065C154.844 190.934 154.973 190.84 155.123 190.804L183.065 184.111C183.207 184.078 183.356 184.099 183.483 184.171C183.61 184.242 183.705 184.358 183.749 184.497C183.923 184.987 188 196.498 187.335 203.546C186.203 215.505 179.298 225.092 165.205 240.835C151.792 255.823 119.633 295.615 119.312 296.001C119.26 296.065 119.195 296.118 119.121 296.155C119.047 296.192 118.966 296.213 118.883 296.217Z" fill="#F6F6F6"/>
<path d="M129.097 177.456C136.377 190.874 140.303 197.162 142.537 201.76C144.77 206.359 145.056 209.449 150.652 206.652C153.787 205.113 156.826 203.387 159.752 201.482L139.453 167.92L129.097 177.456Z" fill="#A8DBF4"/>
<path d="M147.204 208.318C146.816 208.323 146.43 208.259 146.064 208.129C144.518 207.578 143.78 205.923 142.841 203.828C142.582 203.253 142.32 202.671 142.014 202.034C140.855 199.669 139.24 196.803 136.991 192.833C134.819 189.003 132.114 184.234 128.59 177.738C128.529 177.624 128.507 177.494 128.529 177.366C128.55 177.239 128.614 177.123 128.71 177.036L139.066 167.534C139.129 167.476 139.205 167.433 139.287 167.408C139.369 167.382 139.456 167.376 139.541 167.388C139.627 167.399 139.708 167.429 139.78 167.477C139.851 167.524 139.911 167.587 139.955 167.661L160.254 201.201C160.329 201.327 160.353 201.477 160.321 201.62C160.29 201.763 160.205 201.889 160.084 201.972C157.135 203.891 154.075 205.631 150.918 207.184C149.411 207.933 148.197 208.318 147.204 208.318ZM129.815 177.584C133.227 183.868 135.862 188.517 137.992 192.243C140.252 196.232 141.887 199.114 143.05 201.502C143.363 202.146 143.63 202.748 143.892 203.326C144.75 205.255 145.369 206.629 146.447 207.014C147.309 207.323 148.561 207.041 150.388 206.127C153.33 204.669 156.192 203.057 158.963 201.297L139.325 168.861L129.815 177.584Z" fill="#96CFEE"/>
<path d="M108.097 157.473C108.097 157.473 102.498 163.622 98.7187 170.898C94.9394 178.174 98.0193 182.78 101.238 184.593C104.457 186.406 108.097 187.679 115.795 184.593C123.493 181.507 127.002 155.807 127.002 155.807L108.097 157.473Z" fill="#A8DBF4"/>
<path d="M107.676 187.035C104.778 187.035 102.768 186.113 100.956 185.106C97.2927 183.039 94.3867 178.012 98.2085 170.64C101.976 163.391 107.614 157.161 107.672 157.099C107.773 156.991 107.911 156.924 108.059 156.914L126.955 155.236C127.042 155.228 127.129 155.24 127.211 155.27C127.293 155.301 127.366 155.35 127.427 155.413C127.487 155.476 127.532 155.552 127.559 155.635C127.585 155.717 127.593 155.805 127.581 155.892C127.438 156.956 123.945 181.978 116.023 185.141C112.533 186.514 109.852 187.035 107.676 187.035ZM108.379 158.029C107.471 159.059 102.583 164.699 99.2364 171.145C94.7848 179.705 100.365 183.417 101.528 184.072C104.457 185.724 107.958 187.085 115.586 184.038C118.558 182.853 121.383 177.615 123.724 168.888C124.808 164.783 125.675 160.624 126.321 156.428L108.379 158.029Z" fill="#A8DBF4"/>
<path d="M114.678 147.412L117.897 151.185L114.96 162.365L107.68 153.422" fill="#FFEAE2"/>
<path d="M114.957 162.943C114.871 162.943 114.786 162.924 114.709 162.887C114.631 162.851 114.563 162.797 114.508 162.731L107.228 153.785C107.131 153.666 107.086 153.513 107.102 153.36C107.118 153.208 107.194 153.068 107.313 152.971C107.433 152.874 107.586 152.829 107.738 152.845C107.891 152.861 108.032 152.937 108.129 153.056L114.698 161.115L117.271 151.331L114.246 147.786C114.19 147.729 114.148 147.662 114.12 147.588C114.092 147.514 114.079 147.435 114.083 147.356C114.087 147.277 114.107 147.199 114.142 147.128C114.177 147.057 114.226 146.994 114.286 146.943C114.347 146.891 114.417 146.853 114.493 146.83C114.569 146.807 114.648 146.799 114.727 146.808C114.806 146.817 114.882 146.842 114.951 146.882C115.02 146.921 115.079 146.974 115.127 147.038L118.346 150.811C118.406 150.881 118.449 150.966 118.469 151.056C118.49 151.147 118.489 151.241 118.466 151.331L115.525 162.519C115.498 162.623 115.444 162.717 115.366 162.791C115.289 162.866 115.193 162.917 115.088 162.939C115.045 162.945 115.001 162.946 114.957 162.943Z" fill="#577689"/>
<path d="M109.779 147.551C109.779 147.551 109.636 145.051 112.314 145.051C114.992 145.051 116.653 146.729 116.653 147.566C116.653 148.404 115.811 149.383 113.434 149.383" fill="#FFEAE2"/>
<path d="M113.419 149.947C113.265 149.947 113.118 149.886 113.009 149.777C112.9 149.669 112.839 149.521 112.839 149.368C112.839 149.215 112.9 149.067 113.009 148.959C113.118 148.85 113.265 148.789 113.419 148.789C115.243 148.789 116.058 148.168 116.058 147.551C116.058 147.084 114.682 145.622 112.298 145.622C112.035 145.603 111.77 145.638 111.521 145.725C111.272 145.812 111.043 145.949 110.849 146.127C110.519 146.52 110.345 147.019 110.358 147.532C110.366 147.685 110.313 147.836 110.21 147.95C110.107 148.064 109.963 148.133 109.809 148.141C109.656 148.149 109.505 148.096 109.391 147.994C109.276 147.891 109.207 147.747 109.199 147.593C109.173 146.767 109.46 145.961 110.003 145.337C110.303 145.039 110.662 144.808 111.058 144.657C111.453 144.507 111.876 144.442 112.298 144.465C115.15 144.465 117.217 146.313 117.217 147.551C117.217 148.658 116.22 149.947 113.419 149.947Z" fill="#F6C7BC"/>
<path d="M107.676 149.65C107.524 149.074 107.6 148.463 107.888 147.942C108.176 147.422 108.653 147.031 109.222 146.853C111.32 146.016 114.96 149.65 114.96 150.487C114.96 151.324 114.122 152.581 112.019 152.443" fill="#FFEAE2"/>
<path d="M112.337 153.033H111.977C111.824 153.023 111.68 152.952 111.579 152.836C111.477 152.72 111.426 152.569 111.436 152.416C111.446 152.262 111.517 152.119 111.633 152.018C111.749 151.916 111.901 151.865 112.055 151.875C113.086 151.945 113.658 151.629 113.956 151.351C114.204 151.132 114.356 150.824 114.377 150.494C114.288 150.109 112.928 148.565 111.367 147.755C110.806 147.462 110.018 147.165 109.435 147.397C107.889 148.018 108.198 149.352 108.24 149.499C108.282 149.645 108.264 149.801 108.192 149.934C108.12 150.067 107.999 150.167 107.854 150.213C107.709 150.254 107.553 150.236 107.42 150.164C107.287 150.092 107.188 149.971 107.143 149.827C106.952 149.115 107.04 148.357 107.39 147.708C107.739 147.059 108.324 146.568 109.025 146.336C110.265 145.838 111.73 146.54 112.723 147.219C113.913 148.022 115.559 149.611 115.559 150.506C115.549 150.828 115.473 151.145 115.337 151.437C115.201 151.73 115.007 151.991 114.767 152.207C114.097 152.791 113.224 153.087 112.337 153.033Z" fill="#F6C7BC"/>
<path d="M106.555 152.724C106.347 152.236 106.24 151.711 106.24 151.181C106.24 150.651 106.347 150.126 106.555 149.638C107.259 147.96 109.917 149.356 111.455 150.055C112.993 150.753 114.956 153.55 112.016 154.109" fill="#FFEAE2"/>
<path d="M112.016 154.695C111.94 154.703 111.863 154.695 111.79 154.672C111.717 154.65 111.649 154.613 111.59 154.564C111.531 154.515 111.482 154.456 111.447 154.388C111.411 154.321 111.389 154.247 111.382 154.171C111.375 154.095 111.383 154.018 111.405 153.945C111.428 153.872 111.465 153.805 111.513 153.746C111.562 153.687 111.622 153.638 111.69 153.603C111.757 153.567 111.831 153.545 111.907 153.538C112.561 153.411 112.912 153.175 112.955 152.836C113.04 152.118 112.047 150.957 111.216 150.579L110.829 150.406C109.844 149.95 108.198 149.187 107.436 149.484C107.352 149.518 107.277 149.57 107.215 149.637C107.154 149.703 107.108 149.783 107.081 149.869C106.907 150.28 106.818 150.722 106.818 151.168C106.818 151.613 106.907 152.055 107.081 152.466C107.15 152.603 107.161 152.762 107.112 152.908C107.063 153.054 106.958 153.174 106.82 153.243C106.682 153.312 106.523 153.323 106.377 153.274C106.231 153.225 106.11 153.12 106.041 152.983C105.801 152.42 105.678 151.815 105.678 151.204C105.678 150.593 105.801 149.988 106.041 149.426C106.131 149.198 106.267 148.991 106.441 148.817C106.614 148.644 106.822 148.508 107.05 148.419C108.271 147.944 109.975 148.735 111.347 149.372L111.734 149.541C112.854 150.047 114.307 151.605 114.145 152.99C114.083 153.496 113.758 154.387 112.163 154.688C112.114 154.697 112.065 154.7 112.016 154.695Z" fill="#F6C7BC"/>
<path d="M107.958 155.799C109.014 156.049 110.093 156.189 111.177 156.215C112.723 156.215 112.723 153.561 111.317 152.863C109.91 152.165 103.758 149.507 105.439 155.656C105.916 157.435 106.813 159.073 108.055 160.435C109.297 161.797 110.847 162.842 112.576 163.483L115.517 154.958" fill="#FFEAE2"/>
<path d="M112.577 164.062C112.519 164.062 112.462 164.053 112.407 164.035C110.58 163.374 108.94 162.28 107.629 160.848C106.318 159.415 105.375 157.687 104.879 155.81C104.334 153.812 104.52 152.423 105.432 151.675C107.121 150.294 110.564 151.837 111.576 152.346C112.697 152.902 113.122 154.321 112.859 155.367C112.793 155.765 112.588 156.127 112.28 156.388C111.973 156.649 111.582 156.793 111.178 156.794C110.045 156.769 108.918 156.623 107.816 156.358C107.742 156.34 107.673 156.307 107.612 156.262C107.551 156.216 107.499 156.159 107.46 156.094C107.421 156.029 107.395 155.957 107.384 155.882C107.373 155.807 107.376 155.73 107.395 155.656C107.413 155.582 107.446 155.513 107.492 155.452C107.537 155.391 107.594 155.34 107.659 155.3C107.725 155.261 107.797 155.236 107.872 155.225C107.948 155.213 108.024 155.217 108.098 155.236C109.113 155.471 110.149 155.6 111.19 155.621C111.294 155.621 111.619 155.621 111.742 155.085C111.885 154.487 111.65 153.654 111.07 153.365C109.312 152.485 107.032 151.86 106.178 152.555C105.525 153.095 105.726 154.449 106.008 155.49C106.444 157.08 107.229 158.553 108.306 159.803C109.384 161.052 110.727 162.046 112.237 162.712L114.981 154.753C115.006 154.682 115.045 154.615 115.096 154.558C115.147 154.502 115.209 154.456 115.278 154.423C115.347 154.39 115.422 154.371 115.498 154.366C115.574 154.362 115.65 154.373 115.723 154.399C115.795 154.424 115.861 154.463 115.918 154.514C115.975 154.565 116.021 154.627 116.054 154.695C116.087 154.764 116.106 154.839 116.11 154.915C116.114 154.991 116.103 155.067 116.078 155.139L113.137 163.665C113.099 163.782 113.024 163.885 112.923 163.956C112.822 164.028 112.701 164.065 112.577 164.062Z" fill="#F6C7BC"/>
<path d="M130.078 124.35L134.418 130.083L125.599 142.659L118.74 131.9L130.078 124.35Z" fill="#FFEAE2"/>
<path d="M127.697 114.289C127.697 114.289 129.656 112.195 131.616 114.289C133.575 116.384 130.638 119.74 130.638 119.74" fill="#FFEAE2"/>
<path d="M131.476 126.588C129.524 131.16 126.261 135.052 122.097 137.776L120.277 134.003L131.055 125.338L131.476 126.588Z" fill="#F6C7BC"/>
<path d="M119.369 134.134C126.212 134.134 131.758 128.596 131.758 121.766C131.758 114.935 126.212 109.398 119.369 109.398C112.527 109.398 106.98 114.935 106.98 121.766C106.98 128.596 112.527 134.134 119.369 134.134Z" fill="#FFEAE2"/>
<path d="M104.879 112.754C104.879 112.754 97.1776 119.312 105.857 127.984C105.857 127.984 113.697 124.632 111.738 112.195C111.738 112.195 120.278 104.788 129.657 114.289L131.203 113.869C131.203 113.869 131.342 110.655 129.522 109.12C129.522 109.12 131.481 108.001 130.221 105.625C128.961 103.249 126.859 105.066 126.859 105.066C126.859 105.066 128.262 101.293 125.314 100.313C122.365 99.3329 121.673 102.828 118.594 103.249C115.514 103.669 112.156 102.269 108.094 105.764C104.033 109.259 104.879 112.754 104.879 112.754Z" fill="#3F362E"/>
<path d="M109.469 125.191C109.469 125.191 105.497 125.342 106.416 129.003C107.336 132.664 113.137 130.986 113.137 130.986" fill="#FFEAE2"/>
<path d="M117.634 288.328C117.505 288.327 117.381 288.283 117.279 288.205C117.158 288.11 117.08 287.972 117.061 287.82C117.042 287.668 117.084 287.515 117.178 287.394C117.681 286.746 167.627 222.731 173.74 213.862C179.66 205.278 174.969 195.73 174.922 195.634C174.881 195.566 174.855 195.49 174.844 195.411C174.834 195.332 174.84 195.252 174.862 195.175C174.884 195.099 174.922 195.028 174.973 194.967C175.023 194.905 175.086 194.855 175.158 194.819C175.229 194.783 175.306 194.762 175.386 194.758C175.466 194.753 175.545 194.765 175.62 194.793C175.695 194.82 175.763 194.863 175.821 194.918C175.878 194.973 175.924 195.04 175.954 195.113C176.008 195.217 181.009 205.359 174.694 214.518C168.562 223.414 118.596 287.46 118.11 288.104C118.053 288.176 117.981 288.234 117.899 288.273C117.816 288.311 117.725 288.33 117.634 288.328Z" fill="#F6F6F6"/>
<path d="M109.9 129.998C109.277 130.017 108.66 129.896 108.107 129.647C107.853 129.523 107.633 129.354 107.459 129.151C107.285 128.949 107.162 128.717 107.097 128.47C106.906 127.802 106.998 127.242 107.372 126.809C108.025 126.053 109.291 126.002 109.346 126C109.442 125.997 109.536 126.027 109.606 126.084C109.677 126.141 109.718 126.22 109.722 126.304C109.725 126.388 109.691 126.469 109.625 126.53C109.56 126.592 109.469 126.628 109.373 126.631C109.373 126.631 108.392 126.673 107.95 127.19C107.708 127.465 107.664 127.844 107.8 128.317C107.841 128.481 107.922 128.635 108.037 128.77C108.152 128.905 108.298 129.018 108.467 129.101C109.573 129.655 111.531 129.174 111.552 129.17C111.643 129.151 111.739 129.163 111.82 129.204C111.9 129.245 111.96 129.311 111.986 129.389C112.012 129.467 112.002 129.551 111.958 129.623C111.915 129.695 111.841 129.749 111.753 129.775C111.149 129.918 110.526 129.993 109.9 129.998Z" fill="#E9665C"/>
<path d="M125.596 142.659C125.596 142.659 128.258 163.622 140.156 183.05C140.156 183.05 147.715 196.606 149.535 199.82C151.355 203.033 153.736 208.484 159.756 205.132C165.777 201.779 184.963 189.199 184.963 189.199C184.963 189.199 174.881 160.69 160.884 147.273C146.888 133.856 134.418 130.083 134.418 130.083L125.596 142.659Z" fill="#A8DBF4"/>
<path d="M156.254 206.775C155.775 206.776 155.297 206.711 154.836 206.582C152.173 205.811 150.655 203.064 149.426 200.854L149.039 200.121C147.239 196.942 139.734 183.482 139.657 183.347C127.832 164.043 125.065 142.945 125.023 142.737C125.008 142.6 125.044 142.463 125.123 142.351L133.953 129.751C134.023 129.651 134.122 129.576 134.238 129.536C134.353 129.496 134.478 129.493 134.595 129.528C134.722 129.566 147.347 133.497 161.289 146.857C175.232 160.216 185.41 188.721 185.511 189.006C185.554 189.128 185.555 189.261 185.514 189.383C185.473 189.506 185.391 189.611 185.283 189.682C185.093 189.809 166.019 202.312 160.049 205.637C158.902 206.334 157.596 206.726 156.254 206.775ZM126.201 142.806C126.53 145.09 129.602 164.71 140.65 182.749C140.739 182.903 148.243 196.359 150.04 199.534C150.175 199.773 150.311 200.024 150.454 200.279C151.567 202.304 152.954 204.823 155.157 205.452C156.412 205.815 157.827 205.545 159.473 204.626C164.937 201.583 181.499 190.758 184.251 188.968C182.929 185.369 173.284 159.969 160.474 147.69C148.127 135.858 136.867 131.549 134.641 130.778L126.201 142.806Z" fill="#96CFEE"/>
<path d="M119.856 119.671C119.856 119.851 119.803 120.027 119.702 120.177C119.602 120.327 119.459 120.444 119.292 120.512C119.125 120.581 118.942 120.599 118.765 120.564C118.588 120.528 118.425 120.441 118.298 120.313C118.171 120.186 118.084 120.023 118.049 119.846C118.015 119.669 118.033 119.486 118.103 119.32C118.172 119.154 118.29 119.012 118.44 118.912C118.591 118.812 118.768 118.76 118.948 118.761C119.068 118.761 119.186 118.784 119.296 118.83C119.407 118.876 119.507 118.943 119.592 119.027C119.676 119.112 119.743 119.212 119.788 119.323C119.834 119.433 119.857 119.552 119.856 119.671Z" fill="#3F362E"/>
<path d="M125.529 117.082C126.031 117.082 126.437 116.677 126.437 116.176C126.437 115.675 126.031 115.269 125.529 115.269C125.028 115.269 124.621 115.675 124.621 116.176C124.621 116.677 125.028 117.082 125.529 117.082Z" fill="#3F362E"/>
<path d="M124.478 120.747C124.357 120.748 124.238 120.71 124.14 120.64C124.041 120.57 123.966 120.471 123.927 120.356C123.888 120.241 123.886 120.117 123.921 120.001C123.956 119.885 124.026 119.783 124.123 119.71L124.826 119.166L122.121 116.851C122.063 116.8 122.016 116.739 121.983 116.67C121.949 116.601 121.929 116.526 121.924 116.45C121.919 116.374 121.929 116.297 121.954 116.224C121.979 116.152 122.018 116.085 122.069 116.027C122.12 115.97 122.181 115.923 122.25 115.889C122.319 115.855 122.394 115.836 122.471 115.831C122.547 115.826 122.624 115.836 122.697 115.861C122.769 115.886 122.836 115.925 122.894 115.975L126.113 118.772C126.178 118.828 126.23 118.897 126.264 118.975C126.299 119.053 126.316 119.138 126.314 119.224C126.311 119.309 126.289 119.392 126.25 119.468C126.212 119.544 126.157 119.611 126.09 119.663L124.83 120.643C124.727 120.714 124.603 120.751 124.478 120.747Z" fill="#E9665C"/>
<path d="M121.538 124.929C121.384 124.932 121.235 124.873 121.125 124.766C121.014 124.66 120.951 124.514 120.948 124.36C120.946 124.207 121.004 124.058 121.111 123.948C121.218 123.838 121.365 123.774 121.518 123.772C125.34 123.652 125.727 122.294 125.727 122.279C125.738 122.204 125.765 122.133 125.804 122.069C125.844 122.004 125.896 121.949 125.958 121.905C126.019 121.861 126.089 121.83 126.163 121.813C126.237 121.797 126.313 121.795 126.387 121.808C126.54 121.835 126.676 121.92 126.766 122.045C126.856 122.171 126.894 122.327 126.87 122.479C126.832 122.715 126.376 124.794 121.557 124.925L121.538 124.929Z" fill="#3F362E"/>
<path d="M175.301 212.134C175.193 212.132 175.088 212.102 174.996 212.045C169.057 208.338 167.186 202.173 167.109 201.911C167.088 201.838 167.081 201.761 167.089 201.686C167.098 201.61 167.121 201.537 167.157 201.47C167.194 201.404 167.243 201.345 167.303 201.297C167.362 201.25 167.43 201.214 167.503 201.193C167.576 201.172 167.653 201.165 167.729 201.173C167.804 201.182 167.878 201.205 167.944 201.241C168.011 201.278 168.07 201.327 168.118 201.386C168.165 201.446 168.201 201.514 168.222 201.587C168.222 201.644 170.058 207.597 175.611 211.061C175.719 211.127 175.803 211.227 175.849 211.345C175.895 211.463 175.901 211.593 175.865 211.715C175.83 211.837 175.756 211.944 175.654 212.019C175.552 212.095 175.428 212.135 175.301 212.134Z" fill="#F6F6F6"/>
<path d="M181.122 237.915C180.992 237.916 180.867 237.873 180.764 237.794C180.662 237.715 180.589 237.604 180.557 237.479C180.525 237.354 180.536 237.222 180.588 237.104C180.64 236.986 180.73 236.888 180.843 236.827L185.573 234.285C185.711 234.212 185.872 234.197 186.021 234.243C186.17 234.289 186.295 234.392 186.367 234.53C186.44 234.667 186.455 234.828 186.409 234.977C186.363 235.126 186.26 235.25 186.122 235.323L181.396 237.865C181.31 237.903 181.216 237.92 181.122 237.915Z" fill="#F6F6F6"/>
<path d="M180.754 243C180.643 242.998 180.535 242.965 180.442 242.905C180.349 242.844 180.276 242.759 180.23 242.658C180.184 242.557 180.168 242.445 180.183 242.336C180.199 242.226 180.245 242.123 180.317 242.039L185.047 236.592C185.15 236.476 185.294 236.406 185.448 236.397C185.603 236.387 185.755 236.439 185.87 236.542C185.986 236.644 186.056 236.788 186.066 236.942C186.075 237.096 186.023 237.248 185.921 237.363L181.195 242.81C181.139 242.871 181.07 242.919 180.994 242.952C180.919 242.985 180.837 243.001 180.754 243Z" fill="#F6F6F6"/>
<path d="M134.418 136.649C130.495 139.168 127.137 146.432 125.456 151.308C123.775 156.185 117.198 181.218 117.198 181.218L140.156 172.441" fill="#A8DBF4"/>
<path d="M117.198 181.812C117.11 181.812 117.022 181.791 116.943 181.752C116.863 181.713 116.794 181.657 116.74 181.587C116.686 181.516 116.648 181.435 116.631 181.348C116.613 181.262 116.616 181.172 116.638 181.087C116.905 180.064 123.242 156.011 124.908 151.139C126.84 145.51 130.271 138.624 134.105 136.163C134.234 136.08 134.392 136.052 134.542 136.085C134.692 136.118 134.823 136.209 134.906 136.339C134.99 136.468 135.018 136.625 134.985 136.775C134.952 136.925 134.86 137.056 134.731 137.139C131.148 139.454 127.875 146.07 126.005 151.513C124.552 155.757 119.335 175.431 118.045 180.288L139.947 171.89C140.091 171.834 140.251 171.838 140.391 171.901C140.532 171.963 140.642 172.078 140.697 172.221C140.752 172.365 140.749 172.524 140.686 172.664C140.624 172.805 140.508 172.915 140.365 172.97L117.407 181.773C117.341 181.799 117.27 181.812 117.198 181.812Z" fill="#CDCDCD"/>
<path d="M516.889 40.0148C517.113 40.016 517.329 40.0534 517.504 40.121C517.679 40.1886 517.803 40.2826 517.856 40.3882C517.909 40.4939 517.889 40.6051 517.798 40.7045C517.707 40.8038 517.551 40.8856 517.354 40.9371L127.575 139.916C127.434 139.952 127.277 139.971 127.117 139.971C126.893 139.971 126.675 139.935 126.498 139.868C126.321 139.801 126.196 139.707 126.143 139.601C126.089 139.495 126.11 139.383 126.202 139.283C126.295 139.184 126.453 139.103 126.652 139.052L516.424 40.0834C516.569 40.0487 516.728 40.03 516.889 40.0285V40.0148ZM516.889 39C516.399 39.0036 515.917 39.0622 515.481 39.1714L125.674 138.14C125.311 138.232 124.989 138.358 124.727 138.511C124.464 138.663 124.266 138.84 124.143 139.03C123.896 139.413 123.971 139.829 124.353 140.185C124.735 140.542 125.392 140.81 126.18 140.93C126.968 141.051 127.822 141.014 128.554 140.828L518.333 41.8628C518.947 41.7056 519.435 41.4533 519.722 41.1458C520.008 40.8383 520.076 40.4932 519.914 40.1649C519.753 39.8365 519.371 39.5438 518.83 39.3328C518.288 39.1219 517.618 39.0048 516.924 39H516.889Z" fill="#CDCDCD"/>
<path d="M120.278 146.853C118.883 144.476 118.883 140.704 118.883 140.704C118.883 140.704 118.744 143.08 117.623 143.08C116.503 143.08 114.826 142.521 115.946 139.585C117.067 136.649 118.922 136.066 120.97 135.951C123.489 135.812 125.993 134.836 128.95 138.466C131.906 142.096 130.77 147.833 130.77 147.833L120.278 146.853Z" fill="#FFEAE2"/>
<path d="M130.638 174.104L133.857 146.853L116.356 143.766C116.356 143.766 110.339 168.236 109.222 176.341C108.106 184.446 112.862 191.294 120.699 192.135C128.536 192.976 137.362 182.629 140.581 176.341C143.8 170.053 149.121 160.409 149.121 160.409" fill="#A8DBF4"/>
<path d="M121.588 192.76C121.268 192.761 120.948 192.744 120.63 192.71C118.844 192.543 117.11 192.018 115.534 191.164C113.957 190.311 112.57 189.148 111.456 187.745C109.041 184.659 108.044 180.585 108.639 176.264C109.752 168.221 115.73 143.886 115.792 143.639C115.827 143.498 115.915 143.375 116.038 143.295C116.16 143.215 116.308 143.183 116.452 143.207L133.954 146.293C134.1 146.32 134.23 146.401 134.318 146.52C134.407 146.639 134.446 146.787 134.429 146.934L131.21 174.185C131.192 174.338 131.114 174.478 130.992 174.574C130.871 174.67 130.717 174.714 130.563 174.696C130.409 174.678 130.269 174.6 130.173 174.479C130.077 174.358 130.033 174.203 130.051 174.05L133.204 147.339L116.781 144.453C115.9 148.056 110.791 169.104 109.779 176.434C109.226 180.442 110.142 184.211 112.36 187.043C113.373 188.331 114.64 189.397 116.082 190.176C117.524 190.955 119.112 191.43 120.746 191.572C128.37 192.386 137.08 181.889 140.067 176.091C143.255 169.864 148.568 160.239 148.615 160.143C148.652 160.076 148.701 160.017 148.761 159.97C148.82 159.922 148.889 159.887 148.962 159.866C149.035 159.845 149.112 159.838 149.187 159.847C149.263 159.855 149.336 159.878 149.403 159.915C149.47 159.952 149.529 160.001 149.576 160.061C149.624 160.12 149.659 160.188 149.68 160.261C149.702 160.334 149.708 160.411 149.7 160.487C149.691 160.562 149.668 160.635 149.631 160.702C149.577 160.798 144.279 170.408 141.099 176.615C137.656 183.32 129.247 192.76 121.588 192.76Z" fill="#96CFEE"/>
<path d="M273.068 170.385C273.068 170.385 273.165 169.274 274.66 168.873C276.156 168.472 278.745 170.91 279.367 175.597C279.989 180.284 278.103 184.512 277.319 187.197C276.534 189.882 275.649 192.054 275.649 192.054L278.293 196.274L269.045 203.874L266.02 191.144" fill="#FFEAE2"/>
<path d="M269.061 204.46C268.998 204.46 268.935 204.449 268.875 204.43C268.781 204.399 268.696 204.344 268.628 204.271C268.56 204.199 268.512 204.11 268.489 204.013L265.463 191.282C265.427 191.133 265.452 190.976 265.533 190.845C265.613 190.714 265.743 190.62 265.892 190.584C266.042 190.548 266.2 190.573 266.331 190.654C266.462 190.734 266.556 190.863 266.592 191.012L269.405 202.829L277.539 196.143L275.167 192.355C275.117 192.277 275.088 192.189 275.08 192.098C275.072 192.007 275.085 191.915 275.12 191.83C275.12 191.807 276.005 189.651 276.77 187.027C276.917 186.53 277.099 185.974 277.296 185.388C278.138 182.845 279.294 179.362 278.803 175.666C278.37 172.418 276.971 170.439 275.901 169.733C275.751 169.611 275.577 169.521 275.392 169.467C275.206 169.413 275.011 169.397 274.819 169.421C273.779 169.702 273.659 170.366 273.659 170.439C273.641 170.59 273.564 170.728 273.444 170.822C273.325 170.917 273.173 170.961 273.022 170.944C272.872 170.93 272.734 170.857 272.638 170.741C272.542 170.626 272.495 170.477 272.508 170.327C272.508 170.265 272.662 168.807 274.525 168.306C274.877 168.232 275.24 168.235 275.59 168.314C275.941 168.394 276.269 168.549 276.554 168.769C277.883 169.652 279.475 171.886 279.958 175.512C280.488 179.474 279.282 183.104 278.413 185.754C278.219 186.329 278.026 186.873 277.899 187.351C277.269 189.512 276.585 191.317 276.318 191.981L278.807 195.954C278.886 196.075 278.918 196.221 278.895 196.364C278.872 196.507 278.796 196.636 278.683 196.726L269.44 204.322C269.334 204.412 269.2 204.461 269.061 204.46Z" fill="#577689"/>
<path d="M273.304 184.466C273.234 184.466 273.165 184.454 273.099 184.431C273.028 184.405 272.963 184.364 272.907 184.312C272.851 184.26 272.807 184.198 272.775 184.129C272.744 184.06 272.727 183.985 272.725 183.909C272.723 183.833 272.736 183.758 272.763 183.687C274.077 180.215 273.791 177.128 273.149 175.585C272.473 173.95 271.171 172.113 270.154 171.866C270.01 171.83 269.858 171.832 269.715 171.872C269.571 171.912 269.44 171.988 269.335 172.094C267.94 173.29 269.1 175.342 269.111 175.365C269.153 175.431 269.182 175.505 269.194 175.583C269.207 175.66 269.204 175.739 269.185 175.815C269.166 175.891 269.132 175.962 269.085 176.025C269.038 176.087 268.979 176.14 268.911 176.178C268.842 176.217 268.767 176.242 268.689 176.251C268.611 176.26 268.533 176.253 268.457 176.231C268.382 176.209 268.312 176.172 268.252 176.122C268.192 176.072 268.142 176.01 268.106 175.94C267.531 174.941 266.885 172.669 268.578 171.214C268.823 170.99 269.12 170.83 269.442 170.747C269.764 170.664 270.102 170.662 270.425 170.74C272.164 171.157 273.628 173.707 274.22 175.146C274.993 176.99 275.279 180.311 273.833 184.099C273.792 184.206 273.719 184.298 273.625 184.363C273.53 184.429 273.419 184.464 273.304 184.466Z" fill="#577689"/>
<path d="M270.232 184.898C270.232 184.898 271.391 181.997 271.175 179.682C270.958 177.368 269.702 173.552 267.334 174.926C264.965 176.299 266.7 178.698 266.483 180.442C266.267 182.186 265.61 184.863 262.7 188.929C259.791 192.995 261.004 196.498 263.601 198.118C266.197 199.739 268.149 203.415 268.149 203.415L274.39 198.064" fill="#FFEAE2"/>
<path d="M268.149 203.986H268.041C267.959 203.967 267.882 203.931 267.815 203.88C267.749 203.828 267.694 203.763 267.655 203.689C267.635 203.65 265.722 200.132 263.311 198.612C262.608 198.186 262.002 197.619 261.529 196.947C261.056 196.275 260.727 195.513 260.564 194.708C260.297 193.362 260.37 191.205 262.245 188.594C265.139 184.558 265.722 181.974 265.927 180.381C265.947 179.832 265.887 179.284 265.749 178.753C265.479 177.406 265.108 175.562 267.056 174.432C267.38 174.217 267.756 174.091 268.145 174.068C268.534 174.045 268.922 174.125 269.27 174.301C270.916 175.146 271.615 178.05 271.77 179.632C272.006 182.059 270.839 184.998 270.789 185.122C270.76 185.192 270.719 185.257 270.665 185.311C270.612 185.366 270.549 185.409 270.479 185.44C270.409 185.47 270.334 185.486 270.258 185.487C270.181 185.488 270.106 185.474 270.035 185.446C269.964 185.418 269.9 185.376 269.845 185.323C269.79 185.27 269.747 185.207 269.717 185.137C269.687 185.067 269.67 184.992 269.669 184.916C269.668 184.84 269.682 184.764 269.71 184.693C269.71 184.663 270.823 181.889 270.615 179.744C270.445 177.985 269.73 175.836 268.74 175.327C268.565 175.242 268.369 175.207 268.175 175.226C267.98 175.246 267.795 175.318 267.639 175.435C266.48 176.114 266.592 177.051 266.886 178.521C267.053 179.172 267.117 179.845 267.075 180.516C266.866 182.236 266.233 185.014 263.187 189.261C261.897 191.066 261.379 192.868 261.7 194.481C261.834 195.129 262.101 195.744 262.484 196.285C262.867 196.826 263.358 197.282 263.926 197.625C265.985 198.913 267.624 201.363 268.319 202.516L274.027 197.621C274.144 197.521 274.295 197.472 274.449 197.484C274.602 197.496 274.744 197.568 274.844 197.684C274.944 197.801 274.993 197.953 274.981 198.106C274.97 198.259 274.897 198.401 274.78 198.5L268.543 203.851C268.434 203.944 268.293 203.992 268.149 203.986Z" fill="#577689"/>
<path d="M282.327 194.7L279.63 191.73L266.051 202.84L269.834 207.423L282.327 194.7Z" fill="#E8C2CB"/>
<path d="M269.831 208.002H269.807C269.726 207.999 269.647 207.979 269.574 207.943C269.502 207.907 269.438 207.856 269.386 207.794L265.603 203.211C265.554 203.152 265.517 203.085 265.494 203.012C265.472 202.939 265.464 202.862 265.472 202.786C265.49 202.636 265.565 202.498 265.68 202.401L279.252 191.283C279.367 191.188 279.514 191.142 279.662 191.153C279.811 191.165 279.949 191.233 280.048 191.344L282.753 194.315C282.848 194.421 282.9 194.558 282.9 194.701C282.9 194.843 282.848 194.98 282.753 195.086L270.256 207.817C270.202 207.876 270.136 207.923 270.063 207.955C269.99 207.987 269.91 208.003 269.831 208.002ZM266.886 202.918L269.888 206.555L281.551 194.681L279.588 192.525L266.886 202.918Z" fill="#577689"/>
<path d="M323.934 188.887C321.434 188.833 314.467 191.383 310.089 199.264C307.299 204.205 303.944 208.806 300.092 212.975L281.957 193.088L266.438 206.316C266.438 206.316 281.771 226.762 288.75 232.317C295.729 237.873 302.484 239.022 309.691 234.79C316.897 230.558 326.037 219.768 326.037 219.768" fill="white"/>
<path d="M301.065 237.911C296.899 237.911 292.699 236.198 288.386 232.769C281.43 227.237 266.595 207.5 265.973 206.663C265.89 206.546 265.854 206.403 265.87 206.261C265.886 206.118 265.955 205.987 266.062 205.892L281.569 192.648C281.684 192.55 281.833 192.5 281.984 192.509C282.134 192.518 282.276 192.586 282.377 192.698L300.091 212.118C303.724 208.105 306.905 203.707 309.578 199.002C314.091 190.873 321.325 188.273 323.945 188.323C324.099 188.323 324.247 188.384 324.355 188.493C324.464 188.601 324.525 188.749 324.525 188.902C324.525 189.056 324.464 189.203 324.355 189.311C324.247 189.42 324.099 189.481 323.945 189.481H323.856C321.403 189.481 314.822 191.973 310.61 199.561C307.783 204.538 304.392 209.173 300.505 213.376C300.45 213.433 300.384 213.479 300.311 213.509C300.238 213.54 300.159 213.555 300.079 213.553C300 213.552 299.922 213.534 299.849 213.502C299.777 213.469 299.712 213.422 299.658 213.364L281.882 193.894L267.198 206.405C269.455 209.387 282.798 226.87 289.082 231.866C296.157 237.491 302.607 238.262 309.365 234.292C316.406 230.157 325.472 219.502 325.561 219.398C325.608 219.335 325.668 219.282 325.736 219.242C325.805 219.203 325.88 219.178 325.959 219.169C326.037 219.16 326.117 219.167 326.192 219.19C326.268 219.213 326.338 219.251 326.399 219.302C326.459 219.352 326.508 219.415 326.544 219.485C326.579 219.556 326.599 219.633 326.604 219.712C326.608 219.79 326.596 219.869 326.569 219.943C326.542 220.017 326.5 220.085 326.446 220.142C326.059 220.586 317.171 231.056 309.953 235.288C307.004 237.035 304.044 237.911 301.065 237.911Z" fill="#577689"/>
</g>
</svg>
