<svg width="495" height="356" viewBox="0 0 495 356" fill="none" xmlns="http://www.w3.org/2000/svg">
<path d="M239.052 356C61.5344 356 0.98344 230.531 0.98344 230.531L473.983 230.531C473.983 230.531 412.009 356 239.052 356Z" fill="#E3E3E3"/>
<g clip-path="url(#clip0_125_13013)">
<path d="M248.513 92.5859C248.465 92.351 248.333 92.1413 248.143 91.9953C247.953 91.8494 247.717 91.7771 247.477 91.7916L238.165 92.3809C238.165 92.3809 238.557 88.5744 237.905 87.3666C237.254 86.1588 232.706 82.7366 232.706 82.7366C232.559 82.6043 232.378 82.5172 232.182 82.4856C231.987 82.454 231.787 82.4794 231.606 82.5585C231.425 82.6377 231.271 82.7673 231.162 82.932C231.052 83.0966 230.993 83.2893 230.99 83.4869V83.8529H230.961C230.789 83.7572 230.589 83.7221 230.395 83.7533C230.201 83.7845 230.022 83.8802 229.889 84.0249C229.699 84.2382 229.589 84.5098 229.575 84.7947C229.561 85.0796 229.644 85.3607 229.812 85.5915L230.178 86.0819C228.308 87.4069 224.788 87.3373 222.472 87.3886C220.156 87.4398 216.724 93.3582 216.724 93.3582L206.168 109.744L214.218 117.127L221.126 99.4266L228.531 98.5592L237.313 95.6933L247.733 93.7718C247.863 93.7465 247.987 93.6956 248.096 93.622C248.206 93.5483 248.3 93.4535 248.373 93.343C248.445 93.2325 248.495 93.1086 248.519 92.9786C248.543 92.8486 248.541 92.7151 248.513 92.5859ZM231.824 92.6957L231.513 91.8466C231.352 91.4071 231.089 91.0122 230.745 90.6941C230.402 90.376 229.988 90.1438 229.538 90.0165C230.661 88.4573 232.607 88.7831 232.607 88.7831C232.607 88.7831 232.494 91.3451 232.454 92.3077C232.413 93.2703 231.824 92.6957 231.824 92.6957Z" fill="#FCDFD4"/>
<path d="M230.983 83.853C230.983 83.853 235.184 86.9641 235.645 87.9487C236.106 88.9332 235.802 92.8166 235.802 92.8166" stroke="#EEA892" stroke-linecap="round" stroke-linejoin="round"/>
<path d="M230.146 86.0747L232.626 88.344L232.436 92.6775" stroke="#EEA892" stroke-linecap="round" stroke-linejoin="round"/>
<path d="M229.537 90.013L225.794 89.7238C225.65 89.7122 225.504 89.7331 225.369 89.785C225.233 89.8369 225.111 89.9185 225.011 90.0237C224.911 90.129 224.836 90.2553 224.791 90.3934C224.746 90.5315 224.733 90.6779 224.752 90.8219C224.769 90.9807 224.826 91.1327 224.916 91.2643C225.007 91.3959 225.129 91.5029 225.271 91.5758C226.255 92.0923 227.351 92.3552 228.462 92.3408C228.711 92.4738 228.917 92.6762 229.054 92.9237C229.191 93.1712 229.254 93.4531 229.234 93.7353" stroke="#EEA892" stroke-linecap="round" stroke-linejoin="round"/>
<path d="M229.117 93.0361C229.117 93.0361 227.796 94.9687 226.321 94.6832C224.847 94.3977 222.999 93.2191 221.759 93.479C220.518 93.7389 218.056 96.3302 218.056 96.3302" stroke="#EEA892" stroke-linecap="round" stroke-linejoin="round"/>
<path d="M177.127 81.1006L197.427 118.858L208.645 101.22L221.934 107.395L208.795 136.624C207.957 138.489 206.639 140.098 204.977 141.288C203.315 142.478 201.368 143.206 199.333 143.399C197.513 143.571 195.679 143.309 193.98 142.634C192.282 141.96 190.767 140.892 189.56 139.519L174.99 122.957L177.127 81.1006Z" fill="#8C7BEF"/>
<path d="M184.314 34.7308C184.314 34.7308 192.506 44.0823 184.906 56.6694C179.268 66.0099 176.992 68.0925 180.969 73.3118C180.969 73.3118 171.372 74.8381 166.377 69.154C166.377 69.154 153.937 69.6737 145.394 65.1645C145.394 65.1645 148.862 61.1384 147.421 57.1928C144.42 48.9649 145.807 40.6492 151.054 33.5779C157.603 24.7571 175.02 24.3179 184.314 34.7308Z" fill="#3F362E"/>
<path d="M165.517 26.4262C161.079 26.7154 154.65 28.1538 151.039 33.578C151.039 33.578 144.768 44.4485 149.323 52.8923C153.878 61.3362 161.313 61.4789 161.313 61.4789C161.313 61.4789 176.527 58.5508 184.73 44.6791C187.445 40.0967 184.895 25.1599 165.517 26.4262Z" fill="#3F362E"/>
<path d="M184.028 44.5105C184.028 44.5105 185.612 38.7239 178.88 37.1318C172.147 35.5397 163.823 48.6611 163.823 48.6611C163.823 48.6611 162.334 44.3641 159.198 46.1393C156.615 47.6033 155.495 52.6725 158.437 55.2126C158.044 55.2474 157.667 55.3898 157.349 55.6241C157.031 55.8584 156.783 56.1757 156.633 56.5413L150.947 74.8417L167.852 77.7698L171.251 66.1453L172.879 66.5406C181.155 68.0998 183.007 59.5315 183.347 51.3403C183.403 49.0499 183.631 46.7669 184.028 44.5105Z" fill="#F7DACF"/>
<path d="M162.426 49.6201C162.426 49.6201 161.716 47.457 160.253 48.006C158.057 48.8222 158.624 51.9735 158.624 51.9735" stroke="#E9665C" stroke-linecap="round" stroke-linejoin="round"/>
<path d="M174.475 52.3868C174.95 52.373 175.309 51.4723 175.277 50.3752C175.245 49.278 174.834 48.3998 174.36 48.4137C173.885 48.4275 173.526 49.3281 173.558 50.4253C173.59 51.5225 174.001 52.4007 174.475 52.3868Z" fill="#3F362E"/>
<path d="M181.123 50.5864C181.152 51.5893 180.856 52.4165 180.461 52.4165C180.065 52.4165 179.729 51.6259 179.696 50.623C179.663 49.6201 179.959 48.793 180.354 48.793C180.75 48.793 181.094 49.5835 181.123 50.5864Z" fill="#3F362E"/>
<path d="M177.815 51.5125C177.793 51.6808 178.741 53.6463 177.994 54.9163" stroke="#E9665C" stroke-linecap="round" stroke-linejoin="round"/>
<path d="M165.36 63.8982C164.493 63.3675 162.364 76.3425 165.075 76.5584C167.786 76.7744 171.233 66.1528 171.233 66.1528C169.171 65.7078 167.19 64.9473 165.36 63.8982Z" fill="#FFBEB3"/>
<path d="M169.598 59.1203C171.52 58.9544 172.944 57.2608 172.779 55.3375C172.613 53.4142 170.92 51.9895 168.997 52.1554C167.074 52.3213 165.65 54.015 165.816 55.9383C165.982 57.8616 167.675 59.2862 169.598 59.1203Z" fill="url(#paint0_radial_125_13013)"/>
<path d="M180.154 57.0025L173.9 56.75C173.9 56.75 177.04 61.1677 180.154 57.0025Z" fill="#E9665C"/>
<path d="M160.377 39.2694L174.04 31.5283C174.04 31.5283 182.543 32.3152 185.554 39.339C187.801 44.5729 183.575 47.8999 183.575 47.8999C183.516 42.1023 179.261 37.9408 179.261 37.9408C178.416 38.8302 177.589 39.6427 176.784 40.3967C175.039 42.6916 171.731 46.5493 167.366 49.4408C161.285 53.4669 160.82 66.0503 163.37 70.08C163.37 70.08 156.338 69.0699 153.154 68.1256C150.543 67.3432 147.994 66.3644 145.529 65.1975L160.377 39.2694Z" fill="#3F362E"/>
<path d="M179.798 37.6845C179.798 37.6845 177.936 47.6033 169.085 48.0718C169.085 48.0718 173.629 47.3984 178.452 37.571L179.798 37.6845Z" fill="#3F362E"/>
<path d="M179.261 37.9407C179.261 37.9407 181.5 36.9524 183.311 39.4669C185.122 41.9814 183.586 49.1113 183.586 49.1113C183.586 49.1113 184.167 42.6146 179.261 37.9407Z" fill="#352D27"/>
<path d="M179.089 83.9518L178.997 83.7908C176.952 80.2233 174.076 77.2024 170.614 74.9846L170.721 72.73L163.999 72.0383L150.955 67.9243C150.955 67.9243 149.385 70.5632 149.177 70.5925C139.206 72.02 136.89 76.8147 136.89 76.8147L135.061 119.272L134.644 161.527L179.261 160.104L181.921 120.824C181.921 120.824 183.3 110.919 184.723 105.755C186.147 100.591 182.118 89.2956 179.089 83.9518Z" fill="#9A84F7"/>
<path opacity="0.22" d="M151.651 107.124L153.937 119.327L160.952 128.023L147.593 121.94L151.651 107.124Z" fill="#867ACC"/>
<path opacity="0.22" d="M135.108 137.74L134.933 148.424L163.019 147.341L135.108 137.74Z" fill="#867ACC"/>
<path d="M166.593 135.266L172.276 137.667L180.325 135.943H186.615C186.922 135.944 187.224 136.024 187.492 136.176C187.759 136.328 187.983 136.546 188.141 136.81C188.299 137.073 188.386 137.374 188.393 137.681C188.401 137.988 188.329 138.293 188.185 138.564C188.033 138.848 187.807 139.086 187.53 139.252C187.254 139.417 186.937 139.505 186.615 139.505H184.123L187.859 142.594C188.348 142.997 188.684 143.555 188.811 144.176C188.938 144.797 188.849 145.442 188.558 146.005L186.535 149.94C185.749 151.469 184.396 152.63 182.766 153.175L182.122 153.387C181.126 153.719 180.066 153.807 179.029 153.645C177.992 153.484 177.009 153.076 176.161 152.458L169.173 147.334L162.543 142.711L166.593 135.266Z" fill="#FFDDCF"/>
<path d="M154.413 77.3818C155.538 78.7547 156.323 80.3738 156.705 82.1076C157.086 83.8413 157.053 85.6407 156.608 87.3592L147.607 121.936L169.473 131.668L163.018 147.341L134.398 137.459C130.319 136.05 126.946 133.114 124.988 129.267C123.083 125.523 122.662 121.197 123.809 117.156L133.864 81.6934C134.406 79.7861 135.441 78.0555 136.866 76.6764C138.29 75.2973 140.053 74.3185 141.976 73.8389L142.949 73.5937C145.022 73.0734 147.201 73.1533 149.23 73.824C151.26 74.4947 153.057 75.7286 154.413 77.3818Z" fill="#9A84F7"/>
<path d="M124.987 129.256C126.945 133.103 130.319 136.04 134.398 137.448L163.018 147.33L169.473 131.668L147.592 121.922L152.784 101.978" stroke="#6D5FC4" stroke-miterlimit="10" stroke-linecap="round"/>
<path d="M163.593 131.632L158.865 143.428" stroke="#6D5FC4" stroke-miterlimit="10" stroke-linecap="round"/>
<path d="M164.764 132.294L167.153 133.158" stroke="#6D5FC4" stroke-miterlimit="10" stroke-linecap="round"/>
<path d="M163.9 134.479L166.286 135.343" stroke="#6D5FC4" stroke-miterlimit="10" stroke-linecap="round"/>
<path d="M163.084 136.716L165.473 137.583" stroke="#6D5FC4" stroke-miterlimit="10" stroke-linecap="round"/>
<path d="M162.17 139.054L164.559 139.922" stroke="#6D5FC4" stroke-miterlimit="10" stroke-linecap="round"/>
<path d="M161.152 141.701L163.542 142.564" stroke="#6D5FC4" stroke-miterlimit="10" stroke-linecap="round"/>
<path d="M160.139 144.343L162.524 145.207" stroke="#6D5FC4" stroke-miterlimit="10" stroke-linecap="round"/>
<path d="M143.184 120.092L147.593 121.94" stroke="#6D5FC4" stroke-miterlimit="10" stroke-linecap="round"/>
<path d="M173.304 35.4299C170.114 40.7163 166.213 45.54 161.713 49.7665C156.371 54.7845 158.815 66.2369 158.815 66.2369" stroke="#352D27" stroke-miterlimit="10"/>
<path d="M163.238 38.4788C163.238 38.4788 163.519 44.1043 160.252 47.995" stroke="#352D27" stroke-miterlimit="10"/>
<path d="M156.985 52.0579C156.985 52.0579 152.715 59.0743 155.002 64.8682" stroke="#352D27" stroke-miterlimit="10"/>
<path d="M152.869 73.1069C152.869 73.1069 157.9 77.3783 163.542 77.2245" stroke="#6D5FC4" stroke-miterlimit="10"/>
<path d="M170.71 76.1558C170.71 76.1558 168.88 79.5121 163.999 79.5121" stroke="#6D5FC4" stroke-miterlimit="10"/>
<path d="M207.146 107.581L217.336 112.698" stroke="#6D5FC4" stroke-miterlimit="10" stroke-linecap="round"/>
<path d="M207.822 106.586L208.777 104.514" stroke="#6D5FC4" stroke-miterlimit="10" stroke-linecap="round"/>
<path d="M209.714 107.523L210.665 105.451" stroke="#6D5FC4" stroke-miterlimit="10" stroke-linecap="round"/>
<path d="M211.653 108.42L212.605 106.348" stroke="#6D5FC4" stroke-miterlimit="10" stroke-linecap="round"/>
<path d="M213.673 109.415L214.628 107.344" stroke="#6D5FC4" stroke-miterlimit="10" stroke-linecap="round"/>
<path d="M215.96 110.524L216.915 108.449" stroke="#6D5FC4" stroke-miterlimit="10" stroke-linecap="round"/>
<path d="M218.246 111.629L219.201 109.558" stroke="#6D5FC4" stroke-miterlimit="10" stroke-linecap="round"/>
<path d="M208.646 101.224L195.21 122.481" stroke="#6D5FC4" stroke-miterlimit="10" stroke-linecap="round"/>
<path d="M442.806 179.509L437.61 230.531L489.093 230.377C489.093 230.377 494.573 220.199 493.515 198.472C493.105 190.105 488.352 177.811 488.352 177.811L442.806 179.509Z" fill="white"/>
<path d="M302.168 136.353L294.875 143.095L292.38 157.703L305.109 164.569L310.854 162.322L322.994 170.901L358.917 185.08L351.504 130.325L316.181 135.661L302.168 136.353Z" fill="#1E1E1E"/>
<path d="M19.7129 162.223L18.3774 173.898C17.5381 181.255 17.9725 188.701 19.6617 195.91L22.9291 209.873L76.1884 189.805L75.4749 170.33L19.7129 162.223Z" fill="#333333"/>
<path d="M235.97 144.091C413.446 144.091 473.983 230.549 473.983 230.549H1.09277C1.09277 230.549 63.053 144.091 235.97 144.091Z" fill="#E3E3E3"/>
<path opacity="0.62" d="M339.386 196.847L338.632 197.462C338.507 197.565 338.409 197.699 338.35 197.85C338.29 198.002 338.27 198.166 338.292 198.327C338.313 198.489 338.376 198.642 338.473 198.772C338.571 198.903 338.7 199.006 338.848 199.072L347.033 202.711C347.176 202.775 347.333 202.803 347.489 202.792C347.646 202.781 347.797 202.732 347.93 202.648L349.814 201.459C349.946 201.376 350.097 201.326 350.252 201.315C350.408 201.303 350.564 201.33 350.707 201.393L358.391 204.779C358.52 204.838 358.635 204.925 358.726 205.034C358.818 205.144 358.883 205.272 358.918 205.41C358.953 205.548 358.957 205.692 358.929 205.832C358.901 205.972 358.842 206.103 358.756 206.217C358.667 206.333 358.606 206.469 358.578 206.613C358.55 206.757 358.555 206.905 358.593 207.047C358.631 207.188 358.701 207.319 358.798 207.429C358.895 207.539 359.016 207.625 359.152 207.681L400.713 225.33C400.847 225.387 400.992 225.413 401.137 225.405C401.283 225.398 401.424 225.357 401.551 225.286L434.668 206.784C434.837 206.691 434.973 206.549 435.059 206.376C435.145 206.204 435.177 206.009 435.15 205.818C435.123 205.627 435.038 205.449 434.908 205.307C434.778 205.166 434.607 205.067 434.419 205.024L415.865 200.719C415.811 200.706 415.756 200.697 415.7 200.694L340.008 196.668C339.786 196.652 339.566 196.716 339.386 196.847Z" fill="#8863CE"/>
<path d="M435.411 199.984L408.21 188.451L369.598 210.32L396.802 221.857C399.385 222.955 403.209 222.863 405.338 221.655L436.238 204.138C438.367 202.949 437.998 201.082 435.411 199.984Z" fill="#FFFBCB"/>
<path d="M360.878 206.089L362.459 205.196C362.62 205.104 362.591 204.962 362.393 204.877L350.286 199.753C350.182 199.71 350.071 199.687 349.958 199.687C349.846 199.687 349.734 199.71 349.631 199.753L348.054 200.646C347.866 200.731 347.664 200.777 347.459 200.782C347.253 200.787 347.049 200.751 346.857 200.676L339.214 197.433C338.387 197.067 338.27 196.488 338.95 196.101L375.093 175.626C375.521 175.433 375.983 175.328 376.452 175.317C376.921 175.307 377.387 175.391 377.823 175.564L408.21 188.447L369.598 210.316L360.995 206.656C360.633 206.521 360.582 206.257 360.878 206.089Z" fill="#FFF6B8"/>
<path d="M424.587 196.558L408.466 189.725L372.931 209.855L401.891 222.131L426.856 207.992C432.696 204.683 431.678 199.567 424.587 196.558Z" fill="#F2EDC2"/>
<path d="M433.834 202.392L433.519 200.617L408.533 190.021L372.88 210.217L401.167 222.212L433.216 204.058L433.834 202.392Z" fill="white"/>
<path d="M433.021 204.167C433.021 204.167 434.185 202.81 431.514 201.605C431.514 201.605 433.53 201.119 433.457 200.581C433.457 200.592 435.78 202.37 433.021 204.167Z" fill="#E6E6E7"/>
<path d="M407.822 188.671L369.985 210.104" stroke="#EDE6A9" stroke-miterlimit="10"/>
<path d="M394.665 218.559L381.186 212.845L379.386 213.867L392.865 219.58L394.665 218.559Z" fill="#DBEEFC"/>
<path d="M394.508 218.156L382.027 212.864C381.885 212.804 381.732 212.773 381.577 212.773C381.422 212.773 381.269 212.804 381.127 212.864L394.595 218.574C394.819 218.467 394.778 218.27 394.508 218.156Z" fill="#D9DADB"/>
<path d="M393.992 218.595L381.215 213.175L379.993 213.87L392.77 219.287L393.992 218.595Z" stroke="white" stroke-miterlimit="10"/>
<path d="M381.742 213.973C381.884 213.892 381.859 213.768 381.687 213.695C381.596 213.656 381.499 213.637 381.401 213.637C381.303 213.637 381.206 213.656 381.116 213.695C380.973 213.775 380.999 213.9 381.171 213.973C381.261 214.011 381.358 214.031 381.456 214.031C381.554 214.031 381.651 214.011 381.742 213.973Z" fill="#D9DADB"/>
<path d="M392.956 218.727C393.095 218.647 393.074 218.522 392.898 218.449C392.808 218.411 392.712 218.392 392.614 218.392C392.517 218.392 392.421 218.411 392.331 218.449C392.188 218.53 392.214 218.654 392.386 218.727C392.476 218.765 392.573 218.785 392.671 218.785C392.769 218.785 392.866 218.765 392.956 218.727Z" fill="#D9DADB"/>
<path d="M403.794 219.199L394.877 215.419C394.749 215.368 394.612 215.344 394.474 215.348C394.337 215.352 394.201 215.383 394.076 215.44C393.878 215.55 393.911 215.726 394.153 215.828L403.07 219.609C403.196 219.663 403.333 219.691 403.47 219.691C403.608 219.691 403.744 219.663 403.871 219.609C404.069 219.478 404.036 219.302 403.794 219.199Z" fill="#FFF6B8"/>
<path d="M429.696 204.76L420.212 200.738L395.097 214.965L404.584 218.987L429.696 204.76Z" fill="#FFFBCB"/>
<path d="M408.829 195.914L404.237 193.967L379.067 208.223L383.659 210.17L408.829 195.914Z" fill="#FFFCDE"/>
<path d="M414.131 198.161L409.539 196.214L384.369 210.47L388.961 212.417L414.131 198.161Z" fill="#FFFCDE"/>
<path d="M419.433 200.408L414.841 198.461L389.671 212.717L394.263 214.665L419.433 200.408Z" fill="#FFFCDE"/>
<path opacity="0.64" d="M51.3587 204.749L46.6826 208.003L54.0004 209.833L43.8359 222.644L50.3415 223.05C50.3415 223.05 53.5943 231.713 62.1342 229.356C68.0324 227.727 71.2815 222.644 71.2815 222.644L74.1282 222.848C74.1282 222.848 76.3638 224.679 79.2104 224.679C82.0571 224.679 83.8865 222.032 83.8865 222.032L96.6928 222.237L102.997 215.525L112.964 212.274L110.121 205.767L112.719 202.001L94.4645 200.072L51.3587 204.749Z" fill="#8863CE"/>
<path d="M87.5169 213.83L112.72 202.001C112.815 201.956 112.894 201.883 112.945 201.79C112.996 201.698 113.017 201.592 113.004 201.488C112.991 201.383 112.945 201.285 112.873 201.208C112.801 201.132 112.706 201.08 112.603 201.06L72.4348 193.469C72.3319 193.451 72.2259 193.465 72.1311 193.509L46.9248 205.339C46.8292 205.383 46.7502 205.457 46.6994 205.55C46.6485 205.642 46.6283 205.748 46.6417 205.853C46.6552 205.958 46.7015 206.055 46.7741 206.132C46.8467 206.209 46.9418 206.26 47.0455 206.279L87.2132 213.867C87.3158 213.888 87.4223 213.875 87.5169 213.83Z" fill="#EAE4D3"/>
<path d="M81.0472 219.931L115.375 210.32C115.456 210.297 115.528 210.25 115.581 210.184C115.634 210.119 115.666 210.039 115.672 209.955C115.678 209.871 115.658 209.787 115.615 209.715C115.571 209.643 115.507 209.586 115.43 209.551L88.2004 197.316C88.1111 197.279 88.012 197.272 87.9187 197.297L53.5906 206.909C53.5097 206.932 53.4378 206.979 53.3848 207.045C53.3317 207.11 53.3 207.19 53.294 207.274C53.288 207.358 53.308 207.442 53.3512 207.514C53.3945 207.586 53.4589 207.643 53.5357 207.677L80.7655 219.913C80.8547 219.95 80.9539 219.957 81.0472 219.931Z" fill="#F2ECDD"/>
<path d="M95.7268 220.561L106.777 207.996C106.862 207.898 106.918 207.777 106.938 207.648C106.958 207.52 106.94 207.388 106.887 207.269C106.835 207.15 106.749 207.048 106.641 206.976C106.532 206.904 106.406 206.864 106.275 206.861L55.8847 206.001C55.786 205.999 55.688 206.019 55.5976 206.058C55.5072 206.098 55.4266 206.157 55.3615 206.232L44.3115 218.797C44.2259 218.895 44.1699 219.015 44.1504 219.144C44.1308 219.273 44.1483 219.405 44.201 219.524C44.2536 219.643 44.3391 219.745 44.4475 219.817C44.5559 219.889 44.6826 219.929 44.8128 219.931L95.1889 220.792C95.2901 220.796 95.391 220.777 95.484 220.737C95.5771 220.697 95.6601 220.637 95.7268 220.561Z" fill="#F7F3E8"/>
<path d="M115.35 169.517C115.35 169.517 119.089 178.58 119.44 180.029C119.674 180.988 120.059 184.52 122.514 187.671C123.246 188.619 124.826 189.867 125.628 190.749C126.692 191.939 128.207 193.74 129.001 195.142C129.157 195.42 129.409 195.633 129.71 195.739C130.011 195.846 130.34 195.839 130.637 195.72C130.947 195.595 131.199 195.356 131.338 195.052C131.478 194.747 131.495 194.401 131.387 194.084C130.889 192.62 129.854 190.157 128.134 188.396C128.134 188.396 129.671 187.532 133.256 188.762C136.099 189.739 142.404 190.859 145.027 191.277C145.308 191.322 145.596 191.266 145.84 191.12C146.084 190.973 146.268 190.744 146.359 190.475C146.411 190.324 146.433 190.163 146.422 190.004C146.412 189.844 146.37 189.688 146.299 189.544C146.228 189.401 146.129 189.273 146.008 189.169C145.887 189.064 145.746 188.984 145.594 188.934L136.601 186.372L147.53 187.734C147.882 187.796 148.244 187.721 148.544 187.525C148.843 187.33 149.056 187.027 149.14 186.679C149.187 186.487 149.192 186.286 149.157 186.091C149.121 185.897 149.044 185.711 148.932 185.548C148.82 185.384 148.675 185.247 148.505 185.143C148.336 185.04 148.147 184.973 147.951 184.948L146.571 184.773L147.552 184.809C147.818 184.807 148.077 184.725 148.296 184.574C148.515 184.424 148.684 184.211 148.781 183.964L148.843 183.784C148.9 183.63 148.92 183.465 148.904 183.301C148.888 183.137 148.835 182.979 148.75 182.839C148.665 182.698 148.549 182.579 148.411 182.489C148.273 182.399 148.117 182.342 147.954 182.32L138.353 180.809L144.771 181.105C144.97 181.114 145.166 181.052 145.323 180.93C145.48 180.808 145.59 180.634 145.631 180.439C145.654 180.328 145.655 180.213 145.632 180.102C145.61 179.991 145.565 179.885 145.501 179.792C145.437 179.699 145.354 179.619 145.258 179.559C145.162 179.498 145.055 179.458 144.943 179.44L134.789 177.818L130.966 177.518C130.485 177.481 130.024 177.316 129.629 177.039C129.234 176.763 128.92 176.387 128.719 175.948C127.677 173.657 127.622 169.726 126.001 165.451" fill="#FFDDCF"/>
<path d="M137.955 183.744L146.572 184.795" stroke="#EEA892" stroke-miterlimit="10"/>
<path d="M135.525 180.527L144.139 181.577" stroke="#EEA892" stroke-miterlimit="10"/>
<path d="M136.722 186.507L141.577 187.774" stroke="#EEA892" stroke-miterlimit="10"/>
<path d="M100.524 95.0967C95.6263 89.5134 89.1975 85.4916 82.0354 83.5305C74.8732 81.5694 67.293 81.7553 60.2355 84.0652L52.7237 86.5211C48.482 87.909 44.6058 90.2317 41.381 93.3179C37.2936 97.2336 34.4061 102.233 33.057 107.731L19.7129 162.223C19.7129 162.223 26.8002 173.997 43.2105 175.992C59.6208 177.987 75.6432 174.25 75.6432 174.25L77.6227 150.115L90.2533 130.936L100.407 151.067L118.669 184.341L134.102 176.504L118.434 140.636L106.642 105.038C105.18 101.401 103.111 98.04 100.524 95.0967Z" fill="white"/>
<path d="M42.0071 92.681C42.0071 92.681 52.0984 85.9757 59.2882 95.3273C63.3569 100.616 63.3862 111.117 62.1349 117.288C60.0163 127.752 47.8248 133.692 38.7543 128.067C28.5093 121.724 35.7028 100.203 35.7028 100.203C35.7028 100.203 33.3574 107.197 33.6721 105.29C33.6721 105.29 20.7744 129.985 17.6533 153.665C17.3791 155.716 17.561 157.802 18.1859 159.774C18.8108 161.746 19.8633 163.556 21.2683 165.074C25.6334 169.777 33.7087 175.824 46.8808 176.676C68.8453 178.104 75.6436 174.125 75.6436 174.125L80.2173 150.43L90.3964 132.766C90.3964 132.766 104.428 110.378 100.524 95.0967C100.524 95.0967 95.8994 87.8863 87.3522 85.5622C87.3522 85.5622 90.605 86.4808 87.7583 95.1223C87.0265 97.3696 85.5227 98.9874 82.3687 99.2912C75.1497 99.9902 72.5079 96.5461 72.5079 96.5461L60.2505 84.0652C60.2505 84.0652 46.2771 87.3812 42.0071 92.681Z" fill="#EADDCF"/>
<path d="M54.8164 88.311C54.8164 88.311 61.1171 90.5473 63.7625 96.0375C66.4079 101.528 66.5067 110.48 64.2711 119.023" stroke="#DDCEC0" stroke-miterlimit="10"/>
<path d="M79.9277 102.04C81.4034 102.255 82.9096 102.079 84.2965 101.531" stroke="#DDCEC0" stroke-miterlimit="10"/>
<path d="M31.6377 123.799C31.6377 123.799 32.9586 130.003 37.8579 130.614" stroke="#DDCEC0" stroke-miterlimit="10"/>
<path d="M22.0801 158.387C22.0801 158.387 26.9611 168.965 47.9011 172.013" stroke="#DDCEC0" stroke-miterlimit="10"/>
<path d="M83.8174 46.6958C83.8174 46.6958 94.8308 43.0357 100.367 50.4766C105.679 57.6065 103.162 61.0689 96.4407 69.6079L87.4434 63.0783L83.8174 46.6958Z" fill="#35302F"/>
<path d="M65.6906 75.8996C65.6906 75.8996 58.6618 64.9194 64.5234 52.2847C66.4993 48.0207 69.7338 43.453 85.3354 44.5986C96.6196 45.4367 99.7114 55.3336 99.5687 64.9121C99.9968 66.6726 101.801 70.684 100.816 71.9358C100.165 72.7703 98.6686 73.3778 98.6686 73.3778C97.7794 77.9786 96.4037 81.5655 95.2877 82.8428C91.6507 87.0117 86.3526 85.2329 86.3526 85.2329L82.207 96.9781L70.085 95.8801L60.6084 87.7474L65.6906 75.8996Z" fill="#FCDFD4"/>
<path d="M95.3171 66.3944C95.2915 67.3644 95.5586 68.1586 95.9172 68.1659C96.2758 68.1732 96.5868 67.3973 96.6124 66.4274C96.638 65.4574 96.3709 64.6669 96.0123 64.6559C95.6538 64.6449 95.3427 65.4208 95.3171 66.3944Z" fill="#3F362E" stroke="#3F362E" stroke-miterlimit="10"/>
<path d="M74.9111 78.7471C75.2331 78.9081 78.5701 82.7732 86.3599 85.2437L82.2143 96.989L74.9111 78.7471Z" fill="#FFC3B8"/>
<path d="M94.0114 73.4729C93.4406 74.1573 95.3981 75.7934 96.4738 75.5042" stroke="#E9665C" stroke-linecap="round" stroke-linejoin="round"/>
<path d="M92.3427 45.8503C92.3427 45.8503 102.313 48.4966 100.392 55.4434C98.4861 62.3025 81.5342 65.9113 81.0842 66.0065C80.1768 65.0073 77.9997 63.0784 75.5336 64.2496L75.4385 64.2203L92.3427 45.8503Z" fill="#443F3E"/>
<path d="M62.358 56.534C66.4231 42.1572 80.4843 40.9164 86.763 42.7611C93.0417 44.6058 94.4468 48.1671 94.4468 48.1671C94.4468 48.1671 84.9665 56.5853 80.2501 63.953C78.7028 66.3701 76.6676 68.437 74.2751 70.0214C74.0775 71.943 74.3959 73.0996 74.4434 75.2627L65.6876 75.8995C65.6876 75.8995 63.1044 71.7527 62.519 68.6892C62.4787 68.5537 62.4641 68.4769 62.4641 68.4769L61.8092 69.8384C60.6785 67.7449 60.8688 63.6163 60.8688 63.6163L58.249 64.6594C60.5102 63.1734 62.358 56.534 62.358 56.534Z" fill="#443F3E"/>
<path d="M82.6463 65.7868C82.6463 65.7868 78.7898 60.9811 75.3284 64.9377C72.1744 68.5392 75.2333 72.4445 76.9749 72.8801" fill="#FCDFD4"/>
<path d="M80.0816 66.321C80.0816 66.321 78.2192 64.7179 76.8325 65.955C76.0678 66.6285 75.3213 68.5171 76.4263 69.7396" stroke="#E9665C" stroke-linecap="round" stroke-linejoin="round"/>
<path d="M88.4756 63.2431C88.4756 63.2431 83.3275 67.6828 83.6934 71.5735C83.6934 71.5735 80.0967 68.9675 80.9016 64.5864C81.7066 60.2052 88.4756 63.2431 88.4756 63.2431Z" fill="#443F3E"/>
<path opacity="0.37" d="M37.4805 129.963L39.3795 166.531L51.9625 176.047C51.9625 176.047 47.6889 169.397 43.1811 154.434C38.322 138.257 37.4805 129.963 37.4805 129.963Z" fill="#D8D8D8"/>
<path d="M78.0761 188.261C78.0761 188.261 79.8104 199.442 80.33 201.071C80.6739 202.169 82.4083 205.869 81.8741 210.448C81.7131 211.828 80.8971 213.987 80.6447 215.353C80.3044 217.183 79.8836 219.847 79.9458 221.71C79.9595 222.079 79.8379 222.44 79.604 222.725C79.3702 223.01 79.0402 223.2 78.6762 223.258C78.2951 223.321 77.9047 223.235 77.5849 223.019C77.2651 222.802 77.0402 222.472 76.9565 222.094C76.5906 220.367 76.1222 217.303 76.7626 214.536C76.7626 214.536 74.7282 214.602 71.9291 217.966C69.7082 220.63 64.1576 225.517 61.8195 227.482C61.5681 227.694 61.25 227.81 60.9212 227.81C60.5925 227.81 60.2744 227.694 60.023 227.482C59.8811 227.364 59.7642 227.218 59.6789 227.054C59.5936 226.891 59.5416 226.711 59.5259 226.527C59.5103 226.343 59.5313 226.158 59.5877 225.982C59.6441 225.806 59.7349 225.643 59.8547 225.502L67.2054 217.607L57.2385 225.531C56.9278 225.803 56.5254 225.946 56.1129 225.932C55.7003 225.918 55.3087 225.747 55.0176 225.454C54.8561 225.292 54.7306 225.098 54.6494 224.884C54.5681 224.671 54.5329 224.442 54.546 224.214C54.5591 223.985 54.6203 223.762 54.7255 223.559C54.8308 223.356 54.9776 223.178 55.1566 223.035L56.4116 222.036L55.4676 222.654C55.2035 222.812 54.8984 222.887 54.5914 222.87C54.2844 222.853 53.9894 222.745 53.7443 222.559L53.576 222.42C53.4241 222.303 53.3011 222.152 53.2165 221.98C53.1319 221.808 53.0879 221.618 53.0879 221.427C53.0879 221.235 53.1319 221.045 53.2165 220.873C53.3011 220.701 53.4241 220.55 53.576 220.433L62.1488 213.189L55.9835 217.314C55.7932 217.443 55.5633 217.499 55.3351 217.473C55.107 217.447 54.8957 217.34 54.7395 217.172C54.6499 217.076 54.5807 216.963 54.5361 216.84C54.4915 216.717 54.4724 216.586 54.4799 216.455C54.4874 216.325 54.5215 216.197 54.5799 216.079C54.6384 215.962 54.7201 215.858 54.82 215.773L63.8685 208.087L67.4616 205.5C67.9136 205.176 68.2705 204.737 68.4951 204.228C68.7197 203.72 68.8038 203.16 68.7385 202.608C68.3946 199.72 66.1114 195.804 65.1382 190.618" fill="#FFDDCF"/>
<path d="M64.2825 215.839L56.4121 222.036" stroke="#EEA892" stroke-miterlimit="10"/>
<path d="M64.758 211.206L56.8877 217.406" stroke="#EEA892" stroke-miterlimit="10"/>
<path d="M67.1549 217.827L63.1191 221.981" stroke="#EEA892" stroke-miterlimit="10"/>
<path d="M35.0947 115.667L48.1059 108.346L61.3219 104.686L68.3434 152.531L83.2974 200.738L67.1798 204.969L47.6888 167.482C47.6888 167.482 40.4916 147.495 39.8769 140.917L35.0947 115.667Z" fill="white"/>
<path d="M61.7285 107.329L68.106 152.048L83.0601 200.493" stroke="#D8D8D8" stroke-miterlimit="10"/>
<path d="M67.1804 204.958L47.6893 167.482C47.6893 167.482 40.4922 147.495 39.8775 140.917L36.5332 123.074" stroke="#D8D8D8" stroke-miterlimit="10"/>
<path opacity="0.71" d="M169.371 148.995C169.226 149.053 169.099 149.149 169.006 149.274C168.913 149.399 168.855 149.548 168.841 149.703C168.827 149.858 168.856 150.014 168.924 150.154C168.993 150.294 169.1 150.413 169.232 150.496L172.81 152.739C172.935 152.821 173.036 152.935 173.102 153.069C173.169 153.202 173.199 153.351 173.188 153.5C173.178 153.649 173.129 153.793 173.045 153.917C172.961 154.04 172.846 154.139 172.711 154.203L167.164 156.718C167.01 156.788 166.88 156.902 166.792 157.047C166.703 157.192 166.661 157.359 166.669 157.529C166.678 157.698 166.738 157.861 166.84 157.996C166.943 158.13 167.084 158.231 167.245 158.284L173.787 160.499C173.935 160.548 174.066 160.638 174.166 160.758C174.266 160.878 174.33 161.024 174.352 161.178C174.374 161.333 174.353 161.49 174.291 161.633C174.228 161.777 174.127 161.899 173.999 161.988L163.681 169.232C163.552 169.32 163.451 169.443 163.389 169.586C163.326 169.729 163.305 169.886 163.327 170.041C163.349 170.195 163.414 170.34 163.514 170.46C163.614 170.579 163.745 170.669 163.893 170.718L197.449 182.178C197.574 182.22 197.708 182.232 197.839 182.214C197.969 182.195 198.094 182.147 198.203 182.071L217.138 168.895C217.289 168.788 217.472 168.736 217.657 168.745L221.796 168.935C221.955 168.943 222.113 168.905 222.252 168.826C222.391 168.747 222.504 168.63 222.579 168.489L222.714 168.233C222.782 168.105 222.817 167.963 222.814 167.818C222.81 167.674 222.77 167.533 222.696 167.409L217.665 158.91C217.597 158.795 217.557 158.665 217.549 158.532C217.542 158.398 217.566 158.265 217.62 158.143C217.674 158.02 217.756 157.912 217.86 157.828C217.964 157.744 218.086 157.686 218.217 157.659L218.795 157.534C218.964 157.498 219.117 157.412 219.234 157.286C219.352 157.161 219.428 157.002 219.453 156.832C219.478 156.661 219.45 156.488 219.373 156.334C219.296 156.18 219.173 156.054 219.022 155.971L215.839 154.24C215.744 154.188 215.639 154.156 215.532 154.145L169.773 148.944C169.637 148.926 169.498 148.944 169.371 148.995Z" fill="#8863CE"/>
<path d="M187.394 160.949L168.65 149.471C168.582 149.419 168.531 149.347 168.504 149.266C168.476 149.185 168.473 149.098 168.495 149.015C168.517 148.932 168.563 148.858 168.627 148.801C168.691 148.744 168.77 148.707 168.855 148.695L201.598 144.669C201.68 144.658 201.762 144.675 201.833 144.717L220.295 155.613C220.365 155.664 220.417 155.735 220.446 155.816C220.475 155.897 220.479 155.985 220.457 156.069C220.435 156.152 220.389 156.227 220.325 156.284C220.26 156.341 220.18 156.378 220.094 156.389L187.629 160.993C187.548 161.005 187.465 160.989 187.394 160.949Z" fill="#F4EBB8"/>
<path d="M191.778 166.275L165.884 156.835C165.828 156.8 165.782 156.75 165.752 156.691C165.722 156.632 165.708 156.566 165.713 156.5C165.717 156.434 165.74 156.37 165.778 156.316C165.815 156.261 165.867 156.218 165.928 156.191L188.756 147.18C188.828 147.153 188.907 147.153 188.979 147.18L214.873 156.619C214.929 156.654 214.975 156.704 215.005 156.763C215.035 156.822 215.049 156.888 215.044 156.954C215.04 157.021 215.017 157.084 214.98 157.139C214.942 157.193 214.89 157.236 214.829 157.263L191.998 166.271C191.927 166.298 191.849 166.3 191.778 166.275Z" fill="#F4EFCB"/>
<path d="M180.157 166.176L172.916 155.269C172.861 155.176 172.832 155.07 172.831 154.963C172.83 154.855 172.858 154.749 172.911 154.656C172.964 154.562 173.041 154.484 173.133 154.43C173.226 154.376 173.332 154.347 173.439 154.346L213.161 155.766C213.238 155.768 213.314 155.789 213.381 155.827C213.449 155.864 213.506 155.918 213.549 155.982L220.79 166.889C220.843 166.982 220.872 167.087 220.872 167.195C220.872 167.302 220.845 167.407 220.792 167.5C220.739 167.594 220.663 167.671 220.57 167.726C220.478 167.781 220.373 167.81 220.266 167.812L180.545 166.392C180.468 166.389 180.392 166.368 180.325 166.33C180.258 166.293 180.2 166.24 180.157 166.176Z" fill="#F9F6DE"/>
<path d="M215.187 168.88L198.583 179.656C197.851 180.143 196.208 180.238 194.95 179.875L163.849 169.569C162.59 169.203 162.173 168.518 162.919 168.031L179.556 157.256C180.288 156.769 181.931 156.674 183.19 157.036L214.291 167.343C215.516 167.706 215.934 168.394 215.187 168.88Z" fill="white"/>
<path d="M170.38 169.367C170.38 169.257 170.497 169.184 170.636 169.096L172.023 168.2L173.04 167.534C173.153 167.448 173.275 167.376 173.406 167.321C173.516 167.277 173.702 167.255 173.816 167.211C174.467 166.966 174.749 166.542 175.104 166.216C175.495 165.868 175.915 165.553 176.359 165.275C176.823 164.942 177.313 164.645 177.822 164.386C178.422 164.108 179.026 163.862 179.355 163.493C179.628 163.154 179.929 162.84 180.255 162.552C180.551 162.269 180.864 162.004 181.192 161.758C181.799 161.366 182.656 161.026 183.336 160.66C183.497 160.576 183.72 160.517 183.87 160.422C184.02 160.327 184.236 160.056 184.562 160.074" fill="white"/>
<path d="M170.38 169.367C170.38 169.257 170.497 169.184 170.636 169.096L172.023 168.2L173.04 167.534C173.153 167.448 173.275 167.376 173.406 167.321C173.516 167.277 173.702 167.255 173.816 167.211C174.467 166.966 174.749 166.542 175.104 166.216C175.495 165.868 175.915 165.553 176.359 165.275C176.823 164.942 177.313 164.645 177.822 164.386C178.422 164.108 179.026 163.862 179.355 163.493C179.628 163.154 179.929 162.84 180.255 162.552C180.551 162.269 180.864 162.004 181.192 161.758C181.799 161.366 182.656 161.026 183.336 160.66C183.497 160.576 183.72 160.517 183.87 160.422C184.02 160.327 184.236 160.056 184.562 160.074" stroke="#E8E8E8" stroke-linecap="round" stroke-linejoin="round"/>
<path d="M176.703 170.872C176.886 170.765 176.864 170.608 176.985 170.487C177.249 170.281 177.531 170.097 177.826 169.938C178.139 169.699 178.472 169.489 178.822 169.309C179.092 169.188 179.407 169.082 179.685 168.943C180.285 168.72 180.86 168.435 181.401 168.094C181.944 167.655 182.462 167.187 182.953 166.692C183.886 165.835 185.514 165.202 186.747 164.441C187.113 164.214 187.457 163.976 187.815 163.742C187.973 163.639 188.159 163.544 188.295 163.434C188.43 163.324 188.375 163.281 188.573 163.251" fill="white"/>
<path d="M176.703 170.872C176.886 170.765 176.864 170.608 176.985 170.487C177.249 170.281 177.531 170.097 177.826 169.938C178.139 169.699 178.472 169.489 178.822 169.309C179.092 169.188 179.407 169.082 179.685 168.943C180.285 168.72 180.86 168.435 181.401 168.094C181.944 167.655 182.462 167.187 182.953 166.692C183.886 165.835 185.514 165.202 186.747 164.441C187.113 164.214 187.457 163.976 187.815 163.742C187.973 163.639 188.159 163.544 188.295 163.434C188.43 163.324 188.375 163.281 188.573 163.251" stroke="#E8E8E8" stroke-linecap="round" stroke-linejoin="round"/>
<path d="M200.234 170.33L192.543 175.322L180.651 171.889L188.342 166.897L200.234 170.33Z" fill="#FFFF9F"/>
<path d="M194.87 171.893C194.475 173.262 191.639 175.187 187.592 174.455C184.786 173.939 182.393 172.336 182.316 171.139C182.086 167.698 190.783 166.34 196.901 168.438C199.769 169.422 199.301 171.461 199.239 172.918" stroke="#E8E8E8" stroke-linecap="round" stroke-linejoin="round"/>
<path d="M195.447 170.689C198.228 169.799 201.865 169.356 205.579 169.448C206.161 169.494 206.74 169.584 207.309 169.715" stroke="#E8E8E8" stroke-linecap="round" stroke-linejoin="round"/>
<path d="M205.287 170.07C205.653 170.019 207.402 169.752 207.402 169.752C207.402 169.752 205.572 168.859 205.254 168.705" stroke="#E8E8E8" stroke-linecap="round" stroke-linejoin="round"/>
<path d="M185.386 171.68C185.466 171.534 185.567 171.399 185.686 171.281L189.436 168.848" stroke="white" stroke-miterlimit="10"/>
<path d="M187.804 172.259L192.143 169.44" stroke="white" stroke-miterlimit="10"/>
<path d="M190.12 173.108L191.993 171.889" stroke="white" stroke-miterlimit="10"/>
<path d="M380.611 181.021C377.106 182.522 368.145 185.889 368.145 185.889L362.935 191.277L357.289 197.085C357.107 197.271 356.993 197.513 356.965 197.772C356.938 198.031 356.999 198.292 357.139 198.511C357.278 198.731 357.488 198.897 357.734 198.983C357.98 199.068 358.248 199.067 358.493 198.981C358.493 198.981 359.225 198.527 360.323 197.813C359.466 199.007 359.551 199.724 359.847 200.141C360.016 200.356 360.251 200.509 360.516 200.575C360.781 200.642 361.061 200.618 361.311 200.507C361.633 200.363 361.933 200.172 362.2 199.94L362.284 200.266C362.422 200.473 362.604 200.647 362.817 200.776C363.031 200.905 363.27 200.985 363.517 201.011C363.765 201.037 364.015 201.008 364.251 200.926C364.486 200.844 364.7 200.711 364.878 200.537C367.556 197.905 369.583 191.566 369.583 191.566L371.365 190.925C371.87 190.753 373.535 191.094 373.403 192.148C373.403 192.148 367.319 197.759 369.821 198.703C372.324 199.647 375.811 194 378.003 192.927C379.525 192.195 384.292 189.904 385.116 187.906L385.141 187.847C385.873 187.573 388.229 185.153 388.8 184.553C390.523 182.827 392.135 180.993 393.626 179.063L386.802 174.235C386.802 174.235 384.117 179.52 380.611 181.021Z" fill="#FCDFD4"/>
<path d="M380.611 181.021C377.106 182.522 368.145 185.889 368.145 185.889L362.935 191.277L357.289 197.085C357.107 197.271 356.993 197.513 356.965 197.772C356.938 198.031 356.999 198.291 357.139 198.511C357.278 198.731 357.488 198.897 357.734 198.982C357.98 199.068 358.248 199.067 358.493 198.981C360.619 197.664 362.662 196.218 364.611 194.651C367.084 192.623 367.147 192.353 371.362 190.925C371.867 190.753 373.531 191.094 373.4 192.148C373.4 192.148 367.315 197.759 369.818 198.703C372.32 199.647 375.807 194 377.999 192.927C379.521 192.195 384.289 189.904 385.112 187.906" stroke="#EEA892" stroke-miterlimit="10"/>
<path d="M369.58 191.566C369.58 191.566 367.553 197.905 364.874 200.537C364.696 200.711 364.482 200.844 364.247 200.926C364.012 201.008 363.761 201.037 363.514 201.011C363.266 200.985 363.027 200.905 362.814 200.776C362.601 200.647 362.418 200.473 362.28 200.266V200.266" stroke="#EEA892" stroke-miterlimit="10"/>
<path d="M366.304 193.268C366.304 193.268 364.054 199.34 361.306 200.507C361.056 200.618 360.777 200.641 360.512 200.575C360.247 200.509 360.011 200.356 359.843 200.141C359.546 199.724 359.477 199.007 360.318 197.813" stroke="#EEA892" stroke-miterlimit="10"/>
<path d="M373.846 190.654C373.846 190.654 374.409 191.02 373.396 192.148" stroke="#EEA892" stroke-miterlimit="10"/>
<path d="M427.632 93.3911C427.632 93.3911 422.824 96.2423 418.375 104.254C414.826 110.645 399.854 151.012 399.854 151.012L378.313 179.769L389.532 187.964C389.532 187.964 415.759 171.036 420.483 163.259C425.206 155.481 437.958 126.874 437.958 126.874L427.632 93.3911Z" fill="black"/>
<path d="M398.844 126.412C398.844 126.412 396.089 127.386 396.001 130.823C395.913 134.26 396.638 137.817 399.477 139.007L398.844 126.412Z" fill="white"/>
<path d="M398.671 124.758L398.503 136.335L410.797 137.393L411.009 125.183C411.009 125.183 409.992 124.451 404.818 124.333C399.56 124.205 398.671 124.758 398.671 124.758Z" fill="white"/>
<path d="M410.966 128.616L411.123 128.707C411.875 129.146 412.474 129.805 412.839 130.596L413.355 131.727C413.429 131.887 413.517 132.04 413.618 132.184L413.67 132.261C414.034 132.786 414.223 133.413 414.208 134.051V134.706C414.208 134.801 414.208 134.897 414.208 134.992C414.251 135.585 414.409 137.876 414.409 138.538L416.571 140.701L412.843 150.071C412.843 150.071 409.283 148.292 407.757 146.979C406.231 145.665 405.466 146.001 404.746 145.452C404.025 144.903 398.599 139.131 398.599 139.131C397.912 138.332 397.313 137.462 396.809 136.536C396.687 136.279 396.638 135.992 396.67 135.709C396.702 135.426 396.812 135.157 396.989 134.933L396.539 134.322C396.362 134.078 396.265 133.787 396.261 133.486C396.256 133.185 396.344 132.891 396.513 132.642C396.624 132.482 396.765 132.346 396.929 132.242C397.093 132.138 397.276 132.067 397.468 132.034L397.878 131.965L397.055 131.083C396.821 130.832 396.685 130.506 396.67 130.164V130.131C396.656 129.758 396.788 129.395 397.036 129.117L397.069 129.084C397.203 128.938 397.366 128.82 397.547 128.739C397.728 128.659 397.924 128.617 398.123 128.616C398.38 128.614 398.633 128.683 398.855 128.813L401.782 130.526L402.206 130.482L401.654 129.93L398.899 128.1L397.457 127.368C397.419 127.39 397.377 127.403 397.334 127.408C397.291 127.413 397.247 127.409 397.205 127.396C397.163 127.383 397.125 127.361 397.092 127.332C397.059 127.303 397.033 127.268 397.014 127.229L396.868 126.918C396.828 126.833 396.807 126.74 396.807 126.647C396.807 126.553 396.828 126.461 396.868 126.376C397.021 126.042 397.268 125.761 397.579 125.566C397.889 125.371 398.25 125.271 398.617 125.278H398.697C399.502 125.291 400.291 125.502 400.995 125.893L405.902 128.605L409.927 131.954H410.904L410.966 128.616Z" fill="#FCDFD4"/>
<path d="M397.866 131.969L400.241 133.623" stroke="#EEA892" stroke-linecap="round" stroke-linejoin="round"/>
<path d="M396.978 134.937L399.224 136.888L399.352 137.352" stroke="#EEA892" stroke-linecap="round" stroke-linejoin="round"/>
<path d="M402.191 130.482L403.165 130.526" stroke="#EEA892" stroke-linecap="round" stroke-linejoin="round"/>
<path d="M490.789 177.138L477.492 141.302C477.492 141.302 473.178 121.819 469.303 110.667C463.603 94.2806 442.959 90.3643 442.959 90.3643L424.767 96.4437C424.767 96.4437 416.428 122.244 418.744 130.794C421.06 139.344 433.698 151.29 433.698 151.29L439.103 185.391C439.103 185.391 447.796 187.679 466.545 184.78C485.293 181.881 490.789 177.138 490.789 177.138Z" fill="#1E1E1E"/>
<path d="M455.074 99.8037C447.061 99.8037 443.677 103.72 441.902 110.488C440.128 117.255 437.274 147.356 437.274 147.356L416.601 138.989L411.259 153.592L442.682 170.378C444.298 171.243 446.103 171.695 447.936 171.695C449.769 171.695 451.574 171.243 453.19 170.378C454.662 169.588 455.938 168.478 456.923 167.129C457.909 165.781 458.578 164.228 458.883 162.585C458.883 162.585 465.03 124.213 465.74 116.377C466.45 108.54 463.073 99.8037 455.074 99.8037Z" fill="#1E1E1E"/>
<path d="M416.601 138.989L411.259 153.592L442.682 170.377C444.298 171.243 446.103 171.695 447.936 171.695C449.769 171.695 451.574 171.243 453.19 170.377V170.377C454.662 169.588 455.938 168.478 456.923 167.129C457.908 165.781 458.578 164.228 458.883 162.585C458.883 162.585 463.962 132.938 464.672 125.106" stroke="black" stroke-miterlimit="10"/>
<path d="M440.46 119.751C438.679 126.518 437.255 147.355 437.255 147.355L416.601 138.988" stroke="black" stroke-miterlimit="10"/>
<path d="M421.229 51.0037C421.229 51.0037 411.258 51.8931 408.825 64.8644C407.362 72.5835 413.249 82.9819 420.698 86.7627C435.751 94.405 452.531 82.5317 440.651 68.5026C429.754 55.6373 421.229 51.0037 421.229 51.0037Z" fill="#352C26"/>
<path d="M444.189 84.5886C444.189 84.5886 451.789 74.0073 446.911 60.8932C445.268 56.4755 442.414 51.6661 427.102 51.8162C416.023 51.926 412.342 61.6984 411.84 71.3391C411.306 73.0813 409.279 77.0012 410.15 78.3262C410.732 79.2046 412.151 79.9183 412.151 79.9183C412.715 84.6032 413.816 88.3036 414.822 89.6651C418.094 94.0938 423.384 92.6481 423.384 92.6481L426.648 104.726C426.648 104.726 430.977 105.894 438.558 104.393C446.139 102.893 449.535 100.192 449.535 100.192L444.189 84.5886Z" fill="#FFE1D8"/>
<path d="M423.384 92.6519L428.47 90.9243L426.648 104.745L423.384 92.6519Z" fill="#F2CDC9"/>
<path d="M414.416 73.0338C414.453 72.0822 414.742 71.061 415.338 71.0867C415.934 71.1123 416.143 72.1481 416.103 73.1034C416.063 74.0586 415.788 74.981 415.258 75.0469H415.192C415.005 75.0469 414.745 74.9151 414.573 74.3624C414.447 73.9314 414.394 73.4824 414.416 73.0338Z" fill="#3F362E"/>
<path d="M412.924 81.0602C413.143 80.2587 416.184 79.5962 416.696 80.3282C417.208 81.0602 415.759 84.8631 414.724 85.068C413.688 85.273 412.704 81.8581 412.924 81.0602Z" fill="#FC5F5B"/>
<path d="M414.46 56.168C418.199 49.0454 428.074 45.9453 441.631 51.8125C453.753 57.0574 459.248 75.7824 444.192 84.5886C444.192 84.5886 434.525 88.0547 434.082 81.0675C433.921 78.5055 434.042 78.6848 432.871 75.0467C431.796 74.5819 431.356 70.801 427.119 73.5607C419.114 78.7763 410.687 63.3637 414.46 56.168Z" fill="#3F362E"/>
<path d="M432.184 81.0675C433.914 80.7418 437.164 77.0122 434.321 73.1801C431.207 68.9746 427.116 73.5461 427.116 73.5461" fill="#FFE1D8"/>
<path d="M429.586 74.2489C429.586 74.2489 431.514 72.7592 432.784 74.0842C433.483 74.8162 434.09 76.7633 432.93 77.9199" stroke="#F6A18A" stroke-width="0.75" stroke-linecap="round" stroke-linejoin="round"/>
<path d="M433.947 79.9403C433.947 79.9403 435.993 85.9611 432.268 95.1736C425.857 111.022 429.955 118.148 429.955 118.148C429.955 118.148 467.192 106.688 467.156 106.513C461.279 78.9081 450.511 59.7622 450.511 59.7622L433.947 79.9403Z" fill="#3F362E"/>
<path d="M419.268 79.2376C419.116 80.0518 419.21 80.8924 419.537 81.6533C419.863 82.4142 420.408 83.0612 421.102 83.5124C421.796 83.9636 422.609 84.1988 423.436 84.1883C424.264 84.1778 425.07 83.922 425.752 83.4532C426.435 82.9845 426.963 82.3239 427.27 81.5549C427.577 80.786 427.649 79.9432 427.478 79.1331C427.306 78.3231 426.898 77.5821 426.306 77.0039C425.713 76.4258 424.962 76.0364 424.148 75.885C423.057 75.6828 421.93 75.9224 421.015 76.551C420.099 77.1796 419.471 78.1459 419.268 79.2376Z" fill="url(#paint1_radial_125_13013)"/>
<path d="M417.899 65.1755C417.899 65.1755 420.49 71.427 427.658 70.8194" stroke="#352C26" stroke-miterlimit="10"/>
<path d="M423.541 64.8682C423.541 64.8682 428.422 69.7507 436.962 69.7507" stroke="#352C26" stroke-miterlimit="10"/>
<path d="M437.723 81.342C437.723 81.342 441.079 93.6985 436.351 100.565C433.503 104.798 432.013 109.799 432.081 114.901" stroke="#352C26" stroke-miterlimit="10"/>
<path opacity="0.62" d="M247.979 163.877C247.979 163.877 242.286 164.792 242.187 165.605C242.088 166.417 241.371 169.367 244.218 169.773C244.218 169.773 243.61 173.536 246.761 173.536C249.911 173.536 261.601 170.282 261.601 170.282C261.601 170.282 257.639 176.589 260.383 177.299C263.127 178.009 263.636 178.517 265.568 176.384C267.5 174.25 270.449 169.063 271.261 168.858C272.073 168.654 273.903 169.569 273.903 169.569C273.903 169.569 272.051 180.549 273.09 180.959C275.326 181.874 282.75 181.061 282.75 181.061L283.562 183.806C283.562 183.806 281.934 188.791 282.951 189.501C283.968 190.211 293.017 190.314 297.488 190.233C301.959 190.153 347.711 189.501 347.711 189.501L343.744 180.351L269.728 161.732L247.979 163.877Z" fill="#8863CE"/>
<path d="M299.57 106.216C299.701 116.301 300.734 126.354 302.654 136.255L314.524 136.372L340.915 134.355L324.333 120.622L322.291 94.1416C321.707 86.5317 321.695 78.8887 322.255 71.277L324.209 44.4229L310.499 43.6506L302.844 47.6291C302.844 47.6291 299.387 93.6035 299.57 106.216Z" fill="white"/>
<path d="M321.992 4.38879C338.823 16.7928 327.33 31.4734 320.195 36.1657L311.048 29.4677L301.07 32.5971C301.07 32.5971 291.776 33.212 289.416 21.9389C286.215 6.64706 307.722 -6.11567 321.992 4.38879Z" fill="#3F362E"/>
<path d="M292.95 16.5403C293.137 15.1897 293.495 10.4133 302.921 12.1482C310.517 13.5427 314.655 25.4782 314.655 25.4782C314.655 25.4782 316.96 20.9507 320.143 23.3956C322.778 25.405 323.239 31.1916 319.598 33.5487C320.028 33.6491 320.422 33.8652 320.737 34.1736C321.052 34.482 321.277 34.871 321.387 35.2982L322.328 49.6787L310.22 54.3673L303.594 52.4384L303.784 43.6542C302.261 43.8145 300.722 43.5787 299.317 42.9698C292.134 39.8001 290.872 31.6235 292.95 16.5403Z" fill="#FCDFD4"/>
<path d="M316.057 26.7445C316.057 26.7445 317.173 24.4606 318.709 25.2804C321 26.5175 319.906 29.9251 319.906 29.9251" stroke="#E9665C" stroke-linecap="round" stroke-linejoin="round"/>
<path d="M302.109 25.6319C302.314 26.858 302.881 27.7877 303.371 27.7035C303.862 27.6193 304.103 26.5579 303.884 25.3281C303.664 24.0983 303.112 23.1687 302.621 23.2529C302.131 23.337 301.901 24.4021 302.109 25.6319Z" fill="#3F362E"/>
<path d="M294.483 26.8324C294.677 27.9853 295.197 28.8601 295.643 28.7832C296.089 28.7064 296.291 27.7108 296.097 26.5579C295.903 25.405 295.365 24.5339 294.937 24.6071C294.509 24.6803 294.289 25.6795 294.483 26.8324Z" fill="#3F362E"/>
<path d="M298.739 26.4846C298.739 26.6749 296.851 28.8966 298.333 29.9324" stroke="#E9665C" stroke-linecap="round" stroke-linejoin="round"/>
<path d="M310.627 42.0986L303.697 51.0988L303.781 43.7091L310.627 42.0986Z" fill="#FFBEB3"/>
<path d="M296.471 33.9953C299.117 34.1226 301.722 33.3054 303.821 31.6895" stroke="#E9665C" stroke-linecap="round" stroke-linejoin="round"/>
<path d="M314.659 25.4562C314.659 25.4562 308.139 23.7653 300.909 13.7147C300.909 13.7147 295.197 7.30217 292.537 18.9705C291.55 23.3077 289.343 21.0238 289.343 21.0238C289.343 21.0238 286.372 0.637152 307.063 1.00316C312.179 1.0727 314.659 25.4562 314.659 25.4562Z" fill="#3F362E"/>
<path d="M313.467 34.2878C314.246 32.1904 313.179 29.8579 311.082 29.0779C308.985 28.2979 306.654 29.3658 305.874 31.4632C305.094 33.5605 306.162 35.8931 308.258 36.6731C310.355 37.4531 312.687 36.3851 313.467 34.2878Z" fill="url(#paint2_radial_125_13013)"/>
<path d="M310.195 22.9307L312.175 27.8022L314.608 27.8791L314.685 23.842L310.195 22.9307Z" fill="url(#paint3_linear_125_13013)"/>
<path d="M300.668 12.7154C300.668 12.7154 293.968 13.3998 292.446 20.3284C292.446 20.3284 291.535 16.2181 293.207 13.5535C294.879 10.889 298.472 10.6694 300.668 12.7154Z" fill="#352D27"/>
<path d="M319.617 33.5303L319.024 36.2131L321.439 36.6926L322.219 34.577L321.308 33.512L319.617 33.5303Z" fill="url(#paint4_linear_125_13013)"/>
<path d="M250.287 163.076L248.15 177.156C247.858 178.737 248.769 179.634 249.281 179.626L263.426 179.433C263.931 179.433 264.809 178.4 264.524 176.845L262.138 162.962C262.106 162.774 262.007 162.604 261.86 162.482C261.713 162.36 261.528 162.294 261.337 162.296L251.067 162.391C250.877 162.394 250.694 162.465 250.551 162.59C250.409 162.716 250.315 162.888 250.287 163.076Z" fill="#111111" stroke="#262626" stroke-miterlimit="10"/>
<path d="M249.248 178.517L263.415 178.32" stroke="#262626" stroke-linecap="round" stroke-linejoin="round"/>
<path d="M251.433 163.068L260.946 162.937C261.036 162.936 261.123 162.968 261.191 163.028C261.258 163.087 261.301 163.169 261.312 163.259L263.705 177.211C263.714 177.269 263.711 177.328 263.696 177.385C263.681 177.441 263.653 177.494 263.616 177.539C263.578 177.584 263.532 177.62 263.479 177.646C263.426 177.671 263.368 177.685 263.31 177.687L249.432 177.881C249.373 177.881 249.315 177.868 249.262 177.844C249.208 177.82 249.161 177.785 249.122 177.741C249.083 177.697 249.054 177.645 249.037 177.589C249.02 177.533 249.014 177.474 249.022 177.416L251.027 163.401C251.04 163.305 251.089 163.216 251.164 163.155C251.24 163.093 251.336 163.062 251.433 163.068Z" fill="white"/>
<path d="M252.274 177.943C252.402 177.732 252.581 177.556 252.795 177.433C253.008 177.309 253.25 177.242 253.497 177.236L259.556 177.149C259.767 177.145 259.977 177.188 260.17 177.275C260.362 177.362 260.534 177.49 260.672 177.65L260.829 177.833L252.274 177.943Z" fill="#111111"/>
<path d="M276.756 150.584C276.756 150.584 273.017 159.65 272.665 161.099C272.435 162.054 272.051 165.586 269.596 168.738C268.864 169.689 267.283 170.934 266.478 171.82C265.417 173.005 263.917 174.806 263.105 176.212C262.949 176.49 262.697 176.702 262.396 176.808C262.094 176.914 261.765 176.906 261.469 176.786C261.162 176.658 260.915 176.418 260.779 176.114C260.643 175.809 260.628 175.465 260.737 175.15C261.235 173.686 262.274 171.227 263.99 169.462C263.99 169.462 262.453 168.599 258.868 169.828C256.028 170.806 249.72 171.926 247.097 172.343C246.816 172.394 246.526 172.344 246.279 172.201C246.031 172.058 245.843 171.832 245.747 171.563C245.695 171.412 245.673 171.252 245.683 171.092C245.694 170.932 245.736 170.776 245.807 170.633C245.878 170.489 245.977 170.362 246.098 170.257C246.219 170.152 246.359 170.072 246.511 170.022L255.505 167.46L244.58 168.826C244.227 168.887 243.864 168.812 243.564 168.615C243.264 168.419 243.051 168.116 242.966 167.768C242.92 167.575 242.914 167.375 242.95 167.181C242.986 166.986 243.063 166.802 243.175 166.639C243.287 166.476 243.433 166.338 243.601 166.235C243.77 166.132 243.959 166.066 244.155 166.04L245.535 165.861L244.558 165.898C244.291 165.896 244.031 165.814 243.812 165.664C243.592 165.513 243.422 165.3 243.325 165.052L243.262 164.873C243.206 164.718 243.185 164.553 243.202 164.389C243.218 164.226 243.27 164.068 243.356 163.927C243.441 163.787 243.557 163.667 243.695 163.577C243.832 163.488 243.988 163.43 244.151 163.409L253.756 161.897L247.335 162.194C247.136 162.202 246.94 162.14 246.783 162.018C246.625 161.896 246.516 161.722 246.475 161.527C246.452 161.416 246.452 161.301 246.475 161.19C246.498 161.079 246.543 160.974 246.608 160.88C246.672 160.787 246.755 160.708 246.851 160.647C246.947 160.587 247.054 160.546 247.166 160.528L257.316 158.91L261.143 158.61C261.623 158.573 262.085 158.407 262.479 158.131C262.873 157.855 263.187 157.478 263.386 157.04C264.429 154.749 264.484 150.818 266.105 146.539" fill="#FFDDCF"/>
<path d="M254.151 164.81L245.534 165.865" stroke="#EEA892" stroke-miterlimit="10"/>
<path d="M256.585 161.597L247.968 162.647" stroke="#EEA892" stroke-miterlimit="10"/>
<path d="M255.385 167.578L250.529 168.84" stroke="#EEA892" stroke-miterlimit="10"/>
<path d="M302.83 47.4424C302.83 47.4424 286.299 49.5652 280.715 65.0694L270.163 109.884L260.145 156.923L277.301 160.891L286.631 130.512L283.957 146.294L299.445 147.897L302.566 138.304C302.593 138.216 302.593 138.121 302.566 138.033L302.83 47.4424Z" fill="#52427A"/>
<path d="M284.012 146.481L286.983 128.301L287.696 71.1304" stroke="#3A2F59" stroke-miterlimit="10"/>
<path d="M340.915 46.9409H340.945C348.928 48.563 356.103 52.9024 361.248 59.2205L383.136 86.1039C387.384 91.3225 389.556 97.927 389.235 104.65C388.915 111.39 386.11 117.773 381.361 122.566L361.482 143.267L350.041 128.374L364.519 104.401L345.548 81.9277L331.139 45.6562L340.915 46.9409Z" fill="#52427A"/>
<path d="M324.194 44.4119L340.912 46.941L348.962 74.1574L346.47 114.052L359.642 158.222L351.505 158.299L328.325 152.809C328.325 152.809 325.812 138.293 322.592 125.812C318.739 110.857 316.895 91.4989 319.507 73.9268C322.101 56.4609 324.194 44.4119 324.194 44.4119Z" fill="#52427A"/>
<path d="M348.943 130.435C348.943 130.435 349.584 140.683 361.051 143.081C361.051 143.081 365.665 141.042 360.868 135.497C354.995 128.707 348.943 130.435 348.943 130.435Z" fill="#3A2E5E"/>
<path d="M354.845 131.149C354.845 131.149 353.831 133.777 352.861 134C351.892 134.223 348.313 134.571 346.641 133.513C344.969 132.455 343.989 130.731 343.023 130.585C341.742 130.409 338.175 131.888 335.163 133.831C335.01 133.931 334.878 134.061 334.775 134.212C334.672 134.364 334.599 134.534 334.563 134.713C334.526 134.893 334.525 135.078 334.56 135.257C334.596 135.437 334.666 135.608 334.768 135.76C334.944 136.023 335.204 136.218 335.505 136.313C335.806 136.408 336.131 136.398 336.426 136.284L342.097 134.088L343.023 135.186L338.079 138.366L334.922 140.493C334.673 140.66 334.495 140.913 334.421 141.203C334.347 141.494 334.384 141.801 334.523 142.067C334.67 142.352 334.924 142.567 335.229 142.666C335.534 142.764 335.865 142.739 336.151 142.594L339.978 140.661L344.391 138.674L344.698 139.512L339.755 142.25L336.36 144.153C336.098 144.299 335.901 144.54 335.811 144.827C335.72 145.113 335.743 145.423 335.873 145.694C336.006 145.97 336.241 146.184 336.528 146.291C336.815 146.397 337.133 146.388 337.413 146.265L341.211 144.588L345.891 142.425L347.523 142.517L347.922 143.794L344.655 146.225L341.416 148.289C341.206 148.423 341.055 148.632 340.994 148.873C340.933 149.115 340.966 149.37 341.087 149.588C341.196 149.785 341.371 149.938 341.58 150.021C341.79 150.104 342.022 150.111 342.236 150.042L346.466 148.695L349.598 146.001C349.598 146.001 355.115 145.826 357.896 143.974C360.677 142.122 362.012 137.931 362.012 137.931C362.012 137.931 360.867 133.282 354.845 131.149Z" fill="#FCDFD4"/>
<path d="M348.596 143.271L347.919 143.802" stroke="#EEA892" stroke-linecap="round" stroke-linejoin="round"/>
<path d="M348.259 142.52L345.888 142.433" stroke="#EEA892" stroke-linecap="round" stroke-linejoin="round"/>
<path d="M344.695 139.519L347.073 139.12L344.388 138.677" stroke="#EEA892" stroke-linecap="round" stroke-linejoin="round"/>
<path d="M346.195 135.764L343.02 135.193" stroke="#EEA892" stroke-linecap="round" stroke-linejoin="round"/>
<path d="M343.019 133.601L342.094 134.088" stroke="#EEA892" stroke-linecap="round" stroke-linejoin="round"/>
<path d="M355.917 133.842C354.906 133.629 353.857 133.683 352.873 134" stroke="#EEA892" stroke-linecap="round" stroke-linejoin="round"/>
<path d="M300.836 49.8689L292.296 60.9553L299.617 73.7693L294.839 89.1234L300.938 101.227" stroke="#3A2F59" stroke-miterlimit="10"/>
<path d="M326.152 46.4138L333.876 58.0053L323.404 74.5819L326.964 90.6497L320.66 100.719" stroke="#3A2F59" stroke-miterlimit="10"/>
<path d="M346.839 83.4795L364.519 104.39L348.943 130.435C348.943 130.435 350.436 129.644 353.333 130.46C362.481 133.055 363.736 140.471 361.182 142.905" stroke="#3A2F59" stroke-linecap="round" stroke-linejoin="round"/>
<path d="M321.83 41.0737L310.246 54.4477L313.29 60.6772L323.352 49.6164L324.168 44.43L321.83 41.0737Z" fill="white"/>
<path d="M303.532 45.9563L302.844 47.4057L302.818 55.209L310.246 54.5648L305.917 49.4627L303.532 45.9563Z" fill="white"/>
<path d="M95.2262 53.8877C95.2262 53.8877 91.2599 61.3616 82.4199 61.2079" stroke="#35302F" stroke-miterlimit="10"/>
<path d="M85.9248 55.5642C85.9248 55.5642 78.4533 61.5119 72.2002 62.1267" stroke="#35302F" stroke-miterlimit="10"/>
<path d="M303.075 54.8539L307.546 61.1566L310.247 54.5648L313.24 60.6515L323.1 49.8689" stroke="#E8E4E3" stroke-miterlimit="10"/>
<path d="M367.044 100.719L364.52 104.393" stroke="#3A2F59" stroke-linecap="round" stroke-linejoin="round"/>
<path d="M58.0186 86.6822L63.6606 80.1233L82.3504 96.7181L77.9963 103.566L58.0186 86.6822Z" fill="white"/>
<path d="M82.3506 96.7183L85.1131 100.92L87.8573 93.5999L82.3506 96.7183Z" fill="white"/>
<path d="M58.0186 86.5322L78.0768 103.603L82.3504 96.7183L85.1129 100.92L88.0583 94.5149" stroke="#D8D8D8" stroke-miterlimit="10"/>
<path d="M441.393 21.108C441.388 18.3001 440.594 15.5502 439.101 13.1726C437.608 10.795 435.476 8.88565 432.949 7.6629C430.422 6.44015 427.602 5.95332 424.812 6.25807C422.021 6.56282 419.373 7.64685 417.169 9.38622C414.966 11.1256 413.296 13.4501 412.351 16.094C411.406 18.7379 411.223 21.5945 411.825 24.3372C412.426 27.0799 413.787 29.598 415.751 31.6036C417.716 33.6093 420.205 35.0215 422.934 35.6788L426.475 44.0604L429.992 35.6678C433.248 34.8692 436.142 32.9999 438.209 30.3598C440.276 27.7197 441.398 24.4616 441.393 21.108Z" stroke="#EBEBEB" stroke-width="2" stroke-linecap="square" stroke-linejoin="round"/>
<path d="M419.093 16.5493H434.855" stroke="#EBEBEB" stroke-width="4" stroke-linecap="round" stroke-linejoin="round"/>
<path d="M419.093 21.5493H434.855" stroke="#FFCF00" stroke-width="4" stroke-linecap="round" stroke-linejoin="round"/>
<path d="M419.093 26.5493H429.272" stroke="#FFCF00" stroke-width="4" stroke-linecap="round" stroke-linejoin="round"/>
<path d="M219.552 42.816C221.315 40.6314 222.428 37.9947 222.764 35.2072C223.1 32.4198 222.645 29.594 221.451 27.0531C220.257 24.5121 218.372 22.3584 216.013 20.8382C213.653 19.318 210.913 18.4926 208.107 18.4563C205.3 18.4201 202.54 19.1744 200.142 20.6332C197.744 22.0919 195.805 24.1962 194.546 26.7055C193.286 29.2148 192.759 32.0278 193.022 34.823C193.286 37.6182 194.33 40.2828 196.036 42.5122L193.515 51.2562L201.528 46.9446C204.561 48.377 207.986 48.7486 211.255 47.9999C214.523 47.2512 217.445 45.4255 219.552 42.816V42.816Z" stroke="#EBEBEB" stroke-width="2" stroke-linecap="square" stroke-linejoin="round"/>
<path d="M200.593 29.2876H216.355" stroke="#EBEBEB" stroke-width="4" stroke-linecap="round" stroke-linejoin="round"/>
<path d="M200.593 34.2876H216.355" stroke="#FFCF00" stroke-width="4" stroke-linecap="round" stroke-linejoin="round"/>
<path d="M200.593 39.2876H210.772" stroke="#FFCF00" stroke-width="4" stroke-linecap="round" stroke-linejoin="round"/>
<path opacity="0.71" d="M113.169 212.886L113.374 218.376L128.419 223.87L167.863 211.667L155.869 203.326L113.169 212.886Z" fill="#8863CE"/>
<path d="M114.164 216.736L128.119 221.531L122.481 213.797L114.164 216.736Z" fill="black"/>
<path d="M112.511 212.816L130.249 183.901C130.554 183.406 131.039 183.049 131.603 182.906L167.705 173.697C167.939 173.637 168.185 173.645 168.414 173.721C168.643 173.797 168.846 173.937 168.997 174.125L169.048 174.188C169.199 174.371 169.29 174.596 169.309 174.833C169.329 175.07 169.276 175.307 169.158 175.513L152.675 203.457L114.38 214.844C114.091 214.938 113.781 214.95 113.486 214.879C113.19 214.808 112.92 214.656 112.704 214.441C112.493 214.232 112.359 213.958 112.324 213.663C112.288 213.367 112.354 213.069 112.511 212.816Z" fill="white" stroke="#EDEDED" stroke-linecap="round" stroke-linejoin="round"/>
<path d="M113.422 215.151L132.031 185.446C132.331 184.966 132.802 184.618 133.348 184.473L169.18 174.898" fill="white"/>
<path d="M113.422 215.151L132.031 185.446C132.331 184.966 132.802 184.618 133.348 184.473L169.18 174.898" stroke="#EDEDED" stroke-linecap="round" stroke-linejoin="round"/>
<path d="M118.19 207.538L119.174 208.71L114.114 216.582L113.016 215.85C113.005 215.843 112.995 215.834 112.987 215.823C112.98 215.812 112.975 215.8 112.972 215.787C112.969 215.774 112.969 215.761 112.972 215.748C112.974 215.735 112.979 215.722 112.987 215.711L118.19 207.538Z" fill="#D3D5D4" stroke="#D3D5D4" stroke-linecap="round" stroke-linejoin="round"/>
<path d="M114.223 216.718L122.517 213.841L119.115 209.098L114.223 216.718Z" fill="#3F3F3F"/>
<path d="M160.951 178.517L165.857 177.247C165.922 177.223 165.993 177.22 166.059 177.24C166.125 177.259 166.184 177.3 166.225 177.355C166.266 177.41 166.288 177.478 166.288 177.547C166.288 177.616 166.265 177.683 166.223 177.738L163.296 182.496C163.223 182.615 163.127 182.718 163.013 182.8C162.899 182.881 162.77 182.938 162.634 182.968L157.932 184.121C157.872 184.131 157.811 184.123 157.755 184.099C157.699 184.075 157.651 184.036 157.616 183.985C157.582 183.935 157.562 183.876 157.56 183.815C157.557 183.755 157.572 183.694 157.603 183.642L160.332 178.993C160.469 178.76 160.691 178.59 160.951 178.517Z" fill="white" stroke="#EDEDED" stroke-linecap="round" stroke-linejoin="round"/>
<path d="M161.935 179.659C161.89 179.845 161.794 180.014 161.658 180.148C161.523 180.283 161.353 180.377 161.167 180.421C160.867 180.421 160.724 180.124 160.849 179.722C160.895 179.537 160.991 179.369 161.125 179.235C161.26 179.101 161.429 179.006 161.613 178.96C161.913 178.946 162.056 179.249 161.935 179.659Z" fill="black"/>
<path d="M164.413 179.034C164.366 179.218 164.271 179.386 164.136 179.52C164.001 179.655 163.833 179.749 163.648 179.795C163.348 179.795 163.205 179.498 163.326 179.096C163.373 178.911 163.469 178.743 163.605 178.609C163.74 178.474 163.909 178.38 164.094 178.334C164.394 178.316 164.555 178.631 164.413 179.034Z" fill="black"/>
<path d="M162.887 181.625C162.841 181.809 162.745 181.978 162.61 182.112C162.476 182.246 162.307 182.341 162.122 182.386C161.822 182.386 161.676 182.09 161.8 181.687C161.847 181.502 161.943 181.333 162.078 181.199C162.214 181.065 162.383 180.97 162.569 180.926C162.869 180.908 163.011 181.222 162.887 181.625Z" fill="black"/>
<path d="M160.53 182.218C160.483 182.402 160.387 182.571 160.251 182.705C160.116 182.839 159.947 182.934 159.762 182.979C159.462 182.979 159.319 182.683 159.443 182.28C159.49 182.096 159.586 181.928 159.721 181.794C159.855 181.66 160.024 181.565 160.208 181.519C160.49 181.5 160.636 181.812 160.53 182.218Z" fill="black"/>
<path d="M118.189 207.502L128.222 221.352L167.153 209.683L156.224 197.605L118.189 207.502Z" fill="#D3D5D4" stroke="#D3D5D4" stroke-linecap="round" stroke-linejoin="round"/>
<path d="M131.376 183.847L132.243 184.985" stroke="#EDEDED" stroke-linecap="round" stroke-linejoin="round"/>
<path d="M118.189 207.502L128.222 221.351L167.153 209.683" stroke="#BFBFBF" stroke-linecap="round" stroke-linejoin="round"/>
<path d="M114.113 216.568L121.519 214.244" stroke="#282828" stroke-linecap="round" stroke-linejoin="round"/>
<path d="M119.152 208.929L114.114 216.568L113.009 215.85" stroke="#BFBFBF" stroke-linecap="round" stroke-linejoin="round"/>
<path opacity="0.37" d="M156.224 197.605L161.273 188.96L123.927 198.505L118.321 207.326L156.224 197.605Z" fill="#F2F2F2"/>
<path d="M156.224 197.605L160.736 202.777L123.034 213.801L118.292 207.3L156.224 197.605Z" fill="#CCCCCC"/>
<path d="M342.8 185.365H277.982C277.83 185.364 277.681 185.328 277.546 185.26C277.41 185.192 277.292 185.093 277.201 184.972C277.11 184.851 277.048 184.711 277.019 184.562C276.991 184.413 276.997 184.26 277.038 184.114L277.448 179.356L343.169 179.202L343.744 184.15C343.778 184.294 343.78 184.444 343.749 184.588C343.718 184.733 343.655 184.868 343.564 184.985C343.473 185.102 343.357 185.197 343.225 185.263C343.093 185.328 342.947 185.364 342.8 185.365Z" fill="#E0E0E0" stroke="#E0E0E0" stroke-miterlimit="10"/>
<path d="M340.915 183.883H279.474C279.137 183.883 278.863 184.157 278.863 184.494V184.754C278.863 185.092 279.137 185.366 279.474 185.366H340.915C341.252 185.366 341.526 185.092 341.526 184.754V184.494C341.526 184.157 341.252 183.883 340.915 183.883Z" fill="#CCCCCC" stroke="#CCCCCC" stroke-miterlimit="10"/>
<path d="M280.027 183.88H340.817C341.365 183.882 341.893 183.679 342.3 183.312C342.706 182.944 342.96 182.438 343.012 181.892L346.4 148.219C346.431 147.912 346.397 147.602 346.301 147.309C346.204 147.015 346.048 146.746 345.841 146.516C345.634 146.287 345.382 146.104 345.1 145.978C344.818 145.852 344.513 145.786 344.205 145.785L276.207 145.577C275.895 145.574 275.587 145.639 275.302 145.765C275.016 145.892 274.762 146.077 274.554 146.31C274.346 146.543 274.19 146.817 274.097 147.115C274.003 147.412 273.975 147.727 274.012 148.036L277.839 181.932C277.9 182.469 278.158 182.965 278.561 183.324C278.965 183.683 279.487 183.881 280.027 183.88Z" fill="white" stroke="#EDEDED" stroke-linecap="round" stroke-linejoin="round"/>
<path opacity="0.48" d="M276.021 167.314L344.739 167.189L343.162 182.064C343.104 182.631 342.837 183.155 342.414 183.536C341.99 183.917 341.441 184.127 340.871 184.125L279.932 184.07C279.366 184.068 278.82 183.858 278.398 183.48C277.977 183.102 277.709 182.583 277.645 182.02L276.021 167.314Z" fill="#F4F4F4"/>
<path d="M279.182 148.153H341.222" stroke="#EDEDED" stroke-linecap="round" stroke-linejoin="round"/>
<path d="M279.428 180.296H340.978" stroke="#EDEDED" stroke-linecap="round" stroke-linejoin="round"/>
<g opacity="0.38">
<path opacity="0.38" d="M308.897 163.789C308.898 163.437 308.941 163.085 309.025 162.743C308.245 162.929 307.529 163.319 306.95 163.874C306.371 164.43 305.951 165.129 305.733 165.901C305.515 166.672 305.506 167.488 305.708 168.265C305.91 169.041 306.315 169.749 306.882 170.316C307.448 170.883 308.156 171.289 308.932 171.492C309.708 171.694 310.523 171.686 311.295 171.468C312.067 171.25 312.766 170.831 313.321 170.252C313.877 169.674 314.268 168.958 314.454 168.178C314.111 168.258 313.76 168.3 313.408 168.302C312.211 168.302 311.064 167.827 310.218 166.98C309.372 166.134 308.897 164.986 308.897 163.789Z" fill="#EDEDED"/>
</g>
<path d="M422.771 216.228L422.349 219.159L448.448 222.925L448.871 219.995L422.771 216.228Z" fill="#A4C7FF"/>
<path d="M447.357 219.552L446.874 222.899L447.819 223.035L448.302 219.688L447.357 219.552Z" fill="#8CB9F9"/>
<path d="M447.566 219.406L447.539 219.595L448.118 219.678L448.146 219.49L447.566 219.406Z" fill="#E2E2E2"/>
<path d="M440.438 218.046C440.427 218.132 440.45 218.218 440.502 218.287C440.554 218.355 440.631 218.401 440.717 218.412L448.034 219.47C448.12 219.482 448.206 219.459 448.275 219.407C448.343 219.355 448.389 219.277 448.4 219.192C448.411 219.107 448.388 219.021 448.336 218.953C448.284 218.884 448.207 218.839 448.122 218.826L440.804 217.772C440.72 217.761 440.634 217.784 440.566 217.835C440.498 217.887 440.452 217.962 440.438 218.046Z" fill="white"/>
<path d="M448.846 220.176L448.481 222.701L448.771 222.743L449.135 220.218L448.846 220.176Z" fill="#E2E2E2"/>
<path d="M449.19 220.059L448.77 222.988L450.138 223.185C450.331 223.215 450.527 223.206 450.717 223.159C450.906 223.112 451.084 223.027 451.24 222.91C451.396 222.793 451.527 222.646 451.626 222.478C451.724 222.31 451.788 222.123 451.814 221.93C451.843 221.737 451.834 221.541 451.787 221.353C451.74 221.164 451.655 220.987 451.539 220.831C451.422 220.675 451.276 220.544 451.108 220.446C450.941 220.347 450.755 220.283 450.562 220.257L449.19 220.059Z" fill="white"/>
<path d="M422.378 219.177L420.57 217.834L420.687 217.025L422.802 216.249L422.378 219.177Z" fill="white"/>
<path d="M420.255 217.183L420.687 217.025L420.57 217.834L420.204 217.56C420.173 217.537 420.148 217.506 420.133 217.47C420.117 217.434 420.112 217.394 420.117 217.356C420.122 217.317 420.138 217.281 420.162 217.25C420.187 217.22 420.219 217.196 420.255 217.183Z" fill="#8CB9F9"/>
<path d="M148.973 160.87L148 160.75C147.75 160.719 147.522 160.59 147.366 160.391C147.211 160.192 147.141 159.939 147.172 159.689L147.201 159.46C147.232 159.21 147.361 158.982 147.56 158.826C147.759 158.671 148.011 158.601 148.261 158.632L149.235 158.752L148.973 160.874L148.973 160.87Z" fill="white"/>
<path d="M148.163 160.795L176.012 164.235L176.277 162.088L148.428 158.648L148.163 160.795Z" fill="#FFC5C2"/>
<path d="M180.596 163.511L179.557 163.145L179.462 163.914L180.56 163.819C180.591 163.809 180.619 163.791 180.641 163.766C180.662 163.741 180.675 163.71 180.679 163.677C180.683 163.644 180.677 163.611 180.663 163.582C180.648 163.552 180.625 163.528 180.596 163.511Z" fill="#FFC5C2"/>
<path d="M175.792 163.46L176.008 163.625C176.017 163.63 176.025 163.637 176.03 163.646C176.035 163.655 176.038 163.665 176.038 163.676C176.038 163.686 176.035 163.697 176.03 163.706C176.025 163.715 176.017 163.722 176.008 163.727L175.759 163.833C175.743 163.84 175.73 163.85 175.72 163.864C175.71 163.878 175.704 163.894 175.702 163.91C175.7 163.927 175.703 163.944 175.709 163.959C175.716 163.975 175.727 163.988 175.741 163.998L176.041 164.225L179.469 163.928L179.557 163.145L176.297 162.047L175.953 162.197C175.937 162.203 175.923 162.213 175.913 162.226C175.902 162.239 175.895 162.254 175.893 162.271C175.891 162.288 175.893 162.305 175.9 162.32C175.906 162.335 175.917 162.349 175.931 162.358L176.147 162.523C176.156 162.528 176.164 162.535 176.169 162.544C176.174 162.553 176.177 162.564 176.177 162.574C176.177 162.585 176.174 162.595 176.169 162.604C176.164 162.613 176.156 162.62 176.147 162.625L175.902 162.732C175.886 162.738 175.872 162.748 175.862 162.761C175.851 162.775 175.845 162.791 175.842 162.807C175.84 162.824 175.842 162.841 175.849 162.857C175.856 162.873 175.866 162.886 175.88 162.896L176.085 163.054C176.095 163.059 176.104 163.068 176.111 163.078C176.117 163.088 176.12 163.1 176.12 163.112C176.12 163.124 176.117 163.136 176.111 163.147C176.104 163.157 176.095 163.165 176.085 163.171L175.85 163.27C175.825 163.262 175.798 163.264 175.775 163.277C175.751 163.289 175.734 163.31 175.726 163.335C175.718 163.361 175.721 163.388 175.733 163.411C175.746 163.435 175.767 163.452 175.792 163.46Z" fill="white"/>
<path d="M176.136 163.178C176.133 163.173 176.131 163.167 176.131 163.162C176.131 163.156 176.133 163.15 176.136 163.145C176.136 163.14 176.138 163.136 176.14 163.131C176.142 163.127 176.145 163.123 176.149 163.12C176.153 163.117 176.157 163.115 176.162 163.113C176.166 163.112 176.171 163.112 176.176 163.112L179.469 163.5C179.474 163.501 179.479 163.503 179.483 163.506C179.487 163.508 179.49 163.512 179.493 163.516C179.496 163.52 179.498 163.525 179.499 163.529C179.5 163.534 179.5 163.539 179.498 163.544C179.498 163.549 179.497 163.553 179.494 163.557C179.492 163.562 179.489 163.565 179.485 163.568C179.481 163.571 179.477 163.573 179.472 163.574C179.468 163.574 179.463 163.574 179.458 163.573L176.165 163.185L176.136 163.178Z" fill="#D7D8D9"/>
<path d="M176.07 163.716C176.068 163.712 176.066 163.707 176.066 163.701C176.066 163.696 176.068 163.691 176.07 163.687C176.069 163.682 176.07 163.677 176.071 163.672C176.073 163.667 176.076 163.663 176.079 163.66C176.083 163.656 176.087 163.653 176.092 163.652C176.096 163.65 176.101 163.65 176.106 163.65L179.451 163.698C179.456 163.698 179.461 163.699 179.466 163.701C179.47 163.703 179.474 163.706 179.478 163.71C179.481 163.714 179.484 163.718 179.486 163.723C179.487 163.728 179.488 163.733 179.487 163.738C179.487 163.743 179.486 163.747 179.484 163.752C179.483 163.756 179.48 163.76 179.476 163.763C179.473 163.766 179.469 163.768 179.464 163.77C179.46 163.771 179.455 163.772 179.451 163.771L176.106 163.723L176.07 163.716Z" fill="#D7D8D9"/>
<path d="M176.206 162.64C176.199 162.637 176.193 162.632 176.19 162.625C176.187 162.618 176.186 162.611 176.187 162.603C176.188 162.599 176.19 162.594 176.193 162.59C176.195 162.586 176.199 162.582 176.203 162.579C176.207 162.577 176.212 162.575 176.216 162.574C176.221 162.573 176.226 162.573 176.231 162.574L179.484 163.306C179.493 163.309 179.501 163.315 179.506 163.323C179.51 163.331 179.512 163.341 179.51 163.35C179.509 163.355 179.507 163.36 179.504 163.364C179.501 163.368 179.498 163.371 179.494 163.374C179.49 163.377 179.485 163.379 179.48 163.38C179.475 163.38 179.47 163.38 179.466 163.379L176.216 162.647L176.206 162.64Z" fill="#D7D8D9"/>
<path d="M148.085 160.871L150.09 161.118L150.376 158.801L148.371 158.553L148.085 160.871Z" fill="#F5D475"/>
<path d="M149.966 158.95L149.731 160.846L149.804 160.855L150.038 158.959L149.966 158.95Z" fill="#F4BF3B"/>
<path d="M148.691 158.793L148.457 160.689L148.53 160.698L148.764 158.802L148.691 158.793Z" fill="#F4BF3B"/>
<path d="M148.729 160.53L148.72 160.603L149.584 160.71L149.593 160.637L148.729 160.53Z" fill="#F4BF3B"/>
<path d="M148.789 160.146L148.78 160.219L149.645 160.325L149.654 160.253L148.789 160.146Z" fill="#F4BF3B"/>
<path d="M148.814 159.724L148.805 159.797L149.669 159.903L149.678 159.83L148.814 159.724Z" fill="#F4BF3B"/>
<path d="M148.872 159.343L148.863 159.415L149.728 159.522L149.737 159.449L148.872 159.343Z" fill="#F4BF3B"/>
<path d="M148.929 158.962L148.92 159.034L149.784 159.141L149.793 159.068L148.929 158.962Z" fill="#F4BF3B"/>
<path d="M196.264 199.329L171.617 188.517C170.571 188.059 169.254 188.275 168.69 189.004L167.849 190.032C167.267 190.764 167.644 191.716 168.69 192.177L193.337 202.985C194.38 203.446 195.697 203.23 196.264 202.502L197.087 201.474C197.684 200.749 197.307 199.786 196.264 199.329Z" fill="#DADADC"/>
<path d="M197.394 197.55L171.584 188.4C170.486 188.012 169.213 188.316 168.734 189.081L168.053 190.179C167.57 190.944 168.053 191.877 169.151 192.268L194.961 201.444C196.059 201.832 197.332 201.529 197.811 200.764L198.496 199.666C198.986 198.882 198.488 197.949 197.394 197.55Z" fill="#F1F1F3"/>
<path d="M198.602 194.871L171.526 188.184C170.377 187.902 169.177 188.33 168.847 189.139L168.379 190.288C168.05 191.097 168.716 191.987 169.861 192.268L196.937 198.952C198.086 199.237 199.286 198.809 199.615 198L200.084 196.847C200.413 196.038 199.751 195.153 198.602 194.871Z" fill="white"/>
<path d="M198.704 191.752L170.809 187.726C169.627 187.554 168.529 188.092 168.357 188.938L168.116 190.135C167.944 190.973 168.763 191.796 169.945 191.965L197.841 195.991C199.022 196.163 200.12 195.625 200.292 194.779L200.534 193.582C200.706 192.744 199.886 191.921 198.704 191.752Z" fill="#C59EFF"/>
<path d="M169.993 188.586C170.029 188.407 169.854 188.22 169.609 188.22C169.507 188.193 169.398 188.203 169.303 188.25C169.208 188.296 169.134 188.375 169.093 188.473C169.056 188.649 169.228 188.839 169.477 188.857C169.581 188.884 169.692 188.871 169.787 188.821C169.882 188.771 169.956 188.687 169.993 188.586Z" fill="#9463E0"/>
<path d="M360.91 171.351L358.25 169.826L356.713 172.51L359.373 174.035L360.91 171.351Z" fill="#EAEAEA"/>
<path d="M367.816 174.928L360.615 170.801L358.749 174.06L365.949 178.186L367.816 174.928Z" fill="#232323"/>
<path d="M355.874 172.731L352.604 174.156L354.103 177.598L357.373 176.173L355.874 172.731Z" fill="#232323"/>
<path d="M367.626 176.962C367.545 177.103 367.425 177.216 367.28 177.288C367.134 177.36 366.971 177.387 366.81 177.367C366.65 177.346 366.499 177.278 366.377 177.172C366.255 177.065 366.167 176.925 366.124 176.768C366.082 176.612 366.087 176.446 366.138 176.293C366.19 176.139 366.286 176.004 366.414 175.905C366.542 175.806 366.697 175.747 366.859 175.736C367.02 175.725 367.182 175.762 367.322 175.842C367.51 175.951 367.648 176.13 367.705 176.339C367.762 176.549 367.733 176.773 367.626 176.962Z" stroke="#232323" stroke-width="2" stroke-miterlimit="10"/>
<path d="M353.692 174.4L354.699 176.684" stroke="#111111" stroke-miterlimit="10"/>
<path d="M361.135 171.721L359.796 174.059" stroke="#111111" stroke-miterlimit="10"/>
<path d="M359.982 171.264L358.468 170.396L358.257 170.764L359.771 171.632L359.982 171.264Z" fill="white"/>
<path d="M359.144 172.735L357.63 171.867L357.419 172.236L358.933 173.104L359.144 172.735Z" fill="white"/>
<path d="M319.5 197.495L319.448 197.803C319.427 197.976 319.454 198.152 319.527 198.31C319.599 198.469 319.714 198.605 319.858 198.703L330.539 204.449C330.83 204.606 331.159 204.681 331.49 204.665C331.793 204.655 332.087 204.566 332.346 204.409L345.855 196.016C346.024 195.923 346.153 195.773 346.22 195.592C346.288 195.411 346.288 195.213 346.221 195.032L346.133 194.805L319.5 197.495Z" fill="#BD95FC"/>
<path d="M345.848 194.501L334.794 188.985C334.681 188.927 334.556 188.897 334.428 188.897C334.301 188.897 334.176 188.927 334.063 188.985L319.793 197.107C319.701 197.152 319.624 197.222 319.571 197.309C319.518 197.396 319.492 197.496 319.494 197.598C319.497 197.7 319.529 197.799 319.586 197.884C319.644 197.968 319.724 198.034 319.818 198.073L331.124 204.072C331.242 204.138 331.374 204.172 331.509 204.172C331.643 204.172 331.775 204.138 331.893 204.072L345.907 195.46C345.995 195.412 346.068 195.339 346.116 195.251C346.165 195.163 346.188 195.063 346.182 194.962C346.176 194.861 346.141 194.765 346.082 194.683C346.023 194.601 345.942 194.538 345.848 194.501Z" fill="#C59EFF"/>
<path d="M331.768 202.216L327.417 199.925C327.355 199.891 327.284 199.873 327.213 199.873C327.141 199.873 327.071 199.891 327.008 199.925L326.495 200.225C326.446 200.25 326.405 200.288 326.377 200.335C326.349 200.382 326.335 200.436 326.337 200.491C326.339 200.546 326.357 200.599 326.388 200.644C326.419 200.689 326.463 200.724 326.514 200.745L330.85 203.04C330.913 203.073 330.983 203.091 331.054 203.091C331.126 203.091 331.196 203.073 331.259 203.04L331.772 202.74C331.822 202.717 331.865 202.68 331.896 202.634C331.926 202.587 331.941 202.533 331.941 202.477C331.941 202.421 331.924 202.367 331.893 202.321C331.863 202.275 331.819 202.238 331.768 202.216Z" fill="#170F17"/>
<path d="M335.46 200.255L325.76 195.233C325.721 195.212 325.678 195.201 325.634 195.201C325.59 195.201 325.546 195.212 325.508 195.233L323.023 196.697C322.993 196.712 322.968 196.735 322.95 196.763C322.932 196.792 322.923 196.825 322.923 196.858C322.923 196.892 322.932 196.925 322.95 196.953C322.968 196.982 322.993 197.005 323.023 197.019L332.723 202.041C332.762 202.062 332.805 202.073 332.849 202.073C332.893 202.073 332.937 202.062 332.975 202.041L335.46 200.577C335.49 200.562 335.515 200.539 335.533 200.511C335.551 200.482 335.56 200.449 335.56 200.416C335.56 200.382 335.551 200.349 335.533 200.321C335.515 200.292 335.49 200.27 335.46 200.255Z" fill="white"/>
<path d="M321.442 197.4L326.045 199.87" stroke="#170F17" stroke-width="0.75" stroke-miterlimit="10"/>
<path d="M329.09 195.16C329.573 194.878 329.525 194.428 328.984 194.161C328.693 194.027 328.376 193.959 328.055 193.963C327.735 193.966 327.42 194.042 327.132 194.183C326.649 194.465 326.697 194.915 327.238 195.182C327.53 195.313 327.847 195.379 328.166 195.376C328.486 195.372 328.801 195.298 329.09 195.16Z" fill="white"/>
<path d="M331.926 196.573C332.409 196.291 332.361 195.841 331.819 195.573C331.528 195.44 331.211 195.373 330.891 195.377C330.571 195.381 330.256 195.455 329.968 195.595C329.485 195.877 329.533 196.327 330.074 196.595C330.365 196.728 330.682 196.795 331.002 196.791C331.322 196.787 331.638 196.713 331.926 196.573Z" fill="white"/>
<path d="M334.761 197.989C335.244 197.707 335.197 197.257 334.655 196.99C334.364 196.857 334.047 196.79 333.727 196.793C333.407 196.797 333.092 196.872 332.804 197.012C332.321 197.294 332.369 197.744 332.91 198.011C333.201 198.144 333.518 198.211 333.838 198.208C334.158 198.204 334.474 198.129 334.761 197.989Z" fill="white"/>
<path d="M331.343 193.842C331.823 193.561 331.775 193.11 331.234 192.843C330.942 192.71 330.625 192.643 330.305 192.647C329.985 192.65 329.67 192.725 329.382 192.865C328.899 193.147 328.947 193.597 329.488 193.864C329.78 193.996 330.098 194.063 330.418 194.059C330.739 194.055 331.054 193.981 331.343 193.842Z" fill="white"/>
<path d="M334.179 195.255C334.662 194.973 334.615 194.523 334.073 194.256C333.781 194.124 333.464 194.057 333.143 194.061C332.823 194.065 332.507 194.139 332.218 194.278C331.735 194.56 331.783 195.01 332.324 195.277C332.616 195.409 332.934 195.475 333.254 195.472C333.575 195.468 333.89 195.394 334.179 195.255Z" fill="white"/>
<path d="M337.015 196.672C337.498 196.39 337.451 195.94 336.909 195.672C336.617 195.54 336.3 195.474 335.979 195.478C335.659 195.481 335.343 195.555 335.054 195.694C334.575 195.976 334.622 196.426 335.16 196.694C335.452 196.826 335.77 196.892 336.09 196.888C336.411 196.884 336.727 196.81 337.015 196.672Z" fill="white"/>
<path d="M333.597 192.525C334.08 192.243 334.033 191.793 333.491 191.525C333.2 191.392 332.883 191.325 332.563 191.329C332.243 191.333 331.928 191.407 331.64 191.547C331.157 191.829 331.205 192.279 331.746 192.547C332.037 192.68 332.354 192.747 332.674 192.743C332.994 192.739 333.31 192.665 333.597 192.525Z" fill="white"/>
<path d="M336.429 193.937C336.912 193.656 336.865 193.205 336.323 192.938C336.032 192.805 335.715 192.738 335.395 192.742C335.075 192.746 334.76 192.82 334.472 192.96C333.989 193.242 334.037 193.692 334.578 193.959C334.869 194.093 335.186 194.16 335.506 194.156C335.826 194.152 336.142 194.077 336.429 193.937Z" fill="white"/>
<path d="M339.265 195.354C339.748 195.072 339.701 194.622 339.159 194.355C338.868 194.222 338.551 194.154 338.231 194.158C337.911 194.162 337.596 194.237 337.308 194.377C336.825 194.659 336.872 195.109 337.414 195.376C337.705 195.509 338.022 195.576 338.342 195.572C338.662 195.569 338.978 195.494 339.265 195.354Z" fill="white"/>
<path d="M337.6 199.406C338.079 199.12 338.032 198.674 337.494 198.403C337.202 198.271 336.885 198.204 336.564 198.208C336.244 198.212 335.928 198.286 335.639 198.425C335.156 198.71 335.204 199.157 335.745 199.428C336.037 199.56 336.355 199.626 336.675 199.622C336.996 199.618 337.311 199.544 337.6 199.406Z" fill="white"/>
<path d="M339.85 198.088C340.333 197.802 340.286 197.356 339.744 197.085C339.453 196.954 339.136 196.887 338.816 196.891C338.496 196.895 338.181 196.969 337.893 197.107C337.41 197.393 337.457 197.839 337.999 198.11C338.291 198.241 338.607 198.308 338.927 198.304C339.247 198.3 339.562 198.226 339.85 198.088Z" fill="white"/>
<path d="M342.105 196.77C342.584 196.485 342.537 196.038 341.995 195.767C341.704 195.636 341.387 195.57 341.067 195.574C340.747 195.577 340.432 195.651 340.144 195.789C339.661 196.075 339.708 196.521 340.25 196.792C340.542 196.924 340.859 196.991 341.18 196.987C341.5 196.983 341.816 196.909 342.105 196.77Z" fill="white"/>
<path d="M344.263 195.504C344.746 195.222 344.698 194.772 344.157 194.505C343.865 194.373 343.547 194.306 343.227 194.31C342.907 194.314 342.591 194.388 342.302 194.527C341.823 194.809 341.87 195.259 342.412 195.526C342.703 195.659 343.02 195.726 343.34 195.722C343.66 195.719 343.975 195.644 344.263 195.504Z" fill="white"/>
<path d="M335.73 190.303L341.409 193.136C341.94 193.399 341.987 193.839 341.515 194.113C341.231 194.252 340.919 194.327 340.603 194.33C340.286 194.334 339.973 194.267 339.686 194.135L334.007 191.302C333.48 191.039 333.433 190.599 333.905 190.325C334.188 190.185 334.499 190.111 334.815 190.107C335.131 190.103 335.444 190.17 335.73 190.303Z" fill="#9463E0"/>
</g>
<defs>
<radialGradient id="paint0_radial_125_13013" cx="0" cy="0" r="1" gradientUnits="userSpaceOnUse" gradientTransform="translate(169.334 55.6604) rotate(38.3788) scale(3.4947 3.49496)">
<stop stop-color="#FFBBB0"/>
<stop offset="0.4" stop-color="#FFBFB3"/>
<stop offset="0.76" stop-color="#FFC9BD"/>
<stop offset="1" stop-color="#FFD5C7"/>
</radialGradient>
<radialGradient id="paint1_radial_125_13013" cx="0" cy="0" r="1" gradientUnits="userSpaceOnUse" gradientTransform="translate(413.089 73.3845) rotate(-169.589) scale(4.17072 4.172)">
<stop stop-color="#FFBDB2"/>
<stop offset="0.4" stop-color="#FFC1B5"/>
<stop offset="0.76" stop-color="#FFCBBF"/>
<stop offset="1" stop-color="#FFD7C9"/>
</radialGradient>
<radialGradient id="paint2_radial_125_13013" cx="0" cy="0" r="1" gradientUnits="userSpaceOnUse" gradientTransform="translate(3098.23 -763.011) rotate(-16.6649) scale(89.6792 89.7026)">
<stop stop-color="#FFBBB0"/>
<stop offset="0.4" stop-color="#FFBFB3"/>
<stop offset="0.76" stop-color="#FFC9BD"/>
<stop offset="1" stop-color="#FFD5C7"/>
</radialGradient>
<linearGradient id="paint3_linear_125_13013" x1="312.438" y1="27.7547" x2="312.438" y2="23.3479" gradientUnits="userSpaceOnUse">
<stop stop-color="#FCDFD4"/>
<stop offset="0.01" stop-color="#F3D7CC"/>
<stop offset="0.09" stop-color="#C9B1A7"/>
<stop offset="0.17" stop-color="#A49086"/>
<stop offset="0.26" stop-color="#84746B"/>
<stop offset="0.35" stop-color="#6B5D55"/>
<stop offset="0.45" stop-color="#574C43"/>
<stop offset="0.57" stop-color="#493F37"/>
<stop offset="0.72" stop-color="#413830"/>
<stop offset="0.98" stop-color="#3F362E"/>
</linearGradient>
<linearGradient id="paint4_linear_125_13013" x1="17499.5" y1="574.121" x2="17494.1" y2="547.459" gradientUnits="userSpaceOnUse">
<stop stop-color="#FCDFD4"/>
<stop offset="0.01" stop-color="#F3D7CC"/>
<stop offset="0.09" stop-color="#C9B1A7"/>
<stop offset="0.17" stop-color="#A49086"/>
<stop offset="0.26" stop-color="#84746B"/>
<stop offset="0.35" stop-color="#6B5D55"/>
<stop offset="0.45" stop-color="#574C43"/>
<stop offset="0.57" stop-color="#493F37"/>
<stop offset="0.72" stop-color="#413830"/>
<stop offset="0.98" stop-color="#3F362E"/>
</linearGradient>
<clipPath id="clip0_125_13013">
<rect width="493" height="230" fill="white" transform="translate(1.09277 0.549316)"/>
</clipPath>
</defs>
</svg>
