<svg width="44" height="44" viewBox="0 0 44 44" fill="none" xmlns="http://www.w3.org/2000/svg">
<path d="M35.33 15.8062C35.33 8.26163 29.408 2.14563 22.103 2.14563C14.7979 2.14563 8.87598 8.26171 8.87598 15.8062C8.87598 19.2179 10.0871 22.3373 12.0894 24.7313H12.0893L14.9824 29.9758C15.7381 31.3749 16.0186 32.2782 17.2849 32.2782H26.7186C27.985 32.2782 28.3575 31.3269 29.021 29.9758L32.1167 24.7313H32.1165C34.1187 22.3373 35.33 19.2179 35.33 15.8062Z" fill="#FFE46A"/>
<path d="M9.694 17.4698C9.694 9.6735 15.5702 3.2299 23.1987 2.19711C22.8181 2.16309 22.4362 2.14591 22.0541 2.14563C14.7491 2.14563 8.82715 8.26172 8.82715 15.8062C8.82715 18.2889 9.46902 20.6164 10.5899 22.6226C10.0098 21.0114 9.694 19.2769 9.694 17.4698Z" fill="#FFF0B7"/>
<path d="M35.3298 15.8354C35.3298 13.1331 34.5698 10.6142 33.2589 8.4939C33.5396 9.60113 33.6815 10.739 33.6815 11.8812C33.6815 20.8577 24.9899 28.1682 14.1323 28.4643L14.9822 30.0051C15.7379 31.4041 16.0184 32.3075 17.2847 32.3075H26.7184C27.9848 32.3075 28.3573 31.3562 29.0208 30.0051L32.1165 24.7606H32.1163C34.1185 22.3665 35.3298 19.2471 35.3298 15.8354Z" fill="#FFDA00"/>
<path d="M27.6637 18.1502C27.6765 18.139 27.6893 18.1287 27.7021 18.1163C27.9417 17.8871 28.1389 17.5215 27.9738 17.1824C27.2967 15.7923 25.2264 15.3513 23.7178 15.8116C23.6414 15.8349 23.5674 15.8603 23.4954 15.8877C22.6737 15.4079 21.6534 15.2926 20.7453 15.581C20.6378 15.615 20.5323 15.655 20.4293 15.7008C19.9321 15.4103 19.3506 15.2654 18.7712 15.3214C17.5584 15.4387 16.5046 16.4223 16.2958 17.6204L16.2002 17.6796C17.0267 19.0151 19.202 22.8419 19.3414 24.4887C19.5171 26.5661 19.3416 32.2052 19.3397 32.262L20.3705 32.2945C20.3779 32.0605 20.5497 26.5386 20.3688 24.4017C20.2882 23.4489 19.7052 21.9303 18.636 19.8882C18.137 18.9349 17.6525 18.0981 17.3591 17.6043C17.562 16.9472 18.185 16.4142 18.8704 16.348C19.0792 16.3278 19.2909 16.3511 19.4936 16.4106C19.4173 16.5083 19.3506 16.6129 19.2942 16.7233C18.9464 17.4052 19.0917 18.2614 19.6322 18.7149C19.9523 18.9835 20.4174 19.0824 20.8462 18.9728C21.2456 18.8707 21.5543 18.6082 21.6931 18.2527C21.8178 17.9332 21.8072 17.5643 21.6615 17.1565C21.5772 16.9218 21.46 16.7003 21.3135 16.4986C21.7027 16.4237 22.1043 16.4457 22.4831 16.5626C22.3357 16.7323 22.2229 16.9212 22.1488 17.126C21.9903 17.5643 22.0604 18.0853 22.3317 18.4857C22.5655 18.8308 22.9208 19.0359 23.3069 19.0486C23.3198 19.0491 23.3327 19.0493 23.3455 19.0493C23.6837 19.0493 24.0047 18.9039 24.2532 18.6371C24.5451 18.3237 24.6937 17.8886 24.6506 17.4731C24.6232 17.2091 24.5292 16.9507 24.378 16.7111C25.4295 16.5201 26.4581 16.8754 26.9031 17.4146C26.6345 17.8615 26.0831 18.7991 25.5128 19.8883C24.4437 21.9306 23.8605 23.4492 23.78 24.4019C23.5991 26.5388 23.771 32.0607 23.7783 32.2947L24.8091 32.2621C24.8073 32.2054 24.6317 26.5666 24.8074 24.4888C24.9328 23.0063 26.7078 19.7583 27.6637 18.1502ZM20.7323 17.8777C20.7083 17.9393 20.6179 17.9667 20.5907 17.9736C20.4833 18.0011 20.3617 17.981 20.2949 17.9251C20.1218 17.7798 20.0841 17.4439 20.2127 17.1919C20.2549 17.1107 20.3084 17.036 20.3717 16.9699C20.5101 17.127 20.6202 17.3073 20.6903 17.5034C20.7474 17.6632 20.7627 17.7998 20.7323 17.8777ZM23.4986 17.9339C23.4684 17.9662 23.4071 18.0192 23.3406 18.0178C23.2691 18.0155 23.2126 17.9474 23.1852 17.907C23.0999 17.781 23.0724 17.6039 23.1185 17.4766C23.1716 17.3296 23.2741 17.2094 23.3938 17.1126C23.527 17.2631 23.6087 17.4249 23.6248 17.5796C23.6371 17.6974 23.5863 17.8398 23.4986 17.9339Z" fill="#FAAF63"/>
<path d="M27.1505 34.6072H17.0068C16.4396 34.6072 15.9756 35.0712 15.9756 35.6384V36.2363C15.9756 36.8035 16.4396 37.2675 17.0068 37.2675H20.2829C19.3061 37.631 18.2747 38.4952 18.2747 39.4973V39.8995C19.0587 40.7807 19.7888 42.3127 21.1795 42.3127H23.0607C24.1562 42.3127 24.9345 41.13 25.8825 39.8995V39.4973C25.8825 38.4952 24.8985 37.631 23.9448 37.2675H27.1505C27.7177 37.2675 28.1817 36.8035 28.1817 36.2363V35.6384C28.1817 35.0712 27.7177 34.6072 27.1505 34.6072Z" fill="#6B83A5"/>
<path d="M27.8784 34.6071H16.2783C15.7111 34.6071 15.2471 34.1431 15.2471 33.5759V32.978C15.2471 32.4108 15.7111 31.9468 16.2783 31.9468H27.8784C28.4456 31.9468 28.9097 32.4108 28.9097 32.978V33.5759C28.9097 34.1431 28.4456 34.6071 27.8784 34.6071ZM27.2763 38.8967V38.2989C27.2763 37.7317 26.8122 37.2676 26.245 37.2676H17.9117C17.3445 37.2676 16.8805 37.7317 16.8805 38.2989V38.8967C16.8805 39.4639 17.3445 39.928 17.9117 39.928H26.245C26.8122 39.928 27.2763 39.4639 27.2763 38.8967Z" fill="#ABBDDB"/>
</svg>
